<?xml version="1.0" encoding="UTF-8"?><svg id="Layer_1" xmlns="http://www.w3.org/2000/svg" viewBox="0 0 100 100"><path d="m41.46,61.19c-.12-1.89-.24-3.77-.35-5.59-.7.17-1.75.43-2.8.68-.07-.16-.14-.32-.21-.48.62-.49,1.2-1.05,1.87-1.46,1.09-.66,1.44-1.58,1.42-2.84-.07-4.65-.21-9.3-.01-13.94.15-3.45.82-6.87,1.17-10.31.1-1-.08-2.04-.17-3.06-.04-.44-.36-.89-.29-1.28.25-1.5-.09-2.71-1.54-3.48,2.15-1.2,3.48.29,3.35,2.99,5.16-.44,10.29-1.21,15.41-1.21,4.26,0,8.54.84,12.79,1.43,1.95.27,2.34.12,2.46-1.83.02-.3-.01-.63.11-.88.17-.36.44-.89.7-.92.33-.03.92.31,1.01.61.28.91.37,1.88.54,2.89,1.37-.66,2.83-1.71,4.68-.58-.27.22-.42.42-.61.49-3.23,1.19-3.36,3.88-2.92,6.67,1.28,8.1,1.02,16.17-.18,24.25-.14.96-.02,1.96-.02,3.06,1.05.34,2.18.71,3.5,1.14-1.21,1.08-2.56,1.02-3.63.61-1.49-.57-1.81-.13-2.01,1.28-.1.7-.73,1.31-1.12,1.96-.18-.07-.35-.14-.53-.21v-3.08c-6.77,1.31-13.34.48-19.89.16-3.03-.15-6.05-.67-9.06-1.13-1.73-.26-2.01-.14-2.34,1.62-.16.83-.38,1.65-.58,2.48-.25-.02-.5-.03-.76-.05Zm17.58-6.42c1.79,0,3.59.1,5.38-.02,3.37-.22,6.41-1.47,8.4-4.28,1.08-1.53,1.88-3.58,2-5.46.24-3.83.08-7.7-.18-11.53-.18-2.62-1.84-4.84-3.89-5.97-3.91-2.16-8.38-2.69-12.78-2.47-2.48.12-4.92,1.01-7.37,1.6-1.8.43-2.9,1.85-3.86,3.26-1.45,2.12-1.57,4.67-1.77,7.16-.32,4.03-.63,8.09.45,12.05.49,1.78,1.67,3.18,3.37,4.02,3.26,1.62,6.8,1.35,10.26,1.64Z" stroke-width="0"/><path d="m19.55,80.13c.11-1.2.23-2.39.35-3.7-1.05.15-1.93.27-2.81.4-.05-.09-.11-.18-.16-.27.36-.34.68-.79,1.1-.99,1.21-.55,1.42-1.46,1.43-2.73.07-6.53.27-13.07.38-19.6.06-3.51-.05-7.03.03-10.54.02-1.01-.28-1.53-1.12-1.94-.63-.31-1.18-.8-1.77-1.21.03-.15.07-.31.1-.46.84.08,1.68.17,2.52.24.48.04.96.05,1.45.07-.03-.45-.03-.9-.1-1.34-.18-1.05-.4-2.1-.6-3.15.16-.09.32-.18.48-.27.5.69,1.15,1.32,1.48,2.09.93,2.11,2.56,2.75,4.67,2.71,2.84-.04,5.69,0,8.53.04.83.01,1.8.07,1.78,1.24-.02,1.14-.96,1.16-1.8,1.25-2.72.32-5.43.71-8.16.98-1.66.17-2.4,1.5-2.97,2.67-.69,1.41-1.16,3.07-1.23,4.64-.18,4.3-.25,8.62-.06,12.92.11,2.44.5,4.97,1.35,7.22.61,1.62,1.77,3.1,3.88,3.72,6.4,1.88,12.77,1.63,19.2.49,1.44-.25,2.86-.5,3.7-1.93.02-.04.07-.08.11-.09,3.53-1.29,2.97-4.7,3.65-7.45.22-.9.19-1.87.42-2.77.1-.39.56-.69.86-1.04.29.39.81.76.84,1.17.18,3.31.26,6.62.38,9.93.04,1.07.13,2.14.2,3.2,1.36.21,2.7.41,4.05.62,0,.18,0,.36.01.54-.87.15-1.74.47-2.6.42-1.29-.07-2.39.05-2.9,1.29.74,1.28,1.47,2.55,2.2,3.81-.16.14-.31.27-.47.41-.97-.79-1.93-1.59-3.06-2.51-.4,1.31-.74,2.45-1.14,3.76-1.6-1.59-1.01-3.3-.72-5.05-3.25-.18-6.42-.41-9.59-.53-5.22-.2-10.44-.31-15.66-.5-1.54-.06-3.09-.23-4.62-.45-.99-.14-1.66.02-2.06,1.06-.25.64-.72,1.2-1.09,1.79-.15-.06-.3-.13-.45-.19Z" stroke-width="0"/></svg>