<?xml version="1.0" encoding="UTF-8"?><svg id="Layer_1" xmlns="http://www.w3.org/2000/svg" viewBox="0 0 100 100"><path d="m67.12,87.19c.06-.29-.07-.73-.28-.95-.52-.53-1.14-.96-1.71-1.44-2.05-1.72-3.88-3.64-4.67-6.26-.47-1.57-1.08-3.17-.47-4.88.69-1.95,1.58-3.77,3.02-5.32.68-.73,1.18-1.63,1.69-2.5,2.51-4.29,3.58-8.94,3.29-13.9-.12-2.1.17-4.13,1.16-5.98.79-1.48,1.59-3.08,3.53-3.37,1.68-.26,3.36-.51,5.04,0,.9.28,1.82.52,2.74.72.3.06.65-.09.98-.14-.06-.34-.07-.69-.19-1-.09-.22-.32-.41-.52-.57-1.43-1.14-3.01-1.94-4.87-2.06-.89-.06-1.78-.11-2.72-.17.15-.28.25-.52.4-.72,1.82-2.31,2.71-5,3.5-7.79.71-2.52,1.76-4.94,4.13-6.46.82-.53,1.63-1.08,2.41-1.67.24-.18.35-.53.52-.79-.32-.06-.71-.28-.96-.17-1.25.53-2.5,1.07-3.67,1.76-1.1.65-2.1,1.49-3.21,2.31-.32-1.08-.61-2.07-.9-3.07-.48-1.7-1.4-3.16-2.61-4.42-.2-.21-.62-.21-.94-.3-.05.35-.11.7-.14,1.05,0,.12.1.24.15.36,1.68,4.25,2.39,8.55,1.07,13.08-1.86,6.4-8.08,6.82-12.1,3.62-1.39-1.11-2.88-2.18-4.48-2.91-2.03-.93-3.66-2.17-4.94-3.99-1-1.41-1.24-2.81-.57-4.4,1.02-2.42,2.19-4.73,3.95-6.72.22-.24.17-.72.24-1.09-.38.06-.8.02-1.12.19-.54.29-1.06.66-1.49,1.09-1.42,1.41-2.8,2.86-4.24,4.33-.1-.2-.24-.48-.39-.75-1.2-2.27-2.51-4.46-4.88-5.7-.35-.18-.82-.12-1.23-.18.13.37.26.73.4,1.1.02.06.1.09.14.14,1.16,1.56,2.42,3.01,3.07,4.94,1.54,4.53-.5,8.11-4.39,10.35-2.94,1.69-5.63,3.66-7.62,6.48-3.9,5.53-4.96,11.65-4.01,18.27.42,2.94-.49,5.62-2.63,7.78-3.2,3.23-7.17,3.27-11.23,2.51-1.17-.22-2.22-1.06-3.36-1.51-.35-.14-.82.06-1.24.11.07.39,0,.94.23,1.15,1,.92,1.98,1.92,3.16,2.55,1.97,1.04,4.01,2.08,6.41,1.76-.04.28-.03.39-.07.46-1.8,3.2-1.78,6.55-.73,9.95.14.45.62,1.05,1,1.1.7.09.89-.61.99-1.22.04-.23.07-.45.1-.68.25-2.26.65-4.52,1.79-6.47,2.19-3.76,4.06-4.94,8.29-4.4.55.07,1.12.14,1.63.34,2.63,1.03,5.21,2.17,7.86,3.14,1.68.61,3.41,1.15,5.17,1.43,1.43.23,2.61.77,3.68,1.65.7.58,1.4,1.19,2,1.87,1.68,1.9,2.19,4.2,1.5,6.56-.46,1.56-1.49,2.95-2.27,4.41-.3.56-.64,1.13-.11,1.71.51.55,1.08.31,1.6-.02,1.99-1.26,3.61-2.88,4.68-5.01.34-.67.66-1.34.96-1.94,1.6.95,3.11,1.99,4.76,2.75.89.41,1.99.4,3.01.48.23.02.64-.32.7-.55Z" fill="#0095ff" stroke-width="0"/><path d="m57.08,11.32c-.22.2-.37.63-.33.93.11.73.36,1.44.54,2.17.64,2.6.99,5.23.09,7.81-.54,1.55-.99,3.2-2.49,4.22-1.71,1.17-3.5,2.12-5.57,2.52-.98.19-1.92.62-2.84,1.03-4.56,1.99-8.16,5.12-10.84,9.3-1.13,1.77-2.57,3.24-4.46,4.16-1.51.73-3.1,1.55-4.84.65-1.51-.78-3.01-1.57-4.07-2.97-.57-.75-1.16-1.49-1.79-2.19-.21-.23-.58-.31-.87-.46-.15.31-.35.6-.43.92-.06.23.02.52.09.76.49,1.76,1.29,3.34,2.73,4.54.68.57,1.37,1.14,2.1,1.74-.28.13-.51.28-.75.35-2.83.79-5.14,2.45-7.42,4.24-2.06,1.62-4.33,2.96-7.14,2.79-.97-.06-1.95-.09-2.93-.07-.3,0-.59.22-.89.34.22.24.41.64.68.7,1.32.3,2.66.6,4,.73,1.28.12,2.57.02,3.95.02-.38,1.06-.72,2.04-1.08,3.01-.61,1.66-.73,3.37-.49,5.11.04.29.38.53.58.8.24-.25.5-.5.73-.77.07-.09.06-.25.09-.38,1.14-4.43,3.1-8.32,6.83-11.21,5.27-4.08,10.54-.76,11.91,4.2.47,1.71,1.05,3.45,1.91,4.99,1.09,1.94,1.68,3.91,1.64,6.13-.03,1.73-.65,3-2.13,3.89-2.25,1.35-4.56,2.54-7.15,3.11-.32.07-.56.49-.84.74.34.18.66.45,1.02.5.61.08,1.25.09,1.85,0,1.98-.3,3.95-.66,5.98-1.01-.03.22-.08.53-.13.84-.36,2.54-.6,5.08.59,7.48.17.35.59.58.89.86.11-.37.22-.75.32-1.12.02-.06-.03-.13-.03-.19-.02-1.94-.18-3.85.42-5.8,1.42-4.57,5.17-6.26,9.63-5.78,3.37.36,6.71.36,9.97-.76,6.41-2.18,10.86-6.5,14-12.41,1.39-2.63,3.71-4.25,6.7-4.74,4.48-.73,7.72,1.58,10.55,4.58.82.87,1.17,2.16,1.83,3.2.2.31.7.44,1.07.65.17-.36.55-.76.49-1.07-.27-1.33-.47-2.72-1.06-3.92-.98-2-2.02-4.04-4.15-5.2.2-.2.25-.3.33-.33,3.34-1.53,5.3-4.24,6.45-7.61.15-.44.12-1.21-.16-1.48-.51-.49-1.08-.03-1.52.4-.16.16-.33.32-.48.49-1.53,1.68-3.19,3.27-5.26,4.18-3.98,1.75-6.19,1.6-9.3-1.32-.4-.38-.82-.77-1.12-1.23-1.52-2.38-2.94-4.82-4.51-7.17-.99-1.48-2.08-2.94-3.34-4.2-1.02-1.02-1.66-2.16-2-3.5-.23-.88-.43-1.78-.52-2.69-.24-2.53.7-4.69,2.64-6.19,1.29-.99,2.94-1.51,4.43-2.23.58-.28,1.18-.54,1.09-1.31-.09-.75-.69-.89-1.3-.93-2.35-.15-4.61.21-6.73,1.29-.66.34-1.32.69-1.91,1.01-.74-1.71-1.35-3.44-2.23-5.02-.47-.86-1.38-1.49-2.15-2.16-.17-.15-.71-.12-.88.03Z" stroke-width="0"/><path d="m49.22,48.98c-1.33,0-2.58-.02-3.82,0-1.11.02-1.48-.31-1.53-1.46-.05-1.04.33-1.46,1.39-1.51,1.05-.05,2.11-.1,3.16-.09.74,0,.99-.25,1.11-1.03.52-3.47,1.39-6.84,3.69-9.63,1.2-1.45,2.78-2.23,4.65-2.35,1.26-.08,2.42.88,3.03,2.53.55,1.49,1.04,3.03-.3,4.39-.71.72-2.07.72-2.71.08-.68-.68-.67-1.77.07-2.6.47-.52,1.2-1.07.53-1.77-.63-.66-1.39-.11-1.99.28-.9.57-1.53,1.41-1.67,2.47-.3,2.34-.52,4.69-.79,7.24,1.59-.07,2.99-.07,4.36-.22,1.82-.2,2.53.54,2.08,2.32-.19.77-.69,1.11-1.45,1.13-1.34.02-2.68.11-4.02.04-.88-.04-1.23.16-1.29,1.1-.18,2.61-.37,5.23-.74,7.82-.35,2.44-1.17,4.72-3.24,6.32-1.61,1.24-3.13,1.36-4.9.39-1.71-.94-2.98-2.26-3.81-4.04-.74-1.58-.34-3.03.52-4.35.72-1.11,1.65-1.22,2.94-.6.93.45,1.43,1.63,1.13,2.69-.08.27-.2.54-.33.79-.62,1.15-.47,2.12.44,2.78.8.59,2.15.34,2.94-.49.89-.94,1.25-2.08,1.19-3.33-.1-2.04-.26-4.08-.41-6.12-.07-.92-.15-1.83-.24-2.79Z" fill="#fff" stroke-width="0"/></svg>