<?xml version="1.0" encoding="UTF-8"?><svg id="Layer_1" xmlns="http://www.w3.org/2000/svg" viewBox="0 0 100 100"><path d="m90.74,50.38c-.25-.19-.73-.25-1.03-.14-.73.27-1.41.68-2.12,1.02-2.54,1.21-5.17,2.14-8.03,1.76-1.71-.23-3.51-.34-4.88-1.67-1.57-1.51-2.92-3.16-3.78-5.21-.4-.97-1.05-1.84-1.66-2.7-3.02-4.27-7.01-7.31-11.89-9.19-2.06-.79-3.89-1.96-5.23-3.71-1.08-1.4-2.26-2.86-1.7-4.85.48-1.72.97-3.44,2.2-4.83.66-.75,1.29-1.51,1.88-2.31.19-.26.2-.66.29-1-.35-.09-.69-.24-1.04-.25-.25,0-.53.13-.77.25-1.71.88-3.17,2.04-4.09,3.77-.44.83-.88,1.65-1.35,2.53-.2-.26-.39-.46-.52-.7-1.42-2.75-3.62-4.77-5.95-6.74-2.1-1.78-3.97-3.83-4.4-6.76-.15-1.02-.32-2.03-.55-3.03-.07-.31-.35-.57-.54-.85-.2.28-.57.56-.58.85-.03,1.43-.06,2.87.1,4.28.15,1.34.52,2.66.82,4.08-1.17-.17-2.25-.31-3.33-.47-1.84-.28-3.63-.03-5.37.58-.29.1-.47.5-.7.77.31.2.62.41.94.59.11.06.27,0,.41.01,4.8.24,9.23,1.42,13,4.65,5.32,4.56,3.03,10.7-1.79,13.17-1.67.85-3.34,1.81-4.74,3.03-1.77,1.54-3.67,2.56-5.97,3-1.79.34-3.23-.03-4.47-1.37-1.87-2.03-3.58-4.16-4.73-6.71-.14-.31-.62-.48-.94-.71-.11.39-.33.78-.3,1.16.05.64.17,1.3.4,1.91.73,1.98,1.52,3.93,2.31,5.94-.23.01-.56.03-.89.05-2.69.17-5.36.47-7.58,2.21-.32.25-.47.73-.7,1.1.41.03.82.07,1.22.09.06,0,.13-.06.19-.07,2-.43,3.93-1.01,6.07-.8,5.01.49,7.56,4,8.01,8.7.34,3.55,1.06,6.99,2.9,10.12,3.61,6.14,9.01,9.81,15.77,11.78,3,.88,5.17,2.91,6.31,5.9,1.7,4.46.02,8.29-2.47,11.85-.72,1.03-1.98,1.66-2.91,2.56-.28.27-.3.82-.44,1.24.41.1.9.41,1.21.28,1.31-.56,2.71-1.07,3.81-1.92,1.86-1.44,3.73-2.94,4.48-5.38.25.16.36.2.41.27,2.29,3.12,5.5,4.55,9.22,5.02.49.06,1.27-.14,1.49-.48.4-.63-.2-1.12-.74-1.48-.2-.13-.4-.27-.61-.39-2.06-1.22-4.05-2.59-5.42-4.53-2.65-3.73-2.97-6.04-.62-9.86.31-.5.62-1.01,1.03-1.41,2.13-2.07,4.34-4.06,6.42-6.17,1.32-1.34,2.59-2.77,3.61-4.33.84-1.27,1.87-2.17,3.18-2.81.86-.42,1.74-.83,2.66-1.11,2.55-.78,4.98-.28,6.94,1.41,1.3,1.11,2.18,2.71,3.24,4.09.41.53.8,1.1,1.59.85.75-.25.77-.9.68-1.54-.35-2.46-1.2-4.71-2.77-6.66-.49-.61-.99-1.21-1.44-1.76,1.6-1.12,3.26-2.12,4.7-3.36.78-.67,1.25-1.74,1.77-2.67.12-.21-.02-.75-.22-.9Z" stroke-width="0"/><ellipse cx="50.03" cy="53.35" rx="18.2" ry="20.54" transform="translate(-21.19 70.01) rotate(-60)" fill="#fff" stroke-width="0"/><ellipse cx="44.76" cy="53.68" rx="9.24" ry="10.89" stroke-width="0"/><path d="m44.12,47.66c.6-.43.68-.41,1.08.19.27.43.32,1.03.3,2.95-.03,1.33,0,3.98.11,5.93.19,3.9.11,4.14-1.11,4.01l-.6-.08-.22-5.23c-.27-6.12-.22-7.34.43-7.77Z" fill="#fff" stroke-width="0"/></svg>