<?xml version="1.0" encoding="UTF-8"?><svg id="Layer_1" xmlns="http://www.w3.org/2000/svg" viewBox="0 0 100 100"><path d="m64.7,75.97v3.54h-28.85v-3.54c2.89,0,4.74-.4,5.53-1.19s1.19-2.46,1.19-5v-22.57c0-2.01-.41-3.23-1.24-3.67-.83-.44-1.92-.66-3.27-.66-.59,0-1.36.06-2.3.18v-3.72l13.27-2.48h8.85v32.66c0,1.71.16,3.04.49,3.98.32.94.97,1.59,1.95,1.95.97.35,2.43.53,4.38.53Zm-14.69-58.85c2.83,0,4.99.75,6.46,2.26,1.47,1.5,2.21,3.5,2.21,5.97s-.74,4.57-2.21,6.11c-1.47,1.53-3.63,2.3-6.46,2.3-2.66,0-4.73-.75-6.24-2.26-1.5-1.5-2.26-3.52-2.26-6.06s.74-4.56,2.21-6.06c1.47-1.5,3.57-2.26,6.28-2.26Z" stroke-width="0"/></svg>