<?xml version="1.0" encoding="UTF-8"?><svg id="Layer_1" xmlns="http://www.w3.org/2000/svg" viewBox="0 0 100 100"><path d="m72.8,69.91c-2-4-7-18-7-38,0-3,0-4-3-5-6.63-2.03-20.86-1.74-30.6.47-15.5,1.68-13.19,22.21-9.89,33.72h0c1.61,5.95,5.85,15.62,8.58,20.76,2.09,3.95,7.09,2.57,11.91,2.05,9-1,24-6,28-8s4-2,2-6Z" stroke-width="0"/><path d="m30.72,31.81c.5-.12.99-.22,1.49-.33,2.18,2.27,4.04,5.21,3.59,8.44-1.93,0-7.78.31-12.07,2.92-.38-5.74,4.21-10.37,6.99-11.02Z" fill="#fff" stroke-width="0"/><path d="m69.01,72.34c-5.14,2.35-24.86,9.19-34.02,7.74-5.1-9.21-9.93-20.23-11-33.75,4.13-3.34,10.01-3.47,14.42-3.41.91-4.3.49-8.14-2.83-12.11,6.61-1.55,22.18-1.7,26.21,0-.52,11.86,3.09,33.21,7.64,41.33-.14.07-.28.14-.42.21Z" fill="#fff" stroke-width="0"/><path d="m72.76,27.53c.97-1.13,2.3-2.31,3.05-2.81,1.44-1,2.25-2.25,2.28-3.5.02-.96-.43-1.85-1.3-2.52-1.82-1.3-2.72-.72-6.03,1.46-2.06,1.32-3.04,1.65-3.4,1.74-.26-.45-.72-1.49-1.06-2.77-1.86-5.91-3.5-5.75-4.03-5.69l-.22.05c-.65.22-1.59,1.23-2.1,2.06-.83,1.17-1,2.84-.59,5.81.24,1.33.37,2.48.4,3.15-.72-.19-2.06-.73-3.72-1.73-1.27-.75-2.53-.95-3.64-.59-1,.33-1.78,1.09-2.26,2.2-.38.89-.39,1.79-.02,2.6.61,1.33,2.23,2.38,4.98,3.23.97.26,1.73.57,2.18.82-1.11,1.13-4.21,3.37-5.24,3.55-1.18.29-1.79,2.22-1.83,2.35-.69,1.72-.32,2.75,1.29,3.55.86.4,3.13,1.48,4.73-.47.81-1.06,4.19-3.56,5.74-4.47.21.69.52,1.85.89,3.52.8,4.3,1.29,6.39,3.41,6.39.21,0,.43-.02.68-.06,1.08-.13,1.9-.57,2.44-1.29.81-1.08.97-2.74.54-5.35-.21-1.65-.24-2.64-.21-3.15.41.03,1.03.13,1.66.36,2.93,1.14,4.58.31,5.14-.84.82-1.7-.5-4-3.24-5.61l-1.66-.91,1.07-.98.08-.09Z" stroke-width="0"/><path d="m75.6,20.31c-.66-.47-.68-.49-3.75,1.53-3.75,2.4-4.92,2.27-5.58,1.84-.85-.63-1.61-2.89-1.9-4-.8-2.55-1.53-3.71-1.9-4.11-.22.22-.56.59-.83,1.04l-.05.07c-.5.68-.58,2.03-.26,4.36.26,1.42.65,4,.25,4.79-.12.29-.41.55-.79.67-1.55.5-5.1-1.59-5.8-2.01-.74-.44-1.45-.58-1.99-.41-.44.15-.8.51-1.04,1.08-.21.49-.13.77-.04.97.2.44.95,1.29,3.71,2.15.76.2,3.4.98,3.88,2.16l.07.26c.19,1.7-5.24,5.26-6.93,5.78-.14.15-.4.56-.56,1.11-.25.63-.22.79-.22.8h0s.1.1.5.3c1.7.8,2.03.39,2.28.09.35-.46,5.92-5.49,7.97-5.49.16,0,.3.03.42.1l.17.1.12.16c.13.18.53.71,1.49,5.03.91,4.9,1.22,4.85,1.84,4.75.73-.09.99-.33,1.12-.51.44-.59.49-1.88.16-3.86-.55-4.24-.03-4.77.28-5.08l.15-.13c.86-.58,2.96-.02,3.7.24,1.73.67,2.52.4,2.64.16.2-.41-.32-1.76-2.43-3l-4.09-2.23,3.09-2.83c1.13-1.31,2.56-2.55,3.41-3.11.86-.6,1.39-1.31,1.4-1.89,0-.12.01-.48-.49-.86Z" fill="#ffaf93" stroke-width="0"/></svg>