<?xml version="1.0" encoding="UTF-8"?><svg id="Layer_1" xmlns="http://www.w3.org/2000/svg" viewBox="0 0 1000 1000"><path d="m900.53,582.62c7.16-19.48,11.22-39.63,13.34-60.24,2.45-23.83-1.93-46.71-9.16-69.23-.6-1.86-1.33-3.68-2-5.52-3.45-7.81-6.69-15.69-6.79-24.43,0-.18.03-.36.07-.56.89-6.85-.97-10.75,0-14.64,1-4-.65-11.07-.65-11.07,0,0,0,0,0,0-.18-.68-.35-1.36-.49-2.05-2.73-13.4-8.05-25.57-17.12-35.93-2.32-2.66-2.93-5.61-2.42-9.05,2.08-14.12,4.3-28.17,2.99-42.59-1.28-14.17-3.46-28.03-9.32-41.11-4.97-11.38-5.43-14.24-9.71-20.21-2.41-3.77-5.32-7.26-5.33-12.2-.02-7.51-1.08-14.94-3-22.21-2.91-10.98-6.4-21.67-13.57-30.81-6.03-7.69-12.35-14.99-19.79-21.45-10.41-9.04-22.65-13.54-35.75-16.49-2-.45-4.17-1.21-5.67-2.51-2.2-1.91-3.88-4.42-5.75-6.69-3.58-4.35-6.58-9.36-10.79-12.98-19.06-16.4-41.41-21.74-66.04-18.14-4.31.63-8.11.04-11.68-2.35-1.06-.71-2.16-1.36-3.16-2.14-8.56-6.7-18.53-9.48-29.14-10.26-4.33-.32-8.7-.05-13.2-.05,0,0-5.41.31-11.27,3.24,0,0,0,0,0,0-3.27,1.8-6.49,3.51-9.64,5.33-10.55,6.06-18.9,14.48-24.64,25.1-3.61,6.68-9.29,9.12-15.93,10.52-5.94,1.25-11.93,2.27-17.91,3.31-13.13,2.27-24.47,8.4-35.08,16.15-4.22,3.08-8.57,5.98-12.85,8.98-1.73,1.21-3.55,1.59-5.61.97-3.11-.93-6.28-1.65-9.37-2.63-11.84-3.72-24.03-5.07-36.36-5.3-5.63-.11-10.03-2.59-12.81-7.01-7.07-11.26-16.97-19.54-27.26-27.56-12.87-10.03-27.81-14.75-43.57-17.54-1.66-.29-3.33-.54-5.44-.88,0,0-7.68-.36-20.06,1.31-8.03,1.22-15.83,3.57-22.04,9.11-3.08,2.74-6.04,3.16-9.7,1.98-3.09-1-6.19-2.18-9.37-2.61-8.41-1.11-16.83-1.85-25.31-.21-10.19,1.97-20.14,4.49-29.07,10.05-18.36,11.42-30.44,27.91-38.34,47.72-1.93,4.85-4.64,8.88-9.03,11.95-6.7,4.68-14,8.57-19.76,14.57-.08.08-.17.15-.26.22-1.79,1.5-12.4,10.63-19.31,22.03-9.96,13.81-16.86,28.84-22.56,44.38-7.84,21.34-11.01,43.5-9.86,66.21.36,7.12-1.98,12.73-6.93,17.84-12.8,13.22-22.33,28.41-26.43,46.62-.49,2.18-.97,4.36-1.53,6.9-.26,11.16-.13,20.58,1.87,28.58,2,8,2.89,18-.05,24,0,0,0,0,0,.01,0,0,0,0,0,0-2.94,5.99-3.38,7-3.38,7-.21.86-.3,1.77-.66,2.56-6.01,13.12-8.45,27.22-10.92,41.26-.82,4.66-.36,9.59-.08,14.37.41,7.19.89,14.4,1.86,21.53,1.16,8.6,4.74,16.52,7.69,24.61,1.11,3.03,2.16,6.15,2.69,9.32.34,1.99.1,4.31-.62,6.2-5.23,13.67-8.57,27.8-10.33,42.27-.59,4.86-.11,9.86-.08,14.8,2.88,24.08,6.88,33.08,14.54,51.44,2.94,5.58,5.95,10.99,8.67,16.53,1.99,4.04,2.45,8.3,1.1,12.77-1.22,4.05-2.14,8.2-3.05,12.34-1.72,7.9-2.81,15.96-2.01,23.99,2.17,21.74,9.33,41.61,23.84,58.31,5.29,6.1,11.28,11.64,18.82,14.86,8.58,3.66,17.39,6.74,26.81,7.62,1.37.13,2.71.6,3.99.9.41,1.2.72,2.14,1.06,3.07,2.48,6.77,4.92,13.56,8.99,19.6,7.58,11.24,16.58,21.15,27.82,28.82,8.37,5.72,17.44,9.59,27.43,10.72,1.89.16,3.42.27,4.46.32.18,0,.36.02.55.02,0,0,0,0,0,0,8.14.24,11.86-.24,19.46-2.53,9.09-2.88,17.72-6.68,25.01-13.03.42-.37.89-.7,1.37-.99,3.13-1.96,5.58-1.54,8.4.81,13.08,10.87,26.93,20.01,44.69,21.29,4.71.34,9.33.33,13.92-.31,9.63-1.34,19.37-2.42,28.22-6.96,4.65-2.38,9.14-5.11,13.93-7.17,6.38-2.75,11.75-6.77,16.42-11.76,3.77-4.02,7.58-8.05,10.85-12.47,3.24-4.39,7.19-6.36,12.58-6.42,8.54-.09,16.97-1.37,24.85-4.72,9.53-4.06,18.3-9.51,26.31-16.11,3.8-3.14,8.51-3.23,12.24-.14,16.4,13.56,34.67,23.23,55.8,27.1,5.96,1.09,11.23,3.53,14.65,9.07,2.25,3.65,5.47,6.47,9.1,8.76,4.06,2.55,8.14,5.08,12.27,7.5h0c.47.28.91.54,1.28.84,2.28,1.43,7.26,4.21,12.19,4.75,7.98.32,15.6,1.14,23.17.83,14.12-.59,27.68-3.77,40.13-10.81,5.29-2.99,10.54-6.06,15.87-8.97,5.25-2.87,10.9-3.92,16.81-2.84,10.25,1.87,20.26.78,30.14-2.19,0,0,0,0,0,0,7.2-2.75,12.16-5.35,12.16-5.35h0c14.81-9.15,25.78-21.86,34.16-36.93,1.92-3.44,3.28-7.19,4.97-10.77,2.35-4.97,5.57-9.37,10.64-11.63,4.75-2.12,9.77-3.82,14.84-4.96,7.1-1.59,13.14-5.06,18.95-9.12,13.94-9.72,24.47-22.55,33.26-36.91,2.97-4.85,4.96-10.12,6.21-15.7,2.61-11.66,4.13-23.3,2.08-35.3-.79-4.62,1.87-8.54,4.85-11.06,15.09-12.03,20.09-40.03,20.09-57.03s-4.15-30.52-4.15-30.52h0c-2.07-3.1-3.4-5.88-2.17-9.22,1.56-4.24,3.29-8.41,4.85-12.64Zm-37.52,6.48c1.26.11,2.54-.02,3.81-.08,7.24-.39,12.23,3.04,15.14,9.4,6.47,14.15,9.4,28.88,7.53,44.53-1.1,9.22-3.06,18.09-7.18,26.42-1.09,2.2-1.73,5.02-5.15,4.34-.09,4.98-2.53,7.61-6.53,9.48-1.07-1.49-1.85-2.84-2.88-3.96-3.05-3.32-6.16-6.58-9.33-9.77-.99-1-2.34-1.95-3.76-.8-1.66,1.34-.52,2.76.17,4.15,1.82,3.66,3.62,7.32,5.37,11.01,3.81,8.05,4.03,16.64,3.68,25.29-.85,20.98-9.35,38.81-22.87,54.43-7.32,8.46-16.35,14.76-26.88,18.69-5.25,1.96-10.65,3.51-16.4,5.38.99-7.48,2.56-14.28,5.39-20.78,1.24-2.85,2.31-5.77,3.35-8.69.65-1.83,1.03-3.73,0-6.35-1.75,1.54-3.37,2.64-4.58,4.08-9.21,10.91-16.75,22.73-19.83,36.96-.95,4.42-2.2,8.77-3.34,13.14-2.57,9.86-7.15,18.76-13.44,26.7-2.32,2.93-5.29,5.62-8.5,7.51-6.32,3.71-12.86,7.15-19.6,10-3.95,1.67-8.44,2.45-12.75,2.81-5.61.46-11.3.27-16.95.02-3.79-.17-6.93-2.2-9.77-4.66-1.45-1.26-1.72-2.8-1.49-4.6.59-4.62,1.19-9.24,1.67-13.88.16-1.56-.03-3.16-.07-5.12-1.16.4-1.87.42-2.13.77-3.27,4.4-7.15,8.34-9.28,13.58-2.27,5.6-2.22,10.99.36,16.41.3.63.55,1.3.96,2.27-2.43,2.93-4.6,6.3-7.47,8.91-12.02,10.91-26.07,17.23-42.48,17.76-.14,0-.28-.01-.42,0-13.78,1.73-25.6-3.39-36.49-10.96-12.48-8.68-19.94-20.61-21.24-35.99-.58-6.87-.88-13.76-1.36-20.64-.07-1.08-.4-2.13-.62-3.22-7.79,2.14-14.44,15.61-14.94,30.08-5.8,1.3-11.74,1.64-17.38-.49-5.12-1.93-10.23-4.21-14.79-7.18-7.13-4.64-12.95-10.88-18.69-17.72.87-1.7,1.76-3.42,2.62-5.16,4.65-9.35,3.74-18.9.94-28.49-.26-.91-.85-1.72-1.28-2.58-.41.26-.81.51-1.22.77-.19.87-.48,1.73-.55,2.61-.29,3.24-.39,6.49-.79,9.72-.24,1.94-.56,3.98-1.4,5.71-3.66,7.53-7.84,14.74-14.38,20.24-8.29,6.97-17.1,13.21-27.94,15.35-12.97,2.55-26.03,3.67-39.08.03-4.65-1.3-9.17-2.79-13.13-5.66-.8-.58-1.68-1.05-2.54-1.52-5.93-3.26-11.83-6.58-17.82-9.72-1.41-.74-3.16-1.14-4.75-1.15-1.78-.01-2.57,1.49-1.8,3,2.31,4.5,4.35,9.28,7.42,13.21,4.14,5.3,9.16,9.91,14.03,15.07-3,4.78-6.23,10.07-9.6,15.25-7.59,11.66-18.64,18.1-31.92,21.37-8.56,2.11-17.08,2.08-25.64.51-7.92-1.45-15.25-4.55-21.38-9.75-6.56-5.57-12.92-11.42-18.92-17.58-5.58-5.73-9.1-12.9-11.98-20.33-1.42-3.67-2.62-4.86-4.7-4.3-2.41.65-3.25,3.05-1.89,6.79,2.85,7.82,5.91,15.56,8.89,23.33.25.65.54,1.28.92,2.19-1.02.77-1.96,1.6-3.01,2.25-9.95,6.15-20.35,11.09-32.27,11.9-4.71.32-9.3-.2-13.79-1.71-10.4-3.5-19.44-9.02-26.6-17.45-11.55-13.6-20.01-28.65-22.77-46.61-1.47-9.6-1.13-19.15-.56-28.75.16-2.76-.17-5.63-.81-8.33-.61-2.63-2.32-3.04-4.38-1.22-1.46,1.29-2.98,2.77-3.81,4.48-4.49,9.31-8.42,18.81-8.52,29.41-.03,3.88-.14,7.76-.22,11.89-9.15-.83-17.47-3.92-24.99-9.2-5.73-4.03-10.54-8.99-14.42-14.81-9.79-14.69-15.37-30.88-15.96-48.51-.43-12.92,2.02-25.59,4.91-38.17,1.65-7.15,3.32-14.33,4.37-21.58.7-4.85.33-9.86.44-14.79,0-.14-.02-.28-.04-.42-.32-1.52-.51-3.4-2.37-3.58-2.13-.21-2.59,1.74-3.18,3.35-2.16,5.89-4.36,11.76-6.89,18.59-11.19-17.05-17.81-34.52-18.48-53.86-.65-18.86,1.24-37.4,9.77-54.73,3.6,2.77,6.71,5.44,10.1,7.7,2.33,1.55,4.99,2.62,7.59,3.71,1.33.56,2.83.61,3.71-.98.89-1.59.04-2.78-1.15-3.65-9.03-6.64-14.86-15.82-19.94-25.49-4.81-9.17-7.79-18.93-9.68-29.19-3.29-17.83-.61-35.13,2.83-52.53,3.72-18.78,11.8-35.57,22.31-51.35,3.28-4.93,6.72-9.75,10.05-14.65,1.03-1.52,2.05-3.09,1.07-5.31-3,.02-5.31,1.56-7.33,3.51-4.26,4.12-8.46,8.31-12.61,12.55-.77.79-1.2,1.91-1.79,2.88l-1-.71c-.21-.78-.54-1.56-.6-2.35-.86-11-1.36-22,.02-33.01,1.33-10.61,5.24-20.16,11.06-29.05,7.37-11.25,15.24-22.12,24.38-32.01,6.27-6.78,11.27-14.5,16.25-22.21,2.96-4.58,4.27-9.82,5.55-15.04.19-.79.18-1.73-.05-2.5-.56-1.85-2.7-2.34-4.03-.9-.65.7-1.05,1.66-1.47,2.55-4.47,9.5-10.25,18.12-17.25,25.94-.17.19-.47.27-1.28.71-.4-3.03-.99-5.85-1.11-8.69-.33-8.09.27-16.09,2.53-23.93,4.45-15.48,8.42-31.15,15.45-45.72,9.7-20.09,22.21-38.07,40.4-51.56,1.79-1.33,3.71-2.5,5.75-3.86,1.54,2.69,1,5.25.9,7.69-.12,2.95-.4,5.92-.87,8.83-.6,3.74-1.36,7.47-2.23,11.16-.52,2.21-1.17,4.35.06,6.9,2.29-.63,3.17-2.42,4.33-4.17,5.99-9.03,7.22-19.5,9.14-29.75,1.69-9.03,3.07-18.2,6.85-26.62,9.46-21.09,24.2-36.31,47.72-41.21,8.44-1.76,16.94-1.39,25.29.21,4.21.81,8.18,3,12.16,4.79,2.11.95,2.99,2.56,2.33,5.18-1.2,4.79-1.88,9.72-5.69,13.38-.29.28-.47.71-.61,1.1-.09.24-.02.55-.02,1.22,2.04.77,3.45-.23,4.75-1.28,4.05-3.28,6.89-7.42,8.53-12.39.75-2.27,1.5-4.55,2.36-6.79,2.33-6.11,7.41-9.5,12.89-12.18,8.63-4.22,17.82-5.89,27.49-5.92,15.81-.03,28.97,6.71,41.38,15.42,4.72,3.31,9.25,7.05,13.24,11.2,4.58,4.76,8.49,10.18,12.65,15.34.4.5.53,1.23.89,2.1-5.35,1.08-10.43,2.04-15.48,3.13-7.77,1.68-15.29,4.09-22.02,8.47-1.68,1.09-3.58,2.24-3.31,5.29,2.3-.66,4.25-1.34,6.25-1.77,6.9-1.51,13.77-3.17,20.73-4.33,15.96-2.66,31.97-3.62,48.12-1.4,14.71,2.02,28.6,6.46,42.01,12.72,9.7,4.52,19.54,8.74,29.74,13.28,0-1.22.24-2.05-.04-2.66-2.36-5.26-5.81-9.65-10.63-12.92-1.97-1.34-3.9-2.75-5.88-4.15.27-4.09,2.18-7.13,4.83-9.79,3.73-3.74,8-6.74,12.8-8.94,22.82-10.47,46.34-12.89,70.61-5.88,4.19,1.21,8.29,2.71,12.45,4.04.62.2,1.3.21,2.74.42-8.74-8.06-17.71-14.19-28.46-17.06-.64-4.11.25-7.43,2.23-10.5,6.42-9.93,14.81-17.43,26.34-20.84,4.59-1.36,9.3-2.48,14.03-3.23,10.43-1.66,20.36.35,29.4,5.66,7.02,4.12,12.43,14.63,8.86,23.04-1.1,2.59-2.22,5.17-3.27,7.79-.4,1-.63,2.07-1.01,3.34,3.67.7,6.73-.26,8.5-2.9,1.84-2.74,3.09-6,3.98-9.2.74-2.67.71-5.59.77-8.41.05-2.46,1.37-3.45,3.49-4.09,8.33-2.51,16.71-2.58,25.15-.72,6.9,1.52,13.73,3.24,20.16,6.34,7.97,3.85,14.7,9.07,18.96,16.93,4.63,8.54,7.42,17.71,8.18,27.42.41,5.2.65,10.42.8,15.63.18,6.12-.82,12.11-2.29,18.03-.22.89-.28,1.82-.52,3.49,1.41-.68,2.36-.88,2.94-1.46,7.42-7.29,12.13-15.86,12.51-26.52.17-4.92.61-9.82.93-14.88,8.67.88,16.62,3.47,24.33,7.15,9.47,4.53,16.98,11.06,22.36,20.07,3.11,5.22,6.34,10.37,9.48,15.57.66,1.08,1.26,2.22,1.73,3.4,6.51,16.48,9.29,33.41,6.39,51.08-.59,3.61-.85,7.3-.94,10.96-.15,6.36-.23,12.73,0,19.08.13,3.5.87,6.99,1.56,10.43.3,1.49,1.05,2.92,1.79,4.27.8,1.45,1.68,3.47,3.73,2.7,2.45-.92.58-2.89.49-4.4-.3-5.06-.87-10.12-.91-15.18-.06-8.51,1.2-16.9,2.93-25.22.11-.52.45-.99.97-2.08,1.15,2.15,2.14,3.82,2.96,5.57,2.17,4.6,4.22,9.26,6.42,13.84,7.21,15.07,7.96,30.76,4.19,46.76-1.29,5.48-3.35,10.77-5.11,16.14-.3.9-.85,1.72-1.56,3.13-2.39-2.53-4.69-4.62-6.56-7.05-1.83-2.37-3.21-5.07-4.98-7.95-2.7,2.92-2.23,6-1.28,8.87,1.48,4.44,3.56,8.63,6.98,11.99,3.13,3.07,6.19,6.22,9.44,9.15,13.46,12.13,20.53,27.44,22.48,45.24.29,2.61-.21,5.3-.35,7.96-.12,2.38-.05,4.78-.39,7.12-2.68,18.46-9.44,35.41-19.18,51.23-1.7,2.76-3.65,5.36-5.33,8.13-1.21,1.98-2.16,4.12-3.62,6.94,6.67-1.15,10.81-4.89,14.86-8.38,4.04-3.48,7.8-7.43,10.98-11.7,3.25-4.38,5.64-9.39,8.56-14.39.58.59,1.33,1.16,1.85,1.9,3.71,5.25,6.18,11.14,8.09,17.2,7.71,24.47,8.51,49.27,1.96,74.02-3.83,14.47-10.36,27.76-21.44,38.39-1.75,1.68-3.39,2.67-5.88,2.59-4-.12-7.85.81-11.44,2.66-.63.32-1.43.52-1.82,1.02-.45.58-.78,1.48-.69,2.17.06.4,1.05.88,1.66.94Z" fill="gray" stroke-width="0"/><path d="m863.86,584.97c3.59-1.86,7.43-2.78,11.44-2.66,2.49.07,4.13-.91,5.88-2.59,11.07-10.63,17.61-23.92,21.44-38.39,6.55-24.76,5.75-49.55-1.96-74.02-1.91-6.07-4.38-11.95-8.09-17.2-.52-.74-1.27-1.31-1.85-1.9-2.92,5-5.31,10.01-8.56,14.39-3.17,4.27-6.94,8.22-10.98,11.7-4.05,3.48-8.19,7.22-14.86,8.38,1.46-2.82,2.41-4.95,3.62-6.94,1.68-2.77,3.64-5.37,5.33-8.13,9.73-15.82,16.5-32.77,19.18-51.23.34-2.34.27-4.75.39-7.12.13-2.65.63-5.35.35-7.96-1.95-17.81-9.03-33.11-22.48-45.24-3.25-2.93-6.31-6.08-9.44-9.15-3.42-3.35-5.5-7.54-6.98-11.99-.95-2.87-1.42-5.95,1.28-8.87,1.77,2.88,3.16,5.58,4.98,7.95,1.87,2.43,4.17,4.52,6.56,7.05.72-1.42,1.27-2.23,1.56-3.13,1.76-5.36,3.82-10.66,5.11-16.14,3.78-16,3.02-31.69-4.19-46.76-2.19-4.59-4.25-9.25-6.42-13.84-.82-1.74-1.81-3.41-2.96-5.57-.52,1.09-.86,1.56-.97,2.08-1.73,8.32-2.99,16.71-2.93,25.22.03,5.06.61,10.12.91,15.18.09,1.51,1.96,3.48-.49,4.4-2.05.77-2.93-1.25-3.73-2.7-.74-1.35-1.49-2.78-1.79-4.27-.69-3.45-1.43-6.94-1.56-10.43-.24-6.35-.16-12.72,0-19.08.09-3.66.35-7.35.94-10.96,2.89-17.67.12-34.61-6.39-51.08-.47-1.18-1.07-2.31-1.73-3.4-3.14-5.2-6.37-10.35-9.48-15.57-5.38-9.02-12.89-15.55-22.36-20.07-7.71-3.68-15.66-6.28-24.33-7.15-.32,5.05-.76,9.96-.93,14.88-.38,10.65-5.09,19.22-12.51,26.52-.58.58-1.53.78-2.94,1.46.24-1.66.29-2.59.52-3.49,1.48-5.92,2.47-11.91,2.29-18.03-.15-5.21-.39-10.43-.8-15.63-.76-9.71-3.55-18.88-8.18-27.42-4.27-7.86-10.99-13.08-18.96-16.93-6.43-3.11-13.26-4.82-20.16-6.34-8.43-1.86-16.82-1.79-25.15.72-2.12.64-3.44,1.63-3.49,4.09-.06,2.81-.03,5.73-.77,8.41-.89,3.2-2.14,6.47-3.98,9.2-1.77,2.64-4.83,3.6-8.5,2.9.38-1.27.6-2.34,1.01-3.34,1.05-2.61,2.18-5.19,3.27-7.79,3.56-8.41-1.85-18.92-8.86-23.04-9.04-5.31-18.97-7.32-29.4-5.66-4.73.75-9.43,1.87-14.03,3.23-11.52,3.41-19.92,10.91-26.34,20.84-1.98,3.07-2.87,6.39-2.23,10.5,10.74,2.87,19.72,8.99,28.46,17.06-1.44-.21-2.12-.22-2.74-.42-4.15-1.33-8.26-2.83-12.45-4.04-24.27-7.02-47.79-4.6-70.61,5.88-4.79,2.2-9.07,5.2-12.8,8.94-2.65,2.66-4.56,5.7-4.83,9.79,1.98,1.4,3.91,2.82,5.88,4.15,4.82,3.27,8.27,7.66,10.63,12.92.27.61.04,1.44.04,2.66-10.2-4.54-20.04-8.76-29.74-13.28-13.41-6.25-27.3-10.7-42.01-12.72-16.15-2.22-32.16-1.26-48.12,1.4-6.96,1.16-13.83,2.83-20.73,4.33-2,.44-3.95,1.11-6.25,1.77-.28-3.04,1.63-4.2,3.31-5.29,6.73-4.38,14.25-6.79,22.02-8.47,5.05-1.09,10.13-2.05,15.48-3.13-.36-.87-.49-1.6-.89-2.1-4.16-5.16-8.07-10.58-12.65-15.34-3.99-4.15-8.52-7.88-13.24-11.2-12.41-8.71-25.57-15.45-41.38-15.42-9.66.02-18.86,1.69-27.49,5.92-5.47,2.68-10.55,6.07-12.89,12.18-.85,2.24-1.61,4.51-2.36,6.79-1.64,4.97-4.47,9.1-8.53,12.39-1.3,1.05-2.71,2.05-4.75,1.28,0-.67-.07-.97.02-1.22.14-.39.32-.82.61-1.1,3.81-3.66,4.49-8.59,5.69-13.38.65-2.62-.22-4.23-2.33-5.18-3.98-1.78-7.95-3.98-12.16-4.79-8.34-1.6-16.85-1.97-25.29-.21-23.53,4.9-38.26,20.11-47.72,41.21-3.78,8.42-5.16,17.59-6.85,26.62-1.92,10.25-3.15,20.72-9.14,29.75-1.16,1.75-2.04,3.54-4.33,4.17-1.23-2.55-.57-4.68-.06-6.9.86-3.69,1.63-7.41,2.23-11.16.47-2.92.75-5.88.87-8.83.1-2.44.65-5-.9-7.69-2.05,1.37-3.96,2.53-5.75,3.86-18.18,13.48-30.7,31.47-40.4,51.56-7.03,14.57-11,30.24-15.45,45.72-2.25,7.83-2.86,15.84-2.53,23.93.12,2.84.71,5.66,1.11,8.69.8-.44,1.1-.52,1.28-.71,7-7.81,12.78-16.44,17.25-25.94.42-.89.82-1.84,1.47-2.55,1.33-1.44,3.47-.95,4.03.9.23.77.24,1.71.05,2.5-1.27,5.22-2.58,10.46-5.55,15.04-4.99,7.71-9.98,15.43-16.25,22.21-9.15,9.89-17.01,20.76-24.38,32.01-5.82,8.88-9.73,18.43-11.06,29.05-1.38,11.02-.87,22.01-.02,33.01.06.79.4,1.57.6,2.35l1,.71c.59-.97,1.01-2.09,1.79-2.88,4.15-4.23,8.34-8.43,12.61-12.55,2.02-1.96,4.33-3.49,7.33-3.51.98,2.22-.04,3.79-1.07,5.31-3.33,4.89-6.77,9.72-10.05,14.65-10.51,15.77-18.6,32.57-22.31,51.35-3.44,17.4-6.12,34.7-2.83,52.53,1.89,10.27,4.87,20.03,9.68,29.19,5.08,9.67,10.91,18.85,19.94,25.49,1.18.87,2.03,2.05,1.15,3.65-.88,1.58-2.38,1.53-3.71.98-2.59-1.09-5.26-2.16-7.59-3.71-3.39-2.25-6.5-4.92-10.1-7.7-8.53,17.33-10.41,35.86-9.77,54.73.66,19.34,7.29,36.81,18.48,53.86,2.54-6.83,4.73-12.7,6.89-18.59.59-1.61,1.05-3.56,3.18-3.35,1.86.18,2.05,2.06,2.37,3.58.03.14.05.28.04.42-.11,4.94.26,9.94-.44,14.79-1.05,7.25-2.72,14.43-4.37,21.58-2.89,12.57-5.34,25.25-4.91,38.17.59,17.63,6.17,33.82,15.96,48.51,3.88,5.82,8.69,10.78,14.42,14.81,7.52,5.28,15.83,8.38,24.99,9.2.08-4.13.18-8.01.22-11.89.09-10.6,4.02-20.1,8.52-29.41.83-1.72,2.35-3.19,3.81-4.48,2.07-1.82,3.77-1.41,4.38,1.22.63,2.7.97,5.57.81,8.33-.57,9.61-.91,19.15.56,28.75,2.75,17.95,11.22,33.01,22.77,46.61,7.16,8.43,16.21,13.96,26.6,17.45,4.49,1.51,9.09,2.03,13.79,1.71,11.92-.82,22.32-5.75,32.27-11.9,1.05-.65,1.98-1.48,3.01-2.25-.38-.91-.67-1.54-.92-2.19-2.98-7.77-6.04-15.51-8.89-23.33-1.36-3.74-.52-6.14,1.89-6.79,2.08-.56,3.28.63,4.7,4.3,2.89,7.42,6.41,14.6,11.98,20.33,6,6.16,12.36,12.02,18.92,17.58,6.13,5.21,13.45,8.3,21.38,9.75,8.57,1.57,17.08,1.6,25.64-.51,13.28-3.28,24.34-9.71,31.92-21.37,3.37-5.18,6.59-10.47,9.6-15.25-4.87-5.15-9.89-9.77-14.03-15.07-3.08-3.94-5.11-8.71-7.42-13.21-.77-1.51.01-3.01,1.8-3,1.6.01,3.34.41,4.75,1.15,6,3.13,11.89,6.45,17.82,9.72.87.48,1.75.94,2.54,1.52,3.96,2.87,8.48,4.37,13.13,5.66,13.04,3.64,26.11,2.52,39.08-.03,10.84-2.13,19.64-8.37,27.94-15.35,6.54-5.5,10.72-12.71,14.38-20.24.84-1.73,1.17-3.77,1.4-5.71.4-3.22.5-6.48.79-9.72.08-.88.36-1.74.55-2.61.41-.26.81-.51,1.22-.77.44.86,1.02,1.67,1.28,2.58,2.8,9.59,3.71,19.14-.94,28.49-.86,1.74-1.75,3.46-2.62,5.16,5.74,6.85,11.56,13.08,18.69,17.72,4.57,2.97,9.68,5.25,14.79,7.18,5.65,2.13,11.58,1.79,17.38.49.5-14.47,7.15-27.93,14.94-30.08.22,1.09.54,2.14.62,3.22.48,6.88.78,13.77,1.36,20.64,1.29,15.38,8.76,27.31,21.24,35.99,10.89,7.57,22.71,12.69,36.49,10.96.14-.02.28,0,.42,0,16.41-.53,30.46-6.84,42.48-17.76,2.87-2.61,5.05-5.97,7.47-8.91-.41-.98-.66-1.64-.96-2.27-2.58-5.42-2.63-10.81-.36-16.41,2.12-5.24,6-9.18,9.28-13.58.26-.35.97-.37,2.13-.77.04,1.96.23,3.56.07,5.12-.48,4.63-1.07,9.26-1.67,13.88-.23,1.79.04,3.34,1.49,4.6,2.84,2.46,5.98,4.49,9.77,4.66,5.64.25,11.33.44,16.95-.02,4.31-.35,8.8-1.14,12.75-2.81,6.74-2.85,13.29-6.28,19.6-10,3.21-1.89,6.18-4.58,8.5-7.51,6.28-7.94,10.87-16.84,13.44-26.7,1.14-4.37,2.39-8.73,3.34-13.14,3.07-14.23,10.61-26.05,19.83-36.96,1.21-1.44,2.83-2.54,4.58-4.08,1.03,2.62.65,4.52,0,6.35-1.04,2.93-2.11,5.85-3.35,8.69-2.83,6.5-4.4,13.3-5.39,20.78,5.74-1.87,11.15-3.42,16.4-5.38,10.53-3.93,19.55-10.23,26.88-18.69,13.52-15.61,22.02-33.45,22.87-54.43.35-8.65.13-17.24-3.68-25.29-1.75-3.69-3.55-7.36-5.37-11.01-.69-1.39-1.83-2.81-.17-4.15,1.42-1.15,2.77-.19,3.76.8,3.18,3.19,6.28,6.46,9.33,9.77,1.03,1.12,1.8,2.46,2.88,3.96,4-1.86,6.44-4.5,6.53-9.48,3.42.67,4.07-2.14,5.15-4.34,4.11-8.33,6.08-17.21,7.18-26.42,1.87-15.65-1.06-30.38-7.53-44.53-2.91-6.36-7.9-9.79-15.14-9.4-1.27.07-2.55.2-3.81.08-.61-.05-1.6-.54-1.66-.94-.1-.69.24-1.59.69-2.17.39-.51,1.19-.7,1.82-1.02Z" fill="#fff" stroke-width="0"/></svg>