<?xml version="1.0" encoding="UTF-8"?><svg id="Layer_1" xmlns="http://www.w3.org/2000/svg" viewBox="0 0 1000 1000"><path d="m113.97,127.47v-12.01c4.58-1.59,9.72,1.15,14.14-2.19-1.58-3.01-4.16-2.35-6.39-2.43-2.39-.08-4.79-.02-7.79-.02-.22-5.71-.18-11.23.18-16.85,8.22,0,15.98,0,23.73,0,1.41,0,2.85.24,4.23.02.81-.13,1.5-.95,2.25-1.45-.61-.82-1.05-1.94-1.87-2.38-.93-.5-2.18-.54-3.3-.55-5.79-.05-11.58-.02-17.37-.02-2.37,0-4.74,0-7.15,0v-14.84c4.06,0,7.79-.02,11.53.01,1.26,0,2.55.34,3.77.14.64-.11,1.66-1.09,1.6-1.57-.1-.78-.83-1.96-1.48-2.09-2.62-.53-5.3-.82-7.97-1.01-2.1-.15-4.22-.03-6.27-.03-.95-3.46-.47-13.02.89-17.94,4.26.37,8.59.84,12.92,1.1,5.92.37,11.84.6,17.77.84.82.03,1.73-.09,2.47-.44,1.46-.68,1.57-2.64.12-3.38-1.08-.55-2.41-.8-3.65-.85-8.75-.38-17.5-.67-26.26-.98-1.1-.04-2.2,0-3.68,0,.54-4.81,1.04-9.26,1.59-14.23,2.89.2,5.52.41,8.14.57,1.4.09,2.88.41,4.18.06.81-.22,1.65-1.4,1.87-2.3.1-.43-1.15-1.63-1.9-1.74-2.79-.38-5.63-.45-8.45-.64-.83-.06-1.66-.11-3.08-.2.36-3.99.71-7.84,1.12-12.28,15.11-.69,30.11-1.52,45.17-1.32-5.65,58.42-11.26,116.45-16.91,174.86-10.74-.48-20.98-.95-31.7-1.43-.33-3.17-.65-6.16-1-9.44,3.36-.23,6.28-.43,9.21-.62.56-.04,1.13,0,1.69-.06,1.39-.16,3.13-.13,3.06-2.09-.06-1.62-1.61-1.74-2.89-1.81-3.1-.16-6.21-.28-9.31-.4-.54-.02-1.07,0-1.99,0-.22-3.12-.43-6.03-.67-9.33,1.35-.07,2.41-.17,3.47-.16,6.36.05,12.71.17,19.07.15,1.74,0,3.8.21,4.54-2.22-1.13-2.18-3.19-2.1-5.13-2.12-6.64-.08-13.28-.1-19.93-.15-.54,0-1.08-.07-2.04-.13v-11.87c1.91.16,3.95.32,5.98.5,1.68.15,3.35.44,5.03.45,1.5.01,2.93-.51,2.95-2.32.01-1.64-1.35-2.04-2.67-2.12-3.79-.24-7.59-.4-11.7-.61v-13.62c3.5.16,6.84.34,10.18.45,4.52.15,9.03.32,13.55.34,1.63,0,3.89.02,3.84-2.26-.05-2.28-2.3-2.09-3.95-2.15-7.76-.3-15.51-.55-23.76-.83Z" fill="#fff" stroke-width="0"/><polygon points="186.01 194.23 186.01 194.23 186.01 194.23 186.01 194.23 186.01 194.23" stroke-width="0"/><path d="m25.93,193.2c.78.3,1.62.58,2.44.64,4.65.32,9.3.62,13.96.83,8.33.38,16.67.5,24.99,1.1,9.99.71,20.03,1.18,29.79,3.89,2.69.75,5.6.71,8.41.98,8.72.85,17.45,1.61,25.9,4.18,7.84,2.38,15.72,4.64,23.51,7.15,3.81,1.23,7.48,2.91,11.5,4.5,6.94-11.44,17.6-20.6,19.33-22.04-.87.65-2.42.85-3.58.78-6.06-.35-12.12-.81-18.16-1.4-2.73-.27-5.43-.92-8.28-1.43.59-7.39,1.1-14.29,1.71-21.17,1.51-16.9,3.02-33.79,4.63-50.68,2.1-21.95,4.33-43.89,6.43-65.84,1.06-11.12,2.15-22.23,2.87-33.38.53-8.24-1.38-9.93-9.62-10.16-14-.4-27.98-.41-41.92,1.15-4.83.54-7.21,2.6-7.56,7.43-1.42,19.59-2.77,39.19-4.16,58.79-.09,1.21-.28,2.42-.42,3.59-7.86-.21-15.35-.22-22.82-.64-16.08-.89-32.15-1.99-48.22-2.99-.84-.05-1.87-.28-2.5.09-1.12.67-2.37,1.56-2.9,2.67-.73,1.55.08,3.1,1.58,3.94.95.54,2.09.9,3.18,1.01,6.61.63,13.22,1.17,19.84,1.71,2.02.16,4.04.23,6.62.37-.83.96-1.06,1.3-1.37,1.57-6.52,5.6-11.27,12.68-15.84,19.79-2.97,4.61-2.66,6.1,3.32,6.31,3.76.13,7.52.56,11.43.87-.16,2.38-.38,4.33-.41,6.29-.14,10.74,0,21.49-.42,32.22-.41,10.51-1.39,20.99-2.14,31.66-.78.04-1.61.13-2.45.12-6.92-.09-13.85-.27-20.77-.29-2.53,0-5.11.1-7.57.61-.96.2-2.06,1.51-2.39,2.53-.49,1.52.59,2.67,2.05,3.24Zm88.18-99.24c8.22,0,15.98,0,23.73,0,1.41,0,2.85.24,4.23.02.81-.13,1.5-.95,2.25-1.45-.61-.82-1.05-1.94-1.87-2.38-.93-.5-2.18-.54-3.3-.55-5.79-.05-11.58-.02-17.37-.02-2.37,0-4.74,0-7.15,0v-14.84c4.06,0,7.79-.02,11.53.01,1.26,0,2.55.34,3.77.14.64-.11,1.66-1.09,1.6-1.57-.1-.78-.83-1.96-1.48-2.09-2.62-.53-5.3-.82-7.97-1.01-2.1-.15-4.22-.03-6.27-.03-.95-3.46-.47-13.02.89-17.94,4.26.37,8.59.84,12.92,1.1,5.92.37,11.84.6,17.77.84.82.03,1.73-.09,2.47-.44,1.46-.68,1.57-2.64.12-3.38-1.08-.55-2.41-.8-3.65-.85-8.75-.38-17.5-.67-26.26-.98-1.1-.04-2.2,0-3.68,0,.54-4.81,1.04-9.26,1.59-14.23,2.89.2,5.52.41,8.14.57,1.4.09,2.88.41,4.18.06.81-.22,1.65-1.4,1.87-2.3.1-.43-1.15-1.63-1.9-1.74-2.79-.38-5.63-.45-8.45-.64-.83-.06-1.66-.11-3.08-.2.36-3.99.71-7.84,1.11-12.28,15.11-.69,30.11-1.52,45.17-1.32-5.65,58.42-11.26,116.45-16.91,174.86-10.74-.48-20.98-.95-31.7-1.43-.33-3.17-.65-6.16-1-9.44,3.36-.23,6.28-.43,9.21-.62.56-.04,1.13,0,1.69-.06,1.39-.16,3.13-.13,3.06-2.09-.06-1.62-1.61-1.74-2.89-1.81-3.1-.16-6.21-.28-9.31-.4-.54-.02-1.07,0-1.99,0-.22-3.12-.43-6.03-.67-9.33,1.35-.07,2.41-.17,3.47-.16,6.36.05,12.71.17,19.07.15,1.74,0,3.8.21,4.54-2.22-1.13-2.18-3.19-2.1-5.13-2.12-6.64-.08-13.28-.1-19.93-.15-.54,0-1.08-.07-2.04-.13v-11.87c1.91.16,3.95.32,5.98.5,1.68.15,3.35.44,5.03.45,1.5.01,2.93-.51,2.95-2.32.01-1.64-1.35-2.04-2.67-2.12-3.79-.24-7.59-.4-11.7-.61v-13.62c3.5.16,6.84.34,10.18.45,4.52.15,9.03.32,13.55.34,1.63,0,3.89.02,3.84-2.26-.05-2.28-2.3-2.09-3.95-2.15-7.76-.3-15.51-.55-23.76-.83v-12.01c4.58-1.59,9.72,1.15,14.14-2.19-1.58-3.01-4.16-2.35-6.39-2.43-2.39-.08-4.79-.02-7.79-.02-.22-5.71-.18-11.23.18-16.85Zm-46.01,23.16c3.06,0,5.82,0,8.58,0,1.55,0,3.1.12,4.64.05,2.84-.12,3.6-1.4,2.13-3.79-2.07-3.36-4.18-6.72-6.51-9.91-3.64-4.97-7.48-9.8-11.16-14.6,2.49-.7,37.55.8,41.87,1.96-.6,32.66-1.18,65.41,3.23,98.65-15.88-1.45-31.66.16-47.25-2.05,1.32-23.72,5.18-46.61,4.48-70.33Z" stroke-width="0"/></svg>