<?xml version="1.0" encoding="UTF-8"?><svg id="Layer_1" xmlns="http://www.w3.org/2000/svg" viewBox="0 0 1000 1000"><path d="m250.14,896.24c.9.02,1.79.27,3.03.47-.79,2.35-1.3,4.41-2.15,6.31-2.02,4.51-3.85,9.16-6.4,13.36-9.47,15.61-23.16,25.67-40.93,30-2.3.56-4.78.7-7.15.57-2.37-.13-4.71-.83-7.06-1.3-2.79-.56-3.31-.17-4.42,2.45-.62,1.48-1.63,2.79-2.48,4.18.05-.04.09-.08.14-.12-1.09,1.57-2.25,3.1-3.26,4.71-.48.77-1.15,1.88-.9,2.51.25.64,1.51,1.21,2.35,1.26,11.75.61,23.51,1.15,34.29-5,.85-.48,1.84-.72,2.75-1.1,23.38-9.82,39.5-26.29,46.68-50.95.63-2.17,1.36-4.33,1.74-6.55.34-1.98,1.38-2.75,3.22-3.33-7.6,2.29-11.33,2.77-19.46,2.53Z" fill="gray" stroke-width="0"/><path d="m30.57,811.43c-2.16-2.01-4.48-3.89-6.93-5.54-1.59-1.07-3.53-1.61-4.48-2.03-3.95-.02-5.75,2-5.27,4.94.46,2.79,1.94,5.23,4.25,6.6,6.41,3.8,13.02,7.25,19.57,10.82,1.49.81,2.72.36,3.69-.94,1.07-1.43.51-2.7-.56-3.77-3.39-3.39-6.75-6.82-10.27-10.08Z" fill="gray" stroke-width="0"/><path d="m65.36,925.97c-2.77,6.25-5.57,12.48-8.28,18.75-.43,1-.58,2.19-.61,3.3-.1,3.61,2.39,5.12,5.52,3.39,3.05-1.68,4.85-4.28,5.15-7.74.37-4.34.68-8.69.77-13.04.03-1.52-.66-3.06-1.02-4.6-.51-.02-1.02-.05-1.52-.07Z" fill="gray" stroke-width="0"/><path d="m112.65,941.29c-2.67-3.77-5.46-7.46-8.24-11.15-.3-.4-.88-.59-1.13-.75-1.36.07-2.02,1.17-1.8,3.04.71,5.93,3.9,10.78,7.12,15.55.95,1.4,2.63,1.73,4.15.79,1.47-.9,1.99-2.36,1.41-4.03-.41-1.19-.81-2.44-1.52-3.45Z" fill="gray" stroke-width="0"/><path d="m90.55,944.1c-1.46.22-2.91.55-4.7.89,0-1.34-.09-2.18.01-2.99.49-3.91,1.08-7.81,1.54-11.72.25-2.11.99-4.38-1.6-6.56-.71,1.38-1.49,2.37-1.74,3.47-1.71,7.54-3.4,15.09-4.91,22.68-.49,2.49,1.39,3.86,4.03,3.14,1.72-.47,3.39-1.16,5.54-1.91,1.53,9.99,2.36,19.32,4.74,28.61.48-.4.64-.46.64-.53.4-10.42.83-20.84,1.14-31.26.09-2.97-1.65-4.27-4.69-3.82Z" fill="gray" stroke-width="0"/><path d="m34.69,836.35c-3.79-2.39-7.57-4.84-11.53-6.92-1.52-.8-3.55-1.09-5.28-.92-1.14.11-2.6,1.24-3.09,2.3-.39.84.2,2.45.85,3.38.68.98,1.87,1.69,2.97,2.27,3.65,1.93,7.48,3.24,11.69,3.16,1.26-.07,2.55,0,3.77-.25.56-.11,1.29-.77,1.4-1.29.11-.51-.32-1.43-.78-1.72Z" fill="gray" stroke-width="0"/><path d="m151.74,859.82c1.09.21,2.24.05,3.85.05,1.48-.17,3.43-.39,5.38-.62,1.96-.23,3.96-.27,5.86-.74,1.74-.43,3.53-1.07,4.99-2.07,1.78-1.2,2.31-3.68,1.55-5.26-.94-1.96-2.7-2.29-4.62-2.22-.42.01-.86.04-1.25.18-5.16,1.84-10.31,3.67-15.45,5.57-.63.23-1.37.67-1.67,1.22-.43.79-.81,1.85-.62,2.66.13.55,1.23,1.09,1.97,1.23Z" fill="gray" stroke-width="0"/><path d="m182.56,952.32s.01-.02.02-.03c0,0,0,0-.01.01v.02Z" fill="gray" stroke-width="0"/><path d="m183.46,928.27c-.77-1.01-1.62-2.04-2.05-3.2-.56-1.52-1.24-3.27-.99-4.77.59-3.51-.19-6.75-1.18-9.99-1.81-5.89-2.48-6.25-8.43-5.21-.37.06-.79-.12-1.35-.21-.28-2.4-.5-4.77-.83-7.12-.44-3.13-2.15-5.38-4.82-7.11-3.72-2.41-7.56-2.88-11.17-1.16-5-4.55-9.53-8.81-14.25-12.85-1.62-1.39-1.95-2.72-1.76-4.74.38-4.06.9-8.21.44-12.22-1.11-9.72-5.6-17.98-12.28-25.06-2.33-2.47-4.79-4.8-7.19-7.2-10.77-10.74-24.12-13.49-38.35-10.81-13.41,2.53-23.47,10.84-30.59,22.37-1.86,3.02-2.99,6.79-3.42,10.35-2.81,23.04,5.72,41.44,23.56,55.82,3.59,2.89,7.71,4.7,12.26,5.47,5.74.97,11.54,1.54,17.28.31,2.85-.61,4.96.28,6.94,2,5.31,4.62,10.59,9.28,15.84,13.88.27,6.44.48,6.87,5.48,10.62,2.22,1.67,3.64,3.62,4.16,6.55.89,5.03,2.29,5.96,7.38,6.33.68.05,1.36.21,2.06.32.96,3.04,1.09,6.9,4.46,7.8,2.8.74,6.01-.05,9.38-.18,3.25,2.86,4.1,2.92,8.15.42,1.19-.74,2.44-1.39,3.56-2.03,6,3.17,10.21,2.41,14.85-2.52.61-.65,1.3-1.21,1.96-1.81.7-3.44,1.51-6.88-.44-9.59.88-2.65,1.45-4.84,2.32-6.9,1.18-2.77.81-5.2-.98-7.55Zm-75.37-20.61c1.08-1.2,2.05-2.05,2.68-3.1.38-.63.58-1.87.22-2.32-.5-.63-1.61-1.09-2.45-1.08-1.08.02-2.18.52-3.23.93-7.9,3.09-16.04,3.26-24.2,1.64-2.69-.53-5.5-1.7-7.69-3.33-16.5-12.29-24.21-28.59-22-49.31.65-6.1,3.53-10.96,7.76-15.14,1.7-1.68,3.61-3.17,5.49-4.66,11.97-9.53,25.11-9.73,38.86-4.76.66.24,1.34.5,1.92.89,10.97,7.46,20.37,16.22,23.84,29.68,1.37,5.31.97,10.64-.15,15.97-.49,2.34-1.07,4.73-1.05,7.1.01,1.73.63,3.64,1.53,5.14,1.36,2.26,3.26,2.07,4.56-.23.48-.84.7-1.83,1.25-3.33,4.56,5.19,9.5,9.57,13.38,14.97,1.02,1.42,1.17,2.81.46,4.36-.69,1.5-1.38,3.01-2.26,4.94-13.07-9.74-23.69-21.08-33.02-33.98,3.02-3.69,4.22-7.85,4.25-12.31.05-5.52-1.87-10.3-6.27-13.77-5.11-4.03-10.12-1.97-10.98,4.49-.67,5.02.29,9.85,2.3,14.48.54,1.25,1.03,2.53,1.57,3.86-2.22.92-2.54-.6-3.22-1.83-1.9-3.46-3.81-6.91-5.9-10.26-1.66-2.66-4.19-4.19-7.36-4.42-3.52-.26-5.33,1.5-5.18,5.02.17,4.04,1.87,7.42,4.94,9.96,2.05,1.7,4.36,3.12,6.64,4.52,1.54.95,2.28,2.01,1.36,3.85-3.49-.17-6.98-.41-10.46-.51-3.3-.09-6.34.68-7.59,4.17-1.22,3.39-.06,6.42,2.26,8.98,4.12,4.54,11.9,4.93,17,.87,1.3-1.04,2.44-2.28,3.83-3.6,12.25,9.81,22.91,21,33.26,32.52-.41.66-.57,1.07-.85,1.34-4.02,3.82-5.31,4.28-9.89,1.22-5.59-3.73-10.66-8.22-15.65-12.97Zm.37-33.35c10.05,13.37,20.94,26.08,35.19,36.25-1.41,1.3-2.52,2.33-3.69,3.4-.49-.3-.92-.42-1.14-.71-9.44-12.84-20.92-23.62-33.59-33.17-1.93-1.45-2.72-2.68-1.47-5.08,1.36-.2,2.86-.42,4.69-.69Zm-1.32-23.87c5.22,2.39,6.47,8.18,3.4,15.09-2.44-4.86-4.1-9.47-3.4-15.09Zm-14.01,13.73c-2.42-1.28-4.11-3.08-4.54-6.86,3.13,1.87,3.75,4.41,4.54,6.86Zm1.81,17.85c-5.49,4.94-10.04,4.48-11.91-.95,3.95-.78,7.61-.05,11.91.95Zm84.01,52.1c-4.36,9.26-11.26,15.77-20.98,19.61-2.13-2.03-4.66-2.07-7.48-.71,5.33-4.18,8.97-9.31,11.01-15.71-4.83,4.55-9.66,9.11-14.92,14.07-.41-1.41-.53-2.06-.77-2.65-1.22-2.99-2.58-3.82-5.86-3.7-1.3.05-2.61,0-4.04-.43,6.32-4.98,13.34-9.02,16.43-16.77,1.58-3.97,2.67-8.14,3.46-12.51-6.1,8.7-11.3,18.02-20.52,24.06-3.56-3.32-7.09-6.6-10.62-9.89.09-.23.19-.47.28-.71.86.05,1.77-.04,2.58.19,3.52.99,6.78.37,9.66-1.74,7.35-5.38,14.14-11.2,17.63-20.08,1.68-4.27,3.62-8.3,1.13-12.86,4.94-.66,6.97,1.08,7.03,5.3.1,7.38-.54,14.58-2.52,21.78-1.63,5.92-4.63,10.84-8.18,15.61-.72.97-1.46,1.94-1.94,3.17,2.82-.99,5.09-2.67,6.88-5.03,4.66-6.15,8.09-12.9,10.1-20.36.33-1.21.64-2.43.98-3.71,1.51-.26,2.88-.49,4.7-.8.37,7.05.05,13.79-2.98,20.22-2.03,4.29-4.29,8.51-4.68,13.51,5.33-4.17,9.23-9.49,12.33-15.46,2.5,1.59,2.34,3.38,1.3,5.59Z" fill="gray" stroke-width="0"/><path d="m108.1,907.66c1.08-1.2,2.05-2.05,2.68-3.1.38-.63.58-1.87.22-2.32-.5-.63-1.61-1.09-2.45-1.08-1.08.02-2.18.52-3.23.93-7.9,3.09-16.04,3.26-24.2,1.64-2.69-.53-5.5-1.7-7.69-3.33-16.5-12.29-24.21-28.59-22-49.31.65-6.1,3.53-10.96,7.76-15.14,1.7-1.68,3.61-3.17,5.49-4.66,11.97-9.53,25.11-9.73,38.86-4.76.66.24,1.34.5,1.92.89,10.97,7.46,20.37,16.22,23.84,29.68,1.37,5.31.97,10.64-.15,15.97-.49,2.34-1.07,4.73-1.05,7.1.01,1.73.63,3.64,1.53,5.14,1.36,2.26,3.26,2.07,4.56-.23.48-.84.7-1.83,1.25-3.33,4.56,5.19,9.5,9.57,13.38,14.97,1.02,1.42,1.17,2.81.46,4.36-.69,1.5-1.38,3.01-2.26,4.94-13.07-9.74-23.69-21.08-33.02-33.98,3.02-3.69,4.22-7.85,4.25-12.31.05-5.52-1.87-10.3-6.27-13.77-5.11-4.03-10.12-1.97-10.98,4.49-.67,5.02.29,9.85,2.3,14.48.54,1.25,1.03,2.53,1.57,3.86-2.22.92-2.54-.6-3.22-1.83-1.9-3.46-3.81-6.91-5.9-10.26-1.66-2.66-4.19-4.19-7.36-4.42-3.52-.26-5.33,1.5-5.18,5.02.17,4.04,1.87,7.42,4.94,9.96,2.05,1.7,4.36,3.12,6.64,4.52,1.54.95,2.28,2.01,1.36,3.85-3.49-.17-6.98-.41-10.46-.51-3.3-.09-6.34.68-7.59,4.17-1.22,3.39-.06,6.42,2.26,8.98,4.12,4.54,11.89,4.93,17,.87,1.3-1.04,2.44-2.28,3.83-3.6,12.25,9.81,22.91,21,33.26,32.52-.41.66-.57,1.07-.85,1.34-4.02,3.82-5.31,4.28-9.89,1.22-5.59-3.73-10.66-8.22-15.65-12.97Z" fill="#fff" stroke-width="0"/><path d="m177.66,928.52c2.5,1.59,2.34,3.38,1.3,5.59-4.36,9.26-11.26,15.77-20.98,19.61-2.13-2.03-4.66-2.07-7.48-.71,5.33-4.18,8.97-9.31,11.01-15.71-4.83,4.55-9.66,9.11-14.92,14.07-.41-1.41-.53-2.06-.77-2.65-1.22-2.99-2.58-3.82-5.86-3.7-1.3.05-2.61,0-4.04-.43,6.32-4.98,13.34-9.02,16.43-16.77,1.58-3.97,2.67-8.14,3.46-12.51-6.1,8.7-11.3,18.02-20.52,24.06-3.56-3.32-7.09-6.6-10.62-9.89.09-.23.19-.47.28-.71.86.05,1.77-.04,2.58.19,3.52.99,6.78.37,9.66-1.74,7.35-5.38,14.14-11.2,17.63-20.08,1.68-4.26,3.62-8.3,1.13-12.86,4.94-.66,6.97,1.08,7.03,5.3.1,7.38-.54,14.58-2.52,21.78-1.63,5.92-4.63,10.84-8.17,15.61-.72.97-1.46,1.94-1.94,3.17,2.83-.99,5.09-2.67,6.88-5.03,4.66-6.15,8.09-12.9,10.1-20.36.33-1.21.64-2.43.98-3.71,1.51-.26,2.88-.49,4.7-.8.37,7.05.05,13.79-2.98,20.22-2.03,4.29-4.29,8.51-4.68,13.51,5.33-4.17,9.23-9.49,12.33-15.46Z" fill="#fff" stroke-width="0"/><path d="m143.66,910.55c-1.41,1.3-2.52,2.33-3.69,3.4-.49-.3-.92-.42-1.13-.71-9.44-12.84-20.92-23.62-33.59-33.17-1.93-1.45-2.72-2.68-1.47-5.08,1.36-.2,2.86-.42,4.69-.69,10.05,13.37,20.94,26.08,35.19,36.25Z" fill="#fff" stroke-width="0"/><path d="m107.15,850.44c5.22,2.39,6.47,8.18,3.4,15.09-2.44-4.86-4.1-9.47-3.4-15.09Z" fill="#fff" stroke-width="0"/><path d="m94.95,882.01c-5.49,4.94-10.04,4.48-11.91-.95,3.95-.78,7.61-.05,11.91.95Z" fill="#fff" stroke-width="0"/><path d="m88.59,857.31c3.13,1.87,3.75,4.41,4.54,6.86-2.42-1.28-4.11-3.08-4.54-6.86Z" fill="#fff" stroke-width="0"/></svg>