<svg xmlns="http://www.w3.org/2000/svg" viewBox="0 0 44.68 44.22"><g id="Layer_2" data-name="Layer 2"><g id="Layer_1-2" data-name="Layer 1"><path d="M4.79,32.9l-1.08-.71,3.67-4.12-6,3.49-.58-1,5.55-3.2c-1.21.7-4.5.37-6,.12l.22-.79c.55.57,2.42,1.4,5.48.17,3.82-1.54,4.6-6,5.76-8.66.92-2.13-4.57-5.58-7.43-7l.72-1.09,6.12,2.47L6.28,8.7l1-.58c1.27,1,4.56,3.23,7.5,3.67,3.67.55,5.11-1.62,7.63-3.08,2-1.16.89-5.84.07-8l.5-.3,1.38,5.88-.29-5.17.79.21c-.14,2.09,2.53,7.88,2.82,8.38s.94,2.79,5.77,5.33c3.86,2,6.31-1.86,7.06-4.07l1.58.42-4.89,5.49,6.55-3.78.58,1a64.78,64.78,0,0,0-9.22,7.32c-.72,1.08-3.24,2.54-4.46,8.58a14.85,14.85,0,0,0-.09,5.34,19.19,19.19,0,0,0,6,3.26l-1.73,1A8.19,8.19,0,0,1,31,37.12a9.9,9.9,0,0,0,1.83,3.59l-.5.3a12,12,0,0,0-1.66-1.71c-1.73-1.45-6-4.29-9.09-4.09s-3.6,5.41-3.45,8l-1,.58.14-6.55A34.15,34.15,0,0,1,15,43.66l-.58-1A14.65,14.65,0,0,0,15,33c-1.59-5.08-5-5.12-7.28-4.46C5.82,29.1,5,31.68,4.79,32.9Z" fill="#fff" stroke="#fff" stroke-width="0.5"/><circle cx="22.66" cy="23.31" r="6" fill="#13a9fc"/></g></g></svg>