<svg xmlns="http://www.w3.org/2000/svg" viewBox="0 0 28 35.15"><g id="Layer_2" data-name="Layer 2"><g id="Layer_1-2" data-name="Layer 1"><path d="M28,23a30,30,0,0,1-.76,3.11,13.63,13.63,0,0,1-12.6,9,2.75,2.75,0,0,1-2.82-2.37,2.66,2.66,0,0,1,2.13-3c.8-.14,1.64-.08,2.44-.3a7.71,7.71,0,0,0,6-6.23,8.23,8.23,0,0,0-3.24-8.66,4.9,4.9,0,0,0-2.81-1c-2-.05-3.95,0-5.95,0,0,.26.23.35.37.49,1,1,2,2,2.94,3a2.7,2.7,0,1,1-3.81,3.83c-3.25-3.23-6.47-6.47-9.71-9.7-.26-.26-.22-.4,0-.64Q5,5.7,9.86.85A5.26,5.26,0,0,1,11.3,0h1c0,.12.16.11.26.14a2.7,2.7,0,0,1,1.09,4.57c-.33.35-.69.69-1,1-.76.74-1.51,1.49-2.4,2.37H11c1.67,0,3.33,0,5,0a10.37,10.37,0,0,1,3.57.67,12.8,12.8,0,0,1,7.74,8.45c.31.94.4,1.92.65,2.87Z" fill="#4e4e4e"/></g></g></svg>