<?xml version="1.0" encoding="UTF-8"?><svg id="Layer_1" xmlns="http://www.w3.org/2000/svg" viewBox="0 0 600 600"><path d="m583.16,259.81c-.76-.56-1.69-.89-2.56-1.3-5.64-2.63-10.57-6.24-15.01-10.6-2.39-2.35-4.92-4.59-7.57-6.63-2.27-1.75-3.23-1.44-4.94.9-3.02,4.13-6,8.29-9.04,12.41-2.67,3.62-5.65,6.96-9.35,9.59-.39.28-.82.53-1.13.88-.74.85-.51,1.92.55,2.33.49.19,1.09.21,1.62.14,2.61-.34,5.21-.76,7.81-1.11,1.16-.16,2.34-.21,3.82-.34,0,1.19.03,2.11,0,3.03-.06,1.27-.25,2.55-.25,3.82.02,6.12-1.46,11.86-4.25,17.3-1.34,2.61-3.07,4.87-5.33,6.72-3.29,2.69-6.84,4.96-10.81,6.48-.05-1.73-.1-3.46-.16-5.19-.21-5.25-.95-10.37-2.34-15.39-2.95-10.64-13.7-15.94-21.17-15.22-3.09.31-6.15,1-9.21,1.61-3.35.67-5.69,2.78-7.48,5.59-.36.57-.74,1.14-.97,1.49-4.6-2.48-8.99-4.86-13.4-7.24.72-1.48,1.29-3,2.14-4.33,1.65-2.57,2.45-5.41,2.75-8.36.53-5.25-.11-10.44-2.13-15.3-1.07-2.59-.49-4.58.8-6.68.21-.34.46-.66.66-1.01,1.88-3.44,2.9-7.1,2.76-11.04-.2-5.68-1.64-11.06-4.03-16.19-1.2-2.6-2.61-5.06-4.3-7.3,1.16-1.51,2.38-2.96,3.75-4.23,5.61-5.22,12.45-8.33,19.84-10.25,1.7-.44,3.5-.54,5.12-1.15,1.63-.61,2.87-.34,4.24.58,3.68,2.47,7.76,3.68,12.2,3.74,1.19.02,2.37.32,3.56.49,1.1.15,2.21.4,3.31.41,5.69.06,11.13-1.29,16.28-3.52,3.73-1.61,6.52-4.45,7.1-8.74.21-1.63-.09-3.34-.23-5-.28-3.38-1.61-6-5.16-6.99-1.54-.43-2.28-1.5-2.71-3.04-.69-2.5-.29-4.92.15-7.36.25-1.43.63-2.82,1.81-3.82,2.58-2.18,3.09-5.1,2.95-8.26-.11-2.39-1.3-4.01-3.4-5.1-.96-.5-1.85-1.18-2.68-1.88-.66-.57-1.15-1.33-1.78-1.95-3.3-3.25-7.88-2.8-10.52.98-.22.32-.5.58-.82.94-.94-.63-1.76-1.24-2.65-1.77-3.14-1.88-6.36-2.58-9.73-.51-1.23.75-2.46,1.5-3.7,2.23-6.26,3.7-12.49,7.45-18.8,11.07-2.35,1.35-4.89,2.37-7.33,3.57-3.01,1.48-4.2,3.74-3.57,6.98.27,1.39.76,2.74,1.19,4.22h0c-1.55,1.22-3.19,2.36-4.66,3.68-5.91,5.33-9.72,12.04-12.4,19.43-.72,1.98-1.41,3.97-2.09,5.96-3.27-2.17-6.69-4.08-10.49-5.32-1.14-.37-1.84-1.06-2.19-2.29-1.2-4.22-3.37-7.96-6.43-11.1-.98-1.01-1.23-2.02-.97-3.22.49-2.26,1.1-4.5,1.64-6.75.65-2.69.87-5.38-.11-8.04-1.29-3.53-2.47-7.11-3.95-10.55-1.84-4.28-4.67-7.82-8.8-10.17-.28-.16-.57-.29-.57-.29,0-.5-.03-.58,0-.65.23-.6.46-1.2.69-1.79,3.3-8.46,4.27-17.16,3.03-26.17-3.92-28.55-31.3-48.54-59.91-43.32-28.56,5.21-47.69,34.12-40.88,62.37,1.02,4.22,2.55,8.25,4.59,12.08,1.19,2.24,1.1,2.47-1.22,3.59-.86.42-1.72.85-2.6,1.24-5.26,2.4-10.71,3.47-16.33,1.65-6.8-2.22-13.47-2.19-20.25.09-2.08.7-4.39.88-6.6.96-4.63.18-8.73-1.71-12.79-3.66-2.06-.99-2.15-1.24-1.1-3.26,5.54-10.64,6.98-21.84,4.68-33.56-5.33-27.21-31.88-45.41-59.21-40.61-28.39,4.99-47.24,32.73-41.33,60.96.76,3.66,2.04,7.2,3.12,10.91-.05.05-.19.27-.38.38-4.63,2.74-7.45,6.92-9.41,11.78-.54,1.33-.98,2.71-1.57,4.03-2.27,5.01-2.92,10.12-1.12,15.41.23.68.46,1.37.63,2.06.21.85.37,1.71.55,2.57.23,1.1-.06,1.92-.88,2.78-3.08,3.24-5.3,7.02-6.5,11.34-.35,1.25-1.1,1.85-2.2,2.29-1.46.59-2.96,1.15-4.31,1.93-.02-.37-.05-.73-.07-1.1-.27-4.47-.18-8.96-.57-13.41-.69-8.07-3.49-15.12-10.7-19.67-4.14-2.61-6.11-6.49-6.58-11.14-.47-4.61-.57-9.26-.94-13.88-.22-2.7-.4-5.46-1.1-8.05-1.2-4.47-3.29-8.46-7.35-11.17-3.99-2.66-8.18-4.61-13-5.21-4.61-.57-9.12-.38-13.47,1.24-10.37,3.87-17,11.4-20.54,21.72-.96,2.79-1.68,5.71-2.09,8.62-1.05,7.61-.38,14.89,5.13,20.93,2.63,2.89,5.14,5.88,8.54,8.02,2.62,1.65,5,3.7,7.38,5.7.83.7,1.51,1.7,1.94,2.7,2.15,4.98,3,10.11,1.51,15.45-.71,2.54-1.4,5.08-2.17,7.6-1.32,4.31-2.39,8.62-1.94,13.2.51,5.34,3.25,8.96,8.42,10.47,3.02.89,6.15.87,9.27.29,2.79-.51,4.86-2.02,6.21-4.47.65-1.19,1.19-2.44,1.67-3.71,1.28-3.38,1.09-6.92,1.02-10.44h0c0-1.93-.12-3.86.02-5.77.28-3.82,1.72-7.13,4.73-9.63,2.91-2.42,5.79-2.56,8.72-.19,1.35,1.09,2.6,2.45,3.43,3.95.79,1.43,1.41,2.97,1.96,4.54-3.26,2.4-5.77,5.52-7.96,8.93-2.93,4.57-4.79,9.6-5.79,14.91-.98,5.19-1.05,10.37,1.36,15.28.88,1.79,1.82,3.56,2.82,5.28.46.79.43,1.45.11,2.26-1.68,4.2-2.53,8.57-2.76,13.09-.21,4.18.59,8.1,2.62,11.77.91,1.65,1.71,3.36,2.53,5-3.95,2.06-7.68,4.02-11.51,6.03-.31-.47-.62-.92-.9-1.38-1.83-3.01-4.34-5.11-7.84-5.86-2.19-.47-4.39-.87-6.59-1.3-9.39-1.84-20.85,4.73-23.72,15.49-1.75,6.58-2.24,13.26-2.41,19.96-4.06-1.51-7.89-3.45-11.4-6.08-3.14-2.35-5.51-5.24-7.28-8.77-2.76-5.5-3.74-11.35-3.92-17.4-.06-1.88-.39-3.8.21-6.01h0c2.02.33,3.96.67,5.91.94,1.97.28,3.96.59,5.94.67.65.02,1.44-.55,1.95-1.06.21-.21-.06-1.03-.28-1.48-.16-.32-.6-.5-.93-.72-3.7-2.5-6.63-5.78-9.27-9.32-3.2-4.3-6.31-8.66-9.47-12.99-1.58-2.18-2.57-2.49-4.77-.83-2.54,1.93-4.86,4.14-7.25,6.26-1.26,1.11-2.37,2.37-3.68,3.43-3.98,3.23-8.1,6.27-12.96,8.13-1.13.43-2.23,1.06-2.18,2.54.05,1.45,1.09,2.15,2.26,2.49,2.37.68,4.77,1.42,7.2,1.71,3.69.44,3.65.28,3.6,3.91-.05,3.68-.08,7.37.07,11.04.14,3.18.57,6.36.84,9.54.4,4.72.98,9.42,2.87,13.8,2.21,5.13,5,9.97,10.02,12.82,2.96,1.68,6.17,3.13,9.45,4.03,7.45,2.05,15,3.75,22.83,3.62-.1,12.45-.14,24.9-.12,37.35,0,13.37.2,26.73.42,40.1.05,2.83.15,5.67.29,8.5-2.36.28-4.7.57-7.03.81-8.05.85-14.77,4.44-20.56,9.95-4.51,4.29-7.25,9.7-9.71,15.28-.29.65-.49,1.35-.67,2.05-1.78,6.85-2.67,13.8-2.47,20.89.02.85-.09,1.7-.14,2.55-1.44.21-2.62.43-3.81.54-.95.1-1.93-.05-2.87.12-1.72.29-3.46.61-5.11,1.16-1.41.47-1.7,1.41-1.01,2.63,1.02,1.8,2.05,3.62,4.02,4.65.7.37,1.32.9,1.93,1.42,3.87,3.35,7.72,6.71,11.57,10.08.54.47,1.03,1.01,1.51,1.54,1.44,1.61,2.92,3.19,4.27,4.87,2.61,3.24,3.14,2.67,5.15-.07,4.24-5.79,9.95-10.19,14.43-15.74,2.56-3.17,5.26-6.23,7.88-9.35.36-.42.68-.9.92-1.4.53-1.14.1-2.11-1.09-2.43-.51-.14-1.1-.03-1.65.01-4.2.33-8.4.67-12.56,1.01-1.05-1.6-.64-3.13-.52-4.6.19-2.31.59-4.6.7-6.91.27-5.76,3.13-10.31,6.6-14.59.55-.67,1.26-1.26,2-1.71,3-1.84,6.02-3.64,9.07-5.39.05-.03.11-.05.16-.08.2,3.06.41,6.12.58,9.18.32,5.78,1.4,11.41,2.96,16.99,1.4,4.99,4.03,9.18,7.45,12.99,2.22,2.47,4.94,3.79,8.18,4.04,3.19.25,6.39.34,9.58.52,3.87.22,7.01-1.22,9.61-4.04,1.41-1.53,2.97-2.92,4.34-4.48,1.05-1.2,1.91-2.56,2.82-3.86.3-.43.53-.91.84-1.45,4.85,3.8,9.26,7.95,15.02,10,.33,1.41.5,2.78.96,4.04,2.2,6.11,4.87,11.98,8.91,17.15,4.37,5.6,9.95,9.45,16.75,11.49,5.33,1.6,10.73,1.54,16.28.57h.03c1.11,1.26,2.04,2.46,3.13,3.51,3.25,3.12,6.92,5.69,10.84,7.89,4.18,2.34,8.61,3.84,13.43,4.08,8.71.43,16.56-2.44,24.03-6.46,1.55-.84,2.83-1.23,4.43-.72.69.21,1.45.28,2.07.61,2.88,1.52,6.08,1.88,9.17,2.67,5.54,1.41,10.99.74,16.38-.49,4.9-1.11,9.09-3.84,13.3-6.5,4.56-2.87,7.73-6.84,10.36-11.42,2.61-4.53,3.06-9.73,4.74-14.54.1-.29.12-.64.07-.95-.3-2.08.93-3.02,2.53-3.67,1.7.65,2.46,1.68,2.41,3.5-.03,1.24.42,2.5.74,3.73.46,1.78,1.06,3.52,1.52,5.29,1.49,5.74,4.49,10.69,8.82,14.59,4.23,3.81,9.2,6.64,14.55,8.73,3.42,1.33,6.97,1.56,10.57,1.92,5.67.57,10.91-.97,16.17-2.62,1.83-.58,3.64-1.18,5.49-1.67.46-.12,1.13.01,1.54.27,4.61,2.83,9.61,4.64,14.83,6.01,9.05,2.39,17.43.94,25.31-3.96,4.71-2.93,9.11-6.21,12.44-10.63.28,0,.45-.03.6,0,7.93,1.47,15.45.46,22.48-3.61,6.58-3.81,11.35-9.24,14.5-16.15.63-1.38,1.42-2.69,2-4.09.91-2.21,1.75-4.45,2.53-6.71.33-.97.42-2.01.61-2.96,6.07-2.21,10.49-6.6,15.15-10.22,1.25,2.09,2.22,4.2,3.62,5.95,1.7,2.11,3.76,3.93,5.68,5.86,2.13,2.14,4.68,3.39,7.72,3.32,3.75-.1,7.52-.27,11.26-.57,2.09-.17,4.14-.76,5.74-2.21,3.24-2.91,6.2-6.15,7.7-10.28,1.49-4.12,2.98-8.37,3.53-12.68.68-5.3,1.14-10.63,1.53-15.97.22.11.43.23.64.35,1.59.93,3.12,1.97,4.7,2.89,5.57,3.23,8.5,8.41,9.96,14.37.87,3.53.86,7.29,1.19,10.95.1,1.09.02,2.19.02,3.69l-.02-.02c-4.47-.32-8.44-.57-12.41-.92-1.2-.11-2.47-.6-3.26.68-.8,1.28.11,2.32.89,3.22,4.01,4.67,7.96,9.4,12.13,13.92,3.52,3.82,7.44,7.28,10.45,11.56.18.26.4.5.62.73,1.2,1.24,1.79,1.26,2.97.05.72-.75,1.35-1.58,2.07-2.34,1.98-2.08,3.93-4.19,5.99-6.19,1.37-1.33,2.91-2.49,4.37-3.73,2.86-2.44,5.77-4.82,8.53-7.35,1.27-1.16,2.38-2.56,3.34-4,.92-1.38.51-2.39-1.11-2.97-1.33-.47-2.75-.81-4.16-1-1.98-.26-3.97-.37-5.97-.45-1.25-.05-1.67-.64-1.65-1.82.03-1.76-.02-3.52,0-5.28.08-5.9-.79-11.71-2.62-17.25-2.29-6.89-5.88-13.13-11.54-17.95-3.93-3.34-8.15-6.18-13.25-7.49-3.42-.88-6.85-1.53-10.39-1.65-.17,0-.32-.01-.47-.02.06-2.07.11-4.14.19-6.21.2-5.04.64-10.07.64-15.11,0-12-.22-24.01-.32-36.01-.08-9.67.05-19.34.07-29.02,1.27-.01,2.53,0,3.79-.13,5.74-.56,11.36-1.8,16.89-3.38,4.94-1.41,9.8-3.2,13.4-7.11,3.12-3.38,5.52-7.26,6.88-11.7,1.49-4.92,2.28-9.96,2.34-15.11.01-1.2-.06-2.43.16-3.59.93-4.84,1.06-9.68.45-14.57-.28-2.31.23-2.7,2.57-3.02,2.52-.35,5.02-.9,7.5-1.46.76-.18,1.51-.57,2.15-1.02,1.45-1.01,1.5-2.51.08-3.56h0Z" stroke-width="0"/><path d="m490.36,409.43c-.01-.06-.02-.11-.03-.16.1-.08.19-.17.29-.25-.07.16-.15.3-.26.42Z" stroke-width="0"/><path d="m400.1,67.65c-.89.41-1.61.29-2.1-.49.7.16,1.4.33,2.1.49Z" fill="#fff" stroke-width="0"/><path d="m397.94,67.12c-.72-.16-1.44-.33-2.15-.49.9-.41,1.62-.27,2.15.49Z" fill="#fff" stroke-width="0"/><path d="m391.65,66.61c-.02.17-.04.33-.06.5h-4.16c-.11-.35-.27-.83-.57-1.78,1.84.49,3.31.89,4.78,1.28h0Z" fill="#fff" stroke-width="0"/><path d="m352.35,74.9c.8.75,1.48.9,2.28.25,2.33-1.86,5.09-2.47,8.01-2.69,1.4-.11,2.77-.58,4.29-.64-.77.51-1.54,1.02-2.31,1.53-.6.4-1.28.71-1.77,1.22-.4.41-.89,1.28-.72,1.55.31.5,1.06.87,1.68,1.01.59.12,1.26-.1,1.89-.21.53-.1,1.06-.25,1.63-.38.08,2.84-2.48,4.97-1.76,7.84,1.91-.27,5.5-2.99,9.18-6.94.36,1.28.68,2.43,1.05,3.74,2.34-1.26,2.85-4.07,5.04-5.52,2.75,2.62,4.42,5.98,6.68,9.28.62-1.63.46-3.05.38-4.44-.07-1.42-.3-2.84-.47-4.36,3.36,1.01,4.51,4.43,7.48,6.55-.27-1.93-.42-3.25-1.2-4.49-.8-1.26-1.37-2.67-2.04-4.01-.12-.32-.24-.63-.36-.94l-.02.02c-.93-.57-1.85-1.13-3.26-1.99.38,2.45,2.65,2.99,3.19,4.83-1.84-.36-2.7-2.53-5.02-2.39.4,3.04.79,6,1.17,8.96-.13.03-.25.07-.38.11-.21-.47-.41-.94-.63-1.4-.81-1.64-1.45-3.4-2.49-4.88-1.74-2.49-3.61-2.36-5.27.16-.56.85-1.08,1.74-1.92,3.1-.08-1.2-.09-1.86-.18-2.51-.08-.59-.24-1.18-.41-1.95-2.28.86-3,3.08-4.65,4.25-1.68,1.19-3.36,2.4-5.3,3.78.77-3.04,2.66-5.54,3.16-9-1.53.39-2.63.67-3.73.96-.05-.1-.11-.19-.16-.29,1.88-1.45,3.77-2.91,5.8-4.47-1.96-1.87-4.01.18-6.17-.75,1.28-.59,2.43-.97,3.4-1.62,1.06-.71,2.04-1.48,3.58-1.24,0,1.62.15,3.27,1.81,4.25,2.19,1.29,4.57,2.07,7.1,1.67,1.63-.26,3.3-.81,4.73-1.62,1.09-.62,1.82-1.85,2.84-2.97,2.4.05,4.86.88,8.36,3.23-2.39-.62-4.78-1.24-7.18-1.86-.06.16-.13.33-.2.5,1.78.96,3.56,1.93,5.33,2.89-.14-.28-.27-.57-.42-.91,4.08.27,7.27,3.42,11.78,3.73-1.85-2.52-4.49-3.1-6.41-4.87,1.82.52,3.64,1.05,5.46,1.57.09-.15.18-.31.27-.46-.71-.72-1.42-1.45-2.13-2.17,1.85.55,3.52,1.41,4.47,3.16,1.31,2.39,1.68,4.31-.81,6.64-2.39,2.22-4.99,3.9-8.06,5.03-10.7,3.94-21.57,4.16-32.56,1.65-3.59-.82-7.06-2.1-10.12-4.23-2.39-1.66-4.23-3.67-3.91-7.2h0Z" fill="#fff" stroke-width="0"/><path d="m223.11,66.3c-.23.89-.33,1.33-.45,1.76h-4.26l-.03-.5c1.47-.4,2.95-.79,4.74-1.26Z" fill="#fff" stroke-width="0"/><path d="m213.9,67.02c.08.17.15.34.23.52-.66.18-1.32.35-1.98.53.59-.34,1.17-.7,1.76-1.05h0Z" fill="#fff" stroke-width="0"/><path d="m211.98,68.14c-.57.36-1.14.71-1.71,1.06l-.23-.53c.64-.18,1.3-.36,1.95-.54h0Z" fill="#fff" stroke-width="0"/><path d="m201.36,75.97c.73-2.71,2.62-4.28,5.29-5.2-.3.36-.57.75-.9,1.07-.37.36-.8.67-1.45,1.22,2.4.68,3.99-1.19,6.39-1-2.33,1.64-5.01,2.21-6.81,4.73,4.43-.33,7.57-3.35,11.65-3.72-.14.45-.25.81-.37,1.17l5.38-3.28-.19-.42c-2.41.64-4.82,1.29-7.24,1.95,2.61-2.04,5.54-3.08,8.72-3.46,1.54,3.92,4.94,4.45,8.28,4.8,1.28.14,2.69-.31,3.97-.72,2.98-.97,3.78-2.1,3.97-5.31,2.69-.03,4.37,2.19,7.16,2.82-2.32,1.06-4.36-.94-6.43.8,2,1.55,3.91,3.02,5.81,4.49-.03.09-.07.19-.1.28-1.07-.25-2.15-.5-3.31-.76-.72,1.78.53,2.99.96,4.35.44,1.42,1.16,2.75,2,4.65-2.13-1.5-3.86-2.52-5.35-3.82-1.54-1.34-2.84-2.94-4.3-4.48-1.48,1.26-.65,2.77-1.27,4.34-.64-1.02-1.15-1.85-1.67-2.67-1.78-2.79-3.67-2.89-5.55-.14-.93,1.37-1.54,2.96-2.26,4.46-.23.48-.37,1.01-.73,1.49-.71-3.02,1.31-5.91.5-8.99-2,0-2.89,1.89-4.79,2.22.59-.67,1.22-1.31,1.76-2.02.5-.65,1.78-.93,1.11-2.38-1.02.63-1.94,1.2-2.87,1.77h0c-.09.36-.18.72-.28,1.07-.62,1.2-1.3,2.37-1.85,3.6-.59,1.32-1.07,2.69-1.74,4.4,2.28-.47,2.7-2.26,3.82-3.25,1.17-1.03,2.32-2.09,3.92-3.52-.2,3.44-.9,6.24-.15,9.47,2.35-3.35,4.01-6.71,6.88-9.49,1.58,1.97,3.08,3.84,4.85,6.04.41-1.62.71-2.75,1.1-4.3,2.47,3.34,5.7,5.31,9.07,7.56.87-3.29-1.71-5.42-1.67-8.2,1.16.18,2.32.5,3.48.5.6,0,1.52-.45,1.7-.92.16-.43-.34-1.35-.81-1.72-1.24-.98-2.62-1.78-3.83-2.92,3.15.68,6.31,1.3,9.43,2.08.9.23,1.75.8,2.52,1.36.83.6,1.57,1.01,2.48-.16.34,2.61-.47,4.53-2.19,5.85-1.89,1.44-3.94,2.75-6.1,3.73-5.71,2.57-11.82,3.43-18.01,3.53-7.17.13-14.18-.79-20.93-3.45-3.22-1.27-5.87-3.2-8.2-5.68-1.02-1.09-1.24-2.34-.85-3.78h0Z" fill="#fff" stroke-width="0"/><path d="m536.02,145.88c.07.19.16.69.42,1.05.31.42.81,1.04,1.15,1,.54-.07,1.33-.54,1.46-.99.48-1.67,1.13-3.51-.05-5.07-1.87-2.48-3.83-4.92-5.98-7.15-1.58-1.63-3.72-1.7-5.54-.68-1.22.68-1.65,1.85-2.1,3.08-.63,1.69-1.5,1.85-2.89.68-.42-.36-.79-.8-1.21-1.17-3.22-2.87-5.3-3.18-9.06-1.14-2.18,1.18-4.2,2.63-6.38,3.81-3.87,2.08-7.84,3.97-11.72,6.06-1.75.94-3.39,2.1-5.01,3.26-1.06.76-2.09,1.28-3.43,1.5-2.84.46-5.04,1.88-5.89,4.9-.8,2.87.66,4.89,2.64,6.45,2.35,1.85,4.41,3.93,6.23,6.28.49.63,1.07,1.19,1.67,1.71,2.84,2.45,5.71,4.9,8.58,7.32,2.93,2.48,5.84,5.1,9.54,6.32,5.89,1.95,11.92,2.99,18.16,1.96,1.02-.17,2.05-.34,3.07-.5,3.52-.55,6.76-1.79,9.78-3.71,4.27-2.74,4.65-10.18,1.11-13.55-.83-.79-1.66-1.18-2.87-.59.1.57.16,1.11.29,1.63.58,2.3.03,4.14-1.74,5.84-4.16,3.97-9.17,4.9-14.63,4.4-1.5-.14-3.01-.42-4.49-.73-1.71-.36-3.52-.58-5.07-1.31-3.85-1.8-7.42-4.09-10.54-7.03-4.36-4.12-8.73-8.23-13.07-12.37-.4-.38-.63-.95-1.05-1.61,1.12-.24,1.91-.36,2.65-.59,5.26-1.63,10.49-3.34,15.77-4.91,1.25-.37.96-1.27.89-2.2,1.36.81,2.82.75,4.36-.19-.1-.58-.21-1.2-.35-1.95.87.66,1.38,1.69,2.58.94,1.03-.64,1.32-1.46,1.14-2.63-.12-.79.05-1.63.08-2.45.19-.05.39-.1.58-.14.51.67.96,1.4,1.54,2,.64.67,1.3,1.52,2.11,1.78,5.33,1.72,10.26.99,14.59-2.74.32-.27.64-.53.96-.79.09.08.18.16.27.23-.51.96-1.01,1.92-1.7,3.22,1.09.27,2.02.5,3.11.77h.01,0Z" stroke-width="0"/><path d="m499.78,181.04c-1.09-1.11-1.76-1.88-2.52-2.56-3.27-2.94-6.63-5.77-9.81-8.8-2.14-2.03-4-4.35-6.04-6.49-1.32-1.38-1.46-1.44-3-.24-1.57,1.22-3.09,2.54-4.44,4-3.83,4.12-7.15,8.65-9.19,13.93-1.7,4.39-3.24,8.85-4.61,13.37-1.52,5.01-3.64,9.75-6.25,14.24-2.59,4.44-5.82,8.41-10.43,11.01-.9.51-1.79,1.08-2.59,1.73-.92.74-.76,1.57.36,1.97,1.15.42,2.31.52,3.48-.09,1.7-.89,3.45-1.68,5.16-2.56,3.91-2.01,7.19-4.78,9.65-8.42,3.04-4.51,6.06-9.02,8.89-13.66,3.39-5.55,8.28-9.24,14.03-11.94,2.45-1.15,4.97-2.22,7.55-3.06,2.41-.79,4.94-1.21,7.41-1.8.6-.14,1.19-.31,2.35-.61h-.01,0Z" stroke-width="0"/><path d="m524.61,169.08c-1.07-.5-2.17-.94-3.2-1.52-3.72-2.08-7.61-3.75-11.79-4.57-2.65-.52-5.37-.75-8.06-.88-1.55-.08-1.93.9-1.04,2.19.18.26.4.5.63.72,4.59,4.31,9.62,7.95,15.71,9.83,4.54,1.41,9.15,1.39,13.7.05,1.36-.4,2.7-1.06,3.86-1.86,2.1-1.45,2.39-3.64.74-5.55-.97-1.12-2.16-2.14-3.43-2.91-3.81-2.29-8.02-1.64-12.15-1.32-.37.03-.72.41-1.37.81,2.6,1.39,5.19,2.25,6.41,5h.01,0Z" stroke-width="0"/><path d="m515.64,147.51c-.14,1.96-.29,4-.42,6.05-.06,1.01.4,1.75,1.38,1.95,1.47.29,2.97.62,4.46.6,3.78-.05,4.43-.8,4.37-4.48,0-.4.11-.87-.06-1.18-.27-.49-.67-1.15-1.13-1.25-2.76-.62-5.54-1.11-8.59-1.69h0Z" stroke-width="0"/><path d="m533.55,151.53c0-.38-.02-.62,0-.85.2-1.78-.77-2.84-2.2-3.62-1.49-.81-2.41.44-3.4,1.09-1.22.79-1.11,5.24.02,6.18.12.1.27.24.4.24,1.41-.05,2.88.12,4.2-.24,1.39-.38.83-1.87.97-2.78h0Z" stroke-width="0"/><path d="m506.59,151.56c0,1.83.38,2.49,1.96,2.66,1.18.13,2.38.07,3.56-.01.99-.07,1.6-.68,1.64-1.71.02-.71.01-1.44-.12-2.13-.25-1.29-.81-1.54-2.04-1.01-1.65.72-3.29,1.45-5,2.2h0Z" stroke-width="0"/><path d="m504.62,151.23c-1.48.59-2.61,1.04-3.83,1.53,1.19,1.37,2.44,1.8,3.39,1.23.98-.59.62-1.45.43-2.75h0Z" stroke-width="0"/><path d="m535.31,152.48c.29.03.58.07.87.1.24-.6.61-1.18.68-1.8.04-.32-.37-.91-.68-1-.27-.08-.96.34-1,.61-.1.68.07,1.39.13,2.09h0Z" stroke-width="0"/><path d="m133.73,134.06c.33-6.38-1.5-13.21-4.59-18.06-1.18-1.85-2.56-3.51-4.52-4.54-3.04-1.61-6.13-3.06-9.62-3.52-9.69-1.28-17.87,2.77-22.73,11.02-3.43,5.82-5.69,12.12-6.6,18.89-.59,4.35-.8,8.56,1.21,12.67,2.88,5.89,7.28,10.25,12.95,13.42,1.61.9,3.2,1.83,4.7,2.88,2.34,1.65,4.3,3.74,5.17,6.46,1.41,4.39,1.97,8.89.59,13.44-.9,2.99-1.87,5.95-2.71,8.95-.97,3.46-2,6.93-1.87,10.58.14,3.92,2.24,6.66,5.64,8.27,3.99,1.89,9.39-.4,11.34-4.53,1.19-2.51,1.52-5.2,1.65-7.93.15-2.95.03-5.95.48-8.85,1.01-6.49,4.07-10.97,10.43-12.18,1.19-.23,2.58-.16,3.73.21,2.89.93,5.24,2.74,6.92,5.3,1.67,2.56,3.08,5.24,3.64,8.29.96,5.22,2.95,10.12,4.69,15.1,2.85,8.13,8.42,13.83,15.8,17.95.75.42,2.82-.17,3.2-.94.49-.99-.13-1.7-.83-2.27-1.11-.91-2.26-1.78-3.43-2.61-3.26-2.31-5.93-5.2-7.72-8.72-2.4-4.72-3.96-9.75-4.81-15.01-.85-5.31-.94-10.66-.87-16.02.07-4.86-.76-9.57-2.52-14.08-1.16-2.97-2.38-5.95-5.05-8.02-1.33-1.02-2.52-2.23-3.83-3.27-5.16-4.08-8.56-9.26-9.76-15.75-.43-2.34-.46-4.75-.67-7.13h.02,0Z" stroke-width="0"/><path d="m273.84,65.01c.24-1.4,1.3-1.94,2.32-2.53,7.67-4.43,16.1-6.63,24.73-7.94,4.87-.74,9.88-.48,14.81.44,7.19,1.34,13.69,4.35,19.96,7.93,1.28.73,2.32,1.87,3.46,2.82-.54.97-1.14.65-1.75.47-4.82-1.42-9.59-3.05-14.47-4.18-4.97-1.16-10.05-1.79-15.19-1.84-1.35-.01-2.7-.36-4.05-.34-2.23.04-4.46.28-6.69.38-6.92.32-13.56,1.92-20.04,4.29-.75.27-1.52.49-2.3.68-.19.05-.44-.1-.8-.19h0Z" stroke-width="0"/><path d="m328.8,93.22c-1.52-.38-3.05-.72-4.56-1.16-7-2.06-14.16-2.43-21.38-1.97-5.95.38-11.66,1.79-17.08,4.36-.94.45-1.92,1.19-3.22.56.26-1.37,1.23-2.08,2.19-2.76,3.49-2.43,7.11-4.68,11.14-6.06,2.15-.74,4.52-1.11,6.81-1.18,5.2-.16,10.37.28,15.45,1.58,3.64.93,6.72,2.95,9.84,4.89.44.27.71.8,1.06,1.2-.08.19-.17.37-.25.55h0Z" stroke-width="0"/><path d="m320.64,121.14c-3.49-.59-6.96-1.49-10.47-1.7-3.48-.21-7.03.05-10.51.48-3.48.44-6.7,2.22-10.39,2.76.18-1.64.86-2.54,1.91-3.24,8.2-5.39,16.79-6.17,25.75-2.13,1.59.72,3.06,1.68,3.71,3.83h0Z" stroke-width="0"/><path d="m579.82,144.84c-2.08.74-4.13,1.62-6.25,2.2-4.38,1.19-8.8,2.24-13.22,3.27-1.15.27-2.37.26-3.56.29-.85.02-1.62-.32-1.85-1.22-.26-1.03.41-1.68,1.24-2.07.71-.33,1.49-.59,2.27-.72,5.25-.95,10.49-1.97,15.76-2.73,1.76-.25,3.63.19,5.45.31.05.22.11.45.16.67h0s0-.01,0-.01Z" stroke-width="0"/><path d="m580.2,166.35c-.89-.14-1.79-.25-2.69-.42-6.75-1.24-13.49-2.5-20.23-3.75-.24-.05-.48-.06-.71-.11-1.59-.41-2.4-1.31-2.15-2.37s1.4-1.76,2.92-1.46c2.74.53,5.51,1.02,8.16,1.86,3.81,1.2,7.53,2.66,11.26,4.08,1.23.47,2.39,1.16,3.57,1.75-.05.15-.09.3-.14.45h0Z" stroke-width="0"/><path d="m574.04,186.28c-1.27-.56-2.11-.79-2.79-1.25-5.8-3.97-11.6-7.94-17.34-12-1.44-1.01-1.67-1.99-1.13-2.8.59-.88,1.91-1.04,3.23-.07,6.12,4.51,12.07,9.22,17.22,14.85.2.22.33.5.8,1.27h0Z" stroke-width="0"/><path d="m84.9,172.06c-1.86.68-3.74,1.31-5.58,2.04-5.94,2.35-11.87,4.74-17.81,7.11-.81.33-1.63.7-2.48.88-.38.08-1.11-.13-1.22-.4-.18-.42-.12-1.11.12-1.5.27-.44.84-.72,1.33-.97,6.79-3.5,13.93-6.04,21.42-7.49,1.31-.25,2.7-.03,4.05-.03.05.12.1.24.15.37h0Z" stroke-width="0"/><path d="m573.19,126.83c-.48.38-.94.8-1.45,1.14-4.8,3.3-9.6,6.61-14.42,9.87-1.05.71-2.21,1.27-3.34,1.84-.72.36-1.57.28-1.87-.47-.23-.56-.07-1.36.13-1.98.13-.4.61-.74.99-1.01,5.69-4.01,11.64-7.56,18.36-9.61.44-.14.92-.14,1.38-.19.07.14.14.27.21.4h0Z" stroke-width="0"/><path d="m85.7,193c-1.54.24-3.08.53-4.63.73-4.97.64-9.94,1.28-14.92,1.87-1.02.12-2.08.12-3.1.03-.37-.03-.92-.48-.98-.81-.06-.33.31-.99.63-1.1,1.2-.4,2.44-.85,3.69-.9,5.65-.24,11.31-.38,16.96-.5.77-.02,1.55.24,2.34.37,0,.11,0,.21.01.32h0s0-.01,0-.01Z" stroke-width="0"/><path d="m64.99,156.72c-3.02,4.1-6.02,8.23-9.11,12.29-.66.87-1.6,1.55-2.5,2.2-.29.21-1.03.22-1.25,0-.24-.24-.2-.85-.16-1.29.03-.29.27-.58.45-.83,2.97-3.97,6.05-7.84,9.83-11.08.72-.62,1.55-1.1,2.33-1.64.13.11.26.23.39.34h.01Z" stroke-width="0"/><path d="m85.49,211.71c-9.22-.06-17.1-1.55-18.94-3.51.47-.95,1.37-.72,2.09-.61,2.99.5,5.97,1.06,8.94,1.66,1.8.37,3.58.83,5.34,1.33.72.2,1.39.6,2.57,1.13h0Z" stroke-width="0"/><path d="m498.25,313.55c.28,2.54-.13,4.7-1.06,6.72-.2.43-1.19.69-1.83.7-3.67.05-7.34-.1-11.01-.01-3.66.08-7.32.31-10.97.55-2.24.15-4.46.23-6.61-.53-.4-.14-.71-.51-1.12-.83.74-1.22,1.68-1.81,2.96-1.96,3.48-.41,6.97-.75,10.43-1.3,5.42-.86,10.82-1.87,16.23-2.82.85-.15,1.71-.3,2.99-.53h0s0,.01,0,.01Z" fill="#fff" stroke-width="0"/><path d="m466.56,414.71c.83-3.07,1.21-3.39,3.96-3.31,4.88.15,9.75.33,14.63.47,1.11.03,2.23-.08,3.35-.17,1.65-.12,2,.25,1.65,1.91-.13.62-.33,1.24-.54,1.84-.63,1.89-.64,1.85-2.7,1.72-5.34-.36-10.68-.7-16.02-1.01-1.55-.09-2.98-.46-4.34-1.44h0s0-.01,0-.01Z" fill="#fff" stroke-width="0"/><path d="m33.59,260.67c.92-.73,1.37-1.15,1.88-1.48,5.14-3.3,10-6.92,13.98-11.61,1.08-1.28,2.37-2.38,3.64-3.48,1.48-1.28,1.81-1.2,3.06.39,2.22,2.83,4.42,5.68,6.67,8.49,2.15,2.69,4.36,5.32,6.52,7.99.33.4.55.89.98,1.61-2.83,0-5.35.08-7.85-.04-1.22-.06-1.81.38-2.08,1.45-.1.38-.15.79-.14,1.19.12,4.72.01,9.45.97,14.1,2.5,12.05,9.4,20.45,20.88,25,2.08.83,4.17,1.63,6.29,2.37,1.28.45,2.02,1.22,2.04,2.61.05,3.44.16,6.89.12,10.32-.02,1.62-.43,1.95-2.37,1.85-5.26-.27-10.55-.46-15.72-1.63-2.96-.67-5.98-1.19-8.84-2.18-3.23-1.13-6.37-2.57-9.4-4.16-1.36-.71-2.52-2-3.49-3.23-3.69-4.7-5.89-10.09-6.51-16.03-.46-4.37-.55-8.77-.99-13.14-.43-4.31-.59-8.61-.08-12.93.16-1.34.05-2.72,0-4.08-.07-1.63-.49-2.01-2.19-2.18-1.59-.15-3.18-.28-4.77-.49-.69-.09-1.35-.37-2.6-.74h0s0,.01,0,.01Z" fill="#fff" stroke-width="0"/><path d="m67.39,463.36c2.29,0,4.43.06,6.56-.02,2.01-.07,4.02-.3,6.3-.47-.24.65-.35.93-.46,1.22,0,0-20.76,22.53-20.93,22.7-2.18-2.54-4.21-5.2-6.55-7.55-2.31-2.32-4.92-4.32-7.4-6.47-2.52-2.19-5.02-4.38-7.58-6.62.79-1.11,1.79-.67,2.69-.7,2.54-.08,5.09-.1,7.62-.33,1.46-.14,2.07-1.14,1.78-2.57-.88-4.29-.48-8.59-.19-12.9.14-1.98.44-3.96.75-5.94.72-4.7,2.17-9.15,4.53-13.32,4.95-8.71,12.1-14.6,21.89-16.93,3.48-.83,7.09-1.07,10.65-1.52,1.44-.18,1.85.18,1.98,1.71.25,2.79.39,5.58.62,8.37.1,1.13-.42,1.7-1.39,2.22-3.43,1.88-6.82,3.86-10.2,5.83-2.48,1.45-4.35,3.49-5.72,6.01-1.14,2.1-2.59,4.09-3.4,6.31-.87,2.37-1.28,4.94-1.64,7.46-.55,3.95-1.07,7.93-.31,11.94.07.38.18.76.36,1.54h0Z" fill="#fff" stroke-width="0"/><path d="m145.4,318.99c-2.23,1.96-4.55,1.91-6.55,1.62-7.18-1.03-14.38-.43-21.56-.72-1.59-.06-2.05-.28-2.29-1.84-.24-1.53-.99-3.07-.14-4.96,2.63.49,5.29.93,7.91,1.5,4.3.94,8.65,1.44,13.04,1.72,2.46.16,4.92.57,7.34,1.06.73.15,1.33.93,2.25,1.62h0Z" fill="#fff" stroke-width="0"/><path d="m122.73,411.21c.53-.1.98-.25,1.44-.27,5.43-.18,10.87-.4,16.31-.46,1.23-.02,2.52.36,3.67.82,1.55.62,1.63,2.04.1,2.79-1.18.59-2.57.92-3.9,1.03-3.26.27-6.55.34-9.82.52-1.19.07-2.38.21-3.57.35-3.31.4-3.69.34-4.39-3.32-.08-.44.08-.92.14-1.48h.01Z" fill="#fff" stroke-width="0"/><path d="m536.02,145.88c-1.09-.27-2.02-.5-3.11-.77.69-1.31,1.19-2.26,1.7-3.22-.09-.08-.18-.16-.27-.23-.32.27-.64.52-.96.79-4.34,3.73-9.26,4.46-14.59,2.74-.81-.26-1.48-1.11-2.11-1.78-.58-.61-1.03-1.33-1.54-2-.19.05-.39.1-.58.14-.03.82-.2,1.65-.08,2.45.18,1.18-.11,1.99-1.14,2.63-1.2.75-1.71-.28-2.58-.94.14.75.24,1.37.35,1.95-1.54.94-3,1-4.36.19.07.93.36,1.83-.89,2.2-5.28,1.58-10.51,3.28-15.77,4.91-.75.23-1.53.34-2.65.59.42.66.65,1.23,1.05,1.61,4.34,4.14,8.71,8.25,13.07,12.37,3.12,2.94,6.69,5.23,10.54,7.03,1.55.72,3.36.94,5.07,1.31,1.48.31,2.98.59,4.49.73,5.46.5,10.46-.42,14.63-4.4,1.77-1.69,2.32-3.54,1.74-5.84-.13-.53-.19-1.06-.29-1.63,1.21-.59,2.04-.2,2.87.59,3.55,3.37,3.16,10.82-1.11,13.55-3.02,1.93-6.25,3.17-9.78,3.71-1.02.16-2.05.33-3.07.5-6.24,1.04-12.28-.01-18.16-1.96-3.71-1.23-6.61-3.84-9.54-6.32-2.87-2.43-5.73-4.87-8.58-7.32-.61-.52-1.19-1.09-1.67-1.71-1.82-2.36-3.88-4.43-6.23-6.28-1.98-1.56-3.44-3.58-2.64-6.45.84-3.02,3.05-4.44,5.89-4.9,1.34-.22,2.37-.74,3.43-1.5,1.61-1.17,3.26-2.32,5.01-3.26,3.87-2.09,7.84-3.98,11.72-6.06,2.18-1.17,4.21-2.62,6.38-3.81,3.75-2.04,5.84-1.73,9.06,1.14.42.37.78.8,1.21,1.17,1.39,1.18,2.26,1.01,2.89-.68.45-1.22.88-2.4,2.1-3.08,1.82-1.01,3.96-.95,5.54.68,2.15,2.23,4.11,4.67,5.98,7.15,1.18,1.56.53,3.4.05,5.07-.13.46-.92.92-1.46.99-.34.05-.85-.58-1.15-1-.27-.36-.35-.86-.42-1.05h-.01,0Z" fill="#fff" stroke-width="0"/><path d="m499.78,181.04c-1.16.31-1.75.47-2.35.61-2.48.59-5,1.02-7.41,1.8-2.58.84-5.09,1.91-7.55,3.06-5.75,2.7-10.64,6.39-14.03,11.94-2.83,4.64-5.86,9.15-8.89,13.66-2.46,3.65-5.74,6.42-9.65,8.42-1.71.88-3.45,1.67-5.16,2.56-1.17.61-2.33.5-3.48.09-1.12-.41-1.28-1.24-.36-1.97.81-.65,1.69-1.22,2.59-1.73,4.61-2.6,7.84-6.57,10.43-11.01,2.61-4.48,4.73-9.23,6.25-14.24,1.37-4.51,2.91-8.97,4.61-13.37,2.05-5.28,5.36-9.8,9.19-13.93,1.35-1.45,2.87-2.78,4.44-4,1.54-1.19,1.68-1.14,3,.24,2.04,2.14,3.9,4.46,6.04,6.49,3.18,3.02,6.55,5.86,9.81,8.8.75.68,1.42,1.45,2.52,2.56h.01,0Z" fill="#fff" stroke-width="0"/><path d="m524.61,169.08c-1.22-2.74-3.81-3.6-6.41-5,.66-.4,1-.79,1.37-.81,4.13-.33,8.33-.97,12.15,1.32,1.27.76,2.46,1.78,3.43,2.91,1.66,1.91,1.36,4.1-.74,5.55-1.16.8-2.5,1.46-3.86,1.86-4.55,1.34-9.17,1.36-13.7-.05-6.09-1.89-11.12-5.52-15.71-9.83-.23-.22-.45-.46-.63-.72-.89-1.29-.51-2.27,1.04-2.19,2.7.14,5.42.36,8.06.88,4.18.83,8.07,2.5,11.79,4.57,1.03.58,2.13,1.02,3.2,1.52h-.01,0Z" fill="#fff" stroke-width="0"/><path d="m515.64,147.51c3.04.58,5.83,1.07,8.59,1.69.46.1.86.76,1.13,1.25.17.31.06.78.06,1.18.06,3.68-.59,4.43-4.37,4.48-1.48.02-2.99-.31-4.46-.6-.98-.19-1.44-.94-1.38-1.95.13-2.05.29-4.09.42-6.05h0Z" fill="#fff" stroke-width="0"/><path d="m533.55,151.54c-.14.92.42,2.4-.97,2.78-1.32.37-2.79.2-4.2.24-.13,0-.28-.14-.4-.24-1.14-.94-1.24-5.39-.02-6.18.99-.64,1.91-1.89,3.4-1.09,1.43.78,2.4,1.85,2.2,3.62-.03.24,0,.48,0,.85h0Z" fill="#fff" stroke-width="0"/><path d="m506.59,151.56c1.71-.75,3.35-1.48,5-2.2,1.22-.54,1.79-.28,2.04,1.01.13.7.15,1.42.12,2.13-.03,1.02-.64,1.64-1.64,1.71-1.18.08-2.39.14-3.56.01-1.58-.17-1.96-.83-1.96-2.66h0Z" fill="#fff" stroke-width="0"/><path d="m504.62,151.23c.19,1.3.55,2.17-.43,2.75-.96.57-2.21.15-3.39-1.23,1.22-.49,2.34-.93,3.83-1.53h0Z" fill="#fff" stroke-width="0"/><path d="m535.31,152.49c-.06-.7-.23-1.41-.13-2.09.04-.27.73-.68,1-.61.32.1.72.68.68,1-.08.62-.44,1.2-.68,1.8-.29-.03-.58-.07-.87-.1h0Z" fill="#fff" stroke-width="0"/><path d="m133.72,134.06c.21,2.38.24,4.79.67,7.13,1.19,6.49,4.6,11.68,9.76,15.75,1.32,1.04,2.51,2.24,3.83,3.27,2.67,2.06,3.89,5.05,5.05,8.02,1.76,4.51,2.58,9.23,2.52,14.08-.07,5.36.02,10.71.87,16.02.85,5.25,2.41,10.29,4.81,15.01,1.79,3.52,4.46,6.41,7.72,8.72,1.17.83,2.32,1.7,3.43,2.61.7.57,1.31,1.28.83,2.27-.38.77-2.45,1.36-3.2.94-7.38-4.12-12.95-9.83-15.8-17.95-1.75-4.98-3.73-9.88-4.69-15.1-.57-3.05-1.97-5.74-3.64-8.29-1.68-2.56-4.03-4.37-6.92-5.3-1.15-.37-2.54-.44-3.73-.21-6.36,1.22-9.42,5.69-10.43,12.18-.45,2.91-.33,5.9-.48,8.85-.14,2.73-.47,5.42-1.65,7.93-1.95,4.13-7.35,6.42-11.34,4.53-3.39-1.61-5.5-4.35-5.64-8.27-.14-3.65.89-7.12,1.87-10.58.84-3,1.8-5.97,2.71-8.95,1.38-4.55.82-9.06-.59-13.44-.88-2.73-2.84-4.82-5.17-6.46-1.5-1.06-3.1-1.98-4.7-2.88-5.67-3.17-10.06-7.53-12.95-13.42-2.01-4.1-1.8-8.32-1.21-12.67.92-6.77,3.18-13.08,6.6-18.89,4.86-8.25,13.04-12.3,22.73-11.02,3.49.46,6.58,1.92,9.62,3.52,1.97,1.03,3.35,2.69,4.52,4.54,3.09,4.85,4.92,11.69,4.59,18.06h-.02,0Zm-13.25-.65c-1.94-2.27-3.97-3.06-6.62-2.57-5.51,1.02-10.49,4.96-11.41,10.8-.97,6.12.53,10.79,5.3,13.82.61.38,1.18.84,1.82,1.16,2.57,1.27,4,3.39,4.56,6.11.3,1.48.46,2.99.55,4.5.1,1.67.02,3.36.04,5.04.02,2.14,1.01,3.86,2.53,5.24.54.49,1.39.82,2.13.89,3.06.3,4.77-1.29,5.07-4.38.27-2.76-.71-5.17-1.76-7.61-.67-1.53-1.36-3.1-1.66-4.73-.5-2.76,1.76-5.04,4.55-4.82.61.05,1.21.19,1.99.32-.07-1.59-.97-2.31-2.06-2.84-2.36-1.16-5.15-.76-7.13,1.03-.87.78-1.67,1.63-2.48,2.43-1.88-1.23-2.25-2.62-1.36-4.43.2-.41.12-.94.23-1.89-1.13,1.18-1.87,1.96-2.57,2.7-1.4-.42-1.99-1.04-1.24-2.32.4-.69.77-1.4,1.12-2.12.44-.88,1.25-1.63,1.15-2.98-2.3,1.16-2.92,3.69-4.86,5.12-1.37-1.8,0-3.14.54-4.46.61-1.49,1.55-2.84,2.36-4.25-.15-.11-.29-.21-.44-.32-1.31,1.4-2.61,2.8-4.1,4.4-.14-.62-.29-.92-.25-1.19.58-3.73,2.11-6.92,5.66-8.66,1.85-.91,3.84-1.52,5.77-2.26.94-.36,2.09-.38,2.6-1.71h-.02Zm-23.15,16.12c0-.78.15-1.3-.02-1.65-1.53-3-1.48-6.24-1.13-9.41.77-6.98,3.3-12.91,10.05-16.35,5.39-2.75,12.72-1.87,17.17,2.26,2.45,2.27,3.55,6.39,1.83,9.89-.21.43-.51.82-.68,1.26-.38.97-.39,1.88.6,2.54.92.62,1.67.18,2.39-.4,1.06-.85,1.74-1.95,1.7-3.3-.06-1.75-.08-3.55-.53-5.21-1.19-4.42-3.61-8.28-7.76-10.21-7.84-3.62-15.11-1.5-21.39,4.76-2.72,2.71-4.34,6.32-5.26,10.12-.96,4.01-1.11,8.07-.26,12.11.33,1.58,1.13,2.96,3.31,3.58h0Z" fill="#fff" stroke-width="0"/><path d="m120.47,133.41c-.51,1.33-1.66,1.35-2.6,1.71-1.93.75-3.92,1.35-5.77,2.26-3.55,1.75-5.08,4.92-5.66,8.66-.05.27.11.58.25,1.19,1.49-1.6,2.8-3,4.1-4.4.15.11.29.21.44.32-.8,1.41-1.74,2.76-2.36,4.25-.54,1.32-1.91,2.66-.54,4.46,1.94-1.43,2.56-3.95,4.86-5.12.1,1.35-.71,2.09-1.15,2.98-.35.72-.72,1.43-1.12,2.12-.75,1.29-.16,1.9,1.24,2.32.71-.74,1.45-1.52,2.57-2.7-.11.95-.03,1.49-.23,1.89-.89,1.8-.53,3.2,1.36,4.43.81-.8,1.62-1.65,2.48-2.43,1.98-1.8,4.77-2.19,7.13-1.03,1.1.54,1.98,1.25,2.06,2.84-.78-.12-1.39-.27-1.99-.32-2.79-.21-5.05,2.06-4.55,4.82.3,1.62.99,3.2,1.66,4.73,1.06,2.44,2.03,4.85,1.76,7.61-.3,3.09-2.01,4.68-5.07,4.38-.74-.07-1.58-.4-2.13-.89-1.52-1.38-2.51-3.1-2.53-5.24-.02-1.68.06-3.36-.04-5.04-.08-1.5-.25-3.02-.55-4.5-.55-2.73-1.98-4.85-4.56-6.11-.64-.32-1.21-.77-1.82-1.16-4.77-3.02-6.26-7.7-5.3-13.82.92-5.84,5.9-9.78,11.41-10.8,2.64-.49,4.68.3,6.62,2.57h.02Z" stroke-width="0"/><path d="m97.33,149.53c-2.18-.62-2.97-2-3.31-3.58-.85-4.04-.71-8.1.26-12.11.92-3.8,2.54-7.41,5.26-10.12,6.28-6.26,13.55-8.39,21.39-4.76,4.15,1.92,6.58,5.78,7.76,10.21.45,1.67.47,3.47.53,5.21.05,1.35-.64,2.45-1.7,3.3-.72.58-1.47,1.01-2.39.4-.98-.66-.98-1.58-.6-2.54.18-.44.47-.83.68-1.26,1.72-3.49.62-7.63-1.83-9.89-4.45-4.13-11.78-5-17.17-2.26-6.76,3.44-9.28,9.38-10.05,16.35-.35,3.16-.4,6.4,1.13,9.41.18.35.02.87.02,1.65h0Z" stroke-width="0"/><path d="m577.12,261.43c-2.34,1.28-4.55,1.14-6.66,1.39-2.47.29-2.66.38-2.73,2.91-.04,1.44-.01,2.88.02,4.32.19,8.8-.25,17.57-1.42,26.3-.77,5.77-3.11,10.89-6.74,15.41-.79.98-1.76,1.9-2.82,2.56-3.26,2.05-6.73,3.74-10.5,4.6-4.66,1.06-9.36,2.05-14.08,2.84-2.59.44-5.25.47-7.89.59-1.5.07-1.94-.3-1.95-1.78-.03-3.76.08-7.52.12-11.28.02-1.45.91-2.09,2.14-2.52,3.63-1.28,7.1-2.86,10.42-4.84,8.65-5.15,12.85-13.15,14.55-22.63.73-4.07.7-8.27.98-12.42.05-.71.07-1.52-.23-2.11-.27-.55-.97-1.22-1.51-1.24-2.67-.12-5.35-.06-8.24-.06.16-.41.24-.85.49-1.16,4.44-5.56,8.92-11.09,13.35-16.65,1.48-1.85,1.76-1.95,3.55-.27,1.63,1.53,3.24,3.1,4.74,4.75,3.65,4.01,8.03,7.07,12.53,10,.52.34,1.02.71,1.87,1.3h.01Z" fill="#fff" stroke-width="0"/><path d="m551.62,487.85c-.74-.9-1.33-1.63-1.94-2.35-1.7-2.01-3.34-4.09-5.13-6.02-4.09-4.39-8.26-8.7-12.38-13.05-.58-.62-1.09-1.31-1.7-2.08.87-.78,1.65-.51,2.41-.45,1.82.14,3.65.25,5.47.32,1.19.05,2.38-.03,3.57.01,1.46.06,1.81-.19,1.91-1.75.36-5.94.27-11.93-1.55-17.6-1.93-6-5.11-11.38-10.91-14.66-2.3-1.29-4.52-2.73-6.83-4-1.2-.67-1.69-1.46-1.5-2.89.34-2.61.47-5.25.73-7.88.07-.69.25-1.36.38-2.07,4.76-.34,9.09.67,13.39,1.93,5.31,1.57,9.48,4.91,13.29,8.72,6.15,6.15,9.09,13.84,10.17,22.27.58,4.51.64,9.07.86,13.62.05,1.02-.2,2.06-.44,3.07-.44,1.82.04,2.9,1.82,3.09,2.44.25,4.92.24,7.38.34.84.03,1.67.07,3.1.14-.78.88-1.13,1.35-1.55,1.72-3.11,2.75-6.24,5.49-9.36,8.23-.18.16-.34.35-.53.49-3.83,2.73-6.83,6.25-9.6,9.99-.18.24-.48.4-1.03.85h.02Z" fill="#fff" stroke-width="0"/><path d="m259.17,75.61c.88,5.41-2.39,8.25-6.37,10.47-2.08,1.15-4.34,2.06-6.63,2.71-8.1,2.3-16.38,2.88-24.71,1.76-4.81-.64-9.62-1.39-14.13-3.53-4.46-2.11-8.28-4.6-9.02-10.33h0c-16.39,14.3-18.62,39.1-10.96,53.34.67-.14,1.33-.32,1.99-.5,0,0,0-.01,0-.01-1.68-5.12-3.69-10.19-2.8-15.78.01-.07.07-.14.18-.35h0c.55,5.51,2.44,10.56,4.26,15.73.9-.2,1.8-.36,2.7-.36.58,0,1.09-.06,1.53-.19-1.55-3.9-2.5-7.95-1.99-12.35,1.28,3.73,2.56,7.46,3.82,11.2.38-.43.72-.94,1.03-1.57.78-1.57,1.64-3.09,2.71-4.46-.11-1.41.08-2.86-.05-4.3.62,1.03,1.06,1.97,1.34,2.84.34-.34.69-.67,1.07-.98,3.75-3.05,7.83-5.54,12.21-7.54,6.43-2.94,13.26-4.19,20.28-4.18,3.82,0,7.72-.06,11.4,1.26,3.31,1.18,6.65,2.35,9.8,3.9.77.38,1.52.79,2.24,1.23.25-.83.51-1.67.77-2.5l.48.19c-.24.9-.35,1.83-.57,2.74,2.12,1.35,4.02,2.95,5.71,4.77.15-1.45.88-2.74,1.28-4.11.51-1.74,1.11-3.45,1.68-5.17v-.02h0s0,.01,0,.02c-.06,3.48-.74,6.76-2.6,9.68,1.48,1.65,2.78,3.48,3.91,5.48.14-4.15,1.5-11.26,3.02-14.96-.61,5.3-.9,10.65-2.41,16.07.75,1.4,1.45,2.83,2.21,4.31,8.65-18.25,2.01-43.1-13.37-54.5h0Z" fill="#fff" stroke-width="0"/><path d="m411.84,75.99c-.23.72-.43,1.39-.65,2.05-.77,2.35-2.04,4.35-4.19,5.66-3.16,1.92-6.44,3.61-10.05,4.43-9.86,2.23-19.78,2.69-29.73.57-4.25-.9-8.37-2.17-11.93-4.78-3.05-2.24-5.28-4.95-4.63-9.22-9.27,7.77-14.64,17.62-16.53,29.44-1.6,10,1.27,22.85,3.55,25.31.34-.63.67-1.28,1.01-1.92-2.74-5.35-1.96-11.21-1.98-16.96.47,5.54.74,11.1,2.22,16.49.85-1.67,1.71-3.34,2.76-4.9,1.91-2.83,4.13-5.16,6.59-7.11-.06-.87-.13-1.74-.19-2.61l.44-.07c.16.72.32,1.43.47,2.15,5.18-3.87,11.36-6.07,18-7.37,5.11-1,10.36-.64,15.54.07,6.51.9,12.52,3.25,18.14,6.56.46.27.91.54,1.36.83.17-.64.58-1.27,1.36-2.32-.25.86-.5,1.71-.79,2.69,2.13,1.37,4.11,2.88,5.82,4.67.87-1.97,1.74-3.94,2.61-5.9-.33,2.39-.67,4.78-1.74,6.87,1.31,1.54,2.43,3.27,3.27,5.27.18.44.48.84.8,1.19.26.28.62.57.97.63.21.03.42.06.63.1,1.69-5.43,3.39-10.86,5.08-16.29.15.02.29.05.44.07-.36,2.15-.66,4.31-1.11,6.44-.46,2.18-1,4.35-1.65,6.47-.37,1.21-.71,2.45-1.36,3.52,2.15.33,4.3.65,6.47.97,8.33-16.73,3.58-40.94-10.99-52.99h0Zm-70.18,44.77h0c-.52-3.09-.29-6.16.41-9.7.19,3.52.34,6.58.51,9.63-.31.02-.61.05-.92.07Z" fill="#fff" stroke-width="0"/><path d="m289.39,158.04c-.03,2.12.27,2.52,2.44,2.43,7.98-.31,15.97-.61,23.95-.91.32-.01.64,0,.96-.03,1.58-.15,1.89-.5,1.84-2.14-.07-2.16-.25-4.31-.23-6.47.02-1.58.14-3.16.26-4.73-1.7-.23-3.38-.55-5.06-.99-5.03-1.3-10.11-1.54-15.2-.25-1.63.41-3.25.88-4.9,1.18-1.43.26-2.86.46-4.29.58.06.19.12.38.12.58.07,3.59.16,7.18.1,10.77h0Z" fill="#fff" stroke-width="0"/><path d="m499.55,359.41c-.68-3.35-2.05-6.55-2.96-9.86-1.19-4.37-4.29-7.5-6.82-11.47-1.67,2.8-3.38,5.16-4.55,7.75-1.99,4.38-2.74,9.01-1.48,13.8.19.72.37,1.59-.55,1.79-.42.09-1.18-.44-1.49-.9-1.09-1.63-1.63-3.48-1.62-5.44.02-4.45.65-8.77,2.74-12.78,2.11-4.04,3.96-8.23,6.9-11.78.31-.37.55-.79.78-1.21,1.16-2.15,2.02-4.33,2.64-6.52-.43-.02-.86-.02-1.28-.03-4.96-.15-9.92-.23-14.89-.19-3.11.02-6.21.37-9.32.42-.98.02-2.09-.27-2.92-.78-1.8-1.1-1.74-3.48.11-4.51,1.09-.61,2.36-1.05,3.6-1.21,8.67-1.1,17.32-2.23,25.82-4.33-.2-3.68-.95-7.37-2.11-11.05-2.4-7.58-6.96-14.02-12.63-19.61-3.05-3.01-6.83-4.95-10.61-7.18-2.09,3.45-2.99,7.03-2.62,10.87.22,2.31.72,4.58,1.11,6.87.5,2.95,1.62,5.68,2.97,8.33.61,1.2,1.36,2.44.96,4.31-3.7-3.44-6.89-6.77-8.09-11.48-1.2-4.75-2.06-9.49-1.03-14.46.65-3.13,1.85-5.97,3.33-8.7,2.05-3.76,3.39-7.69,4.27-11.89,1-4.73.81-9.41.06-14.07-.39-2.41-1.16-4.86-2.22-7.07-2.61-5.48-5.96-10.43-11.43-13.55-.62-.35-1.07-1-1.61-1.52.97-1.04,1.69-.58,2.4-.24,4.43,2.07,8.23,4.91,11.12,8.91.59.82,1.34,1.52,2.09,2.36,1.46-1.84,2.48-3.65,2.5-5.82.02-2.63.07-5.29-.23-7.89-.66-5.75-2.23-11.12-5.2-15.85-2.33,3.25-4.43,6.65-6.72,9.91-2.48,3.53-5.71,6.25-9.53,8.24-2.62,1.36-5.29,2.63-7.94,3.94-1.15.57-2.31.55-3.49.07-1.75-.72-2.27-2.36-1.12-3.87.52-.67,1.24-1.26,1.98-1.69,7.36-4.32,12.28-10.65,15.23-18.53.94-2.5,1.82-5.02,2.69-7.54-2.22-1.7-4.64-3.12-7.43-3.97-.79-.24-1.6-.42-2.54-.67-.03.72-.1,1.11-.07,1.5.5,6.39-1.45,12.34-3.35,18.29-.27.85-.51,1.84-1.91,2.02-.08-.72-.24-1.34-.2-1.94.12-1.75.24-3.52.52-5.25.99-6.25.89-12.45-.82-18.57-1.31-4.66-4-8.61-7.45-11.85-4.39-4.12-9.34-7.53-15.28-9.18-.61-.17-1.23-.41-1.75-.76-.35-.23-.55-.71-.91-1.2.59-.23,1.03-.56,1.45-.53,5.29.38,10.48,1.16,15.07,4.51.61-1.87,1.15-3.38,1.58-4.91.89-3.15,1.07-6.36.05-9.48-1.02-3.11-2.07-6.25-3.52-9.18-3.27-6.59-9.11-9.97-16.1-10.68-8.35-.84-16.61.32-24.48,3.51-.4.16-.84.24-1.36.39.36-1.76.37-1.89,1.65-2.55,4.27-2.2,8.52-4.44,13.42-4.95,1.09-.11,2.15-.46,3.35-.74-.88-2.57-2.66-4.24-4.48-5.69-4.73-3.74-9.98-6.63-15.58-8.88-6.71-2.69-13.62-3.18-20.74-2.17-4.57.65-8.92,1.89-12.96,4.12-6.17,3.4-9.98,8.85-12.97,15.01-.51,1.05-.8,2.2-1.31,3.65,4.2-1.98,7.99-3.84,12.26-4.3,4.2-.45,8.32-.51,12.14,1.75-1.02.4-2.02.61-3.04.73-7.3.83-14.18,2.75-20.09,7.14,1.66,1.54,3.25,2.99,4.76,4.51,5.04,5.04,10.79,9.02,17.43,11.65,1.45.57,3.08.74,4.65.9,3.42.36,6.84.79,10.27.83,3.99.05,8-.14,11.96-.53,2.92-.29,5.78-1.09,8.67-1.69.46-.1.95-.23,1.35-.47,4.42-2.73,9.25-4.79,13.23-8.19,3.19-2.73,5.73-6.01,7.85-9.63.44-.75.62-1.88,2.03-1.84h.01c0,.45.1.85-.02,1.17-1.06,2.96-2.65,5.58-4.73,7.99-2.8,3.26-5.85,6.21-9.66,8.14-7.14,3.62-14.54,6.63-22.39,8.39-.31.07-.63.19-.94.19-5.43-.02-10.87-.06-16.18-1.48-2-.54-4.01-1.08-6.03-1.55-5.26-1.23-9.6-4.24-13.98-7.18-3.75-2.52-7.01-5.55-9.83-9.06-.15-.18-.27-.38-.4-.59-.48.38-.99.74-1.5,1.07-4.22,2.76-8.76,4.7-13.88,4.78-.89.01-1.78,0-2.66-.06.09,3.1.16,6.21.19,9.31.01,1.19-.15,2.39-.29,3.58-.2,1.67-.62,2.17-2.24,2.21-9.67.24-19.34.46-29.02.62-2.4.04-2.63-.25-2.65-2.65-.02-3.6.03-7.2.14-10.79.02-.66.19-1.32.36-1.98-3.12.15-6.22-.16-9.3-1.32-2.9-1.08-5.61-2.49-8.06-4.33-1.02,1.56-2.2,2.94-3.48,4.3-3.73,3.96-8.33,6.71-12.78,9.67-3.09,2.05-6.68,3.05-10.26,3.92-5.14,1.25-10.35,2.09-15.67,1.61-3.02-.27-6.02-.79-9.04-1.06-5.77-.53-10.96-2.86-16.11-5.21-4.39-2-8.29-4.73-11.43-8.54-1.79-2.17-3.7-4.2-4.81-6.82-.36-.84-.59-1.72-.91-2.66,1.44-.42,1.63.52,2.05,1.12,1.43,2.02,2.75,4.13,4.31,6.05,3.35,4.12,7.83,6.74,12.38,9.32,5.14,2.91,10.77,3.94,16.45,4.81,2.68.41,5.39.66,8.09.94,3.87.4,7.62-.62,11.42-1.06,6.57-.75,11.79-4.18,16.96-7.87,4.03-2.88,7.32-6.51,10.69-10.14-2.04-1.48-4.25-2.65-6.58-3.65-4.39-1.89-8.97-2.88-13.71-3.34-.97-.1-1.92-.36-2.87-.54.03-.19.06-.38.1-.58,8.37-3.38,16.24-1.22,23.93,2.64.07-.33.17-.5.12-.62-2.34-6.67-6.1-12.32-11.96-16.4-4.57-3.18-9.73-4.77-15.23-5.38-5.03-.57-10.02-.79-15.01.51-7.8,2.03-14.72,5.8-21.03,10.67-1.89,1.46-3.73,3.18-4.53,5.84,1.74.33,3.29.66,4.86.9,4.51.72,8.46,2.84,12.43,4.93.79.41,1.38,1.06,1.06,2.18-.32-.05-.55-.05-.75-.12-7.55-3.06-15.43-3.99-23.53-3.73-6.6.21-15.73,4.71-18.51,13.06-.71,2.13-1.57,4.2-2.27,6.33-1.72,5.17-.55,10.02,1.53,14.71,2.71-1.14,5.2-2.63,7.88-3.18,2.67-.55,5.51-1.39,8.4-.68-.17,1.66-1.36,1.82-2.27,2.1-3.17.97-5.99,2.52-8.82,4.23-5.29,3.21-9.31,7.5-12.28,12.86-.54.97-1.03,2.01-1.34,3.07-1.54,5.28-2.1,10.66-1.44,16.15.34,2.86.7,5.72,1,8.58.07.73.31,1.61-.79,2.12-.31-.34-.75-.63-.9-1.03-2.47-6.62-4.47-13.34-3.87-20.81-1.06.28-1.84.42-2.56.7-.85.33-1.67.69-2.49,1.07.42,4,1.11,7.96,2.43,11.79,1.95,5.7,4.53,11.13,8.63,15.65.77.84,1.88,1.48,2.96,1.92,1.91.78,3.24,2.08,4,3.91.98,2.36-.13,4.15-2.66,4.47-1.38.18-2.67.05-3.88-.83-2.64-1.93-5.41-3.7-8-5.69-4.79-3.68-7.81-8.66-9.74-14.28-1.14-3.3-2.08-6.67-3.08-10.02-3.14,3.27-5.6,6.95-7.24,11.37-2.25,6.07-3.09,12.22-2.48,18.61.19,1.96,1.1,3.58,2.59,5.12.78-.93,1.49-1.67,2.09-2.51,2.88-4.01,6.73-6.8,11.14-8.89.64-.3,1.31-.72,2.08.32-.34.41-.67.92-1.11,1.28-.87.7-1.82,1.31-2.73,1.96-5.09,3.67-7.89,8.97-10.05,14.62-1.23,3.21-1.59,6.67-1.66,10.14-.14,6.69,1.26,13,4.38,18.93.89,1.7,1.83,3.39,2.55,5.16,1.76,4.29,2.55,8.74,1.75,13.37-.29,1.66-.6,3.31-.94,4.95-1.08,5.09-4.23,8.77-8.21,12.3-.44-1.61.1-2.71.66-3.69,2.84-4.93,3.59-10.42,4.2-15.91.42-3.74-.54-7.27-2.65-10.65-3.78,2.19-7.56,4.13-10.55,7.2-7.9,8.12-13.31,17.4-14.36,28.69,4.53,1,9.06,2.11,13.64,2.73,3.4.45,6.83.66,10.19,1.42.37.08.79-.02,1.18-.07,2.1-.24,3.96,1,4.52,3,.33,1.19-.14,2.11-1.11,2.65-.82.46-1.78.84-2.7.9-1.99.14-4,.1-6,.03-2.87-.1-5.73-.38-8.61-.43-2.96-.05-5.93.06-8.88.17-.58.02-1.16.11-1.81.22.7,3.53,2.03,6.86,4.19,9.92,2.89,4.09,5.19,8.45,7.38,12.9,1.88,3.83,2.4,7.98,2.12,12.17-.11,1.68-.96,3.34-1.62,4.95-.15.36-.89.49-1.35.72-.2-.46-.53-.91-.57-1.39-.05-.54.21-1.09.28-1.65.14-1.19.35-2.39.32-3.57-.18-6.28-2.89-11.51-6.88-16.42-1.47,2.12-2.96,4.08-4.24,6.16-2.63,4.28-3.72,9.15-5.16,13.89-.07.23-.06.47-.1.71-.97,5.05-1.26,10.16-1.13,15.3.26,10.39,2.94,19.91,10.01,27.85.54.61,1.19,1.11,1.97,1.83.25-.88.44-1.33.5-1.8.94-6.89,2.15-13.76,1.59-20.77-.07-.82-.4-1.75.89-2.5.35.75.8,1.4.96,2.11.32,1.48.65,2.99.68,4.5.06,2.8-.16,5.6-.14,8.4.03,4.7-.11,9.38-.66,14.06.63,0,1.26-.03,1.89-.06,4.79-.24,9.58-.53,14.37-.76,2.45-.12,4.31,1.49,4.46,3.74.15,2.28-1.23,3.86-3.73,4.1-4.85.47-9.71.87-14.56,1.32-.79.07-1.57.28-2.36.41-.35.06-.65.16-.91.28,0,1.55.1,3.1.34,4.65.47,2.92.98,5.84,1.33,8.78,1.06,8.89,5.34,16,12.09,21.68,2.75,2.32,5.68,4.43,8.54,6.63.4.31.85.54,1.62,1.02.11-2.01.02-3.7.32-5.33.55-2.97,1.26-5.91,2.05-8.83.23-.86.84-2.04,1.99-1.55,1.04.43.47,1.57.25,2.37-.9,3.28-1.14,6.59-.87,9.99.16,1.98.13,4-.05,5.98-.32,3.51.51,6.78,2.31,9.64,2.21,3.51,4.27,7.11,6.93,10.35,3.17,3.87,6.9,6.88,11.4,8.96,4.37,2.02,8.94,2.65,13.97,1.78-.96-1.98-1.83-3.76-2.68-5.54-1.84-3.84-2.66-7.86-2.23-12.12.05-.53.34-1.04.71-2.1.52,1.07.87,1.52.96,2.02.63,3.21,2.11,6.02,3.97,8.65,3.97,5.6,7.66,11.39,12.87,16.06,4.19,3.75,8.96,6.11,14.33,7.37,3.31.77,6.68.77,10.02.1,7.42-1.49,14.19-4.48,20.01-9.36,1.95-1.63,3.9-3.43,5.29-5.52,2.41-3.64,4.86-7.4,4.41-12.16-.06-.68.36-1.41.57-2.17.53.19.83.2.96.35,2.02,2.46,3.68,5.09,3.02,8.48-.8,4.19-2.75,7.82-5.52,11.04-.82.96-1.65,1.91-2.66,3.08v.03c1.48.5,2.66.96,3.88,1.28,2.62.67,5.24,1.58,7.92,1.83,4.53.42,8.94-.59,13.12-2.32,1.66-.69,3.21-1.77,4.63-2.91,1.87-1.5,3.61-3.18,5.3-4.87,3.01-3,5.89-6.12,7.63-10.09.88-2.01,1.12-4.08.91-6.41-1.19.3-2.18.57-3.18.81-3.68.85-7.47,1.03-10.82-.69-4.57-2.35-8.61-5.55-11.38-10.05-.55-.9-1.19-1.97-.21-2.82,1-.87,1.76.19,2.45.78,1.22,1.03,2.19,2.59,3.58,3.13,3.97,1.55,7.72,3.83,12.29,3.71,2.21-.06,4.25-.64,6.37-.9,3.45-.43,6.17-1.99,8.4-4.6.86-1.01,1.86-1.89,2.93-2.97.85.91,1.61,1.53,2.14,2.31,2,2.95,5.07,3.96,8.27,4.77,1.09.28,2.18.53,3.28.73,3.35.59,6.69.55,9.94-.52,1.89-.63,3.71-1.47,5.52-2.33.91-.44,1.74-1.07,2.53-1.71,1.06-.85,1.99-1.86,3.08-2.67.35-.26,1.18-.32,1.49-.08.33.25.51,1.01.41,1.46-.15.67-.59,1.29-.95,1.91-1.81,3.14-4.7,5.17-7.43,7.41-4.04,3.31-8.62,3.95-13.56,3.04-1.31-.24-2.59-.61-4-.94-.04.49-.1.79-.08,1.1.08,4.13,1.78,7.63,4.47,10.61,2.47,2.73,5.26,5.15,7.72,7.88,3.11,3.44,7.07,5.02,11.43,6.14,6.97,1.78,13.39.14,19.99-2.58-1.07-1.22-2.04-2.27-2.95-3.37-2.44-2.93-4.17-6.23-5.12-9.95-.92-3.6.7-6.37,2.7-9.05.19-.25.69-.27,1.36-.51.15,1.19.28,2.19.39,3.19.11,1.11-.04,2.31.34,3.32,1.96,5.16,4.69,9.82,9.19,13.23,3.97,3,8.13,5.69,12.89,7.29,4.34,1.46,8.71,2.72,13.37,2.43,6.55-.41,12.22-2.95,17.27-7.02,3.78-3.04,6.72-6.85,9.45-10.79,3.35-4.85,7.29-9.39,8.42-15.46.07-.37.51-.67,1.09-1.37,1.81,7.5-1.31,13.46-4.4,19.56.79.12,1.32.24,1.85.28,1.03.06,2.08.16,3.12.1,8.07-.52,14.39-4.33,19.63-10.31,2.92-3.34,5.05-7.19,7.39-10.9,1.89-3.01,2.83-6.39,2.45-10.08-.22-2.14-.27-4.33-.07-6.47.29-3.25-.08-6.37-.92-9.49-.2-.76-.03-1.62-.03-2.47,1.63-.08,2.15.97,2.4,1.89.76,2.84,1.44,5.71,1.95,8.61.29,1.67.19,3.41.57,5.41,3.54-2.79,6.83-5.2,9.92-7.85,6.2-5.32,10.49-11.82,11.68-20.08.24-1.66.52-3.32.73-4.99.34-2.7.89-5.41,1.01-8.11-5.09-.52-10.2-.94-15.28-1.5-1.65-.18-3.3-.61-4.89-1.13-1.62-.53-1.98-1.5-1.47-3.22.18-.61.4-1.22.67-1.79.84-1.76,1.68-2.24,3.6-2.13,4.7.29,9.4.66,14.11.84.89.03,1.79,0,2.69-.06-.12-1.14-.25-2.28-.34-3.42-.2-2.54-.34-5.1-.47-7.65-.14-2.88-.19-5.76-.35-8.63-.19-3.22-.12-6.4.75-9.53.2-.73.28-1.62,1.71-1.72,0,2.79-.1,5.52.03,8.25.12,2.71.4,5.42.75,8.12.35,2.75.87,5.47,1.37,8.54.76-.59,1.25-.85,1.59-1.26,4.83-5.54,8.12-11.82,9.41-19.13,1.44-8.14,1.38-16.27-.25-24.34h0Z" fill="#fff" stroke-width="0"/><path d="m192,24.16c7.56,11.31,17.87,20.7,24.11,32.93-.6.56-1.2,1.13-1.8,1.69-1.41-1.02-3.29-1.74-4.17-3.1-6.51-10.13-12.83-20.39-19.21-30.6.36-.31.72-.61,1.07-.92Z" stroke-width="0"/><path d="m419.49,23.98c-8.26,10.87-12.9,24.22-22.46,34.2-.71-.38-1.42-.75-2.13-1.13.32-1.48.21-3.27,1.03-4.38,7.36-9.92,14.89-19.73,22.36-29.56.4.29.8.58,1.2.87Z" stroke-width="0"/><path d="m254.39,40.43c-2.04,5.49-3.95,11.03-6.23,16.41-.45,1.06-2.34,1.52-3.57,2.25-.17-1.46-.98-3.29-.39-4.33,2.87-5.06,6.11-9.91,9.21-14.83.33.16.65.33.98.49Z" stroke-width="0"/><path d="m356.91,39.21c3.04,4.72,6.25,9.34,8.99,14.22.65,1.15-.26,3.17-.45,4.79-1.31-.98-3.27-1.69-3.81-2.99-2.1-5.01-3.75-10.21-5.57-15.33.28-.23.55-.45.83-.68Z" stroke-width="0"/></svg>