<?xml version="1.0" encoding="UTF-8"?><svg id="Layer_1" xmlns="http://www.w3.org/2000/svg" viewBox="0 0 1000 1000"><path d="m992.73,476.73c-1.34-.99-2.99-1.58-4.52-2.3-9.98-4.65-18.7-11.03-26.55-18.74-4.23-4.16-8.7-8.11-13.39-11.72-4.01-3.09-5.71-2.55-8.74,1.6-5.34,7.31-10.61,14.67-15.98,21.95-4.72,6.41-9.99,12.31-16.53,16.96-.69.49-1.45.94-2,1.56-1.31,1.5-.9,3.39.98,4.12.86.34,1.93.37,2.87.25,4.61-.6,9.21-1.34,13.82-1.96,2.06-.28,4.13-.37,6.75-.6,0,2.1.06,3.73-.01,5.36-.1,2.25-.44,4.51-.44,6.76.03,10.83-2.58,20.97-7.52,30.59-2.37,4.62-5.43,8.62-9.43,11.88-5.82,4.76-12.1,8.78-19.12,11.46-.09-3.06-.17-6.12-.29-9.18-.37-9.28-1.68-18.34-4.13-27.21-5.21-18.82-24.23-28.2-37.45-26.91-5.47.54-10.88,1.77-16.28,2.85-5.93,1.19-10.07,4.92-13.23,9.88-.64,1.01-1.31,2.01-1.72,2.64-8.13-4.39-15.9-8.59-23.7-12.8,1.27-2.62,2.28-5.3,3.79-7.66,2.91-4.55,4.34-9.57,4.86-14.79.93-9.29-.2-18.47-3.77-27.06-1.9-4.58-.87-8.1,1.41-11.82.37-.61.82-1.16,1.16-1.78,3.32-6.08,5.13-12.55,4.89-19.52-.35-10.04-2.9-19.56-7.12-28.64-2.13-4.59-4.61-8.95-7.6-12.91,2.05-2.67,4.21-5.23,6.64-7.49,9.92-9.24,22.02-14.74,35.09-18.12,3-.78,6.19-.96,9.06-2.04,2.88-1.08,5.08-.61,7.5,1.02,6.5,4.36,13.72,6.51,21.57,6.62,2.1.03,4.19.57,6.29.86,1.95.27,3.9.7,5.85.72,10.06.11,19.69-2.29,28.8-6.23,6.6-2.85,11.54-7.87,12.56-15.46.38-2.88-.16-5.9-.4-8.85-.49-5.98-2.85-10.61-9.13-12.36-2.72-.76-4.04-2.65-4.79-5.38-1.22-4.42-.51-8.7.26-13.02.45-2.53,1.11-4.99,3.2-6.75,4.57-3.86,5.47-9.02,5.22-14.6-.2-4.22-2.3-7.09-6.02-9.02-1.7-.88-3.27-2.08-4.74-3.33-1.17-1-2.04-2.35-3.15-3.44-5.83-5.74-13.93-4.96-18.6,1.73-.39.56-.89,1.03-1.45,1.67-1.66-1.11-3.12-2.2-4.68-3.13-5.56-3.32-11.25-4.56-17.2-.91-2.17,1.33-4.35,2.65-6.54,3.95-11.07,6.54-22.09,13.17-33.25,19.57-4.16,2.39-8.65,4.2-12.96,6.32-5.32,2.62-7.42,6.61-6.32,12.35.47,2.46,1.35,4.85,2.11,7.47h0c-2.75,2.16-5.65,4.17-8.25,6.51-10.46,9.42-17.19,21.29-21.93,34.36-1.27,3.5-2.49,7.02-3.7,10.54-5.78-3.84-11.84-7.22-18.56-9.41-2.02-.66-3.26-1.87-3.88-4.05-2.13-7.47-5.96-14.08-11.37-19.63-1.74-1.79-2.18-3.57-1.72-5.7.87-4,1.94-7.96,2.9-11.94,1.15-4.75,1.53-9.51-.2-14.22-2.29-6.24-4.36-12.57-6.98-18.66-3.26-7.57-8.26-13.83-15.57-17.99-.49-.28-1.01-.52-1.01-.52,0-.88-.05-1.03,0-1.15.4-1.06.81-2.12,1.22-3.17,5.83-14.96,7.55-30.35,5.36-46.29-6.94-50.5-55.36-85.85-105.96-76.62-50.51,9.22-84.35,60.34-72.3,110.31,1.81,7.47,4.51,14.59,8.12,21.37,2.11,3.96,1.95,4.36-2.15,6.35-1.52.74-3.05,1.5-4.59,2.2-9.3,4.24-18.95,6.14-28.88,2.91-12.03-3.92-23.83-3.88-35.82.16-3.67,1.24-7.76,1.55-11.67,1.7-8.18.32-15.44-3.03-22.62-6.47-3.65-1.75-3.81-2.2-1.95-5.76,9.8-18.81,12.35-38.62,8.28-59.36-9.43-48.12-56.39-80.32-104.72-71.83-50.21,8.82-83.55,57.89-73.09,107.81,1.35,6.47,3.61,12.74,5.51,19.3-.09.09-.33.48-.67.68-8.18,4.84-13.18,12.23-16.64,20.84-.95,2.36-1.73,4.8-2.78,7.12-4.01,8.86-5.17,17.89-1.98,27.25.41,1.2.81,2.42,1.12,3.65.38,1.5.65,3.03.97,4.55.41,1.94-.11,3.4-1.55,4.92-5.44,5.73-9.38,12.42-11.5,20.05-.62,2.21-1.94,3.27-3.89,4.05-2.58,1.05-5.23,2.03-7.63,3.41-.04-.65-.09-1.29-.13-1.94-.47-7.9-.32-15.84-1-23.72-1.22-14.28-6.18-26.75-18.93-34.78-7.33-4.61-10.8-11.47-11.64-19.71-.83-8.15-1-16.37-1.67-24.54-.39-4.78-.7-9.65-1.94-14.24-2.13-7.9-5.82-14.97-13-19.76-7.05-4.7-14.46-8.15-22.99-9.21-8.15-1.01-16.13-.68-23.82,2.19-18.34,6.85-30.06,20.16-36.33,38.41-1.69,4.93-2.98,10.09-3.69,15.25-1.86,13.46-.67,26.34,9.07,37.01,4.66,5.11,9.09,10.4,15.11,14.18,4.64,2.91,8.85,6.54,13.06,10.08,1.46,1.23,2.67,3,3.43,4.77,3.8,8.8,5.3,17.88,2.67,27.32-1.25,4.49-2.47,8.99-3.84,13.45-2.34,7.62-4.22,15.25-3.43,23.35.91,9.45,5.74,15.84,14.89,18.52,5.35,1.57,10.88,1.53,16.39.51,4.93-.9,8.59-3.57,10.98-7.9,1.15-2.1,2.1-4.32,2.95-6.56,2.26-5.98,1.92-12.24,1.8-18.47h0c0-3.41-.21-6.82.04-10.2.49-6.75,3.05-12.61,8.36-17.03,5.14-4.28,10.24-4.53,15.42-.34,2.38,1.92,4.6,4.34,6.06,6.99,1.4,2.53,2.49,5.26,3.46,8.03-5.76,4.25-10.21,9.76-14.08,15.79-5.18,8.08-8.47,16.98-10.24,26.37-1.73,9.18-1.85,18.34,2.41,27.02,1.55,3.16,3.22,6.29,4.98,9.34.81,1.39.76,2.57.19,3.99-2.98,7.42-4.48,15.16-4.88,23.15-.37,7.4,1.04,14.32,4.64,20.82,1.61,2.91,3.02,5.94,4.48,8.85-6.98,3.65-13.58,7.11-20.36,10.66-.54-.83-1.1-1.62-1.6-2.44-3.23-5.32-7.68-9.04-13.87-10.36-3.88-.83-7.77-1.54-11.66-2.3-16.6-3.25-36.87,8.37-41.95,27.39-3.1,11.63-3.97,23.46-4.27,35.31-7.18-2.67-13.96-6.11-20.16-10.75-5.55-4.16-9.75-9.27-12.88-15.51-4.89-9.73-6.62-20.08-6.94-30.77-.1-3.33-.69-6.72.38-10.63h0c3.58.58,7.01,1.18,10.45,1.67,3.49.49,7,1.05,10.51,1.19,1.15.04,2.54-.97,3.44-1.88.37-.37-.1-1.82-.5-2.62-.28-.56-1.07-.89-1.65-1.28-6.54-4.42-11.73-10.22-16.4-16.48-5.66-7.6-11.16-15.31-16.74-22.97-2.8-3.86-4.55-4.4-8.43-1.46-4.49,3.41-8.6,7.32-12.83,11.07-2.22,1.96-4.2,4.2-6.5,6.07-7.04,5.72-14.32,11.09-22.92,14.37-2,.76-3.94,1.87-3.86,4.5.08,2.57,1.92,3.81,4,4.4,4.2,1.2,8.43,2.52,12.73,3.03,6.52.77,6.45.5,6.36,6.92-.09,6.51-.15,13.03.13,19.53.24,5.63,1,11.24,1.48,16.87.7,8.34,1.74,16.66,5.07,24.4,3.9,9.07,8.84,17.63,17.73,22.67,5.24,2.98,10.92,5.53,16.72,7.13,13.18,3.63,26.53,6.63,40.37,6.4-.18,22.02-.24,44.04-.22,66.06.01,23.64.36,47.28.74,70.92.08,5.01.27,10.02.51,15.03-4.17.5-8.31,1-12.44,1.44-14.24,1.51-26.12,7.86-36.36,17.59-7.97,7.58-12.82,17.15-17.18,27.03-.51,1.15-.87,2.39-1.19,3.62-3.15,12.11-4.73,24.41-4.36,36.95.04,1.5-.16,3-.25,4.51-2.55.38-4.63.76-6.73.96-1.68.17-3.42-.08-5.08.21-3.04.52-6.12,1.07-9.03,2.05-2.5.84-3.01,2.5-1.78,4.66,1.81,3.19,3.63,6.4,7.11,8.22,1.24.65,2.34,1.6,3.41,2.52,6.84,5.92,13.66,11.87,20.46,17.83.96.83,1.82,1.78,2.67,2.73,2.54,2.85,5.17,5.64,7.56,8.62,4.61,5.73,5.56,4.72,9.11-.12,7.5-10.24,17.59-18.03,25.52-27.83,4.53-5.6,9.3-11.01,13.93-16.53.63-.75,1.21-1.59,1.62-2.48.93-2.01.18-3.74-1.93-4.29-.91-.24-1.94-.06-2.91.02-7.43.59-14.86,1.19-22.21,1.79-1.85-2.83-1.13-5.54-.92-8.14.34-4.08,1.05-8.14,1.24-12.22.48-10.18,5.53-18.24,11.67-25.81.97-1.19,2.23-2.22,3.54-3.02,5.3-3.25,10.65-6.44,16.04-9.54.09-.05.2-.09.29-.14.36,5.41.73,10.82,1.03,16.23.57,10.23,2.47,20.18,5.23,30.04,2.48,8.82,7.13,16.23,13.18,22.97,3.92,4.37,8.74,6.7,14.46,7.15,5.64.45,11.3.6,16.95.92,6.84.39,12.4-2.15,17-7.14,2.5-2.71,5.26-5.17,7.68-7.93,1.85-2.12,3.37-4.52,4.99-6.82.53-.76.94-1.61,1.49-2.56,8.57,6.72,16.37,14.06,26.56,17.69.58,2.5.89,4.91,1.7,7.15,3.89,10.8,8.62,21.19,15.75,30.33,7.73,9.91,17.59,16.71,29.62,20.32,9.42,2.83,18.97,2.73,28.79,1h.05c1.96,2.22,3.61,4.35,5.54,6.2,5.75,5.52,12.24,10.07,19.18,13.96,7.39,4.13,15.23,6.79,23.76,7.21,15.4.76,29.28-4.32,42.5-11.42,2.75-1.48,5-2.17,7.84-1.28,1.22.38,2.56.49,3.66,1.07,5.1,2.69,10.75,3.33,16.22,4.72,9.8,2.49,19.43,1.3,28.97-.86,8.67-1.96,16.07-6.8,23.53-11.49,8.07-5.07,13.67-12.1,18.33-20.2,4.62-8.02,5.42-17.2,8.38-25.71.18-.51.21-1.13.13-1.68-.53-3.68,1.64-5.35,4.48-6.49,3.01,1.15,4.35,2.98,4.26,6.19-.06,2.19.74,4.42,1.31,6.6.82,3.14,1.87,6.22,2.68,9.36,2.64,10.16,7.94,18.9,15.6,25.8,7.48,6.73,16.27,11.74,25.73,15.44,6.04,2.35,12.33,2.76,18.69,3.39,10.02,1,19.29-1.71,28.59-4.64,3.23-1.02,6.44-2.09,9.71-2.95.82-.22,1.99.02,2.73.48,8.15,5.01,17,8.2,26.23,10.63,16.01,4.22,30.82,1.66,44.77-7.01,8.33-5.18,16.11-10.98,22.01-18.8.5,0,.79-.05,1.06,0,14.02,2.6,27.32.81,39.76-6.39,11.64-6.74,20.08-16.35,25.64-28.56,1.11-2.44,2.52-4.76,3.54-7.24,1.61-3.91,3.1-7.87,4.47-11.87.58-1.71.74-3.56,1.07-5.23,10.74-3.9,18.55-11.67,26.8-18.07,2.21,3.7,3.92,7.43,6.41,10.53,3,3.73,6.65,6.95,10.04,10.36,3.76,3.79,8.28,6,13.66,5.87,6.64-.17,13.3-.47,19.92-1,3.69-.3,7.33-1.35,10.16-3.9,5.73-5.15,10.97-10.88,13.61-18.19,2.63-7.29,5.27-14.8,6.25-22.42,1.2-9.37,2.01-18.8,2.7-28.24.39.2.76.4,1.13.62,2.81,1.64,5.51,3.48,8.32,5.11,9.85,5.72,15.04,14.87,17.62,25.41,1.53,6.25,1.52,12.89,2.11,19.37.18,1.92.03,3.88.03,6.53l-.03-.04c-7.9-.57-14.93-1-21.94-1.63-2.13-.19-4.37-1.06-5.76,1.2-1.41,2.27.2,4.1,1.57,5.69,7.09,8.26,14.08,16.62,21.45,24.62,6.22,6.76,13.16,12.87,18.49,20.44.32.46.71.88,1.1,1.29,2.12,2.19,3.17,2.23,5.25.08,1.27-1.33,2.39-2.8,3.66-4.13,3.5-3.68,6.95-7.41,10.59-10.95,2.43-2.35,5.15-4.4,7.73-6.6,5.05-4.31,10.2-8.52,15.09-13,2.25-2.06,4.21-4.53,5.9-7.08,1.62-2.44.9-4.23-1.97-5.26-2.36-.84-4.87-1.43-7.36-1.76-3.5-.46-7.03-.65-10.56-.79-2.21-.09-2.96-1.13-2.91-3.21.06-3.11-.04-6.23,0-9.34.15-10.43-1.39-20.71-4.64-30.5-4.05-12.19-10.4-23.23-20.41-31.74-6.95-5.91-14.41-10.93-23.43-13.25-6.04-1.56-12.12-2.71-18.37-2.92-.3,0-.57-.02-.83-.04.1-3.66.19-7.33.34-10.99.36-8.91,1.13-17.81,1.13-26.72,0-21.23-.39-42.46-.57-63.69-.14-17.1.08-34.21.13-51.32,2.24-.02,4.48-.01,6.7-.23,10.15-.99,20.1-3.19,29.88-5.98,8.73-2.49,17.33-5.66,23.7-12.58,5.51-5.98,9.77-12.84,12.16-20.7,2.64-8.7,4.04-17.62,4.14-26.73.02-2.12-.11-4.29.29-6.35,1.64-8.56,1.87-17.12.8-25.76-.5-4.09.41-4.77,4.54-5.34,4.46-.62,8.87-1.6,13.26-2.59,1.34-.31,2.67-1.01,3.81-1.8,2.57-1.78,2.66-4.44.15-6.3Z" stroke-width="0"/><path d="m828.6,741.36c-.02-.1-.04-.2-.06-.29.18-.14.34-.3.52-.45-.12.28-.27.53-.46.74Z" stroke-width="0"/><path d="m668.98,136.89c-1.57.72-2.85.52-3.71-.87,1.24.29,2.47.58,3.71.87Z" fill="#fff" stroke-width="0"/><path d="m665.16,135.94c-1.27-.28-2.54-.58-3.81-.86,1.59-.73,2.87-.47,3.81.86Z" fill="#fff" stroke-width="0"/><path d="m654.03,135.04c-.03.3-.07.59-.1.89h-7.35c-.2-.62-.47-1.46-1.01-3.15,3.26.87,5.86,1.57,8.46,2.26Z" fill="#fff" stroke-width="0"/><path d="m584.52,149.7c1.41,1.33,2.61,1.59,4.04.45,4.12-3.29,9.01-4.36,14.17-4.76,2.47-.19,4.9-1.02,7.59-1.14-1.36.9-2.73,1.8-4.09,2.7-1.06.7-2.27,1.25-3.13,2.15-.7.73-1.58,2.26-1.28,2.75.55.89,1.87,1.54,2.97,1.78,1.04.22,2.23-.18,3.34-.38.94-.17,1.87-.44,2.89-.68.15,5.02-4.38,8.79-3.12,13.86,3.37-.47,9.73-5.28,16.23-12.28.64,2.26,1.2,4.3,1.85,6.61,4.13-2.23,5.04-7.19,8.91-9.76,4.86,4.63,7.81,10.58,11.81,16.41,1.1-2.89.81-5.4.68-7.85-.13-2.52-.53-5.02-.83-7.71,5.94,1.79,7.98,7.83,13.23,11.58-.47-3.42-.74-5.74-2.13-7.94-1.41-2.23-2.42-4.72-3.6-7.09-.21-.56-.43-1.11-.64-1.67l-.04.03c-1.64-1-3.28-2-5.77-3.52.68,4.34,4.69,5.28,5.65,8.54-3.25-.64-4.77-4.47-8.88-4.22.7,5.37,1.39,10.61,2.07,15.84-.23.06-.45.13-.68.19-.37-.83-.72-1.67-1.12-2.48-1.43-2.9-2.57-6.01-4.4-8.63-3.07-4.41-6.38-4.18-9.32.29-.99,1.51-1.91,3.07-3.4,5.48-.15-2.12-.16-3.29-.32-4.44-.14-1.05-.43-2.09-.73-3.44-4.04,1.52-5.3,5.45-8.22,7.52-2.98,2.11-5.95,4.25-9.37,6.69,1.37-5.37,4.7-9.8,5.59-15.92-2.71.69-4.65,1.19-6.6,1.69-.09-.17-.19-.34-.29-.51,3.33-2.57,6.66-5.14,10.25-7.9-3.47-3.31-7.09.31-10.92-1.32,2.26-1.05,4.3-1.72,6.02-2.87,1.88-1.25,3.6-2.62,6.33-2.2,0,2.86.26,5.78,3.2,7.51,3.88,2.28,8.08,3.66,12.55,2.95,2.88-.46,5.84-1.43,8.36-2.87,1.92-1.09,3.21-3.28,5.03-5.25,4.24.08,8.6,1.56,14.78,5.72-4.23-1.09-8.46-2.19-12.69-3.29-.11.29-.23.59-.35.88,3.15,1.7,6.29,3.41,9.43,5.11-.24-.5-.47-1.01-.75-1.61,7.22.48,12.85,6.04,20.84,6.59-3.28-4.45-7.94-5.49-11.33-8.62,3.22.92,6.43,1.85,9.65,2.77.16-.27.32-.54.48-.81-1.26-1.28-2.51-2.56-3.76-3.84,3.27.98,6.23,2.49,7.91,5.58,2.31,4.23,2.97,7.63-1.44,11.74-4.22,3.93-8.82,6.9-14.25,8.89-18.92,6.96-38.15,7.35-57.59,2.91-6.35-1.45-12.48-3.71-17.9-7.48-4.23-2.94-7.48-6.49-6.91-12.73Z" fill="#fff" stroke-width="0"/><path d="m355.95,134.5c-.4,1.58-.59,2.35-.79,3.12h-7.53l-.06-.89c2.6-.7,5.21-1.39,8.38-2.23Z" fill="#fff" stroke-width="0"/><path d="m339.66,135.77c.14.3.27.61.4.92-1.17.31-2.34.62-3.51.93,1.04-.61,2.07-1.23,3.11-1.85Z" fill="#fff" stroke-width="0"/><path d="m336.26,137.75c-1.01.63-2.02,1.25-3.03,1.88l-.41-.93c1.14-.32,2.3-.63,3.44-.95Z" fill="#fff" stroke-width="0"/><path d="m317.48,151.59c1.29-4.8,4.64-7.57,9.36-9.2-.53.64-1.01,1.32-1.6,1.89-.66.64-1.41,1.19-2.57,2.15,4.25,1.2,7.06-2.1,11.31-1.77-4.12,2.9-8.86,3.9-12.05,8.37,7.84-.58,13.38-5.92,20.61-6.58-.25.8-.45,1.44-.65,2.07l9.51-5.8-.33-.75c-4.27,1.14-8.53,2.29-12.8,3.44,4.61-3.61,9.79-5.45,15.43-6.12,2.73,6.94,8.73,7.87,14.64,8.49,2.27.24,4.76-.54,7.02-1.27,5.27-1.71,6.69-3.71,7.02-9.39,4.76-.05,7.72,3.88,12.66,4.99-4.11,1.88-7.71-1.66-11.37,1.41,3.54,2.74,6.91,5.34,10.28,7.94-.06.16-.12.33-.18.49-1.9-.44-3.81-.88-5.86-1.35-1.28,3.15.94,5.29,1.69,7.69.78,2.51,2.06,4.87,3.53,8.23-3.76-2.65-6.82-4.46-9.46-6.76-2.72-2.37-5.03-5.2-7.6-7.92-2.62,2.22-1.15,4.9-2.24,7.68-1.13-1.81-2.03-3.28-2.96-4.73-3.14-4.93-6.49-5.11-9.81-.24-1.64,2.42-2.72,5.23-4,7.89-.41.85-.65,1.79-1.29,2.64-1.25-5.35,2.31-10.45.88-15.9-3.53,0-5.12,3.34-8.47,3.92,1.04-1.19,2.15-2.32,3.11-3.57.88-1.15,3.14-1.64,1.97-4.21-1.8,1.11-3.43,2.12-5.07,3.13v.02c-.16.62-.32,1.25-.49,1.87-1.1,2.12-2.3,4.19-3.28,6.37-1.05,2.33-1.89,4.75-3.08,7.78,4.03-.84,4.77-3.99,6.76-5.74,2.07-1.82,4.11-3.69,6.93-6.23-.35,6.08-1.6,11.03-.27,16.74,4.15-5.92,7.09-11.87,12.17-16.79,2.79,3.48,5.45,6.79,8.57,10.68.73-2.86,1.25-4.86,1.95-7.6,4.37,5.9,10.08,9.39,16.05,13.37,1.53-5.82-3.02-9.59-2.95-14.5,2.06.32,4.1.88,6.15.88,1.06,0,2.69-.79,3-1.62.28-.76-.6-2.39-1.44-3.05-2.19-1.73-4.64-3.14-6.77-5.17,5.57,1.2,11.16,2.3,16.68,3.67,1.59.4,3.09,1.42,4.45,2.4,1.47,1.06,2.78,1.78,4.39-.28.61,4.61-.84,8.02-3.87,10.35-3.34,2.55-6.97,4.87-10.79,6.59-10.09,4.54-20.9,6.06-31.86,6.25-12.68.23-25.08-1.4-37.01-6.11-5.69-2.25-10.39-5.66-14.5-10.05-1.8-1.92-2.19-4.14-1.5-6.69Z" fill="#fff" stroke-width="0"/><path d="m909.37,275.24c.13.34.28,1.22.75,1.86.54.74,1.44,1.84,2.04,1.76.95-.12,2.35-.95,2.58-1.75.85-2.95,2-6.21-.08-8.97-3.31-4.39-6.77-8.7-10.58-12.65-2.79-2.89-6.58-3-9.8-1.21-2.16,1.2-2.91,3.28-3.71,5.45-1.11,2.99-2.66,3.28-5.11,1.2-.75-.64-1.4-1.41-2.14-2.07-5.69-5.08-9.38-5.62-16.02-2.02-3.85,2.09-7.43,4.66-11.29,6.73-6.85,3.67-13.87,7.03-20.72,10.72-3.09,1.67-6,3.71-8.86,5.77-1.87,1.35-3.7,2.26-6.07,2.65-5.02.82-8.92,3.33-10.41,8.67-1.41,5.07,1.16,8.64,4.67,11.41,4.16,3.28,7.8,6.95,11.02,11.11.86,1.11,1.89,2.11,2.96,3.03,5.03,4.34,10.09,8.66,15.17,12.95,5.19,4.39,10.32,9.02,16.88,11.18,10.42,3.44,21.09,5.29,32.12,3.46,1.81-.3,3.62-.6,5.43-.88,6.23-.97,11.95-3.16,17.29-6.57,7.56-4.84,8.23-18,1.96-23.96-1.47-1.4-2.93-2.09-5.08-1.04.18,1.01.28,1.97.51,2.89,1.03,4.06.06,7.33-3.07,10.33-7.36,7.03-16.22,8.67-25.87,7.78-2.66-.24-5.32-.74-7.94-1.29-3.02-.64-6.22-1.02-8.97-2.31-6.81-3.18-13.13-7.23-18.64-12.43-7.71-7.29-15.44-14.56-23.11-21.88-.71-.68-1.11-1.68-1.86-2.85,1.98-.43,3.37-.63,4.69-1.04,9.3-2.89,18.56-5.9,27.89-8.69,2.21-.66,1.7-2.24,1.58-3.89,2.41,1.44,4.98,1.33,7.71-.33-.18-1.03-.38-2.13-.62-3.45,1.54,1.16,2.44,2.99,4.57,1.66,1.82-1.14,2.33-2.58,2.02-4.66-.21-1.4.08-2.88.14-4.33.34-.08.69-.17,1.03-.25.9,1.19,1.7,2.47,2.72,3.54,1.13,1.18,2.3,2.68,3.74,3.15,9.42,3.04,18.14,1.75,25.8-4.84.56-.48,1.13-.93,1.7-1.4.16.14.31.28.47.41-.9,1.7-1.79,3.39-3.01,5.7,1.93.48,3.57.88,5.5,1.36h.02Z" stroke-width="0"/><path d="m845.27,337.43c-1.93-1.97-3.12-3.33-4.45-4.53-5.78-5.2-11.73-10.21-17.35-15.56-3.78-3.59-7.07-7.69-10.68-11.47-2.33-2.44-2.58-2.54-5.3-.43-2.78,2.15-5.46,4.5-7.85,7.07-6.78,7.29-12.64,15.29-16.26,24.63-3.01,7.77-5.73,15.66-8.15,23.64-2.69,8.86-6.43,17.25-11.06,25.19-4.58,7.85-10.3,14.87-18.45,19.47-1.6.9-3.16,1.91-4.58,3.06-1.62,1.3-1.34,2.77.64,3.48,2.03.74,4.09.92,6.16-.16,3.01-1.57,6.1-2.98,9.12-4.53,6.92-3.55,12.72-8.45,17.07-14.9,5.37-7.97,10.72-15.96,15.73-24.16,5.99-9.81,14.64-16.35,24.81-21.12,4.34-2.04,8.79-3.93,13.35-5.41,4.26-1.39,8.73-2.14,13.11-3.18,1.06-.25,2.1-.55,4.16-1.08h-.02Z" stroke-width="0"/><path d="m889.19,316.28c-1.89-.89-3.84-1.67-5.66-2.69-6.58-3.68-13.46-6.63-20.85-8.09-4.68-.92-9.49-1.32-14.26-1.56-2.75-.14-3.42,1.59-1.84,3.87.32.46.71.88,1.12,1.27,8.12,7.62,17.01,14.06,27.78,17.39,8.03,2.49,16.18,2.46,24.23.09,2.4-.71,4.77-1.87,6.82-3.29,3.71-2.56,4.23-6.43,1.3-9.81-1.72-1.98-3.82-3.79-6.07-5.14-6.74-4.05-14.18-2.9-21.49-2.33-.66.05-1.27.73-2.43,1.44,4.6,2.46,9.18,3.98,11.33,8.84h.02Z" stroke-width="0"/><path d="m873.31,278.13c-.24,3.46-.52,7.08-.75,10.7-.11,1.78.71,3.1,2.44,3.44,2.6.51,5.25,1.09,7.88,1.06,6.68-.09,7.84-1.42,7.73-7.92-.01-.7.19-1.53-.11-2.08-.48-.86-1.19-2.03-2-2.21-4.88-1.1-9.8-1.96-15.19-2.99h0Z" stroke-width="0"/><path d="m905,285.24c0-.67-.04-1.09,0-1.51.35-3.14-1.36-5.03-3.89-6.41-2.64-1.44-4.26.78-6.01,1.92-2.16,1.4-1.97,9.27.04,10.93.21.18.48.43.71.43,2.49-.08,5.09.22,7.43-.43,2.46-.68,1.47-3.3,1.71-4.92h.01Z" stroke-width="0"/><path d="m857.31,285.28c0,3.24.68,4.4,3.47,4.7,2.08.23,4.21.13,6.3-.02,1.75-.12,2.83-1.21,2.9-3.02.04-1.26.02-2.54-.22-3.77-.44-2.28-1.44-2.73-3.61-1.78-2.91,1.28-5.81,2.56-8.84,3.89h0Z" stroke-width="0"/><path d="m853.82,284.7c-2.62,1.05-4.62,1.84-6.77,2.7,2.1,2.43,4.31,3.18,6,2.17,1.74-1.04,1.1-2.57.76-4.87h.01Z" stroke-width="0"/><path d="m908.11,286.92c.51.06,1.02.12,1.53.17.43-1.06,1.08-2.09,1.21-3.18.07-.57-.65-1.61-1.21-1.77-.47-.14-1.7.61-1.76,1.07-.17,1.2.13,2.46.23,3.7h0Z" stroke-width="0"/><path d="m197.87,254.34c.58-11.28-2.65-23.36-8.12-31.94-2.08-3.27-4.53-6.2-8-8.03-5.38-2.84-10.85-5.42-17.02-6.23-17.14-2.26-31.6,4.9-40.2,19.49-6.06,10.29-10.06,21.44-11.68,33.41-1.04,7.69-1.41,15.14,2.14,22.4,5.09,10.41,12.87,18.12,22.9,23.73,2.84,1.59,5.66,3.23,8.31,5.1,4.13,2.91,7.61,6.61,9.15,11.43,2.49,7.76,3.48,15.73,1.04,23.77-1.6,5.28-3.3,10.52-4.8,15.83-1.72,6.12-3.54,12.26-3.31,18.72.25,6.93,3.97,11.78,9.98,14.63,7.05,3.34,16.6-.7,20.05-8.01,2.1-4.44,2.68-9.2,2.92-14.02.27-5.22.06-10.52.85-15.66,1.78-11.48,7.2-19.4,18.44-21.55,2.11-.4,4.56-.29,6.6.37,5.12,1.65,9.27,4.84,12.24,9.38,2.96,4.52,5.45,9.27,6.44,14.67,1.7,9.23,5.21,17.89,8.29,26.7,5.04,14.37,14.89,24.46,27.94,31.75,1.32.74,4.98-.3,5.66-1.67.86-1.75-.23-3.01-1.46-4.01-1.97-1.61-4-3.15-6.07-4.62-5.76-4.08-10.48-9.2-13.65-15.42-4.24-8.34-7-17.25-8.5-26.54-1.51-9.4-1.67-18.86-1.54-28.34.12-8.59-1.34-16.93-4.46-24.91-2.05-5.25-4.21-10.53-8.94-14.18-2.35-1.81-4.45-3.94-6.78-5.78-9.13-7.21-15.14-16.38-17.26-27.86-.76-4.14-.81-8.4-1.19-12.61h.03Z" stroke-width="0"/><path d="m445.67,132.22c.43-2.48,2.3-3.43,4.1-4.47,13.57-7.83,28.48-11.72,43.74-14.04,8.62-1.31,17.48-.85,26.19.77,12.71,2.37,24.22,7.69,35.31,14.03,2.26,1.29,4.11,3.31,6.12,4.98-.96,1.71-2.01,1.15-3.09.83-8.52-2.52-16.96-5.39-25.59-7.4-8.79-2.05-17.78-3.17-26.87-3.26-2.39-.02-4.78-.64-7.16-.6-3.95.07-7.89.5-11.84.68-12.24.56-23.99,3.39-35.45,7.59-1.32.48-2.69.87-4.06,1.21-.34.09-.77-.17-1.41-.33h.01Z" stroke-width="0"/><path d="m542.88,182.1c-2.69-.68-5.4-1.28-8.06-2.06-12.38-3.65-25.05-4.29-37.81-3.49-10.53.67-20.63,3.17-30.21,7.71-1.67.79-3.39,2.1-5.69.99.46-2.43,2.17-3.68,3.88-4.88,6.17-4.29,12.58-8.27,19.7-10.72,3.81-1.31,7.99-1.97,12.04-2.09,9.2-.28,18.34.49,27.33,2.79,6.44,1.65,11.88,5.22,17.41,8.64.77.48,1.25,1.41,1.87,2.13-.15.33-.3.65-.45.98h-.01Z" stroke-width="0"/><path d="m528.44,231.49c-6.17-1.05-12.31-2.63-18.52-3.01-6.16-.38-12.44.08-18.58.85-6.16.78-11.85,3.92-18.38,4.89.31-2.9,1.52-4.5,3.38-5.73,14.5-9.54,29.69-10.92,45.55-3.77,2.81,1.27,5.41,2.98,6.56,6.77h-.01Z" stroke-width="0"/><path d="m986.82,273.4c-3.68,1.31-7.3,2.87-11.06,3.89-7.75,2.1-15.56,3.97-23.38,5.79-2.03.47-4.19.46-6.3.52-1.51.04-2.87-.56-3.27-2.15-.46-1.83.73-2.97,2.2-3.66,1.26-.59,2.64-1.04,4.01-1.28,9.28-1.68,18.55-3.48,27.88-4.82,3.12-.45,6.42.33,9.64.55.09.39.19.79.28,1.18v-.02Z" stroke-width="0"/><path d="m987.5,311.45c-1.58-.24-3.17-.45-4.75-.74-11.93-2.2-23.85-4.43-35.78-6.64-.42-.08-.85-.1-1.26-.2-2.81-.72-4.25-2.31-3.8-4.2s2.48-3.11,5.16-2.59c4.84.93,9.74,1.81,14.43,3.29,6.73,2.12,13.32,4.7,19.92,7.21,2.18.83,4.22,2.05,6.32,3.09-.08.26-.16.53-.25.79h.01Z" stroke-width="0"/><path d="m976.61,346.69c-2.24-.99-3.73-1.39-4.93-2.21-10.26-7.02-20.52-14.05-30.67-21.22-2.54-1.79-2.95-3.52-1.99-4.95,1.04-1.56,3.37-1.84,5.71-.12,10.82,7.97,21.35,16.31,30.46,26.27.35.39.58.89,1.42,2.24h0Z" stroke-width="0"/><path d="m111.51,321.55c-3.29,1.2-6.61,2.32-9.86,3.61-10.51,4.16-21,8.38-31.5,12.57-1.44.58-2.88,1.23-4.39,1.56-.68.15-1.96-.23-2.16-.71-.31-.75-.22-1.96.21-2.65.48-.77,1.49-1.27,2.36-1.71,12.01-6.19,24.63-10.69,37.89-13.25,2.31-.45,4.78-.06,7.17-.06.09.22.18.43.27.65h.01Z" stroke-width="0"/><path d="m975.11,241.54c-.85.68-1.67,1.41-2.56,2.02-8.49,5.84-16.97,11.69-25.5,17.46-1.86,1.25-3.9,2.24-5.91,3.25-1.27.64-2.77.5-3.3-.83-.4-.99-.12-2.41.23-3.51.23-.71,1.07-1.3,1.75-1.78,10.07-7.09,20.58-13.37,32.47-16.99.78-.24,1.63-.24,2.44-.34.12.24.25.47.37.71h0Z" stroke-width="0"/><path d="m112.92,358.57c-2.73.43-5.45.93-8.18,1.29-8.79,1.14-17.58,2.26-26.39,3.31-1.81.22-3.67.22-5.48.05-.65-.06-1.63-.85-1.73-1.44-.11-.59.55-1.75,1.11-1.94,2.12-.71,4.32-1.5,6.52-1.59,10-.43,20-.67,30-.89,1.37-.03,2.75.43,4.13.66,0,.19.01.38.02.57v-.02Z" stroke-width="0"/><path d="m76.3,294.41c-5.35,7.26-10.65,14.56-16.11,21.74-1.17,1.54-2.83,2.74-4.42,3.89-.52.37-1.82.39-2.21.01-.43-.42-.36-1.51-.28-2.28.06-.51.47-1.02.8-1.47,5.25-7.02,10.7-13.87,17.39-19.6,1.27-1.09,2.74-1.94,4.12-2.9.23.2.46.41.69.61h.02Z" stroke-width="0"/><path d="m112.55,391.67c-16.31-.1-30.25-2.74-33.5-6.21.84-1.68,2.42-1.28,3.69-1.07,5.29.89,10.56,1.87,15.81,2.94,3.18.65,6.33,1.47,9.45,2.35,1.28.36,2.46,1.06,4.54,1.99h.01Z" stroke-width="0"/><path d="m842.56,571.78c.49,4.49-.23,8.31-1.88,11.88-.35.76-2.11,1.22-3.23,1.23-6.49.08-12.99-.17-19.48-.02-6.47.15-12.94.55-19.4.98-3.96.26-7.89.41-11.69-.94-.7-.25-1.25-.91-1.98-1.46,1.31-2.15,2.98-3.2,5.23-3.47,6.15-.73,12.33-1.33,18.44-2.3,9.59-1.52,19.14-3.31,28.7-4.99,1.51-.26,3.02-.53,5.28-.93v.02Z" fill="#fff" stroke-width="0"/><path d="m786.51,750.7c1.47-5.43,2.14-5.99,7.01-5.85,8.63.26,17.25.59,25.87.83,1.97.05,3.95-.15,5.92-.3,2.91-.22,3.54.45,2.92,3.38-.23,1.1-.59,2.19-.95,3.26-1.12,3.35-1.13,3.28-4.78,3.04-9.44-.64-18.88-1.23-28.33-1.79-2.74-.16-5.27-.81-7.67-2.55v-.02Z" fill="#fff" stroke-width="0"/><path d="m20.77,478.25c1.63-1.29,2.43-2.04,3.33-2.62,9.09-5.83,17.69-12.23,24.73-20.54,1.91-2.26,4.2-4.21,6.44-6.16,2.62-2.27,3.2-2.13,5.41.69,3.93,5.01,7.81,10.05,11.79,15.02,3.8,4.75,7.71,9.41,11.53,14.13.58.71.97,1.57,1.74,2.85-5,0-9.46.15-13.89-.07-2.15-.11-3.21.67-3.68,2.57-.17.68-.26,1.4-.24,2.1.22,8.34.02,16.71,1.72,24.94,4.42,21.32,16.63,36.16,36.92,44.22,3.68,1.46,7.38,2.89,11.12,4.19,2.27.79,3.58,2.15,3.61,4.61.08,6.09.28,12.18.22,18.26-.03,2.87-.76,3.45-4.2,3.28-9.31-.47-18.66-.82-27.81-2.88-5.24-1.18-10.58-2.1-15.63-3.86-5.71-1.99-11.27-4.54-16.63-7.35-2.41-1.26-4.45-3.53-6.17-5.72-6.53-8.32-10.41-17.84-11.51-28.35-.81-7.72-.98-15.51-1.75-23.24-.76-7.63-1.05-15.22-.14-22.86.28-2.37.09-4.81,0-7.21-.12-2.89-.87-3.56-3.88-3.85-2.81-.27-5.63-.5-8.43-.87-1.22-.16-2.39-.66-4.59-1.3v.02Z" fill="#fff" stroke-width="0"/><path d="m80.55,836.73c4.05,0,7.83.11,11.61-.03,3.56-.13,7.11-.53,11.14-.84-.43,1.15-.62,1.65-.81,2.15,0,0-36.72,39.85-37.01,40.15-3.85-4.49-7.44-9.19-11.58-13.35-4.08-4.1-8.71-7.64-13.09-11.44-4.45-3.87-8.88-7.75-13.4-11.7,1.4-1.96,3.17-1.18,4.76-1.23,4.5-.15,9.01-.18,13.48-.59,2.59-.24,3.66-2.02,3.15-4.55-1.55-7.59-.85-15.2-.33-22.81.24-3.51.78-7.01,1.32-10.5,1.28-8.32,3.83-16.18,8.02-23.55,8.76-15.4,21.4-25.82,38.72-29.94,6.15-1.46,12.54-1.9,18.84-2.68,2.55-.32,3.27.32,3.51,3.03.44,4.93.69,9.87,1.1,14.8.17,2-.75,3-2.45,3.93-6.07,3.33-12.06,6.82-18.04,10.31-4.39,2.56-7.69,6.17-10.11,10.63-2.02,3.72-4.58,7.23-6.01,11.16-1.53,4.2-2.27,8.74-2.9,13.2-.98,6.99-1.89,14.03-.55,21.11.13.68.31,1.35.64,2.73h-.01Z" fill="#fff" stroke-width="0"/><path d="m218.51,581.41c-3.94,3.46-8.04,3.37-11.58,2.86-12.69-1.83-25.43-.76-38.13-1.27-2.82-.11-3.62-.49-4.05-3.25-.42-2.7-1.75-5.43-.25-8.78,4.66.87,9.35,1.64,13.99,2.65,7.61,1.66,15.3,2.55,23.07,3.05,4.35.28,8.7,1.01,12.98,1.88,1.29.26,2.36,1.65,3.98,2.86h0Z" fill="#fff" stroke-width="0"/><path d="m178.42,744.5c.93-.18,1.74-.44,2.54-.47,9.61-.32,19.23-.7,28.84-.81,2.17-.03,4.45.63,6.49,1.45,2.74,1.09,2.88,3.6.18,4.94-2.09,1.04-4.55,1.63-6.89,1.83-5.77.48-11.58.6-17.36.92-2.11.12-4.21.37-6.31.62-5.86.7-6.52.6-7.76-5.87-.15-.77.14-1.63.25-2.61h.02Z" fill="#fff" stroke-width="0"/><path d="m909.37,275.24c-1.93-.48-3.57-.88-5.5-1.36,1.22-2.31,2.11-4,3.01-5.7-.16-.14-.31-.28-.47-.41-.57.47-1.14.92-1.7,1.4-7.67,6.59-16.38,7.88-25.8,4.84-1.44-.46-2.61-1.97-3.74-3.15-1.02-1.07-1.83-2.35-2.72-3.54-.34.08-.69.17-1.03.25-.06,1.45-.35,2.92-.14,4.33.31,2.08-.2,3.52-2.02,4.66-2.13,1.33-3.03-.5-4.57-1.66.24,1.32.43,2.42.62,3.45-2.73,1.66-5.3,1.77-7.71.33.12,1.65.63,3.23-1.58,3.89-9.33,2.79-18.59,5.8-27.89,8.69-1.32.41-2.71.61-4.69,1.04.75,1.17,1.15,2.18,1.86,2.85,7.68,7.32,15.4,14.59,23.11,21.88,5.51,5.2,11.83,9.25,18.64,12.43,2.75,1.28,5.94,1.67,8.97,2.31,2.62.55,5.27,1.04,7.94,1.29,9.65.89,18.5-.75,25.87-7.78,3.13-2.99,4.1-6.26,3.07-10.33-.23-.93-.34-1.88-.51-2.89,2.14-1.05,3.6-.36,5.08,1.04,6.27,5.96,5.59,19.13-1.96,23.96-5.34,3.42-11.06,5.6-17.29,6.57-1.81.28-3.62.58-5.43.88-11.03,1.84-21.71-.02-32.12-3.46-6.56-2.17-11.69-6.79-16.88-11.18-5.08-4.3-10.13-8.61-15.17-12.95-1.07-.92-2.1-1.92-2.96-3.03-3.22-4.17-6.86-7.83-11.02-11.11-3.51-2.76-6.08-6.34-4.67-11.41,1.49-5.34,5.39-7.85,10.41-8.67,2.37-.39,4.2-1.3,6.07-2.65,2.85-2.07,5.76-4.11,8.86-5.77,6.84-3.69,13.87-7.04,20.72-10.72,3.86-2.07,7.44-4.64,11.29-6.73,6.64-3.6,10.33-3.06,16.02,2.02.74.66,1.38,1.42,2.14,2.07,2.45,2.09,4,1.79,5.11-1.2.8-2.16,1.55-4.25,3.71-5.45,3.22-1.79,7-1.68,9.8,1.21,3.81,3.95,7.27,8.26,10.58,12.65,2.08,2.76.93,6.02.08,8.97-.23.81-1.63,1.63-2.58,1.75-.61.08-1.5-1.02-2.04-1.76-.47-.64-.62-1.52-.75-1.86h-.02Z" fill="#fff" stroke-width="0"/><path d="m845.27,337.43c-2.05.54-3.1.83-4.16,1.08-4.38,1.04-8.85,1.8-13.11,3.18-4.56,1.48-9,3.37-13.35,5.41-10.17,4.77-18.81,11.31-24.81,21.12-5.01,8.2-10.36,16.19-15.73,24.16-4.35,6.45-10.15,11.35-17.07,14.9-3.02,1.55-6.11,2.96-9.12,4.53-2.07,1.08-4.12.89-6.16.16-1.98-.72-2.26-2.19-.64-3.48,1.43-1.15,2.99-2.16,4.58-3.06,8.15-4.6,13.87-11.62,18.45-19.47,4.62-7.93,8.37-16.32,11.06-25.19,2.42-7.97,5.14-15.87,8.15-23.64,3.62-9.34,9.48-17.34,16.26-24.63,2.39-2.57,5.07-4.92,7.85-7.07,2.73-2.11,2.98-2.01,5.3.43,3.61,3.78,6.9,7.88,10.68,11.47,5.63,5.35,11.58,10.37,17.35,15.56,1.33,1.2,2.52,2.56,4.45,4.53h.02Z" fill="#fff" stroke-width="0"/><path d="m889.19,316.28c-2.16-4.85-6.73-6.37-11.33-8.84,1.16-.71,1.77-1.39,2.43-1.44,7.31-.58,14.74-1.72,21.49,2.33,2.25,1.35,4.35,3.15,6.07,5.14,2.93,3.38,2.41,7.26-1.3,9.81-2.06,1.42-4.43,2.58-6.82,3.29-8.05,2.37-16.21,2.4-24.23-.09-10.77-3.34-19.66-9.77-27.78-17.39-.41-.39-.8-.81-1.12-1.27-1.58-2.28-.91-4.01,1.84-3.87,4.77.24,9.58.64,14.26,1.56,7.39,1.46,14.27,4.42,20.85,8.09,1.82,1.02,3.77,1.8,5.66,2.69h-.02Z" fill="#fff" stroke-width="0"/><path d="m873.31,278.13c5.38,1.03,10.31,1.89,15.19,2.99.81.18,1.52,1.35,2,2.21.3.55.1,1.38.11,2.08.11,6.5-1.05,7.83-7.73,7.92-2.62.03-5.28-.55-7.88-1.06-1.73-.34-2.55-1.66-2.44-3.44.23-3.62.51-7.24.75-10.7h0Z" fill="#fff" stroke-width="0"/><path d="m905,285.25c-.25,1.62.75,4.24-1.71,4.92-2.34.65-4.94.35-7.43.43-.23,0-.5-.25-.71-.43-2.01-1.66-2.2-9.53-.04-10.93,1.75-1.13,3.37-3.35,6.01-1.92,2.53,1.38,4.24,3.27,3.89,6.41-.05.42,0,.85,0,1.51h-.01Z" fill="#fff" stroke-width="0"/><path d="m857.31,285.29c3.03-1.33,5.93-2.61,8.84-3.89,2.16-.95,3.17-.5,3.61,1.78.23,1.23.26,2.52.22,3.77-.06,1.81-1.14,2.9-2.9,3.02-2.09.15-4.23.24-6.3.02-2.79-.3-3.47-1.47-3.47-4.7h0Z" fill="#fff" stroke-width="0"/><path d="m853.83,284.71c.34,2.3.98,3.83-.76,4.87-1.69,1.01-3.9.26-6-2.17,2.15-.86,4.14-1.65,6.77-2.7h-.01Z" fill="#fff" stroke-width="0"/><path d="m908.11,286.93c-.11-1.24-.4-2.5-.23-3.7.07-.47,1.29-1.21,1.76-1.07.56.17,1.28,1.2,1.21,1.77-.14,1.09-.78,2.13-1.21,3.18-.51-.06-1.02-.12-1.53-.17h0Z" fill="#fff" stroke-width="0"/><path d="m197.86,254.34c.38,4.21.43,8.48,1.19,12.61,2.11,11.48,8.13,20.65,17.26,27.86,2.33,1.84,4.44,3.96,6.78,5.78,4.72,3.65,6.88,8.93,8.94,14.18,3.12,7.98,4.57,16.32,4.46,24.91-.13,9.48.03,18.94,1.54,28.34,1.5,9.29,4.26,18.2,8.5,26.54,3.17,6.23,7.89,11.34,13.65,15.42,2.07,1.47,4.11,3.01,6.07,4.62,1.23,1.01,2.32,2.26,1.46,4.01-.68,1.37-4.34,2.41-5.66,1.67-13.05-7.29-22.9-17.39-27.94-31.75-3.09-8.8-6.59-17.47-8.29-26.7-1-5.4-3.48-10.15-6.44-14.67-2.97-4.53-7.13-7.73-12.24-9.38-2.04-.66-4.49-.77-6.6-.37-11.24,2.15-16.66,10.07-18.44,21.55-.79,5.14-.58,10.43-.85,15.66-.25,4.82-.83,9.58-2.92,14.02-3.45,7.31-13,11.35-20.05,8.01-6-2.85-9.73-7.7-9.98-14.63-.24-6.46,1.58-12.6,3.31-18.72,1.49-5.31,3.19-10.56,4.8-15.83,2.44-8.04,1.45-16.02-1.04-23.77-1.55-4.82-5.03-8.52-9.15-11.43-2.65-1.87-5.48-3.51-8.31-5.1-10.03-5.61-17.8-13.32-22.9-23.73-3.55-7.26-3.18-14.71-2.14-22.4,1.62-11.97,5.62-23.13,11.68-33.41,8.6-14.59,23.06-21.76,40.2-19.49,6.17.81,11.63,3.39,17.02,6.23,3.48,1.83,5.92,4.76,8,8.03,5.46,8.58,8.7,20.67,8.12,31.94h-.03Zm-23.44-1.15c-3.43-4.02-7.03-5.42-11.7-4.55-9.74,1.81-18.55,8.78-20.18,19.1-1.71,10.82.94,19.08,9.38,24.44,1.07.68,2.08,1.49,3.22,2.05,4.55,2.24,7.08,5.99,8.06,10.81.53,2.61.82,5.29.97,7.95.17,2.96.04,5.94.07,8.91.04,3.79,1.79,6.83,4.48,9.27.96.87,2.45,1.45,3.76,1.57,5.42.53,8.44-2.29,8.96-7.74.47-4.88-1.25-9.14-3.12-13.46-1.18-2.71-2.4-5.49-2.93-8.36-.89-4.88,3.11-8.91,8.04-8.53,1.08.08,2.14.33,3.52.56-.13-2.82-1.71-4.08-3.64-5.03-4.18-2.05-9.1-1.34-12.61,1.83-1.53,1.38-2.95,2.88-4.39,4.29-3.33-2.17-3.98-4.64-2.4-7.83.35-.72.22-1.67.41-3.35-1.99,2.08-3.31,3.46-4.55,4.77-2.47-.75-3.52-1.84-2.2-4.11.71-1.22,1.36-2.48,1.98-3.75.77-1.56,2.21-2.88,2.03-5.27-4.07,2.06-5.16,6.53-8.59,9.06-2.42-3.18,0-5.55.95-7.88,1.08-2.63,2.75-5.02,4.17-7.51-.26-.19-.51-.37-.77-.56-2.31,2.48-4.62,4.96-7.26,7.79-.24-1.1-.52-1.63-.44-2.11,1.03-6.6,3.73-12.23,10.01-15.32,3.27-1.61,6.79-2.68,10.2-4,1.66-.64,3.69-.68,4.6-3.03h-.03Zm-40.94,28.51c0-1.38.27-2.3-.04-2.92-2.71-5.31-2.62-11.04-2-16.64,1.36-12.34,5.83-22.83,17.78-28.92,9.53-4.86,22.49-3.31,30.36,3.99,4.33,4.01,6.28,11.31,3.23,17.5-.37.76-.9,1.45-1.21,2.23-.68,1.71-.69,3.33,1.06,4.5,1.62,1.09,2.95.32,4.22-.71,1.87-1.5,3.08-3.45,3.01-5.83-.1-3.09-.15-6.27-.94-9.22-2.1-7.82-6.39-14.65-13.72-18.05-13.86-6.41-26.73-2.65-37.83,8.42-4.81,4.8-7.68,11.18-9.3,17.9-1.7,7.09-1.96,14.27-.46,21.42.59,2.8,1.99,5.23,5.85,6.33h0Z" fill="#fff" stroke-width="0"/><path d="m174.43,253.19c-.91,2.35-2.94,2.39-4.6,3.03-3.41,1.32-6.93,2.39-10.2,4-6.28,3.09-8.98,8.71-10.01,15.32-.08.48.2,1.02.44,2.11,2.64-2.83,4.95-5.31,7.26-7.79.26.19.51.37.77.56-1.41,2.49-3.08,4.88-4.17,7.51-.96,2.33-3.38,4.7-.95,7.88,3.43-2.53,4.53-6.99,8.59-9.06.18,2.38-1.26,3.7-2.03,5.27-.62,1.27-1.27,2.53-1.98,3.75-1.33,2.28-.28,3.36,2.2,4.11,1.25-1.31,2.57-2.69,4.55-4.77-.19,1.68-.06,2.64-.41,3.35-1.57,3.18-.93,5.66,2.4,7.83,1.44-1.41,2.86-2.91,4.39-4.29,3.51-3.18,8.43-3.88,12.61-1.83,1.94.95,3.51,2.21,3.64,5.03-1.38-.22-2.45-.47-3.52-.56-4.93-.38-8.94,3.65-8.04,8.53.53,2.87,1.75,5.66,2.93,8.36,1.87,4.31,3.59,8.58,3.12,13.46-.53,5.46-3.55,8.27-8.96,7.74-1.31-.13-2.8-.71-3.76-1.57-2.69-2.44-4.44-5.48-4.48-9.27-.03-2.97.1-5.95-.07-8.91-.15-2.66-.44-5.34-.97-7.95-.98-4.82-3.51-8.57-8.06-10.81-1.13-.56-2.14-1.37-3.22-2.05-8.43-5.35-11.08-13.62-9.38-24.44,1.63-10.33,10.44-17.3,20.18-19.1,4.67-.87,8.27.53,11.7,4.55h.03Z" stroke-width="0"/><path d="m133.49,281.7c-3.86-1.1-5.26-3.53-5.85-6.33-1.5-7.15-1.25-14.33.46-21.42,1.62-6.72,4.49-13.1,9.3-17.9,11.1-11.07,23.97-14.83,37.83-8.42,7.34,3.4,11.63,10.23,13.72,18.05.79,2.95.84,6.13.94,9.22.08,2.38-1.14,4.33-3.01,5.83-1.27,1.02-2.6,1.79-4.22.71-1.74-1.17-1.73-2.79-1.06-4.5.31-.78.84-1.47,1.21-2.23,3.05-6.18,1.1-13.49-3.23-17.5-7.87-7.3-20.83-8.85-30.36-3.99-11.95,6.09-16.42,16.59-17.78,28.92-.62,5.59-.71,11.32,2,16.64.32.62.04,1.54.04,2.92h0Z" stroke-width="0"/><path d="m982.05,479.6c-4.14,2.27-8.05,2.01-11.78,2.46-4.36.52-4.71.67-4.83,5.14-.07,2.54-.02,5.09.03,7.64.33,15.57-.45,31.08-2.51,46.51-1.36,10.2-5.5,19.26-11.92,27.26-1.39,1.74-3.11,3.36-4.99,4.53-5.77,3.62-11.9,6.61-18.57,8.13-8.25,1.88-16.55,3.62-24.9,5.03-4.58.77-9.29.84-13.95,1.04-2.66.12-3.43-.53-3.45-3.14-.05-6.65.15-13.3.22-19.95.03-2.57,1.61-3.69,3.79-4.46,6.42-2.26,12.55-5.06,18.43-8.56,15.29-9.1,22.73-23.25,25.73-40.03,1.29-7.19,1.24-14.63,1.73-21.96.08-1.25.12-2.68-.41-3.74-.48-.97-1.72-2.15-2.67-2.2-4.73-.22-9.47-.1-14.57-.1.29-.72.43-1.51.86-2.05,7.85-9.83,15.77-19.61,23.61-29.45,2.61-3.27,3.12-3.45,6.28-.48,2.88,2.71,5.73,5.48,8.39,8.4,6.45,7.09,14.21,12.5,22.16,17.69.92.6,1.8,1.25,3.3,2.3h.02Z" fill="#fff" stroke-width="0"/><path d="m936.96,880.04c-1.31-1.59-2.35-2.88-3.43-4.15-3.01-3.56-5.9-7.23-9.08-10.64-7.23-7.76-14.61-15.38-21.9-23.08-1.03-1.09-1.92-2.32-3.01-3.67,1.54-1.38,2.92-.9,4.26-.8,3.22.24,6.45.44,9.67.57,2.1.08,4.21-.06,6.31.02,2.59.1,3.2-.34,3.37-3.1.63-10.51.48-21.1-2.74-31.12-3.41-10.62-9.03-20.13-19.3-25.92-4.07-2.29-8-4.82-12.08-7.08-2.13-1.18-2.99-2.59-2.66-5.12.61-4.62.84-9.29,1.29-13.93.12-1.22.44-2.41.67-3.66,8.41-.6,16.08,1.18,23.68,3.42,9.39,2.77,16.76,8.68,23.51,15.43,10.87,10.87,16.07,24.47,17.98,39.38,1.02,7.97,1.14,16.05,1.52,24.09.08,1.8-.35,3.65-.78,5.43-.78,3.22.07,5.13,3.21,5.46,4.32.44,8.7.42,13.05.6,1.48.06,2.96.13,5.48.24-1.38,1.55-1.99,2.38-2.75,3.04-5.5,4.87-11.04,9.71-16.56,14.56-.32.28-.6.62-.94.86-6.78,4.82-12.08,11.05-16.98,17.67-.32.43-.85.71-1.83,1.51h.04Z" fill="#fff" stroke-width="0"/><path d="m419.73,150.96c1.56,9.56-4.22,14.59-11.27,18.52-3.67,2.04-7.68,3.64-11.72,4.79-14.32,4.07-28.97,5.09-43.7,3.12-8.51-1.14-17.02-2.46-24.99-6.24-7.88-3.73-14.64-8.14-15.96-18.27h-.01c-28.98,25.29-32.93,69.16-19.39,94.33,1.18-.25,2.35-.56,3.52-.88,0,0,0-.02-.01-.02-2.97-9.06-6.53-18.03-4.96-27.9.02-.13.12-.25.31-.62h.01c.97,9.74,4.31,18.67,7.53,27.82,1.59-.36,3.18-.63,4.77-.63,1.03,0,1.92-.11,2.71-.33-2.74-6.89-4.42-14.06-3.52-21.84,2.26,6.6,4.53,13.2,6.76,19.8.68-.76,1.27-1.67,1.82-2.77,1.38-2.77,2.9-5.46,4.79-7.89-.2-2.49.14-5.05-.08-7.61,1.1,1.82,1.88,3.48,2.37,5.03.6-.6,1.22-1.19,1.9-1.74,6.64-5.4,13.85-9.8,21.6-13.34,11.38-5.2,23.45-7.41,35.87-7.39,6.76,0,13.66-.11,20.17,2.22,5.85,2.09,11.77,4.15,17.33,6.89,1.36.67,2.68,1.4,3.96,2.17.45-1.47.91-2.95,1.36-4.42l.85.33c-.42,1.59-.62,3.24-1,4.84,3.75,2.39,7.11,5.22,10.09,8.44.26-2.56,1.56-4.85,2.27-7.27.9-3.08,1.97-6.1,2.97-9.15,0-.01,0-.02,0-.03h.01s0,.02-.01.03c-.11,6.16-1.31,11.96-4.6,17.12,2.61,2.92,4.91,6.16,6.91,9.7.24-7.34,2.65-19.92,5.35-26.46-1.07,9.37-1.6,18.83-4.27,28.42,1.32,2.48,2.56,5.01,3.9,7.62,15.3-32.27,3.56-76.22-23.64-96.38Z" fill="#fff" stroke-width="0"/><path d="m689.74,151.63c-.4,1.27-.76,2.46-1.15,3.63-1.36,4.16-3.6,7.7-7.41,10.01-5.58,3.39-11.39,6.39-17.78,7.84-17.44,3.95-34.98,4.75-52.58,1-7.52-1.6-14.8-3.83-21.1-8.45-5.4-3.97-9.34-8.75-8.19-16.3-16.4,13.74-25.89,31.17-29.23,52.06-2.83,17.69,2.25,40.41,6.28,44.77.61-1.12,1.19-2.26,1.78-3.4-4.85-9.47-3.46-19.83-3.51-30,.83,9.79,1.31,19.63,3.93,29.17,1.5-2.95,3.02-5.91,4.88-8.66,3.38-5,7.31-9.13,11.65-12.57-.11-1.54-.23-3.08-.34-4.62l.77-.13c.28,1.27.56,2.53.84,3.8,9.16-6.84,20.09-10.74,31.83-13.04,9.04-1.77,18.33-1.14,27.48.13,11.51,1.6,22.14,5.74,32.09,11.6.81.48,1.61.96,2.4,1.46.3-1.14,1.03-2.25,2.41-4.11-.45,1.52-.89,3.03-1.4,4.75,3.76,2.42,7.27,5.1,10.3,8.26,1.54-3.48,3.08-6.96,4.62-10.44-.58,4.23-1.18,8.46-3.08,12.15,2.32,2.72,4.3,5.78,5.79,9.32.32.77.85,1.49,1.42,2.1.46.49,1.09,1.01,1.71,1.11.37.06.74.11,1.11.17,2.99-9.6,5.99-19.21,8.98-28.81.26.04.51.09.77.13-.64,3.8-1.16,7.63-1.96,11.39-.82,3.85-1.77,7.69-2.92,11.45-.66,2.14-1.26,4.33-2.4,6.23,3.8.59,7.61,1.15,11.45,1.72,14.73-29.58,6.34-72.41-19.44-93.72Zm-124.12,79.18h0c-.92-5.46-.52-10.89.72-17.15.33,6.23.61,11.63.9,17.03-.54.04-1.08.08-1.62.12Z" fill="#fff" stroke-width="0"/><path d="m473.17,296.74c-.05,3.75.48,4.45,4.31,4.3,14.12-.54,28.24-1.07,42.36-1.61.57-.02,1.13,0,1.7-.06,2.8-.27,3.35-.88,3.26-3.78-.12-3.82-.45-7.63-.41-11.44.04-2.79.24-5.58.46-8.37-3-.4-5.98-.98-8.95-1.75-8.9-2.3-17.88-2.73-26.88-.45-2.88.73-5.75,1.56-8.67,2.08-2.53.46-5.06.82-7.59,1.02.11.34.21.68.22,1.02.13,6.35.28,12.7.18,19.04Z" fill="#fff" stroke-width="0"/><path d="m844.87,652.89c-1.2-5.92-3.63-11.58-5.23-17.44-2.11-7.72-7.58-13.26-12.07-20.29-2.96,4.96-5.97,9.13-8.05,13.71-3.52,7.75-4.84,15.94-2.61,24.4.34,1.28.65,2.81-.97,3.16-.75.16-2.09-.78-2.63-1.59-1.92-2.88-2.88-6.15-2.87-9.63.03-7.87,1.15-15.51,4.85-22.6,3.73-7.15,7-14.56,12.2-20.84.54-.65.98-1.39,1.38-2.14,2.05-3.81,3.58-7.66,4.67-11.53-.76-.03-1.52-.03-2.26-.06-8.77-.27-17.55-.4-26.33-.33-5.5.04-10.99.66-16.49.74-1.73.03-3.69-.48-5.16-1.38-3.18-1.95-3.07-6.16.2-7.98,1.93-1.07,4.18-1.86,6.37-2.14,15.33-1.95,30.64-3.95,45.66-7.65-.35-6.5-1.68-13.03-3.74-19.55-4.24-13.4-12.31-24.79-22.33-34.68-5.4-5.33-12.08-8.75-18.76-12.69-3.69,6.11-5.28,12.44-4.64,19.22.39,4.08,1.28,8.1,1.96,12.15.88,5.22,2.86,10.04,5.26,14.73,1.08,2.12,2.4,4.31,1.69,7.62-6.54-6.09-12.19-11.97-14.3-20.3-2.13-8.4-3.65-16.78-1.82-25.58,1.15-5.53,3.27-10.56,5.89-15.38,3.62-6.65,6-13.6,7.56-21.02,1.76-8.37,1.44-16.64.1-24.88-.69-4.27-2.06-8.59-3.92-12.5-4.62-9.69-10.54-18.44-20.21-23.96-1.09-.62-1.89-1.77-2.84-2.68,1.72-1.84,2.99-1.02,4.25-.43,7.83,3.66,14.56,8.68,19.67,15.75,1.05,1.45,2.37,2.69,3.7,4.18,2.59-3.26,4.38-6.46,4.42-10.29.04-4.66.13-9.35-.4-13.96-1.16-10.17-3.94-19.66-9.2-28.03-4.12,5.74-7.84,11.76-11.89,17.53-4.38,6.24-10.09,11.06-16.85,14.57-4.64,2.41-9.36,4.65-14.05,6.96-2.03,1-4.09.97-6.17.12-3.09-1.27-4.02-4.18-1.98-6.84.92-1.19,2.19-2.23,3.5-2.99,13.01-7.64,21.72-18.84,26.94-32.78,1.66-4.42,3.21-8.87,4.75-13.33-3.93-3.01-8.21-5.51-13.14-7.02-1.4-.43-2.83-.75-4.49-1.19-.06,1.27-.17,1.97-.12,2.66.89,11.31-2.56,21.83-5.93,32.35-.48,1.5-.91,3.26-3.38,3.58-.14-1.28-.43-2.37-.35-3.43.22-3.1.43-6.22.92-9.29,1.75-11.05,1.57-22.02-1.45-32.84-2.31-8.25-7.07-15.23-13.17-20.95-7.76-7.28-16.51-13.31-27.02-16.23-1.08-.3-2.17-.73-3.1-1.35-.62-.41-.97-1.25-1.61-2.12,1.04-.4,1.82-.99,2.56-.94,9.36.67,18.54,2.06,26.66,7.98,1.08-3.31,2.03-5.97,2.8-8.68,1.58-5.57,1.9-11.24.09-16.76-1.8-5.5-3.66-11.06-6.23-16.23-5.79-11.65-16.11-17.64-28.48-18.88-14.77-1.48-29.38.57-43.3,6.21-.71.29-1.48.43-2.4.69.64-3.12.66-3.34,2.92-4.51,7.55-3.89,15.07-7.85,23.74-8.75,1.92-.2,3.8-.82,5.92-1.3-1.56-4.54-4.7-7.5-7.93-10.06-8.36-6.61-17.65-11.72-27.55-15.7-11.86-4.76-24.09-5.63-36.68-3.84-8.09,1.15-15.77,3.35-22.92,7.28-10.91,6.01-17.65,15.66-22.93,26.54-.9,1.85-1.41,3.89-2.32,6.45,7.42-3.5,14.13-6.79,21.69-7.61,7.42-.8,14.71-.9,21.47,3.09-1.8.71-3.58,1.08-5.37,1.29-12.91,1.47-25.07,4.86-35.54,12.62,2.94,2.73,5.75,5.29,8.42,7.97,8.91,8.92,19.09,15.96,30.82,20.6,2.56,1.01,5.45,1.3,8.23,1.59,6.04.63,12.1,1.4,18.16,1.47,7.05.08,14.14-.24,21.15-.94,5.16-.52,10.23-1.93,15.33-2.99.82-.17,1.68-.41,2.38-.84,7.81-4.82,16.36-8.47,23.4-14.48,5.64-4.82,10.14-10.63,13.88-17.04.78-1.33,1.09-3.32,3.59-3.25h.02c0,.8.18,1.51-.03,2.07-1.88,5.24-4.69,9.86-8.37,14.13-4.96,5.76-10.34,10.98-17.09,14.4-12.63,6.41-25.71,11.73-39.6,14.83-.55.12-1.11.34-1.66.34-9.61-.03-19.22-.1-28.61-2.62-3.54-.95-7.09-1.91-10.66-2.75-9.31-2.18-16.97-7.5-24.73-12.7-6.63-4.45-12.39-9.81-17.39-16.02-.26-.32-.48-.67-.7-1.05-.85.68-1.75,1.3-2.66,1.89-7.47,4.88-15.49,8.32-24.55,8.45-1.57.02-3.14-.01-4.71-.1.16,5.49.29,10.98.34,16.47.02,2.11-.27,4.23-.52,6.34-.35,2.96-1.09,3.84-3.96,3.91-17.1.43-34.21.82-51.32,1.09-4.25.07-4.65-.45-4.68-4.68-.04-6.36.06-12.73.25-19.09.03-1.17.33-2.34.63-3.51-5.52.27-11-.29-16.44-2.33-5.13-1.91-9.93-4.4-14.26-7.66-1.8,2.76-3.89,5.2-6.15,7.6-6.6,7-14.74,11.87-22.61,17.1-5.46,3.62-11.82,5.4-18.15,6.94-9.09,2.21-18.31,3.69-27.72,2.84-5.34-.48-10.64-1.39-15.98-1.88-10.2-.93-19.38-5.06-28.49-9.22-7.77-3.54-14.67-8.37-20.22-15.11-3.16-3.84-6.55-7.43-8.51-12.07-.63-1.48-1.05-3.05-1.61-4.7,2.54-.75,2.88.92,3.63,1.98,2.53,3.57,4.87,7.3,7.63,10.7,5.92,7.28,13.84,11.92,21.89,16.48,9.09,5.15,19.04,6.96,29.1,8.5,4.74.73,9.54,1.17,14.31,1.66,6.85.71,13.47-1.1,20.2-1.88,11.62-1.33,20.86-7.39,30-13.92,7.12-5.09,12.95-11.52,18.91-17.93-3.61-2.62-7.51-4.69-11.64-6.46-7.77-3.34-15.87-5.09-24.24-5.91-1.71-.17-3.39-.63-5.08-.95.06-.34.11-.68.17-1.02,14.8-5.97,28.72-2.16,42.33,4.67.13-.58.3-.88.22-1.09-4.14-11.79-10.79-21.79-21.15-29-8.08-5.62-17.21-8.43-26.94-9.52-8.9-1-17.73-1.4-26.54.9-13.79,3.59-26.03,10.25-37.2,18.87-3.34,2.58-6.59,5.62-8.01,10.33,3.07.58,5.82,1.16,8.6,1.6,7.98,1.27,14.97,5.03,21.98,8.72,1.4.73,2.44,1.87,1.87,3.85-.56-.09-.97-.08-1.32-.22-13.36-5.41-27.29-7.05-41.61-6.6-11.67.37-27.82,8.33-32.74,23.1-1.25,3.76-2.78,7.43-4.02,11.19-3.04,9.14-.98,17.73,2.7,26.01,4.79-2.01,9.19-4.65,13.93-5.63,4.73-.98,9.74-2.45,14.85-1.21-.3,2.94-2.41,3.22-4.02,3.72-5.6,1.71-10.6,4.45-15.6,7.48-9.36,5.67-16.46,13.27-21.71,22.74-.95,1.72-1.82,3.55-2.37,5.43-2.73,9.34-3.71,18.86-2.55,28.56.6,5.06,1.24,10.12,1.76,15.18.13,1.29.55,2.85-1.4,3.75-.55-.61-1.33-1.12-1.59-1.82-4.37-11.71-7.91-23.6-6.84-36.8-1.87.5-3.25.74-4.52,1.24-1.5.59-2.96,1.22-4.4,1.9.75,7.07,1.97,14.07,4.29,20.85,3.45,10.08,8.01,19.68,15.27,27.68,1.36,1.49,3.33,2.62,5.23,3.39,3.37,1.38,5.73,3.68,7.08,6.92,1.74,4.17-.23,7.34-4.71,7.91-2.44.31-4.73.08-6.86-1.47-4.67-3.42-9.56-6.55-14.15-10.07-8.47-6.51-13.81-15.31-17.22-25.25-2.01-5.84-3.67-11.8-5.45-17.73-5.55,5.78-9.91,12.3-12.81,20.11-3.98,10.73-5.47,21.61-4.38,32.92.34,3.47,1.94,6.33,4.58,9.05,1.38-1.64,2.64-2.96,3.7-4.44,5.1-7.09,11.9-12.03,19.7-15.73,1.13-.53,2.31-1.28,3.67.57-.61.72-1.18,1.62-1.97,2.26-1.54,1.24-3.22,2.31-4.82,3.47-9.01,6.49-13.95,15.87-17.78,25.85-2.18,5.68-2.81,11.79-2.93,17.93-.24,11.84,2.22,23,7.74,33.48,1.58,3,3.23,5.99,4.51,9.12,3.11,7.58,4.51,15.45,3.1,23.65-.51,2.93-1.06,5.85-1.67,8.76-1.91,9-7.49,15.51-14.52,21.76-.77-2.85.17-4.8,1.17-6.53,5.03-8.72,6.35-18.43,7.43-28.13.74-6.61-.96-12.86-4.69-18.83-6.68,3.87-13.37,7.31-18.65,12.73-13.98,14.36-23.54,30.77-25.39,50.74,8.02,1.76,16.02,3.74,24.13,4.82,6.01.8,12.08,1.16,18.02,2.52.65.15,1.39-.04,2.08-.12,3.72-.43,7.01,1.76,8,5.3.59,2.1-.24,3.73-1.96,4.69-1.45.81-3.14,1.48-4.77,1.59-3.52.24-7.08.18-10.61.05-5.08-.18-10.14-.67-15.22-.76-5.23-.08-10.48.11-15.71.3-1.02.04-2.05.2-3.2.39,1.24,6.24,3.59,12.14,7.41,17.54,5.11,7.23,9.18,14.94,13.05,22.81,3.32,6.77,4.25,14.11,3.75,21.52-.2,2.98-1.7,5.9-2.86,8.75-.26.64-1.57.86-2.39,1.28-.36-.81-.94-1.61-1.01-2.45-.08-.95.38-1.93.49-2.92.24-2.1.62-4.22.56-6.32-.32-11.1-5.12-20.36-12.16-29.04-2.6,3.75-5.23,7.21-7.5,10.9-4.65,7.57-6.58,16.19-9.12,24.57-.12.4-.1.84-.18,1.26-1.71,8.94-2.22,17.97-1.99,27.06.46,18.37,5.2,35.22,17.7,49.26.95,1.07,2.1,1.97,3.48,3.24.44-1.55.78-2.35.89-3.18,1.67-12.19,3.81-24.34,2.81-36.74-.12-1.45-.7-3.1,1.58-4.43.62,1.33,1.42,2.48,1.69,3.74.57,2.62,1.15,5.29,1.2,7.95.1,4.95-.28,9.9-.25,14.85.05,8.32-.2,16.59-1.17,24.86,1.12-.01,2.23-.05,3.35-.11,8.47-.42,16.94-.94,25.42-1.34,4.33-.21,7.62,2.64,7.88,6.62.26,4.03-2.17,6.83-6.59,7.26-8.58.83-17.17,1.53-25.75,2.33-1.4.13-2.78.5-4.17.73-.62.1-1.15.28-1.61.49,0,2.74.17,5.49.6,8.23.83,5.17,1.74,10.33,2.36,15.53,1.88,15.73,9.44,28.29,21.39,38.34,4.87,4.1,10.04,7.84,15.1,11.72.71.54,1.51.96,2.86,1.81.19-3.55.04-6.55.57-9.42.97-5.25,2.23-10.46,3.62-15.61.41-1.52,1.48-3.6,3.52-2.75,1.84.76.84,2.78.45,4.19-1.6,5.8-2.02,11.66-1.53,17.66.29,3.5.23,7.08-.09,10.58-.57,6.2.91,11.99,4.09,17.05,3.91,6.2,7.56,12.57,12.25,18.31,5.6,6.85,12.21,12.17,20.17,15.85,7.73,3.58,15.82,4.69,24.71,3.15-1.7-3.51-3.24-6.65-4.74-9.8-3.25-6.79-4.71-13.91-3.95-21.43.09-.94.6-1.84,1.25-3.72.92,1.89,1.53,2.69,1.7,3.57,1.11,5.68,3.73,10.64,7.03,15.3,7.03,9.91,13.55,20.15,22.77,28.4,7.41,6.64,15.84,10.81,25.35,13.03,5.85,1.36,11.82,1.36,17.72.18,13.13-2.64,25.09-7.93,35.39-16.55,3.45-2.88,6.9-6.06,9.35-9.76,4.27-6.44,8.59-13.08,7.8-21.5-.11-1.21.63-2.5,1-3.84.94.33,1.47.35,1.69.62,3.58,4.35,6.5,9,5.35,15-1.42,7.41-4.87,13.83-9.76,19.52-1.45,1.69-2.92,3.37-4.71,5.44l-.02.05c2.64.88,4.73,1.7,6.88,2.26,4.64,1.19,9.27,2.79,14,3.23,8.01.74,15.82-1.04,23.21-4.1,2.94-1.22,5.68-3.13,8.18-5.14,3.3-2.65,6.38-5.62,9.38-8.62,5.32-5.31,10.41-10.82,13.49-17.85,1.56-3.56,1.98-7.21,1.61-11.33-2.1.53-3.86,1.01-5.63,1.43-6.51,1.51-13.22,1.82-19.14-1.22-8.09-4.15-15.22-9.81-20.12-17.78-.98-1.6-2.11-3.48-.37-4.99,1.76-1.53,3.11.33,4.34,1.38,2.15,1.83,3.88,4.58,6.34,5.54,7.03,2.75,13.66,6.78,21.73,6.56,3.9-.1,7.52-1.13,11.27-1.6,6.11-.76,10.92-3.52,14.86-8.13,1.52-1.78,3.29-3.35,5.19-5.26,1.51,1.61,2.85,2.71,3.79,4.09,3.53,5.21,8.97,7,14.63,8.44,1.92.49,3.85.94,5.8,1.29,5.92,1.04,11.84.97,17.58-.92,3.34-1.11,6.57-2.6,9.76-4.12,1.61-.77,3.08-1.9,4.48-3.03,1.87-1.51,3.52-3.29,5.44-4.72.62-.46,2.08-.56,2.64-.14.59.44.91,1.79.73,2.59-.27,1.19-1.05,2.29-1.68,3.38-3.2,5.55-8.32,9.15-13.14,13.1-7.14,5.85-15.24,6.99-23.99,5.38-2.31-.43-4.58-1.07-7.08-1.66-.07.86-.17,1.4-.15,1.94.15,7.3,3.14,13.49,7.91,18.76,4.36,4.82,9.31,9.1,13.66,13.93,5.5,6.09,12.51,8.88,20.21,10.86,12.32,3.15,23.68.24,35.36-4.57-1.9-2.16-3.61-4.02-5.22-5.96-4.32-5.19-7.37-11.01-9.05-17.59-1.63-6.36,1.24-11.27,4.78-16,.33-.45,1.22-.48,2.4-.91.26,2.11.5,3.87.69,5.64.2,1.96-.07,4.09.6,5.87,3.46,9.12,8.3,17.37,16.26,23.39,7.03,5.31,14.38,10.07,22.8,12.9,7.67,2.58,15.4,4.81,23.65,4.29,11.58-.73,21.62-5.22,30.55-12.41,6.68-5.38,11.89-12.11,16.72-19.09,5.93-8.57,12.9-16.6,14.9-27.34.12-.65.91-1.18,1.93-2.42,3.2,13.27-2.32,23.8-7.78,34.59,1.39.22,2.33.43,3.27.49,1.83.11,3.68.29,5.51.17,14.27-.92,25.45-7.65,34.71-18.23,5.16-5.91,8.94-12.72,13.07-19.28,3.35-5.33,5.01-11.3,4.33-17.82-.39-3.78-.47-7.66-.13-11.44.51-5.74-.14-11.27-1.62-16.79-.36-1.34-.05-2.86-.05-4.36,2.89-.14,3.81,1.71,4.25,3.35,1.34,5.02,2.54,10.1,3.44,15.22.51,2.95.33,6.03,1,9.57,6.26-4.93,12.08-9.2,17.54-13.88,10.97-9.41,18.55-20.9,20.66-35.52.42-2.94.92-5.87,1.29-8.82.6-4.78,1.57-9.57,1.79-14.35-9.01-.92-18.04-1.67-27.03-2.66-2.92-.32-5.84-1.07-8.64-1.99-2.86-.94-3.5-2.66-2.6-5.69.32-1.08.71-2.16,1.19-3.17,1.48-3.12,2.98-3.97,6.37-3.76,8.32.52,16.63,1.17,24.96,1.49,1.58.06,3.16,0,4.75-.11-.22-2.01-.44-4.03-.6-6.04-.36-4.5-.61-9.02-.83-13.53-.25-5.09-.33-10.18-.62-15.26-.33-5.69-.22-11.32,1.32-16.85.36-1.29.49-2.86,3.02-3.04,0,4.93-.17,9.77.05,14.59.22,4.8.71,9.59,1.32,14.36.62,4.86,1.54,9.68,2.42,15.1,1.34-1.04,2.21-1.51,2.82-2.22,8.54-9.8,14.36-20.9,16.64-33.84,2.54-14.4,2.44-28.77-.45-43.05Z" fill="#fff" stroke-width="0"/></svg>