<?xml version="1.0" encoding="UTF-8"?><svg id="Layer_1" xmlns="http://www.w3.org/2000/svg" xmlns:xlink="http://www.w3.org/1999/xlink" viewBox="0 0 100 100"><defs><filter id="drop-shadow-3" filterUnits="userSpaceOnUse"><feOffset dx="1" dy="2"/><feGaussianBlur result="blur" stdDeviation="3"/><feFlood flood-color="#000" flood-opacity=".75"/><feComposite in2="blur" operator="in"/><feComposite in="SourceGraphic"/></filter><filter id="drop-shadow-4" filterUnits="userSpaceOnUse"><feOffset dx="1" dy="2"/><feGaussianBlur result="blur-2" stdDeviation="2"/><feFlood flood-color="#000" flood-opacity=".34"/><feComposite in2="blur-2" operator="in"/><feComposite in="SourceGraphic"/></filter></defs><path d="m32.17,21.64h48.97c1.77,0,3.2,1.43,3.2,3.2v48.72c0,1.77-1.43,3.2-3.2,3.2H17.64c-1.77,0-3.2-1.43-3.2-3.2v-34.2c0-9.78,7.94-17.72,17.72-17.72Z" transform="translate(4.09 -3.79) rotate(4.59)" fill="#ffb094" filter="url(#drop-shadow-3)" stroke-width="0"/><path d="m29.39,32.72s-.42-5.58,2.35-12.48c-7.92-.08-14.72,5.64-15.99,13.43,7.8-3.22,13.64-.95,13.64-.95Z" fill="#ffcfbe" filter="url(#drop-shadow-4)" stroke-width="0"/><path d="m38.31,33.51c.65-.69.85-.62,1.33.36.36.67.38,1.24.18,3.08-.16,1.23-.31,4.4-.39,7.04-.12,5.01-.26,5.61-1.33,5.59-.67-.01-4.87-4.26-6.34-6.42-1.2-1.79-2.84-3.82-3.17-3.96-.1-.03-.28.66-.36,1.56-.15.93-.35,2.9-.54,4.13-.56,3.63-.61,4.27-1.44,4.15-.63-.08-.64.52-.22-8.69.21-4.34.39-5.2,1.16-5.19.57,0,2.7,2.15,3.28,3.3.48.98,1.66,2.43,5.3,6.54.82.95,1.41,1.39,1.61,1.3.27-.16.36-1.7.37-6.24.06-5.48.1-6.04.55-6.54Z" fill="#231f1f" stroke-width="0"/><path d="m45.68,37.78c1.54-.34,3.41-.21,4.41.28,2.81,1.38,3.39,6.61,1.04,9.14-1.87,1.97-3.38,2.48-5.71,1.87-1.96-.5-2.95-1.25-3.76-2.87-.52-1.14-.61-1.65-.46-2.68.23-1.63.68-2.53,2.28-4.17.85-.89,1.59-1.41,2.2-1.57Zm2.81,2.02c-1.29-.72-2.4-.41-4.26,1.16-.92.79-1.02,1.02-1.18,2.45-.16,1.43-.13,1.63.52,2.45.95,1.19,1.94,1.67,3.48,1.7,2.37.04,3.71-1.74,3.45-4.62-.11-1.54-.73-2.45-2.02-3.14Z" fill="#231f1f" stroke-width="0"/><path d="m54.64,33.7c.61-.66.75-.66,1.27.15.29.44.41,1.21.39,2.35-.02.93.07,1.77.2,1.84.1.1,1.06.22,2.13.3,1.47.09,2,.27,2.26.61.72,1.01.31,1.31-1.79,1.34-2.84.08-2.84.12-2.68,4.03.1,1.77.28,3.28.44,3.48.56.68,2.06.54,2.78-.22.37-.39.68-.82.69-.96,0-.13.28-.66.56-1.16.89-1.42,1.22-.71.64,1.41-.9,3.46-1.27,3.82-3.71,3.78-1.6-.03-2.92-.99-3.33-2.43-.12-.54-.27-3.91-.3-7.52-.03-6.01.01-6.55.46-7.01Z" fill="#231f1f" stroke-width="0"/><path d="m67.22,36.59c2.39-1.19,6.3.91,6.72,3.62.12.67.01,1.34-.2,1.93l-.38.86-3.94-.07-3.91-.07.05.8c.08.94,1.65,3,2.58,3.35.36.17,1.46.29,2.4.28l1.94.03c.67.04-.44,2.2-2.41,2.16-2.14-.04-3.27-.22-4.65-1.62-1.71-1.7-2.25-3.05-2.21-5.38.03-1.57.14-2.1.62-2.7.31-.4.55-.83.55-.99,0-.3,1.8-1.67,2.84-2.22Zm3.9,2.61c-.36-.34-1.09-.65-1.92-.77-1.27-.16-1.37-.12-2.46.89-.64.56-1.09,1.15-.96,1.32.13.17,1.23.29,3.07.32,2.8.05,2.87.05,2.88-.55,0-.33-.29-.87-.61-1.21Z" fill="#231f1f" stroke-width="0"/><path d="m76.32,47.54c.74-.59,1.41-.61,2,.07.49.54.45,1.04.07,1.54-.48.66-1.62.77-2.51.26-.59-.35-.45-1.21.43-1.86Z" fill="#231f1f" stroke-width="0"/><path d="m72.97,55.54c-1.89-.73-3.47.52-5.21,1.06-1.68.52-3.49-.05-5.16-.32-1.63-.26-3.31-.26-4.69.74-.35.26-.65.6-1.03.83-.4.25-.53.02-.8-.29-.57-.67-1.29-1.14-2.15-1.35-1.92-.47-3.7.23-5.51.78-1.02.31-2.03.51-3.09.31-.99-.19-1.94-.57-2.93-.76-.98-.18-1.89-.1-2.82.25-.92.34-1.55.32-2.3-.37-.63-.58-1.07-1.85-1.99-1.93-1.01-.08-2.1.05-3.09.23-1.13.21-2.25.56-3.3,1.03-.12.05-.58.36-.69.33-.04-.01-.06-.07-.11-.11-.19-.16-.29-.56-.41-.78-.38-.67-.9-1.23-1.72-1.22-1.03.01-1.59.97-1.86,1.84-.33,1.05,1.28,1.63,1.61.58.07-.21.13-.51.29-.67,0,0,0,0,0,0,.18.16.3.53.4.72.36.67.84,1.31,1.67,1.36.57.03,1.08-.29,1.58-.51.62-.28,1.25-.5,1.91-.67,1.1-.28,2.21-.42,3.34-.41.66.96,1.44,1.9,2.55,2.34.58.23,1.23.29,1.85.14.71-.16,1.31-.55,2.05-.55,1.48,0,2.86.79,4.33.93,1.51.15,2.94-.36,4.35-.81,1.21-.39,2.68-.8,3.91-.25.58.26.87.78,1.33,1.18.52.45,1.17.62,1.83.43,1.15-.33,1.77-1.49,2.98-1.72,1.22-.23,2.52.11,3.72.33,1.41.26,2.89.47,4.29.06,1.32-.38,2.91-1.67,4.31-1.13,1.03.4,1.6-1.21.58-1.61Z" stroke-width="0"/><path d="m71.36,66.73c-2.34-.6-4.72-.84-7.13-.67-1.22.09-2.41.33-3.62.54-.55.1-1.11.18-1.67.16-.67-.02-1.18-.29-1.81-.46-.48-.13-.97-.08-1.38.21-.37.25-.59.66-.96.91-.7.48-1.64.43-2.43.28-2.1-.41-3.84-1.89-6.02-2.04-1.29-.09-2.32.39-3.44.96-.45.23-.99.54-1.52.42-.15-.03-.74-.25-.68-.48.11-.44-.01-.93-.49-1.11-2.89-1.07-5.77.06-8.62.64-.98.2-3.03.76-3.62-.39-.53-1.04-.36-2.22-1.17-3.16-.45-.52-1.18-.34-1.46.23-.2.4-.66.45-1.02.29-1.01-.44-1.63,1.16-.62,1.6.77.34,1.58.24,2.23-.16.25.79.27,1.7.77,2.4.86,1.2,2.43,1.25,3.77,1.11,2.8-.29,5.78-1.85,8.6-1.12.27,1.52,2.22,2.19,3.71,1.66,1.11-.39,2.04-1.22,3.27-1.19,1.26.03,2.46.68,3.58,1.19,1.74.79,3.95,1.48,5.76.52.41-.22.74-.5,1.06-.84.28-.31.25-.26.65-.11.31.12.62.21.94.27,1.25.23,2.53-.03,3.76-.26,2.98-.57,6.01-.55,8.96.2,1.06.27,1.68-1.32.62-1.6Z" stroke-width="0"/></svg>