<?xml version="1.0" encoding="UTF-8"?><svg id="Layer_1" xmlns="http://www.w3.org/2000/svg" viewBox="0 0 1000 1000"><path d="m113.97,127.47v-12.01c4.58-1.59,9.72,1.15,14.14-2.19-1.58-3.01-4.16-2.35-6.39-2.43-2.39-.08-4.79-.02-7.79-.02-.22-5.71-.18-11.23.18-16.85,8.22,0,15.98,0,23.73,0,1.41,0,2.85.24,4.23.02.81-.13,1.5-.95,2.25-1.45-.61-.82-1.05-1.94-1.87-2.38-.93-.5-2.18-.54-3.3-.55-5.79-.05-11.58-.02-17.37-.02-2.37,0-4.74,0-7.15,0v-14.84c4.06,0,7.79-.02,11.53.01,1.26,0,2.55.34,3.77.14.64-.11,1.66-1.09,1.6-1.57-.1-.78-.83-1.96-1.48-2.09-2.62-.53-5.3-.82-7.97-1.01-2.1-.15-4.22-.03-6.27-.03-.95-3.46-.47-13.02.89-17.94,4.26.37,8.59.84,12.92,1.1,5.92.37,11.84.6,17.77.84.82.03,1.73-.09,2.47-.44,1.46-.68,1.57-2.64.12-3.38-1.08-.55-2.41-.8-3.65-.85-8.75-.38-17.5-.67-26.26-.98-1.1-.04-2.2,0-3.68,0,.54-4.81,1.04-9.26,1.59-14.23,2.89.2,5.52.41,8.14.57,1.4.09,2.88.41,4.18.06.81-.22,1.65-1.4,1.87-2.3.1-.43-1.15-1.63-1.9-1.74-2.79-.38-5.63-.45-8.45-.64-.83-.06-1.66-.11-3.08-.2.36-3.99.71-7.84,1.12-12.28,15.11-.69,30.11-1.52,45.17-1.32-5.65,58.42-11.26,116.45-16.91,174.86-10.74-.48-20.98-.95-31.7-1.43-.33-3.17-.65-6.16-1-9.44,3.36-.23,6.28-.43,9.21-.62.56-.04,1.13,0,1.69-.06,1.39-.16,3.13-.13,3.06-2.09-.06-1.62-1.61-1.74-2.89-1.81-3.1-.16-6.21-.28-9.31-.4-.54-.02-1.07,0-1.99,0-.22-3.12-.43-6.03-.67-9.33,1.35-.07,2.41-.17,3.47-.16,6.36.05,12.71.17,19.07.15,1.74,0,3.8.21,4.54-2.22-1.13-2.18-3.19-2.1-5.13-2.12-6.64-.08-13.28-.1-19.93-.15-.54,0-1.08-.07-2.04-.13v-11.87c1.91.16,3.95.32,5.98.5,1.68.15,3.35.44,5.03.45,1.5.01,2.93-.51,2.95-2.32.01-1.64-1.35-2.04-2.67-2.12-3.79-.24-7.59-.4-11.7-.61v-13.62c3.5.16,6.84.34,10.18.45,4.52.15,9.03.32,13.55.34,1.63,0,3.89.02,3.84-2.26-.05-2.28-2.3-2.09-3.95-2.15-7.76-.3-15.51-.55-23.76-.83Z" fill="#fff" stroke-width="0"/><path d="m73,431.08c.65,4.95,1.31,9.09,1.67,13.26.1,1.13-.54,2.46-1.17,3.5-6.44,10.66-9.08,22.43-10.28,34.64-.09.97.01,1.96.1,2.94.02.2.37.37.84.8,3.63-10.29,4.35-21.56,11.49-31.57.64,5.24,1.16,9.59,1.69,13.94.31,0,.62,0,.93,0,.31-5.28.8-10.55.86-15.83.03-2.71.66-4.94,2.43-6.96,2.46-2.81,4.35-6.15,7.78-8.72.55,2.07,1,3.77,1.45,5.46.19.03.39.06.58.09.13-.83.28-1.65.4-2.48.12-.84.37-1.7.28-2.52-.37-3.5,1.53-5.54,4.33-7.05.86-.47,1.73-.92,2.59-1.38,2.63,4.45,3.66,16.23,1.96,21.81-12.48,3.16-17.87,13.4-23.23,23.53-2.13,4.02-3.56,8.38-2.13,13.2,3.93-12.43,11.04-22.39,21.98-29.74-.21.86-.3,1.77-.66,2.56-6.01,13.12-8.45,27.22-10.92,41.26-.82,4.66-.36,9.59-.08,14.37.41,7.19.89,14.4,1.86,21.53,1.16,8.6,4.74,16.52,7.69,24.61,1.11,3.03,2.16,6.15,2.69,9.32.34,1.99.1,4.31-.62,6.2-5.23,13.67-8.57,27.8-10.33,42.27-.59,4.86-.11,9.86-.08,14.8,0,1.34.16,2.68-.17,4.2-8.56-6.98-12.15-17.3-17.97-26.31-.51,9.77,8.61,24.69,18.68,31.04,1.27,6.1,2.51,12.01,3.88,18.58-1.62-.53-3.1-.77-4.33-1.46-4.02-2.24-6.99-5.62-9.84-9.19-1.58-1.98.17-3.76-.16-5.9-.68.84-1.16,1.45-1.97,2.45-7.43-11.4-12.85-23.62-19.17-35.32-.29.1-.57.19-.86.29.53,2.23.95,4.5,1.61,6.69.81,2.7,1.36,5.65,2.85,7.95,3.99,6.15.36,10.45-3.22,15.78-4.04-8.39-7.81-16.21-11.58-24.03-.2.05-.41.09-.61.14.56,2.42.91,4.92,1.72,7.25,2.1,6,4.26,11.98,6.69,17.84.97,2.35,1.1,4.2-.45,6.25-1.08,1.43-1.91,3.06-3.3,5.35-3.14-5.59-6-10.54-8.66-15.6-.42-.81-.13-2.2.24-3.17.85-2.24,1.98-4.37,2.95-6.57.31-.71.46-1.5.22-2.45-1.64,2.6-3.28,5.19-5.36,8.5-2.82-5.68-5.35-10.79-7.88-15.9-.23.08-.47.16-.7.24.6,2.04,1.13,4.1,1.81,6.11,1.05,3.07,2.16,6.13,3.32,9.16,1.56,4.1,1.59,4.1-2.46,7.9-12.22-36.1-14.89-73.07-13.54-110.54,1.2-33.48,12.02-84.02,20.8-96.81,2.49,2.59,3.28,5.21,1.76,8.77-4.24,9.91-6.84,20.34-8.61,30.95-.53,3.17-.58,6.41-.12,9.74,1.54-6.01,2.81-12.1,4.69-18,1.87-5.88,4.34-11.56,6.55-17.33.3.02.59.04.89.06,1.08,3.48,2.15,6.95,3.23,10.43.31,0,.62-.02.93-.02.21-1.41.63-2.83.58-4.23-.12-3.94-.2-7.91-.76-11.8-.32-2.23-.32-4.14.87-6.06,1.92-3.09,3.76-6.23,6.09-10.11,1.87,4.44,2.94,8.19,3.08,12.08.05,1.4-.96,2.91-1.71,4.25-6.11,10.9-9.56,22.6-10.67,35.01-.13,1.46.08,2.95.94,4.58.39-.78.89-1.51,1.15-2.33,1.97-6.19,3.74-12.45,5.9-18.57,1.44-4.08,3.43-7.97,5.57-12.84,2.44,5.94,1.37,11.42,2.89,16.82,2.53-2.7,3.19-5.61,3.23-8.56.05-4.51-.02-9.05-.5-13.52-.32-2.97-.11-5.54,1.68-8,1.71-2.35,2.99-5.02,5.71-7.65Zm-43.31,156.85c2.35-6.16,2.12-12.9,4.26-19.11,2.13-6.17,3.62-12.57,6.42-19.3,5.25,11.35,11.91,20.74,20.56,28.73-1.37-3.24-3.17-6.22-4.8-9.29-3.89-7.36-7.67-14.78-11.55-22.14-1.51-2.86-1.38-5.45,0-8.43,3.87-8.32,7.48-16.77,11.07-25.21.89-2.08,1.34-4.34,1.99-6.52-.29-.12-.59-.24-.88-.36-7.14,8.03-11.09,18.08-16.69,27.74-.71-1.57-1.26-2.66-1.71-3.8-1.13-2.89-2.21-5.81-3.34-8.7-.41-1.06-.85-2.2-2.47-1.58-1.16,2.04-.45,4.12.12,6.12,1.03,3.67,2.15,7.32,3.43,10.91.9,2.51.7,4.73-.13,7.31-2.45,7.65-4.79,15.37-6.54,23.2-1.5,6.68-2,13.56.25,20.43Zm12.26-10.46c.56,8.84,7.73,26.03,12.04,28.84.06-3.4-8.57-24.07-12.04-28.84Z" fill="#fff" stroke-width="0"/><path d="m93.66,666.79c.95,2.46,1.74,4.52,2.56,6.65-2.92,1.81-5.59,2.63-8.86,1.58.24-1.88.46-3.65.69-5.42-.14-.07-.28-.13-.41-.2-.9,1.52-1.8,3.05-2.69,4.55-4.32-.46-9.1-3.35-13.61-8.34.95-2.8,1.96-5.79,3.17-9.37,5.53,5.57,10.71,10.85,19.15,10.53Z" fill="#fff" stroke-width="0"/><path d="m62.91,636.59c3.32,5.71,6.31,10.79,9.19,15.92.42.75.66,1.92.38,2.68-.9,2.45-2.08,4.8-3.53,8.04-2.37-3.38-4.11-6.2-6.2-8.75-3.62-4.42-4.88-8.93-1.52-14.07.66-1,.99-2.22,1.67-3.81Z" fill="#fff" stroke-width="0"/><path d="m66.35,668.17c-1.27,1.69-2.6,3.45-4.23,5.6-4.64-4.04-7.62-8.87-10.81-13.6,1.5-2.7,2.85-5.13,4.39-7.91,3.64,5.44,7.05,10.54,10.65,15.91Z" fill="#fff" stroke-width="0"/><path d="m63.29,433.76c-1.32-3.39-2.49-6.4-3.85-9.87,3.03-3.29,6.13-6.66,9.23-10.03.36.09.71.18,1.07.26.68,2.95,1.41,5.88,1.98,8.85.11.56-.33,1.36-.75,1.86-2.42,2.89-4.91,5.72-7.68,8.93Z" fill="#fff" stroke-width="0"/><path d="m85.67,418.54c.59,1.3.79,1.67.93,2.06,1.68,4.76,2.14,9.15-2.7,12.67-1.74,1.27-2.86,3.39-4.94,5.96-.51-4.67-.94-8.46-1.29-12.25-.04-.48.27-1.14.63-1.5,2.29-2.22,4.63-4.38,7.37-6.94Z" fill="#fff" stroke-width="0"/><path d="m64.96,676.32c1.3-1.92,2.46-3.65,3.68-5.45,4.43,2.76,8.66,5.39,13.12,8.17-.55.87-1.16,1.78-1.71,2.72-1.22,2.07-2.83,2.43-4.99,1.39-3.67-1.76-7.26-3.6-10.1-6.84Z" fill="#fff" stroke-width="0"/><path d="m58.06,677.45c-.99.75-1.74,1.38-2.55,1.9-.7.45-1.47.77-2.75,1.43-3.26-4.2-6.5-8.38-10-12.88,2-1.41,3.56-2.51,5.12-3.61,3.42,4.42,6.68,8.63,10.19,13.17Z" fill="#fff" stroke-width="0"/><path d="m34.28,649.09c.97-1.47,2.02-3.06,3.35-5.08,2.9,5.78,5.52,11,8.27,16.49-1.47,1.23-2.83,2.36-4.18,3.49-2.64-2.79-5.35-8.26-7.43-14.9Z" fill="#fff" stroke-width="0"/><path d="m45.43,436.47c-1.48-1.26-2.73-2.32-4.38-3.71,2.51-4.42,4.96-8.75,7.72-13.62,1.76,1.66,3.01,2.85,4.4,4.17-2.67,4.54-5.15,8.74-7.75,13.16Z" fill="#fff" stroke-width="0"/><path d="m65.71,408.02c-3.12,3.5-6.27,7.03-9.59,10.76-1.55-.95-3.05-1.88-5-3.08,2.71-2.99,5.14-5.88,7.79-8.53,2.94-2.94,3.5-2.8,6.8.85Z" fill="#fff" stroke-width="0"/><path d="m73.69,410.25c2.29-1.63,4.32-3.07,6.77-4.81,1.28,2.43,2.42,4.59,3.72,7.07-2.52,2.13-4.92,4.14-7.62,6.41-1-3-1.86-5.61-2.88-8.67Z" fill="#fff" stroke-width="0"/><path d="m73.93,687.96c-4.62,2.35-10.73.77-16.83-4.18,1.43-1.13,2.79-2.21,4.22-3.34,4.13,2.46,8.14,4.86,12.61,7.53Z" fill="#fff" stroke-width="0"/><path d="m92.18,425.06c-.52-3.52-.95-6.41-1.36-9.19q3.26-2.18,7.42-1.02v7.08c-1.81.93-3.65,1.89-6.05,3.12Z" fill="#fff" stroke-width="0"/><path d="m88.59,409.22c-1.01-1.91-1.97-3.73-2.98-5.66,5.75-2.92,8.32,1.72,12.07,4.25-3.12.48-5.89.91-9.08,1.41Z" fill="#fff" stroke-width="0"/><path d="m90.99,680.49c-2.1,2.91-4.79,4.08-8.29,3.72,1.81-4.8,1.98-4.88,8.29-3.72Z" fill="#fff" stroke-width="0"/><path d="m75.57,400.14c-2.23,1.76-3.84,3.03-5.58,4.41-1.26-.82-2.39-1.56-3.84-2.5,2.8-1.8,5.15-3.72,9.42-1.91Z" fill="#fff" stroke-width="0"/><path d="m883.88,148.59c1.66-.87,3-1.58,4.69-2.47-2.66-1.98-4.81.18-7.35.13-.92-.84-2.02-1.85-3.62-3.31,4.24-1.22,8.29-1.53,11.66-5.15-1.63.11-2.66.02-3.61.28-2.45.66-4.88,1.4-7.28,2.22-2.32.79-4.12.53-5.27-2.4,5-.94,9.6-2.74,13.78-5.59-6.1-.47-11.85,2.52-18,1.5,5.92-1.36,11.46-3.39,16.09-7.57-4.94,1.19-9.89,2.38-14.83,3.57-.13-.36-.26-.72-.4-1.07,5.72-2.2,11.68-4.06,16.13-8.42,4.32-4.23,8.28-8.82,10.88-14.74.68.6,1.17.87,1.44,1.28,7.62,11.54,15.39,22.98,22.74,34.68,3.51,5.59,6.43,11.58,9.23,17.57,2.26,4.82-.41,10.58-5.5,12.35-4.99,1.73-10.05,1.81-14.66-1.19-2.82-1.83-5.46-3.97-8.05-6.12-4.35-3.6-8.6-7.32-12.88-11-1.7-1.46-3.37-2.95-5.2-4.55Z" fill="#fff" stroke-width="0"/><path d="m804.25,90.73c-5.42-11.05-4.7-21.92,1.5-32.33,7.85-13.17,24.9-20.88,40.05-18.48q3.05.48,4.07,3.52c-2.09.3-4.15.6-6.2.9-.06.35-.12.71-.18,1.06,1.91,1,3.82,2,6.04,3.16-.82,1.46-1.56,2.76-2.31,4.09-4.26-1.18-8.23-2.28-11.33-3.13-2.66.18-4.53.27-6.4.43-2.66.23-5.34.4-7.96.87-.72.13-1.27,1.25-1.89,1.91.7.6,1.33,1.58,2.11,1.72,1.9.33,3.87.27,6.2.39-1.58,2.54-3.66,3.22-6.13,3.41-4.61.35-8.83,1.91-12.5,4.73-1.5,1.15-3.24,2.32-3.12,5.07,1.07-.3,1.93-.6,2.81-.77.76-.14,1.73-.44,2.3-.12,3.63,2,7.08,1.09,9.9-1.19,4.56-3.69,8.83-2.33,13.76-.16-2.68,2.96-4.92,5.39-9.31,4.32-3.72-.9-7.59-.63-11.29.61-7.49,2.52-11.43,8.99-10.31,16.81.16,1.1.09,2.22.12,3.34l.06-.13Z" fill="#fff" stroke-width="0"/><path d="m859.49,124.8c3.4-1.02,6.87-1.35,9.51-4.27-3.73-1.91-7.2.53-11.26.16,3.13-1.6,5.79-2.96,9.01-4.61-2.96-1.65-5.4-.12-8.8-.54,1.9-.96,3-1.54,4.13-2.09,8.51-4.13,15.23-10.17,19.67-18.58.98-1.86,1.64-3.89,2.42-5.86.62-1.55,1.2-3.1,2.06-5.34,2.87,4.07,5.43,7.57,7.8,11.19.46.7.44,1.98.17,2.84-1.13,3.63-2.17,7.32-3.75,10.76-4.19,9.12-12.23,13.29-21.34,15.88-3.05.87-6.16,1.81-9.61.46Z" fill="#fff" stroke-width="0"/><path d="m804.19,90.87c.38-1.33.92-2.64,1.12-3.99,1.39-9.48,8.5-14.62,18.45-12.92-1.22,2.08-3.12,3.18-5.06,3.28-4.76.25-7.69,3.02-10.63,6.98,1.99,4.47,4.11,9.22,6.2,13.92-3.26.92-5.25.42-7.12-2.3-1.1-1.61-1.93-3.41-2.89-5.11,0,.01-.07.14-.07.14Z" fill="#fff" stroke-width="0"/><path d="m845.63,80.91c1.23-1.11,2.55-2.3,3.97-3.58,3.41,2.97,4.99,6.71,6.29,10.55.68,2.01-.12,2.84-3.92,5.04-2-3.79-4.01-7.59-6.33-12Z" fill="#fff" stroke-width="0"/><path d="m813.54,85.69c6.52-3.82,12.14-3.74,17.05,1.77-.51,1.5-1.44,1.42-2.65.87-1.52-.7-3.07-1.38-4.66-1.88-1.55-.49-3.15-.38-4.23,1.02-1.19,1.55-.78,3.22.1,4.75.61,1.07,1.42,2.02,2.48,3.5-1.08.11-2.03.5-2.36.19-3.05-2.78-5.45-5.95-5.72-10.23Z" fill="#fff" stroke-width="0"/><path d="m842.14,99.95c-1.2-3.67-2.4-7.35-3.8-11.64.94-.83,2.25-2.01,4.05-3.61,1.25,2.54,2.63,4.79,3.5,7.23,1.8,5.02,1.28,5.89-3.75,8.03Z" fill="#fff" stroke-width="0"/><path d="m864.66,79.22c-1.18,1.51-2.19,2.8-3.46,4.43-2.41-3.91-4.59-7.44-7-11.33.78-1.08,1.65-2.27,2.65-3.66,4.2,2.46,5.48,6.61,7.8,10.55Z" fill="#fff" stroke-width="0"/><path d="m864.02,59.21c2.65,3.33,4.97,6.25,7.35,9.25-.74,1.45-1.36,2.67-2.09,4.12-2.74-3.12-5.27-6.02-8.21-9.37.76-1.03,1.69-2.29,2.95-4Z" fill="#fff" stroke-width="0"/><path d="m840.35,68.43c1.13.74,2.32,1.45,3.43,2.28.77.57,1.42,1.31,2.5,2.34-1.66,1.49-3.16,2.84-4.82,4.33-2.09-1.5-3.97-2.86-6.23-4.49,1.76-1.53,3.22-2.81,5.12-4.46Z" fill="#fff" stroke-width="0"/><path d="m857.53,59.66c-2.3-1.65-4.36-3.12-6.68-4.77.74-1.57,1.45-3.05,2.22-4.68,3.27,1,5.15,3.44,7.62,5.64-1.17,1.41-2.13,2.57-3.16,3.81Z" fill="#fff" stroke-width="0"/><path d="m835.22,91.66c2.05,2.16,3.3,4.51,3.22,7.3-.03.96-.67,2.56-1.34,2.73-4.13,1.09-8.14.79-11.49-2.5,1.19.47,2.36,1.22,3.59,1.35,1.44.16,3.22.23,4.34-.47,1.56-.98,1.44-2.86.73-4.58-.55-1.32-1.8-2.84.95-3.83Z" fill="#fff" stroke-width="0"/><path d="m827.43,79.53c1.47-1.27,2.61-2.26,3.98-3.44,2.26,1.4,4.38,2.71,6.91,4.27-1.38,1.53-2.47,2.73-3.75,4.16-2.28-1.6-4.43-3.1-7.13-4.99Z" fill="#fff" stroke-width="0"/><path d="m850.14,68.81c-2.14-1.63-3.99-3.03-6.19-4.71,1.08-1.43,2.03-2.7,3.18-4.23,2.26,1.59,4.27,3.01,6.53,4.61-1.26,1.56-2.28,2.81-3.51,4.33Z" fill="#fff" stroke-width="0"/><path d="m843.23,57.83c-1.41,1.66-2.28,2.69-3.31,3.9-2.7-.97-5.27-1.89-7.84-2.81,1.63-4.12,3.04-3.88,6.26-2.9,1.43.44,2.82,1.04,4.89,1.81Z" fill="#fff" stroke-width="0"/><path d="m854.03,42.07c3.48.8,6.48,2.55,9.32,4.57,1.52,1.08,1.44,1.21.1,3.63-2.89-1.73-5.75-3.49-8.68-5.16-1.23-.71-1.47-1.55-.74-3.04Z" fill="#fff" stroke-width="0"/><path d="m873.16,61.8c-1.95-2.38-3.85-4.39-5.33-6.68-.5-.77.06-2.23.14-3.59,4.71,2.69,6.35,5.85,5.19,10.26Z" fill="#fff" stroke-width="0"/><path d="m815.98,104.04q4.15-2.25,9.2,1.86c-3.76,2.71-3.72,1.5-9.2-1.86Z" fill="#fff" stroke-width="0"/><path d="m866.89,84.57c1.03,3.42.99,6.36-2.63,8.21-2.33-3.56-1.98-4.72,2.63-8.21Z" fill="#fff" stroke-width="0"/><path d="m863.15,105c-.59-4.16,2.04-5.8,4.62-7.6,1.36,3.31.84,4.17-4.62,7.6Z" fill="#fff" stroke-width="0"/><path d="m856.89,94.97c1.06,4.9-2.53,5.1-4.77,6.99-.51-3.88,2.83-4.37,4.77-6.99Z" fill="#fff" stroke-width="0"/><path d="m822.05,88.95c1.32.61,2.65,1.23,4.46,2.07-1.08,1.14-1.86,1.95-3.1,3.26-.91-1.79-1.59-3.12-2.27-4.46l.91-.87Z" fill="#fff" stroke-width="0"/><path d="m852.74,108.75c-.38,4.01-3.56,3.25-5.75,4.29-.16-.28-.32-.55-.47-.83,2.07-1.16,4.15-2.31,6.22-3.47Z" fill="#fff" stroke-width="0"/><path d="m833.38,109.42c3.01-1.12,6.03-2.23,9.04-3.35-2.48,2.5-5.79,2.86-9.04,3.35Z" fill="#fff" stroke-width="0"/><path d="m874.22,79.99c-2.37-1.35-3.02-2.78-.32-4.94.13,2.02.23,3.48.32,4.94Z" fill="#fff" stroke-width="0"/><path d="m831.62,98.11c-1.45-.32-2.27-.5-3.54-.78,1.55-1.71,2.53-2.51,3.54.78Z" fill="#fff" stroke-width="0"/><path d="m250.14,896.24c.9.02,1.79.27,3.03.47-.79,2.35-1.3,4.41-2.15,6.31-2.02,4.51-3.85,9.16-6.4,13.36-9.47,15.61-23.16,25.67-40.93,30-2.3.56-4.78.7-7.15.57-2.37-.13-4.71-.83-7.06-1.3-2.79-.56-3.31-.17-4.42,2.45-.62,1.48-1.63,2.79-2.48,4.18.05-.04.09-.08.14-.12-1.09,1.57-2.25,3.1-3.26,4.71-.48.77-1.15,1.88-.9,2.51.25.64,1.51,1.21,2.35,1.26,11.75.61,23.51,1.15,34.29-5,.85-.48,1.84-.72,2.75-1.1,23.38-9.82,39.5-26.29,46.68-50.95.63-2.17,1.36-4.33,1.74-6.55.34-1.98,1.38-2.75,3.22-3.33-7.6,2.29-11.33,2.77-19.46,2.53Z" stroke-width="0"/><path d="m30.57,811.43c-2.16-2.01-4.48-3.89-6.93-5.54-1.59-1.07-3.53-1.61-4.48-2.03-3.95-.02-5.75,2-5.27,4.94.46,2.79,1.94,5.23,4.25,6.6,6.41,3.8,13.02,7.25,19.57,10.82,1.49.81,2.72.36,3.69-.94,1.07-1.43.51-2.7-.56-3.77-3.39-3.39-6.75-6.82-10.27-10.08Z" stroke-width="0"/><path d="m65.36,925.97c-2.77,6.25-5.57,12.48-8.28,18.75-.43,1-.58,2.19-.61,3.3-.1,3.61,2.39,5.12,5.52,3.39,3.05-1.68,4.85-4.28,5.15-7.74.37-4.34.68-8.69.77-13.04.03-1.52-.66-3.06-1.02-4.6-.51-.02-1.02-.05-1.52-.07Z" stroke-width="0"/><path d="m112.65,941.29c-2.67-3.77-5.46-7.46-8.24-11.15-.3-.4-.88-.59-1.13-.75-1.36.07-2.02,1.17-1.8,3.04.71,5.93,3.9,10.78,7.12,15.55.95,1.4,2.63,1.73,4.15.79,1.47-.9,1.99-2.36,1.41-4.03-.41-1.19-.81-2.44-1.52-3.45Z" stroke-width="0"/><path d="m90.55,944.1c-1.46.22-2.91.55-4.7.89,0-1.34-.09-2.18.01-2.99.49-3.91,1.08-7.81,1.54-11.72.25-2.11.99-4.38-1.6-6.56-.71,1.38-1.49,2.37-1.74,3.47-1.71,7.54-3.4,15.09-4.91,22.68-.49,2.49,1.39,3.86,4.03,3.14,1.72-.47,3.39-1.16,5.54-1.91,1.53,9.99,2.36,19.32,4.74,28.61.48-.4.64-.46.64-.53.4-10.42.83-20.84,1.14-31.26.09-2.97-1.65-4.27-4.69-3.82Z" stroke-width="0"/><path d="m34.69,836.35c-3.79-2.39-7.57-4.84-11.53-6.92-1.52-.8-3.55-1.09-5.28-.92-1.14.11-2.6,1.24-3.09,2.3-.39.84.2,2.45.85,3.38.68.98,1.87,1.69,2.97,2.27,3.65,1.93,7.48,3.24,11.69,3.16,1.26-.07,2.55,0,3.77-.25.56-.11,1.29-.77,1.4-1.29.11-.51-.32-1.43-.78-1.72Z" stroke-width="0"/><path d="m151.74,859.82c1.09.21,2.24.05,3.85.05,1.48-.17,3.43-.39,5.38-.62,1.96-.23,3.96-.27,5.86-.74,1.74-.43,3.53-1.07,4.99-2.07,1.78-1.2,2.31-3.68,1.55-5.26-.94-1.96-2.7-2.29-4.62-2.22-.42.01-.86.04-1.25.18-5.16,1.84-10.31,3.67-15.45,5.57-.63.23-1.37.67-1.67,1.22-.43.79-.81,1.85-.62,2.66.13.55,1.23,1.09,1.97,1.23Z" stroke-width="0"/><path d="m182.56,952.32s.01-.02.02-.03c0,0,0,0-.01.01v.02Z" fill="#fff" stroke-width="0"/><path d="m183.46,928.27c-.77-1.01-1.62-2.04-2.05-3.2-.56-1.52-1.24-3.27-.99-4.77.59-3.51-.19-6.75-1.18-9.99-1.81-5.89-2.48-6.25-8.43-5.21-.37.06-.79-.12-1.35-.21-.28-2.4-.5-4.77-.83-7.12-.44-3.13-2.15-5.38-4.82-7.11-3.72-2.41-7.56-2.88-11.17-1.16-5-4.55-9.53-8.81-14.25-12.85-1.62-1.39-1.95-2.72-1.76-4.74.38-4.06.9-8.21.44-12.22-1.11-9.72-5.6-17.98-12.28-25.06-2.33-2.47-4.79-4.8-7.19-7.2-10.77-10.74-24.12-13.49-38.35-10.81-13.41,2.53-23.47,10.84-30.59,22.37-1.86,3.02-2.99,6.79-3.42,10.35-2.81,23.04,5.72,41.44,23.56,55.82,3.59,2.89,7.71,4.7,12.26,5.47,5.74.97,11.54,1.54,17.28.31,2.85-.61,4.96.28,6.94,2,5.31,4.62,10.59,9.28,15.84,13.88.27,6.44.48,6.87,5.48,10.62,2.22,1.67,3.64,3.62,4.16,6.55.89,5.03,2.29,5.96,7.38,6.33.68.05,1.36.21,2.06.32.96,3.04,1.09,6.9,4.46,7.8,2.8.74,6.01-.05,9.38-.18,3.25,2.86,4.1,2.92,8.15.42,1.19-.74,2.44-1.39,3.56-2.03,6,3.17,10.21,2.41,14.85-2.52.61-.65,1.3-1.21,1.96-1.81.7-3.44,1.51-6.88-.44-9.59.88-2.65,1.45-4.84,2.32-6.9,1.18-2.77.81-5.2-.98-7.55Zm-75.37-20.61c1.08-1.2,2.05-2.05,2.68-3.1.38-.63.58-1.87.22-2.32-.5-.63-1.61-1.09-2.45-1.08-1.08.02-2.18.52-3.23.93-7.9,3.09-16.04,3.26-24.2,1.64-2.69-.53-5.5-1.7-7.69-3.33-16.5-12.29-24.21-28.59-22-49.31.65-6.1,3.53-10.96,7.76-15.14,1.7-1.68,3.61-3.17,5.49-4.66,11.97-9.53,25.11-9.73,38.86-4.76.66.24,1.34.5,1.92.89,10.97,7.46,20.37,16.22,23.84,29.68,1.37,5.31.97,10.64-.15,15.97-.49,2.34-1.07,4.73-1.05,7.1.01,1.73.63,3.64,1.53,5.14,1.36,2.26,3.26,2.07,4.56-.23.48-.84.7-1.83,1.25-3.33,4.56,5.19,9.5,9.57,13.38,14.97,1.02,1.42,1.17,2.81.46,4.36-.69,1.5-1.38,3.01-2.26,4.94-13.07-9.74-23.69-21.08-33.02-33.98,3.02-3.69,4.22-7.85,4.25-12.31.05-5.52-1.87-10.3-6.27-13.77-5.11-4.03-10.12-1.97-10.98,4.49-.67,5.02.29,9.85,2.3,14.48.54,1.25,1.03,2.53,1.57,3.86-2.22.92-2.54-.6-3.22-1.83-1.9-3.46-3.81-6.91-5.9-10.26-1.66-2.66-4.19-4.19-7.36-4.42-3.52-.26-5.33,1.5-5.18,5.02.17,4.04,1.87,7.42,4.94,9.96,2.05,1.7,4.36,3.12,6.64,4.52,1.54.95,2.28,2.01,1.36,3.85-3.49-.17-6.98-.41-10.46-.51-3.3-.09-6.34.68-7.59,4.17-1.22,3.39-.06,6.42,2.26,8.98,4.12,4.54,11.9,4.93,17,.87,1.3-1.04,2.44-2.28,3.83-3.6,12.25,9.81,22.91,21,33.26,32.52-.41.66-.57,1.07-.85,1.34-4.02,3.82-5.31,4.28-9.89,1.22-5.59-3.73-10.66-8.22-15.65-12.97Zm.37-33.35c10.05,13.37,20.94,26.08,35.19,36.25-1.41,1.3-2.52,2.33-3.69,3.4-.49-.3-.92-.42-1.14-.71-9.44-12.84-20.92-23.62-33.59-33.17-1.93-1.45-2.72-2.68-1.47-5.08,1.36-.2,2.86-.42,4.69-.69Zm-1.32-23.87c5.22,2.39,6.47,8.18,3.4,15.09-2.44-4.86-4.1-9.47-3.4-15.09Zm-14.01,13.73c-2.42-1.28-4.11-3.08-4.54-6.86,3.13,1.87,3.75,4.41,4.54,6.86Zm1.81,17.85c-5.49,4.94-10.04,4.48-11.91-.95,3.95-.78,7.61-.05,11.91.95Zm84.01,52.1c-4.36,9.26-11.26,15.77-20.98,19.61-2.13-2.03-4.66-2.07-7.48-.71,5.33-4.18,8.97-9.31,11.01-15.71-4.83,4.55-9.66,9.11-14.92,14.07-.41-1.41-.53-2.06-.77-2.65-1.22-2.99-2.58-3.82-5.86-3.7-1.3.05-2.61,0-4.04-.43,6.32-4.98,13.34-9.02,16.43-16.77,1.58-3.97,2.67-8.14,3.46-12.51-6.1,8.7-11.3,18.02-20.52,24.06-3.56-3.32-7.09-6.6-10.62-9.89.09-.23.19-.47.28-.71.86.05,1.77-.04,2.58.19,3.52.99,6.78.37,9.66-1.74,7.35-5.38,14.14-11.2,17.63-20.08,1.68-4.27,3.62-8.3,1.13-12.86,4.94-.66,6.97,1.08,7.03,5.3.1,7.38-.54,14.58-2.52,21.78-1.63,5.92-4.63,10.84-8.18,15.61-.72.97-1.46,1.94-1.94,3.17,2.82-.99,5.09-2.67,6.88-5.03,4.66-6.15,8.09-12.9,10.1-20.36.33-1.21.64-2.43.98-3.71,1.51-.26,2.88-.49,4.7-.8.37,7.05.05,13.79-2.98,20.22-2.03,4.29-4.29,8.51-4.68,13.51,5.33-4.17,9.23-9.49,12.33-15.46,2.5,1.59,2.34,3.38,1.3,5.59Z" stroke-width="0"/><path d="m454.64,942.88c-2.68-4.81-3.46-10.16-3.74-15.48-.9-17.15,4.39-32.15,17.18-43.83,12.31-11.24,26.8-15.18,43.19-10.84.39.1.75.35,1.55.74-1.51,1.36-2.22,2.9-1.07,4.71.97,1.53,1.87,3.09,3.29,5.46-3.77-1.07-6.68-1.91-9.6-2.72-1.76-.49-3.73-1.32-5.18.3-1.64,1.83-.33,3.7.55,5.47,1.2,2.4,2.36,4.82,3.62,7.18.76,1.42,1.78,2.66,3.68,2.09,1.59-.48,2.15-2.06,1.49-4.26-.4-1.34-1-2.62-1.65-4.31,2.65-.05,4.68,1.21,6.83,1.88,1.35.41,2.61,1.09,3.97,1.47,2.86.79,4.64-.9,3.52-3.63-1.71-4.15-3.86-8.12-5.91-12.35,4.62,2.33,9.28,4.65,13.04,8.44,9.09,9.16,13.54,20.4,14.38,33.06,1.54,23.31-10.99,44.79-34.72,54.29-8.64,3.46-17.81,2.79-26.6-.25-13.64-4.72-23-13.9-27.93-27.51,1.94,1.2,3.85.53,5.67-.22,4.3-1.78,8.56-3.66,12.83-5.51,2.54-1.11,5.07-2.24,7.68-3.4,1.06,3.75.63,7.52,3.65,10.73,3.03-2.21,6.05-4.41,9.23-6.72.46,1.13.8,2.05,1.21,2.93,1.25,2.71,1.6,2.86,4.58,1.82,1.56-.54,3.08-1.18,4.64-1.79,1.11,1.43,2.07,2.64,3.01,3.88,3.49,4.63,6.94,9.28,10.47,13.87.58.75,1.45,1.27,2.19,1.89l.92-.64c-2.25-7.88-4.45-15.78-8.07-23.15,1.66-.99,3.05-1.82,4.58-2.74-1.22-2.39-2.27-4.44-3.39-6.63,3.68-1.37,6.99-2.61,10.31-3.85-.02-.3-.05-.6-.07-.9-2.38-.88-4.75-1.75-7.74-2.86,6.6-5.34,14.29-8.38,19.15-14.79-.13-.29-.26-.58-.39-.87-7.67,1.19-15.34,2.39-23.02,3.58-.16-2.51-.29-4.49-.44-6.95-3.1,1.55-5.52,2.77-8.34,4.18-.25-2.15-.46-3.66-.59-5.19-.25-2.8-1.09-3.61-3.74-2.99-2.3.54-4.52,1.43-6.91,2.2-.87-1.05-1.75-2.13-2.65-3.21-3.19-3.78-6.33-7.61-9.62-11.3-.63-.71-2.03-1.39-2.81-1.16-1.45.42-.81,1.75-.47,2.84,1.05,3.37,2.01,6.76,3.08,10.13.83,2.61,1.77,5.2,2.65,7.77-2.48.43-4.59.81-6.98,1.22.94,2.43,1.65,4.26,2.39,6.15-1.11,1.12-2.08,2.36-3.3,3.29-1.18.91-2.6,1.5-4.08,2.32,1.14,3.93,5.32,4.22,7.54,7.01-2.97,2-5.8,3.82-8.52,5.78-5.38,3.88-10.78,7.74-14.54,13.39Zm35.55,21.46c3.21,1.32,4.84,1.08,6.57-.83,1.57-1.73,2.08-4.37.72-6.24-1.03-1.42-2.53-2.64-4.06-3.53-1.8-1.05-3.86-1.65-6.01-2.52.36-.56.74-.97.9-1.45.29-.84.46-1.72.68-2.59-1.02-.23-2.15-.84-3.06-.61-2.16.56-3.68,2.03-4.13,4.35-.43,2.23.39,3.86,2.74,5.18,1.22.68,2.6,1.08,3.87,1.69,1.33.63,2.6,1.36,3.95,2.08-.88,1.81-1.53,3.14-2.19,4.48Z" fill="#fff" stroke-width="0"/><path d="m481.67,868.65c-1.03.5-1.74.87-2.47,1.21-30.14,14.09-42.61,51.64-26.91,80.98,9.84,18.37,28.24,28.62,48.32,26.06,10.56-1.35,20.1-5.32,28.92-12,11.72-8.89,17.22-20.94,20.64-34.34,2.18-8.55,2.3-17.48.09-26.06-2.89-11.24-7.95-21.6-17.1-29.09-3.94-3.23-9.1-4.98-13.72-7.37-.48-.25-1.16-.47-1.64-.34-5.24,1.48-8.19-2.57-11.82-5.31,2.26.38,4.57.61,6.78,1.17,14.45,3.63,25.88,11.65,34.29,23.95,3.84,5.62,5.61,12,6.54,18.63,5.02,35.7-19.01,67.68-49.29,74.59-9.96,2.27-19.34.86-28.55-2.96-1.26-.52-2.42-1.44-3.43-2.39-5.76-5.43-11.44-10.93-17.17-16.38-3.12-2.96-5.53-6.4-7.2-10.37-2.03-4.81-4.12-9.6-6.07-14.44-.46-1.14-.63-2.46-.66-3.7-.58-23.35,8.55-42.26,26.45-57,2.7-2.22,5.94-3.78,8.96-5.6,1.57-.94,3.15-1.2,5.04.77Z" fill="#fff" stroke-width="0"/><path d="m573.25,949.69c-1.09,4.03-2.22,7.34-2.84,10.75-.59,3.26-.64,6.61,3.48,8.38-.67,1.27-1.83,2.89.4,3.6,1.45.46,3.04.45,4.83.68-1,2.14-2.75,3.46-4.84,3.11-2.45-.41-4.99-1.43-5.92-4.19-.44-1.31-.68-2.75-.7-4.14-.03-3.52.51-7.1.09-10.56-.5-4.16,1.82-5.81,5.5-7.64Z" fill="#fff" stroke-width="0"/><path d="m583.03,948.55c6.04,6.97,3.27,16.41-5.2,18.99-.58-6.93,2.09-12.9,5.2-18.99Z" fill="#fff" stroke-width="0"/><path d="m484.23,865.26c4.05-2.06,7.49-3.07,11-.15-5.56,2-7.64,2.1-11,.15Z" fill="#fff" stroke-width="0"/><path d="m560.98,965.39c.2,2.17.4,4.35.66,7.21-2.27-2.61-1.8-4.91-.66-7.21Z" fill="#fff" stroke-width="0"/><path d="m562.33,977.41c-.31-.74-.62-1.47-.93-2.21.28-.12.56-.23.84-.35.29.74.59,1.48.88,2.23-.26.11-.53.22-.79.33Z" fill="#fff" stroke-width="0"/><path d="m527.18,908.72c-.83.65-1.61,1.37-2.49,1.93-3.41,2.19-6.85,4.34-10.29,6.48-.47.29-.99.59-1.52.66-4.09.55-8.19,1.04-12.56.83,1.19-.89,2.35-1.83,3.57-2.67,1.5-1.03,3.33-1.74,4.53-3.03,2.73-2.95,6.2-3.4,9.86-3.71,2.89-.25,5.76-.72,8.64-1.09.08.2.17.4.25.6Z" fill="#fff" stroke-width="0"/><path d="m493.31,921.23c-2.33,3.06-4.62,5.68-8.6,6.9-4.66,1.43-8.95,4.01-13.43,6.06-1.08.5-2.23.85-3.66.66,3.61-2.89,7.6-5.41,10.73-8.75,4.26-4.55,9.81-3.71,14.96-4.87Z" fill="#fff" stroke-width="0"/><path d="m496.15,923.36c2.03,5.54,3.7,10.09,5.46,14.9-1.33.71-2.53,1.35-3.88,2.07-3.51-5.13-3.77-10.42-1.58-16.98Z" fill="#fff" stroke-width="0"/><path d="m477.72,907.19c4.04-1.48,6.74-.16,8.89,2.94,1.1,1.59,2.42,3.04,4.06,5.07-4.23.27-7.59-1.16-10.56-2.91-1.33-.79-1.63-3.34-2.4-5.1Z" fill="#fff" stroke-width="0"/><path d="m494.02,901.11c1.97-.5,3.58-.92,5.19-1.33,1.34,3.19,1.81,6.14-.3,9.18-.92,1.32-1.22,3.07-2.51,4.62-.76-4.01-1.53-8.02-2.38-12.47Z" fill="#fff" stroke-width="0"/><path d="m513.46,932.94c-4.07.82-7.29-1.64-10.23-7.49,5.73.01,7.84,1.5,10.23,7.49Z" fill="#fff" stroke-width="0"/><path d="m27.48,735.01c-1.83,2.05-1.21,3.8,1.29,5.02.76.37,1.59.71,2.41.79,8.3.73,16.59,1.5,24.9,2.01,2.75.17,4.2-1.46,4.15-4.24-.13-7.76-.4-15.52-.64-23.27-.02-.56-.08-1.15-.29-1.66-.64-1.61-2.22-2.3-3.81-1.5-1.12.56-2.06,1.47-3.09,2.22-2.5,1.81-5.01,3.62-7.75,5.6-2.77-4.27-4.91-8.11-7.56-11.56-7.31-9.5-12.91-19.88-16.88-31.16-.23-.67-.35-1.55-.83-1.91-.91-.7-2.09-1.54-3.09-1.46-.7.05-1.59,1.44-1.86,2.39-.29,1.03-.06,2.25.11,3.35,1.97,12.34,7.29,23.4,13.44,34.08,2.51,4.36,5.68,8.34,8.44,12.34-3.02,2.99-6.15,5.83-8.95,8.98Z" stroke-width="0"/><path d="m24.04,406.51c1.43-3.69,2.63-7.46,4.08-11.14,3.97-10.06,9.8-18.99,16.64-27.29,5.13,2.3,10.06,4.51,15.19,6.81,1.68-10.87,1.76-21.04-1.03-31.61-1.62,0-3.28-.18-4.89.04-2.94.39-5.94.7-8.74,1.6-5.75,1.86-11.5,3.83-17.03,6.25-3.49,1.53-3.51,3.15-.51,5.51,3.09,2.44,6.37,4.63,9.85,7.12-.27.63-.39,1.04-.61,1.39-.45.72-.92,1.42-1.45,2.09-6.66,8.43-11.06,18.03-14.45,28.13-.85,2.53-1.48,5.16-1.99,7.79-.48,2.49-.23,4.96,1.14,7.15,2.73-.24,3.16-2.22,3.8-3.85Z" stroke-width="0"/><path d="m29.69,587.93c-2.24-6.87-1.75-13.74-.25-20.43,1.76-7.83,4.09-15.55,6.54-23.2.83-2.58,1.02-4.79.13-7.31-1.28-3.59-2.4-7.24-3.43-10.91-.56-1.99-1.28-4.08-.12-6.12,1.61-.62,2.05.51,2.47,1.58,1.13,2.89,2.2,5.81,3.34,8.7.44,1.13,1,2.22,1.71,3.8,5.6-9.66,9.54-19.71,16.69-27.74.29.12.59.24.88.36-.65,2.18-1.11,4.44-1.99,6.52-3.6,8.45-7.2,16.89-11.07,25.21-1.38,2.97-1.51,5.57,0,8.43,3.89,7.36,7.66,14.78,11.55,22.14,1.62,3.07,3.42,6.06,4.8,9.29-8.65-7.98-15.31-17.37-20.56-28.73-2.8,6.73-4.29,13.12-6.42,19.3-2.14,6.2-1.91,12.95-4.26,19.11Z" stroke-width="0"/><path d="m41.95,577.48c3.47,4.77,12.1,25.44,12.04,28.84-4.31-2.81-11.48-20-12.04-28.84Z" stroke-width="0"/><path d="m77.71,474.54c-2.13,4.02-3.56,8.38-2.13,13.2,3.93-12.43,11.04-22.39,21.98-29.74h0s.43-1.01,3.38-7c-12.48,3.16-17.87,13.4-23.23,23.53Z" stroke-width="0"/><path d="m34.89,669.92c2.39,3.99,4.51,8.21,7.34,11.87,4.95,6.4,11.6,10.87,19.15,13.57,15.04,5.38,28.9,4.26,40.28-9h0s0,0,0,0c-7.66-18.36-11.66-27.36-14.54-51.44,0,1.34.16,2.68-.17,4.2-8.56-6.98-12.15-17.3-17.97-26.31-.51,9.77,8.61,24.69,18.68,31.04,1.27,6.1,2.51,12.01,3.88,18.58-1.62-.53-3.1-.77-4.33-1.46-4.02-2.24-6.99-5.62-9.84-9.19-1.58-1.98.17-3.76-.16-5.9-.68.84-1.16,1.45-1.97,2.45-7.43-11.4-12.85-23.62-19.17-35.32-.29.1-.57.19-.86.29.53,2.23.95,4.5,1.61,6.69.81,2.7,1.36,5.65,2.85,7.95,3.99,6.15.36,10.45-3.22,15.78-4.04-8.39-7.81-16.21-11.58-24.03-.2.05-.41.09-.61.14.56,2.42.91,4.92,1.72,7.25,2.1,6,4.26,11.98,6.69,17.84.97,2.35,1.1,4.2-.45,6.25-1.08,1.43-1.91,3.06-3.3,5.35-3.14-5.59-6-10.54-8.66-15.6-.42-.81-.13-2.2.24-3.17.85-2.24,1.98-4.37,2.95-6.57.31-.71.46-1.5.22-2.45-1.64,2.6-3.28,5.19-5.36,8.5-2.82-5.68-5.35-10.79-7.88-15.9-.23.08-.47.16-.7.24.6,2.04,1.13,4.1,1.81,6.11,1.05,3.07,2.16,6.13,3.32,9.16,1.56,4.1,1.59,4.1-2.46,7.9-12.22-36.1-14.89-73.07-13.54-110.54,1.2-33.48,12.02-84.02,20.8-96.81,2.49,2.59,3.28,5.21,1.76,8.77-4.24,9.91-6.84,20.34-8.61,30.95-.53,3.17-.58,6.41-.12,9.74,1.54-6.01,2.81-12.1,4.69-18,1.87-5.88,4.34-11.56,6.55-17.33.3.02.59.04.89.06,1.08,3.48,2.15,6.95,3.23,10.43.31,0,.62-.02.93-.02.21-1.41.63-2.83.58-4.23-.12-3.94-.2-7.91-.76-11.8-.32-2.23-.32-4.14.87-6.06,1.92-3.09,3.76-6.23,6.08-10.11,1.87,4.44,2.94,8.19,3.08,12.08.05,1.4-.96,2.91-1.71,4.25-6.11,10.9-9.56,22.6-10.67,35.01-.13,1.46.08,2.95.94,4.58.39-.78.89-1.51,1.15-2.33,1.97-6.19,3.74-12.45,5.9-18.57,1.44-4.08,3.43-7.97,5.57-12.84,2.44,5.94,1.37,11.42,2.89,16.82,2.53-2.7,3.19-5.61,3.23-8.56.05-4.51-.02-9.05-.5-13.52-.32-2.97-.11-5.54,1.68-8,1.71-2.35,2.99-5.02,5.71-7.65.65,4.95,1.31,9.09,1.67,13.26.1,1.13-.54,2.46-1.17,3.5-6.44,10.66-9.08,22.43-10.28,34.64-.09.97.01,1.96.1,2.94.02.2.37.37.84.8,3.63-10.29,4.35-21.56,11.49-31.57.64,5.24,1.17,9.59,1.69,13.94.31,0,.62,0,.93,0,.31-5.28.8-10.55.86-15.83.03-2.71.66-4.94,2.43-6.96,2.46-2.81,4.35-6.15,7.78-8.72.55,2.07,1,3.77,1.45,5.46.19.03.39.06.58.09.13-.83.28-1.65.4-2.48.12-.84.36-1.7.28-2.52-.37-3.5,1.53-5.54,4.33-7.05.86-.47,1.73-.92,2.59-1.38,2.63,4.45,3.66,16.21,1.97,21.8,2.94-5.99,2.05-16,.05-24-2-8-2.13-17.42-1.87-28.58h0c-1.68-1.1-3.06-2.03-4.48-2.91-10.54-6.57-21.35-6.99-32.11-.8-3.63,2.09-6.98,4.83-10.07,7.69-5.86,5.42-10.28,12.01-14.17,18.94-6.61,11.77-11.53,24.23-15.3,37.17-7.39,25.39-11.04,51.35-12.14,77.73-1.21,29.24.62,58.24,7.11,86.81,3.7,16.28,8.22,32.35,16.9,46.87Zm22.21,13.85c1.43-1.13,2.79-2.21,4.22-3.34,4.13,2.46,8.14,4.86,12.61,7.53-4.62,2.35-10.73.77-16.83-4.18Zm22.95-2.02c-1.22,2.07-2.83,2.43-4.99,1.39-3.67-1.76-7.26-3.6-10.1-6.84,1.3-1.92,2.46-3.65,3.68-5.45,4.43,2.76,8.66,5.39,13.12,8.17-.55.87-1.16,1.78-1.71,2.72Zm2.64,2.45c1.81-4.8,1.98-4.88,8.29-3.72-2.1,2.91-4.79,4.08-8.29,3.72Zm10.97-17.42c.95,2.46,1.74,4.52,2.56,6.65-2.92,1.81-5.59,2.63-8.86,1.58.24-1.88.46-3.65.69-5.42-.14-.07-.28-.13-.41-.2-.9,1.52-1.8,3.05-2.69,4.55-4.32-.46-9.1-3.35-13.61-8.34.95-2.8,1.96-5.79,3.17-9.37,5.53,5.57,10.71,10.85,19.15,10.53Zm-32.43-26.39c.66-1,.99-2.22,1.67-3.81,3.32,5.71,6.31,10.79,9.19,15.92.42.75.66,1.92.38,2.68-.9,2.45-2.08,4.8-3.53,8.04-2.37-3.38-4.11-6.2-6.2-8.75-3.62-4.42-4.88-8.93-1.52-14.07Zm-5.53,11.85c3.64,5.44,7.05,10.54,10.65,15.91-1.27,1.69-2.6,3.45-4.23,5.6-4.64-4.04-7.62-8.87-10.81-13.6,1.5-2.7,2.85-5.13,4.39-7.91Zm2.35,25.19c-.99.75-1.74,1.38-2.55,1.9-.7.45-1.47.77-2.75,1.43-3.26-4.2-6.5-8.38-10-12.88,2-1.41,3.56-2.51,5.12-3.61,3.42,4.42,6.68,8.63,10.19,13.17Zm-20.43-33.44c2.9,5.78,5.52,11,8.27,16.49-1.47,1.23-2.83,2.36-4.18,3.49-2.64-2.79-5.35-8.26-7.43-14.9.97-1.47,2.02-3.06,3.35-5.08Zm33.35-219.18c-2.42,2.89-4.91,5.72-7.68,8.93-1.32-3.39-2.49-6.4-3.85-9.87,3.03-3.29,6.13-6.66,9.23-10.03.36.09.71.18,1.07.26.68,2.95,1.41,5.88,1.98,8.85.11.56-.33,1.36-.75,1.86Zm12.93,8.44c-1.74,1.27-2.86,3.39-4.94,5.96-.51-4.67-.95-8.46-1.29-12.25-.04-.48.27-1.14.63-1.5,2.29-2.22,4.63-4.38,7.37-6.94.59,1.3.79,1.67.93,2.06,1.68,4.76,2.14,9.15-2.7,12.67Zm14.33-11.33c-1.81.93-3.65,1.89-6.05,3.12-.52-3.52-.95-6.41-1.36-9.19q3.26-2.18,7.42-1.02v7.08Zm-.57-14.12c-3.12.48-5.89.91-9.08,1.41-1.01-1.91-1.97-3.73-2.98-5.66,5.75-2.92,8.32,1.72,12.07,4.25Zm-17.21-2.37c1.28,2.43,2.42,4.59,3.72,7.07-2.52,2.13-4.92,4.14-7.62,6.41-1-3-1.86-5.61-2.88-8.67,2.29-1.63,4.32-3.07,6.77-4.81Zm-4.89-5.29c-2.23,1.76-3.84,3.03-5.58,4.41-1.26-.82-2.39-1.56-3.84-2.5,2.8-1.8,5.15-3.72,9.42-1.91Zm-16.66,7.03c2.94-2.94,3.5-2.8,6.8.85-3.12,3.5-6.27,7.03-9.59,10.76-1.55-.95-3.05-1.88-5-3.08,2.71-2.99,5.14-5.88,7.79-8.53Zm-10.13,11.96c1.76,1.66,3.01,2.85,4.4,4.17-2.67,4.54-5.15,8.74-7.75,13.16-1.48-1.26-2.73-2.32-4.38-3.71,2.51-4.42,4.96-8.75,7.72-13.62Z" stroke-width="0"/><path d="m766.96,71.74c-1.88,3.72-4.55,7.06-7,10.47-1.45,2.02-3.17,3.86-5.03,6.1,12.1-1.44,18.95-10.59,20.42-21.53.82-6.09-.69-11.78-4.05-16.92-.88-1.34-1.64-3.13-4.4-2.26.23,1.4.4,2.85.73,4.27,1.56,6.69,2.56,13.46-.67,19.86Z" stroke-width="0"/><path d="m915.57,58.59c3.89.98,7.81.97,11.44-1.62-1.76-2.42-4.41-2.69-6.8-3.11-4.68-.83-8.3-3.29-11.61-6.49-6.43-6.2-10.86-13.3-10.63-22.62.05-1.96.07-3.94-.05-5.89-.11-1.84.18-3.88-1.8-5.5-2.73,3.15-3.55,6.64-3.71,10.32-.41,9.09,2.31,17.13,7.77,24.46,3.99,5.35,9.04,8.86,15.4,10.46Z" stroke-width="0"/><path d="m920.18,43.21c2.32.71,4.8,1.83,8.17-.48-1.64-1.26-2.67-2.34-3.92-2.96-6.31-3.14-10.58-7.76-11.94-14.91-.48-2.53-1.66-4.92-2.58-7.53-4.26,3.84-4.24,12.34-.25,18.5,2.51,3.87,6.26,6.07,10.52,7.38Z" stroke-width="0"/><path d="m760.88,65.44c.59-4.42-1.68-8.44-5.48-9.57-.93,3.65,1.3,7.55-1,11.1-2.04,3.15-3.86,6.46-5.97,10.03,6.53-.42,11.6-5.17,12.45-11.57Z" stroke-width="0"/><path d="m945.17,184.12c-3.79-3.71-6.38-8.17-9.2-12.53-1.39-2.15-1.86-4.27-1.72-6.76.22-3.99-.3-7.89-2.17-11.52-2.26-4.39-4.2-8.98-6.75-13.19-8.25-13.66-16.74-27.18-25.09-40.78-.64-1.05-1.41-2.31-1.36-3.44.16-3.27-1.5-5.66-3.27-8.05-2.1-2.84-4.3-5.6-6.42-8.42-1.45-1.94-2.44-3.97-2.58-6.55-.63-10.95-5.17-20.14-13.07-27.68-18.75-17.88-50.09-17.26-67.68,1.77-12.17,13.16-15.96,28.69-8.99,45.52,6.97,16.84,20.49,25.45,38.51,26.77,3.19.23,5.68.93,7.81,3.2.68.72,1.46,1.34,2.17,2.02,2.48,2.39,5.27,4.15,8.64,5.14,1.66.49,3.24,1.67,4.56,2.86,6.61,5.96,13,12.16,19.7,18.01,7.66,6.69,15.52,13.16,23.39,19.61,4.41,3.62,9.29,6.41,14.95,7.69,1.16.26,2.3.99,3.25,1.74,3.21,2.54,6.07,5.63,9.56,7.66,2.56,1.49,4.74,3.16,6.19,5.54,2.71,4.46,5.51,8.95,7.47,13.75,5.01,12.26,1.69,25.12-8.3,33.86-5.95,5.21-12.7,8.74-20.48,10.61-7.3,1.75-14.62,1.9-21.9,1-10.22-1.26-20.36-3.12-30.52-4.79-.92-.15-2.14-.49-2.58-1.17,4.28,5.98,4.74,8.83,9.7,20.21-.26-.58-.33-1.26-.55-2.14,4.12.2,7.92.29,11.69.59,16.14,1.32,31.87-.74,47.3-5.49,5.05-1.55,9.9-3.61,13.76-7.27,4.4-4.18,8.81-8.42,12.64-13.11,6.08-7.44,7.87-16.53,6.17-25.61-2.04-10.93-6.67-21.07-14.82-29.05Zm-71.28-109.07c.13,2.02.23,3.48.32,4.94-2.37-1.35-3.02-2.78-.32-4.94Zm-5.93-23.51c4.71,2.69,6.35,5.85,5.19,10.26-1.95-2.38-3.85-4.39-5.33-6.68-.5-.77.06-2.23.14-3.59Zm-44.69,34.91c-1.55-.49-3.15-.38-4.23,1.02-1.19,1.55-.78,3.22.1,4.75.61,1.07,1.42,2.02,2.48,3.5-1.08.11-2.03.5-2.36.19-3.05-2.78-5.45-5.95-5.72-10.23,6.52-3.82,12.14-3.74,17.04,1.77-.51,1.51-1.44,1.42-2.65.87-1.52-.7-3.07-1.38-4.66-1.88Zm3.23,4.57c-1.08,1.14-1.86,1.95-3.1,3.26-.91-1.79-1.59-3.12-2.27-4.46.3-.29.61-.58.91-.87,1.32.61,2.65,1.23,4.46,2.07Zm5.11,7.1c-1.45-.32-2.27-.5-3.54-.78,1.55-1.71,2.53-2.51,3.54.78Zm-4.2-18.58c1.47-1.27,2.61-2.26,3.98-3.44,2.26,1.4,4.38,2.71,6.91,4.27-1.38,1.53-2.47,2.73-3.75,4.16-2.28-1.6-4.43-3.1-7.13-4.99Zm7.8-6.65c1.76-1.53,3.22-2.81,5.12-4.46,1.13.74,2.32,1.45,3.43,2.28.77.57,1.42,1.31,2.5,2.34-1.66,1.49-3.16,2.84-4.82,4.33-2.09-1.5-3.97-2.86-6.23-4.49Zm-3.15-13.97c1.63-4.12,3.04-3.88,6.26-2.9,1.43.44,2.82,1.04,4.89,1.81-1.41,1.66-2.28,2.69-3.31,3.9-2.7-.97-5.27-1.89-7.84-2.81Zm11.86,5.19c1.08-1.43,2.03-2.7,3.18-4.23,2.26,1.59,4.27,3.01,6.53,4.61-1.26,1.56-2.28,2.81-3.52,4.33-2.14-1.63-3.99-3.03-6.19-4.71Zm5.65,13.22c3.41,2.97,4.99,6.71,6.29,10.55.68,2.01-.12,2.84-3.92,5.04-2-3.79-4.01-7.59-6.33-12,1.23-1.11,2.55-2.3,3.97-3.58Zm4.61-5c.78-1.08,1.65-2.27,2.65-3.66,4.2,2.46,5.48,6.61,7.8,10.55-1.18,1.51-2.19,2.8-3.46,4.43-2.41-3.91-4.59-7.44-7-11.33Zm12.68,12.25c1.03,3.42.99,6.36-2.62,8.21-2.34-3.56-1.98-4.73,2.62-8.21Zm.88,12.82c1.36,3.31.84,4.17-4.62,7.6-.59-4.16,2.04-5.8,4.62-7.6Zm-6.7-34.18c.76-1.03,1.69-2.29,2.95-4,2.65,3.33,4.97,6.25,7.35,9.25-.74,1.45-1.36,2.67-2.09,4.12-2.74-3.12-5.27-6.02-8.21-9.37Zm-7.04-21.14c3.48.8,6.48,2.55,9.32,4.57,1.52,1.08,1.44,1.21.1,3.63-2.89-1.73-5.75-3.49-8.68-5.16-1.23-.71-1.47-1.55-.74-3.04Zm-.96,8.14c3.27,1,5.15,3.44,7.62,5.64-1.17,1.41-2.13,2.57-3.16,3.81-2.3-1.65-4.36-3.12-6.68-4.77.74-1.57,1.45-3.05,2.22-4.68Zm-47.32,8.19c7.85-13.17,24.9-20.88,40.05-18.48q3.05.48,4.07,3.52c-2.09.3-4.15.6-6.2.9-.06.35-.12.71-.18,1.06,1.91,1,3.82,2,6.04,3.16-.82,1.46-1.56,2.76-2.31,4.09-4.26-1.18-8.23-2.28-11.33-3.13-2.66.18-4.53.27-6.4.43-2.66.23-5.34.4-7.96.87-.72.13-1.27,1.25-1.89,1.91.7.6,1.33,1.58,2.11,1.72,1.9.33,3.87.27,6.2.39-1.58,2.54-3.66,3.22-6.13,3.41-4.61.35-8.83,1.91-12.5,4.73-1.5,1.15-3.24,2.32-3.12,5.07,1.07-.3,1.93-.6,2.81-.77.76-.14,1.73-.44,2.3-.12,3.63,2,7.08,1.09,9.9-1.19,4.56-3.69,8.83-2.33,13.76-.16-2.68,2.96-4.92,5.39-9.31,4.32-3.72-.9-7.59-.63-11.29.61-7.49,2.52-11.43,8.99-10.31,16.81.14.99.1,2.01.12,3.01-5.33-10.97-4.6-21.78,1.57-32.14Zm1.39,37.43c-1.1-1.61-1.93-3.41-2.88-5.12,0-.01,0-.02-.02-.03.38-1.27.87-2.51,1.06-3.81,1.39-9.48,8.5-14.62,18.45-12.92-1.22,2.08-3.12,3.18-5.06,3.28-4.76.25-7.69,3.02-10.63,6.98,1.99,4.47,4.11,9.22,6.2,13.92-3.26.92-5.25.42-7.12-2.3Zm8.84,8.21q4.15-2.25,9.2,1.86c-3.76,2.71-3.72,1.5-9.2-1.86Zm9.63-4.86c1.19.47,2.36,1.22,3.59,1.35,1.44.16,3.22.23,4.34-.47,1.56-.98,1.44-2.86.73-4.58-.55-1.32-1.8-2.84.95-3.83,2.05,2.16,3.3,4.51,3.22,7.3-.03.96-.67,2.56-1.34,2.73-4.13,1.09-8.14.79-11.49-2.5Zm7.77,10.24c3.01-1.12,6.03-2.23,9.04-3.35-2.48,2.5-5.79,2.86-9.04,3.35Zm8.76-9.47c-1.2-3.67-2.4-7.35-3.8-11.64.94-.83,2.25-2.01,4.05-3.61,1.25,2.54,2.63,4.79,3.5,7.23,1.8,5.02,1.28,5.89-3.75,8.03Zm4.84,13.09c-.16-.28-.32-.55-.47-.83,2.07-1.16,4.15-2.31,6.22-3.47-.38,4.01-3.56,3.25-5.75,4.29Zm5.13-11.09c-.51-3.88,2.83-4.37,4.77-6.99,1.06,4.9-2.53,5.1-4.77,6.99Zm7.37,22.84c3.4-1.02,6.87-1.35,9.51-4.27-3.73-1.91-7.2.53-11.26.16,3.13-1.6,5.79-2.96,9.01-4.61-2.96-1.65-5.4-.12-8.8-.54,1.9-.96,3-1.54,4.13-2.09,8.51-4.13,15.23-10.17,19.67-18.58.98-1.86,1.64-3.89,2.42-5.86.62-1.55,1.2-3.1,2.06-5.34,2.87,4.07,5.43,7.57,7.8,11.19.46.7.44,1.98.17,2.84-1.13,3.63-2.17,7.32-3.75,10.76-4.19,9.12-12.23,13.29-21.34,15.88-3.05.87-6.16,1.81-9.61.46Zm65.18,46.65c-4.99,1.73-10.05,1.81-14.66-1.19-2.82-1.83-5.46-3.97-8.05-6.12-4.35-3.6-8.6-7.32-12.88-11-1.7-1.46-3.37-2.95-5.2-4.55,1.66-.87,3-1.58,4.7-2.47-2.66-1.98-4.81.18-7.35.13-.92-.84-2.02-1.85-3.62-3.31,4.24-1.22,8.29-1.53,11.66-5.15-1.63.11-2.66.02-3.61.28-2.45.66-4.88,1.4-7.28,2.22-2.31.79-4.12.53-5.27-2.4,5-.94,9.6-2.74,13.78-5.59-6.1-.47-11.85,2.52-18,1.5,5.92-1.36,11.46-3.39,16.09-7.57-4.94,1.19-9.89,2.38-14.83,3.57-.13-.36-.26-.72-.4-1.07,5.72-2.2,11.68-4.06,16.13-8.42,4.32-4.23,8.28-8.82,10.88-14.74.68.6,1.17.87,1.44,1.28,7.62,11.54,15.39,22.98,22.74,34.68,3.51,5.59,6.43,11.58,9.23,17.57,2.26,4.82-.41,10.58-5.5,12.35Z" stroke-width="0"/><path d="m989.42,411.24c-.13-1.39-.47-2.78-.89-4.12-1.47-4.57-2.95-9.14-4.54-13.66-3.2-9.09-6.83-17.95-12.91-25.6-2.34-2.95-4.43-6.09-7.24-9.98,1.64-1.27,3.38-2.31,4.72-3.72,1.93-2.03,3.79-4.2,5.3-6.56,2.39-3.73,1.29-6.45-3.05-6.87-5.31-.51-10.68-.42-16.02-.38-3.38.02-6.75.56-10.14.62-3.78.06-6.13,1.78-5.95,5.46.4,8.32,1.12,16.62,1.78,24.92.17,2.15,1.42,3.6,3.44,4.45,2.08.88,3.45-.19,4.9-1.45,3.16-2.77,6.41-5.44,9.96-8.44,2.11,2.86,4.28,5.45,6.06,8.29,2.92,4.66,5.72,9.42,8.32,14.27,2.26,4.21,4.28,8.56,6.21,12.94,1.36,3.1,2.38,6.34,3.55,9.52.24.66.45,1.34.77,1.97.78,1.57,1.74,3.15,3.82,2.56,2.09-.59,2.09-2.49,1.93-4.2Z" stroke-width="0"/><path d="m975.18,666.18c-1.94-.62-2.81.77-3.45,2.29-1.2,2.87-2.3,5.77-3.56,8.61-5.98,13.5-12.95,26.36-24.22,36.98-1.7-1.04-3.22-2.08-4.84-2.92-2.25-1.17-4.5-2.38-6.88-3.21-2.98-1.03-4.52,0-5.22,3.05-.16.68-.17,1.4-.27,2.1-1.21,7.86.89,15.45,1.9,23.12.32,2.46,1.65,3.26,4.24,3.04,1.26-.1,2.53-.34,3.74-.71,7.02-2.15,14.01-4.36,21.03-6.53,1.7-.53,3.27-1.22,3.51-3.21.23-1.97-1.16-2.97-2.58-4.02-2.68-1.98-5.23-4.13-8.01-6.35,1.25-1.65,2.15-2.89,3.1-4.09,6.63-8.32,12.17-17.33,17.28-26.64,3.03-5.53,4.5-11.56,5.81-17.64.34-1.56.36-3.27-1.56-3.89Z" stroke-width="0"/><path d="m957.38,534.05c-2.13-4.47-4.26-8.93-6.38-13.4-.31,0-.61.02-.92.03-.64,2.19-.95,4.56-1.99,6.55-2.71,5.22-1.97,9.96,1.24,14.59.31.45.55.95,1.06,1.82.91-1.23,1.64-2.22,2.37-3.21.3.08.61.16.91.24-.18,1.55-.04,3.23-.62,4.62-1,2.38-.83,4.56-.15,6.96.76,2.67,1.14,5.44,1.68,8.17-.32.15-.63.3-.95.44-1.37-2-2.74-4-4.46-6.51-1.6,2.95-3.2,5.53-4.38,8.29-.41.97.09,2.4.37,3.57.84,3.56,1.88,7.08,2.62,10.66.3,1.47.05,3.05.05,5.44-4.22-3.85-3.95-9.08-6.48-13.25-1.04,1.51-1.89,2.76-3.06,4.47,0-.82-.12-1.2.02-1.41,3.01-4.78,1.38-9.16-2-12.59-3.79-3.85-3.53-7.34-1.28-11.71,1.99-3.87,3.23-8.12,4.92-12.16.78-1.85.72-3.47-.31-5.19-2.69-4.47-5.31-8.99-7.94-13.5-.68-1.16-1.31-2.34-1.66-3.69,5.65,3.38,8.45,9.13,12.37,14.43,2.29-4.18,3.07-8.59,4.14-12.86.22-.9-.49-2.16-1.04-3.1-1.93-3.29-4-6.49-5.95-9.76-.83-1.39-1.51-2.88-1.88-4.62,2.59.46,3.78,2.57,5.37,4.11,1.72,1.66,3.3,3.46,5,5.26.73-1,1.4-1.91,2.25-3.07.34.73.67,1.11.64,1.45-.44,4.84,1.25,8.97,3.47,13.22,2.45,4.69,4.31,9.78,4.13,15.26l-1.14.45Zm-14.12,25.83c1.46-3.16,2.68-5.67,3.78-8.23.3-.71.52-1.69.28-2.37-1-2.84-2.2-5.6-3.65-9.2-2.38,4.42-4.32,8.03-6.22,11.56,1.94,2.75,3.7,5.25,5.81,8.24Z" stroke-width="0"/><path d="m896,408c-.97,3.89.89,7.8,0,14.64.08-.37.22-.81.36-1.45,2.88,1.58,5.18,3.44,6.64,5.92.74,1.26.44,3.21.4,4.84-.12,5.18-.35,10.36-.53,15.54.52.12,1.05.25,1.87.45,1.13-3.8,2.24-7.55,3.44-11.57,2.03,1.01,2.32,3.16,3.52,4.57,3.63,4.27,4.67,8.76,2.8,14.37-1.92,5.75.31,11.42,2.29,16.89.13.37.49.69.8.96.19.17.51.19.99.35,1.89-2.29.88-5.05,1.03-7.58.15-2.62.03-5.25.49-7.96,5.39,8.28,7.11,18.16,12.07,26.5l.99-.24c-.15-1.71-.04-3.5-.51-5.12-2.74-9.49-5.49-18.99-8.54-28.38-.89-2.73-1.05-5.18-.13-7.8,1.01-2.88,2.01-5.77,3.37-9.68,1.52,2.58,2.51,4.2,3.45,5.86.9,1.6,1.64,3.3,2.63,4.84,3.33,5.16,5.4,10.31,2.43,16.55-1.27,2.68-1.29,5.96-.19,9.37,3.64-2.13,2.75-6.45,5.53-9.48,3.83,11.07,6.18,22.16,10.26,32.7,1.41-8.23.63-16.25-1.82-24.11-1.47-4.72-3-9.42-4.66-14.08-.62-1.73-.67-3.21.13-4.86,1.29-2.65,2.43-5.38,4.04-9,.89,1.99,1.46,3.18,1.96,4.39.86,2.09,1.63,4.22,2.52,6.3,1.49,3.5,1.94,6.91.39,10.62-.99,2.38-1.9,5-1.01,8.04,3.09-1.09,2.42-4.44,4.66-6.43,2.24,5.24,2.88,10.8,5.1,16.23,1.26-1.41.84-2.76.68-4.02-.74-5.74-1.53-11.48-2.28-17.22-.57-4.32.1-6.15,3.79-10.07.54,1.6,1.09,2.98,1.48,4.4,5.52,20.13,8.41,40.58,8.7,61.5.5,36.5-3.96,72.16-16.33,106.66-2.67,7.44-6.22,14.45-10.38,21.79-2.35-3.91-3.17-6.98-1.47-11.26,3.64-9.16,6.49-18.64,9.48-28.05.61-1.92.39-4.1.09-6.28-2.29,2.94-2.38,6.68-3.77,9.9-1.45,3.37-2.88,6.75-4.41,10.09-1.52,3.32-3.15,6.58-5.09,10.59-1.55-4.37-2.87-8.06-4.41-12.38-1.9,2.34-2.38,4.39-2.17,6.43.37,3.63.87,7.27,1.66,10.83.46,2.06.47,3.77-.69,5.6-1.71,2.7-3.19,5.53-4.78,8.31-.35-.03-.7-.06-1.06-.09-1.01-4-2.23-7.97-2.9-12.03-.25-1.49.74-3.23,1.31-4.81,2.52-7.04,5.13-14.05,7.6-21.11.77-2.2,1.26-4.52.34-7.55-5.1,7.18-7.93,14.87-12.04,22.37-2.38-3.89-2.48-8.4-5.68-11.84-1.23,2.29-1.76,4.45-1.58,6.64.33,4.07.67,8.16,1.45,12.16.52,2.68.41,4.94-1.22,7.19-1.4,1.92-2.54,4.03-4.29,6.84-.99-3.71-1.59-6.66-2.57-9.49-1.36-3.93-.86-7.42.55-11.39,2.67-7.56,4.43-15.45,6.41-23.24.35-1.36-.06-2.9-.12-4.36-.3-.05-.6-.11-.9-.16-2.99,6.85-5.97,13.71-8.96,20.56-.25-.05-.5-.1-.75-.16-.62-2.03-1.25-4.07-2.01-6.57-3.6,5.96-1.71,12.51-4.24,18.19-.61-4.35-1.31-8.69-1.75-13.05-.1-.99.65-2.1,1.12-3.11,3.54-7.55,7.23-15.05,8.35-23.44.25-1.85.04-3.75.04-6.3-2.81,2.3-2.79,5.18-3.9,7.46-1.24,2.53-2.12,5.25-3.48,7.72-1.28,2.33-2.96,4.44-4.73,7.04h0s4.15,13.52,4.15,30.52-5,45-20.09,57.03h0s0,0,0,0c6.2,1.74,11.53,3.68,17.03,4.65,4.97.88,10.18,1.16,15.08-.81,12.73-5.12,23.37-12.82,31.4-24.25,11.11-15.81,18.8-33.13,24.4-51.49,7.67-25.14,11.65-50.91,13.01-77.14,1.41-27.26-.38-54.26-6.25-80.93-3.51-15.94-8.53-31.36-16.87-45.52-4.11-6.99-8.92-13.42-15.15-18.7-14.03-11.9-29.99-12.83-45.31-2.66-1.14.76-2.31,1.49-3.4,2.18-.32-.28-.47-.35-.5-.45h0s0,0,0,0c0,0,1.65,7.07.65,11.07Zm-2.36,276.49l-.79-1c2-1.62,4-3.24,6.19-5.01.64.78,1.15,1.38,2.02,2.45-2.66,1.28-5.04,2.42-7.42,3.56Zm6.31-26.43c.77-4.16,1.41-8.35,1.85-12.55.31-2.93,2.24-4.67,4.12-7.07,1.46,4.4,2.83,8.39,4.07,12.43.22.71.15,1.77-.25,2.36-2.59,3.83-5.31,7.57-8.25,11.7-1.66-2.51-1.97-4.52-1.53-6.87Zm5.02,14.77c3.12-3.95,6.21-7.86,9.62-12.17,1.32,2.17,2.46,4.05,3.76,6.19-2.85,4.17-6.89,6.86-11,10.03-1-1.71-1.63-2.79-2.37-4.05Zm7.08,10.72c4.25-3.66,7.85-6.75,11.55-9.94.94.6,1.87,1.2,2.7,1.73.04,2.82-8.75,8.09-14.24,8.21Zm10.24-21.82c-1.61-2.59-2.8-4.5-4.12-6.62,1.7-3.37,3.39-6.73,5.46-10.82,1.36,3.71,2.53,6.66,3.48,9.68.21.65-.16,1.68-.59,2.31-1.18,1.71-2.54,3.3-4.23,5.46Zm7.94,9.76c-1.29-.99-2.15-1.65-3.37-2.59,1.75-2.52,3.39-4.89,5.13-7.4,1.37.89,2.53,1.64,4.05,2.63-1.92,2.43-3.71,4.69-5.81,7.36Zm9.65-12.01c-1.7-1.48-2.94-2.55-4.43-3.86,2.05-3.83,4.01-7.49,6.32-11.8,1.41,2.29,2.43,3.94,3.68,5.96-1.75,3.05-3.53,6.16-5.56,9.7Zm-21.39-222.12c-2.45-4.08-4.73-7.76-6.86-11.52-.35-.62-.31-1.69-.04-2.39.87-2.19,1.95-4.3,3.3-7.22,2.99,3.81,5.55,7.06,8.13,10.36-1.52,3.61-2.93,6.95-4.54,10.78Zm22.65,6.08c-.59-.86-1.16-1.58-1.59-2.37-2.2-4.11-4.11-8.39-6.61-12.31-1.64-2.57-1.63-4.63.02-6.95.95-1.35,1.86-2.73,3.15-4.65,3.56,5.8,6.78,11.04,9.8,15.96-1.79,3.86-3.21,6.92-4.78,10.31Zm20.52-4.38c.28.77.06,1.93-.33,2.7-.82,1.6-1.9,3.07-3.34,5.31-1.56-3.76-2.85-6.68-3.96-9.67-.24-.65-.05-1.67.31-2.31.94-1.66,2.08-3.2,3.52-5.37,1.43,3.44,2.73,6.35,3.8,9.34Zm-18.05-31.21c4.64,4.88,8.03,10.14,11.15,15.88-1.66,1.54-3.18,2.95-5.04,4.67-3.18-5.41-6.22-10.6-9.53-16.24,1.15-1.44,2.17-2.73,3.42-4.31Zm-4.03-3.93c-1.27.87-2.26,1.55-3.4,2.33-2.96-2.8-5.79-5.47-8.62-8.15,4.81.26,8.31,2.81,12.02,5.81Zm-17.72-1.09c3.36,2.87,6.44,5.5,9.78,8.35-1.66,2.44-3.2,4.72-5.03,7.42-2.95-3.28-5.72-6.38-8.88-9.9,1.45-2.05,2.72-3.86,4.14-5.87Zm-4.95-2.92c-1.24,1.5-2.46,2.99-3.86,4.69-2.37-1.34-4.62-2.62-7.07-4,3.63-2.91,7.04-3.97,10.93-.69Zm-16.48,6.39c3.47.91,6.41,2.79,9.38,5.47-1.07,2.37-2.13,4.72-3.37,7.47-3.34-2.57-6.34-4.85-9.3-7.16-1.49-1.16-1.38-2.81-.71-4.21.75-1.56,2.36-2,4-1.57Z" stroke-width="0"/><polygon points="186.01 194.23 186.01 194.23 186.01 194.23 186.01 194.23 186.01 194.23" stroke-width="0"/><path d="m25.93,193.2c.78.3,1.62.58,2.44.64,4.65.32,9.3.62,13.96.83,8.33.38,16.67.5,24.99,1.1,9.99.71,20.03,1.18,29.79,3.89,2.69.75,5.6.71,8.41.98,8.72.85,17.45,1.61,25.9,4.18,7.84,2.38,15.72,4.64,23.51,7.15,3.81,1.23,7.48,2.91,11.5,4.5,6.94-11.44,17.6-20.6,19.33-22.04-.87.65-2.42.85-3.58.78-6.06-.35-12.12-.81-18.16-1.4-2.73-.27-5.43-.92-8.28-1.43.59-7.39,1.1-14.29,1.71-21.17,1.51-16.9,3.02-33.79,4.63-50.68,2.1-21.95,4.33-43.89,6.43-65.84,1.06-11.12,2.15-22.23,2.87-33.38.53-8.24-1.38-9.93-9.62-10.16-14-.4-27.98-.41-41.92,1.15-4.83.54-7.21,2.6-7.56,7.43-1.42,19.59-2.77,39.19-4.16,58.79-.09,1.21-.28,2.42-.42,3.59-7.86-.21-15.35-.22-22.82-.64-16.08-.89-32.15-1.99-48.22-2.99-.84-.05-1.87-.28-2.5.09-1.12.67-2.37,1.56-2.9,2.67-.73,1.55.08,3.1,1.58,3.94.95.54,2.09.9,3.18,1.01,6.61.63,13.22,1.17,19.84,1.71,2.02.16,4.04.23,6.62.37-.83.96-1.06,1.3-1.37,1.57-6.52,5.6-11.27,12.68-15.84,19.79-2.97,4.61-2.66,6.1,3.32,6.31,3.76.13,7.52.56,11.43.87-.16,2.38-.38,4.33-.41,6.29-.14,10.74,0,21.49-.42,32.22-.41,10.51-1.39,20.99-2.14,31.66-.78.04-1.61.13-2.45.12-6.92-.09-13.85-.27-20.77-.29-2.53,0-5.11.1-7.57.61-.96.2-2.06,1.51-2.39,2.53-.49,1.52.59,2.67,2.05,3.24Zm88.18-99.24c8.22,0,15.98,0,23.73,0,1.41,0,2.85.24,4.23.02.81-.13,1.5-.95,2.25-1.45-.61-.82-1.05-1.94-1.87-2.38-.93-.5-2.18-.54-3.3-.55-5.79-.05-11.58-.02-17.37-.02-2.37,0-4.74,0-7.15,0v-14.84c4.06,0,7.79-.02,11.53.01,1.26,0,2.55.34,3.77.14.64-.11,1.66-1.09,1.6-1.57-.1-.78-.83-1.96-1.48-2.09-2.62-.53-5.3-.82-7.97-1.01-2.1-.15-4.22-.03-6.27-.03-.95-3.46-.47-13.02.89-17.94,4.26.37,8.59.84,12.92,1.1,5.92.37,11.84.6,17.77.84.82.03,1.73-.09,2.47-.44,1.46-.68,1.57-2.64.12-3.38-1.08-.55-2.41-.8-3.65-.85-8.75-.38-17.5-.67-26.26-.98-1.1-.04-2.2,0-3.68,0,.54-4.81,1.04-9.26,1.59-14.23,2.89.2,5.52.41,8.14.57,1.4.09,2.88.41,4.18.06.81-.22,1.65-1.4,1.87-2.3.1-.43-1.15-1.63-1.9-1.74-2.79-.38-5.63-.45-8.45-.64-.83-.06-1.66-.11-3.08-.2.36-3.99.71-7.84,1.11-12.28,15.11-.69,30.11-1.52,45.17-1.32-5.65,58.42-11.26,116.45-16.91,174.86-10.74-.48-20.98-.95-31.7-1.43-.33-3.17-.65-6.16-1-9.44,3.36-.23,6.28-.43,9.21-.62.56-.04,1.13,0,1.69-.06,1.39-.16,3.13-.13,3.06-2.09-.06-1.62-1.61-1.74-2.89-1.81-3.1-.16-6.21-.28-9.31-.4-.54-.02-1.07,0-1.99,0-.22-3.12-.43-6.03-.67-9.33,1.35-.07,2.41-.17,3.47-.16,6.36.05,12.71.17,19.07.15,1.74,0,3.8.21,4.54-2.22-1.13-2.18-3.19-2.1-5.13-2.12-6.64-.08-13.28-.1-19.93-.15-.54,0-1.08-.07-2.04-.13v-11.87c1.91.16,3.95.32,5.98.5,1.68.15,3.35.44,5.03.45,1.5.01,2.93-.51,2.95-2.32.01-1.64-1.35-2.04-2.67-2.12-3.79-.24-7.59-.4-11.7-.61v-13.62c3.5.16,6.84.34,10.18.45,4.52.15,9.03.32,13.55.34,1.63,0,3.89.02,3.84-2.26-.05-2.28-2.3-2.09-3.95-2.15-7.76-.3-15.51-.55-23.76-.83v-12.01c4.58-1.59,9.72,1.15,14.14-2.19-1.58-3.01-4.16-2.35-6.39-2.43-2.39-.08-4.79-.02-7.79-.02-.22-5.71-.18-11.23.18-16.85Zm-46.01,23.16c3.06,0,5.82,0,8.58,0,1.55,0,3.1.12,4.64.05,2.84-.12,3.6-1.4,2.13-3.79-2.07-3.36-4.18-6.72-6.51-9.91-3.64-4.97-7.48-9.8-11.16-14.6,2.49-.7,37.55.8,41.87,1.96-.6,32.66-1.18,65.41,3.23,98.65-15.88-1.45-31.66.16-47.25-2.05,1.32-23.72,5.18-46.61,4.48-70.33Z" stroke-width="0"/><path d="m402.97,37.47c2.05-.8,4.08-1.65,6.15-2.4,2.26-.81,4.53-1.58,6.84-2.26,2.17-.63,4.36-1.2,6.58-1.64,2.18-.44,4.39-.69,6.59-1.02-3.96,2.61-8.11,4.33-12.14,6.31-6.77,3.33-9.15,5.19-10.83,8.13,7.23-4.11,14.51-7.11,23.62-5.9-7.06,5.76-15.67,7.67-21.94,13.36,1.88-.6,3.58-1.52,5.24-2.49,3.87-2.26,8.06-3.37,12.51-3.48.87-.02,1.74.36,3.14.67-3.45,4.65-9.61,3.74-13.01,7.8,2.7-.37,5.06-.87,7.43-.97,4.7-.21,8.13-2.37,11.33-5.75,7.04-7.42,15.57-12.47,25.59-14.99,20.36-5.12,40.87-5.07,61.41-1.69,15.49,2.55,29.22,9.27,41.56,18.93,2.43,1.9,5.16,3.44,7.86,4.97,1.79,1.01,1.87.87,4.75.05-6.67-2.89-12.12-7.2-18.29-11.34,1.08-.63,1.53-1.12,1.99-1.13,5.56-.15,9.82,3.86,15.15,4.6-11.38-7.18-23.99-11.85-36.14-17.6,11.55-.3,21.85,4.27,32.73,8.37-.43-.73-.49-1.02-.66-1.11-9.55-4.85-18.69-10.62-29.3-13.04-8.67-1.98-17.36-3.87-26.06-5.76-1.23-.27-2.52-.37-3.78-.45-21.81-1.46-43.5-.57-65.04,3.26-12.56,2.23-24.83,5.5-36.32,11.21-2.59,1.28-4.94,3.04-7.4,4.57.14.27.29.54.43.81Z" fill="#fff" stroke-width="0"/><path d="m532.55,60.12c-2.59-1.11-5.13-2.36-7.58-3.75-4.09-2.31-11.6-4.54-15.59-4.36,4.53,3.36,6.52,8.1,7.89,13.07,8.37.3,21.24-2.64,27.99-6.38,1.11-.61,2.22-1.25,3.24-2,3.8-2.81,4.06-5.85.68-9.2-1.29-1.28-2.78-2.48-4.39-3.28-3.4-1.7-6.82-3.53-10.45-4.58-20.61-5.99-41.58-7.86-62.91-4.96-7.06.96-13.86,2.76-20.11,6.26-7.51,4.21-7.84,8.65-.86,13.8,6.4,4.72,13.9,6.62,21.93,7.98,1.78-5.18,4.56-9.45,9.02-12.6-8.34-.05-15.7,2.89-23.1,5.91,3.5-5.51,9.3-7.18,14.79-9.43-6.32-.21-11.34,3.91-17.13,5.64-1-2.49.49-3.43,1.7-4.21,3.65-2.34,7.41-4.52,10.84-6.59-4.39.49-11.14,3.11-15.96,6.34-1.01.67-1.86,1.97-3.34.55.1-2.06,1.7-3.06,3.16-4.11,4.08-2.94,8.68-4.62,13.57-5.71,9.3-2.06,18.69-2.33,28.2-2.43,14.51-.15,28.29,3.17,41.98,7.21,3.46,1.02,6.67,3.04,9.83,4.87,2.29,1.32,2.24,1.9.83,4.15-2.29-1.07-4.54-2.24-6.88-3.17-2.31-.91-4.72-1.56-7.08-2.33,3.43,3.61,9.23,4.24,10.59,10.66-3.69-1.56-6.87-2.98-10.11-4.25-3.21-1.25-6.49-2.35-9.74-3.51,3.18,2.65,6.65,4.52,10.1,6.42,1.71.94,3.42,1.91,3.08,4.84-1.58-.31-3-.35-4.21-.87Z" fill="#fff" stroke-width="0"/><path d="m477.47,63.85c1.27-4.48,3.88-7.9,7.68-10.38-5.22,1.72-8.1,5.39-7.68,10.38Z" fill="#fff" stroke-width="0"/><path d="m435.02,92.99c14.45,4.14,29.24,6.39,44.18,7.87,28.12,2.79,55.92.9,83.41-5.45,11.35-2.62,22.22-6.65,31.92-13.29,2.63-1.8,4.99-3.99,7.65-6.13-3.43-3.41-5.99-6.69-9.99-8.63-4.92-2.4-10.01-3.82-15.39-4.31-5.22-.48-9.94-1.85-13.7-5.8-1.49-1.57-3.4-2.74-5.18-4.13-.72.83-1.23,1.19-1.42,1.67-1.86,4.82-5.57,7.88-10.09,9.76-4.54,1.89-9.26,3.52-14.05,4.63-12.35,2.86-24.94,3.41-37.53,2.48-12.86-.95-25.57-2.91-37.54-8.11-6.48-2.81-12.94-5.66-16.69-12.32-.54.43-.94.62-1.15.94-3.26,4.77-7.88,6.9-13.53,7.72-3.87.56-7.7,1.81-11.38,3.19-6.41,2.41-11.02,7.06-15.12,13.09,3.52,2.28,6.7,4.61,10.12,6.52,8.05,4.51,16.63,7.78,25.49,10.32Zm31.99-3.04c10.51-.75,21.03-1.48,31.54-2.18,1.26-.08,2.54-.06,3.78.1,1.56.2,3.23.6,3.3,2.58.07,1.75-1.38,2.38-2.79,2.64-2.48.46-5.03,1.2-7.48.99-9.8-.84-19.56-2-29.34-3.04-.01-.21-.03-.42-.04-.62.34-.16.68-.44,1.03-.47Z" fill="#fff" stroke-width="0"/><path d="m615.07,58.78c-.6,3.87-.76,7.56-1.81,10.97-1.62,5.26-5.27,9.28-9.35,12.88-6.02,5.3-12.96,9.06-20.32,12.07-15,6.14-30.61,9.93-46.69,11.8-17.47,2.03-34.96,2.16-52.49.97-22-1.49-43.38-5.84-64-13.7-8.88-3.38-17.3-7.7-24.95-13.39-6.37-4.74-11.61-10.35-13.47-18.41-.08-.33-.38-.6-.82-1.27-6.82,12.51-12.21,25.06-12.5,39.67,2.11.34,3.78.59,5.44.88,15.75,2.79,30.7,7.51,43.57,17.54,10.29,8.02,20.19,16.3,27.26,27.56,2.78,4.43,7.17,6.91,12.81,7.01,12.33.23,24.52,1.57,36.36,5.3,3.09.97,6.26,1.7,9.37,2.63,2.07.62,3.89.24,5.61-.97,4.28-3,8.63-5.9,12.85-8.98,10.62-7.74,21.95-13.87,35.08-16.15,5.98-1.04,11.97-2.06,17.91-3.31,6.64-1.39,12.32-3.83,15.93-10.52,5.73-10.61,14.08-19.04,24.64-25.1,3.15-1.81,6.37-3.52,9.64-5.33,0,0,0,0,0,0-1.03-9.49-2.56-18.64-6.57-27.21-.87-1.85-1.73-3.73-3.51-4.95Zm-33.76,58.45c-6.58,4.04-14.01,5.85-21.34,7.9-9.73,2.71-19.79,3.08-29.77,3.61-11.55.62-23.14.83-34.7.62-8.71-.16-17.51-.31-26.05-2.53-.8-.21-1.57-.48-2.43-1.31.83-.1,1.67-.3,2.5-.3,10.16.07,20.32.37,30.48.19,7.32-.13,14.65-.74,21.95-1.42,16.45-1.53,32.73-4.31,48.95-7.36,3.18-.6,6.31-1.51,9.47-2.25,1.29-.3,2.59-.55,3.88-.82.17.33.33.66.5.99-1.14.9-2.19,1.93-3.42,2.68Z" fill="#fff" stroke-width="0"/><path d="m434.33,965.35c-.45-2.12-.49-4.82-3.35-5.32-2.78-.49-3.89,1.92-5.17,3.7-1.7,2.36-3.19,4.88-4.76,7.29-15.98-8.85-19.42-33.25-13.4-43.17,2.7,1.39,5.46,2.73,8.14,4.22,3.81,2.11,6.29.94,5.94-3.36-.63-7.72-1.7-15.41-2.78-23.09-.19-1.37-1.31-2.62-2.01-3.92-8,3.82-15.21,7.32-22.48,10.71-3.45,1.61-3.95,5.02-.9,7.29.67.5,1.51.77,2.23,1.2,1.65.99,3.27,2.02,4.81,2.98-7.56,21.65-.52,42.71,16.56,53.01-.17.49-.29,1.04-.56,1.51-1.33,2.33-2.8,4.59-4.02,6.97-1.29,2.52-.46,3.76,2.32,3.69.98-.02,1.96-.24,2.93-.4,6.53-1.04,13.05-2.12,19.58-3.13,2.55-.4,3.49-2.08,2.15-4.59-2.62-4.92-4.12-10.17-5.26-15.58Z" stroke-width="0"/><path d="m454.64,942.88c3.76-5.64,9.16-9.51,14.54-13.39,2.72-1.96,5.56-3.78,8.52-5.78-2.22-2.79-6.4-3.08-7.54-7.01,1.48-.82,2.9-1.42,4.08-2.32,1.21-.93,2.19-2.16,3.3-3.29-.73-1.89-1.44-3.72-2.39-6.15,2.39-.42,4.5-.79,6.98-1.22-.88-2.57-1.82-5.15-2.65-7.77-1.07-3.36-2.03-6.76-3.08-10.13-.34-1.09-.99-2.42.47-2.84.78-.22,2.17.46,2.81,1.16,3.29,3.69,6.43,7.52,9.62,11.3.9,1.07,1.79,2.16,2.65,3.21,2.39-.78,4.61-1.67,6.91-2.2,2.65-.62,3.5.19,3.74,2.99.13,1.52.34,3.04.59,5.19,2.82-1.41,5.25-2.63,8.34-4.18.16,2.46.28,4.45.44,6.95,7.68-1.19,15.35-2.39,23.02-3.58.13.29.26.58.39.87-4.86,6.41-12.55,9.44-19.15,14.79,2.98,1.1,5.36,1.98,7.74,2.86.02.3.05.6.07.9-3.32,1.24-6.64,2.48-10.31,3.85,1.12,2.19,2.16,4.24,3.39,6.63-1.53.92-2.92,1.74-4.58,2.74,3.61,7.38,5.81,15.27,8.07,23.15l-.92.64c-.74-.63-1.62-1.14-2.19-1.89-3.53-4.6-6.98-9.25-10.47-13.87-.93-1.24-1.9-2.45-3.01-3.88-1.56.6-3.08,1.24-4.64,1.79-2.98,1.04-3.34.89-4.58-1.82-.41-.88-.74-1.8-1.21-2.93-3.18,2.32-6.2,4.52-9.23,6.72-3.02-3.21-2.58-6.98-3.65-10.73-2.61,1.16-5.14,2.3-7.68,3.4-4.27,1.86-8.53,3.73-12.83,5.51-1.82.75-3.72,1.43-5.67.22,0,0,.11.1.11.1Zm72.54-34.16c-.08-.2-.17-.4-.25-.6-2.88.37-5.75.84-8.64,1.09-3.65.32-7.12.77-9.86,3.71-1.2,1.3-3.03,2-4.53,3.03-1.22.84-2.38,1.78-3.57,2.67,4.37.21,8.47-.28,12.56-.83.53-.07,1.05-.37,1.52-.66,3.44-2.14,6.88-4.29,10.29-6.48.88-.57,1.66-1.29,2.49-1.93Zm-33.87,12.51c-5.15,1.16-10.7.32-14.96,4.87-3.12,3.34-7.12,5.86-10.73,8.75,1.43.19,2.58-.17,3.66-.66,4.47-2.05,8.77-4.63,13.43-6.06,3.98-1.22,6.27-3.85,8.6-6.9Zm2.84,2.12c-2.18,6.55-1.92,11.85,1.58,16.98,1.35-.72,2.55-1.36,3.88-2.07-1.77-4.81-3.43-9.36-5.46-14.9Zm-18.43-16.16c.77,1.76,1.06,4.31,2.4,5.1,2.96,1.75,6.32,3.18,10.56,2.91-1.64-2.03-2.96-3.48-4.06-5.07-2.15-3.1-4.85-4.42-8.89-2.94Zm16.3-6.08c.85,4.45,1.61,8.46,2.38,12.47,1.29-1.55,1.6-3.3,2.51-4.62,2.1-3.04,1.64-5.99.3-9.18-1.61.41-3.22.82-5.19,1.33Zm19.44,31.83c-2.39-5.98-4.49-7.48-10.23-7.49,2.93,5.85,6.16,8.3,10.23,7.49Z" stroke-width="0"/><path d="m490.19,964.34c.66-1.34,1.3-2.67,2.19-4.48-1.35-.71-2.63-1.44-3.95-2.08-1.27-.61-2.65-1-3.87-1.69-2.35-1.32-3.17-2.95-2.74-5.18.44-2.31,1.96-3.79,4.13-4.35.91-.23,2.03.38,3.06.61-.22.87-.38,1.75-.68,2.59-.17.48-.54.89-.9,1.45,2.15.87,4.21,1.47,6.01,2.52,1.53.89,3.03,2.11,4.06,3.53,1.36,1.87.84,4.51-.72,6.24-1.72,1.91-3.36,2.15-6.57.83Z" stroke-width="0"/><path d="m611.7,907.56c.89-1.6.95-3.71,1.19-5.61.37-2.9.57-5.81.79-8.22h0c-4.93-.54-9.91-3.33-12.19-4.75.63.52,1.07,1.16,1.17,2.22.57,5.88.43,11.64-2.75,16.84-2.06,3.37-4.4,6.56-6.65,9.81-3.69,5.34-7.45,10.64-11.09,16.01-1.73,2.56-3.25,5.26-4.27,6.93-4.55,1.33-8.14,2.38-11.8,3.45.74-3.14-1.61-4.46-4.31-5.53.27-1.28.48-2.37.72-3.46,3.27-15.18,1.71-29.87-5.06-43.81-8.47-17.45-22.01-29.43-40.77-34.54-17.42-4.74-34.3-3.75-49.78,7.15-9.22,6.49-17.98,13.31-23.78,23.19-13.1,22.32-13.27,44.98-1.59,67.93,9.46,18.6,24.18,29.7,45.09,32.5,21.15,2.83,39.8-2.24,55.65-16.77.62-.57,1.26-1.11,1.98-1.74.57.29,1.05.54,1.53.79,3.64,1.92,5.15,1.17,5.48-2.98.25-3.13,1.36-5.82,3.39-8.76q-1.89,7.6.34,15.29c.12.41.25.81.35,1.22,1.48,6.65,5.95,9.99,12.59,8.45,4.47-1.03,9.06-2.6,12.91-5.03,5.88-3.71,9.74-9.35,11.36-16.28.77-3.29,1.55-6.59,2.19-9.91.54-2.77,1.33-5.58,1.25-8.35-.26-9.09,2.85-16.8,8.34-23.89,2.93-3.78,5.38-7.96,7.72-12.14Zm-100.44-34.83c.39.1.75.35,1.55.74-1.51,1.36-2.22,2.9-1.07,4.71.97,1.53,1.87,3.09,3.29,5.46-3.77-1.07-6.68-1.91-9.6-2.72-1.76-.49-3.73-1.32-5.18.3-1.64,1.83-.33,3.7.55,5.47,1.2,2.4,2.36,4.82,3.62,7.18.76,1.42,1.78,2.66,3.68,2.09,1.59-.48,2.15-2.06,1.49-4.26-.4-1.34-1-2.62-1.65-4.31,2.65-.05,4.68,1.21,6.83,1.88,1.35.41,2.61,1.09,3.97,1.47,2.86.79,4.64-.9,3.52-3.63-1.71-4.15-3.86-8.12-5.91-12.35,4.62,2.33,9.28,4.65,13.04,8.44,9.09,9.16,13.54,20.4,14.38,33.06,1.54,23.31-10.99,44.79-34.72,54.29-8.64,3.46-17.81,2.79-26.6-.25-13.64-4.72-23-13.9-27.93-27.52l.12.11c-2.68-4.81-3.46-10.16-3.74-15.48-.9-17.15,4.39-32.15,17.18-43.83,12.31-11.24,26.8-15.18,43.19-10.84Zm-16.04-7.62c-5.56,2-7.64,2.1-11,.15,4.05-2.06,7.49-3.07,11-.15Zm9.08,115.61c-9.96,2.27-19.34.86-28.55-2.96-1.26-.52-2.42-1.44-3.43-2.39-5.76-5.43-11.44-10.93-17.17-16.38-3.12-2.96-5.53-6.4-7.2-10.37-2.03-4.81-4.12-9.6-6.07-14.44-.46-1.14-.63-2.46-.66-3.7-.58-23.35,8.55-42.26,26.45-57,2.7-2.22,5.94-3.78,8.96-5.6,1.57-.94,3.15-1.2,5.04.77-1.03.5-1.74.87-2.47,1.21-30.14,14.09-42.61,51.64-26.91,80.98,9.84,18.37,28.24,28.62,48.32,26.06,10.56-1.35,20.1-5.32,28.92-12,11.72-8.89,17.23-20.94,20.64-34.34,2.18-8.55,2.3-17.48.09-26.06-2.89-11.24-7.95-21.6-17.1-29.09-3.94-3.23-9.1-4.98-13.72-7.37-.48-.25-1.16-.47-1.64-.34-5.24,1.48-8.19-2.57-11.82-5.31,2.26.38,4.57.61,6.78,1.17,14.45,3.63,25.88,11.65,34.29,23.95,3.84,5.62,5.61,12,6.54,18.63,5.02,35.7-19.01,67.68-49.29,74.59Zm56.68-15.33c.2,2.17.4,4.35.66,7.21-2.27-2.61-1.8-4.91-.66-7.21Zm1.34,12.02c-.31-.74-.62-1.47-.93-2.21.28-.12.56-.23.84-.35.29.74.59,1.48.88,2.23-.26.11-.53.22-.79.33Zm11.95-1.2c-2.45-.41-4.99-1.43-5.92-4.19-.44-1.31-.68-2.75-.7-4.14-.03-3.52.51-7.1.09-10.56-.5-4.16,1.82-5.81,5.5-7.64-1.09,4.03-2.22,7.34-2.84,10.75-.59,3.26-.64,6.61,3.48,8.38-.67,1.27-1.83,2.89.4,3.6,1.45.46,3.04.45,4.83.68-1,2.14-2.75,3.46-4.84,3.11Zm3.55-8.67c-.58-6.93,2.09-12.9,5.2-18.99,6.04,6.97,3.27,16.41-5.2,18.99Z" stroke-width="0"/><path d="m902.87,447.5c.52.13,1.05.25,1.87.45,1.13-3.8,2.24-7.55,3.44-11.57,2.03,1.01,2.32,3.16,3.52,4.57,3.63,4.27,4.67,8.76,2.8,14.37-1.92,5.75.31,11.42,2.29,16.89.13.37.49.69.8.96.19.17.51.19.99.35,1.89-2.29.88-5.05,1.03-7.58.15-2.62.03-5.25.49-7.96,5.39,8.28,7.11,18.16,12.07,26.5.33-.08.66-.16.99-.24-.15-1.71-.04-3.5-.51-5.12-2.74-9.49-5.49-18.99-8.54-28.38-.89-2.73-1.05-5.18-.13-7.8,1.01-2.88,2.01-5.77,3.37-9.68,1.52,2.58,2.51,4.2,3.45,5.86.9,1.6,1.64,3.3,2.63,4.84,3.33,5.16,5.4,10.31,2.43,16.55-1.27,2.68-1.29,5.96-.19,9.37,3.64-2.13,2.75-6.45,5.53-9.48,3.83,11.07,6.18,22.16,10.26,32.7,1.41-8.23.63-16.25-1.82-24.11-1.47-4.72-3-9.42-4.66-14.08-.62-1.73-.67-3.21.13-4.86,1.29-2.65,2.43-5.38,4.04-9,.89,1.99,1.46,3.18,1.96,4.39.86,2.09,1.63,4.22,2.52,6.3,1.49,3.5,1.94,6.91.39,10.62-.99,2.38-1.9,5-1.01,8.04,3.09-1.09,2.42-4.44,4.66-6.43,2.24,5.24,2.88,10.8,5.1,16.23,1.26-1.41.84-2.76.68-4.02-.75-5.74-1.53-11.48-2.28-17.22-.57-4.32.1-6.15,3.79-10.07.54,1.6,1.09,2.98,1.48,4.4,5.52,20.13,8.41,40.58,8.7,61.5.5,36.5-3.96,72.16-16.32,106.66-2.67,7.44-6.22,14.45-10.38,21.79-2.35-3.91-3.17-6.98-1.47-11.26,3.64-9.16,6.49-18.64,9.48-28.05.61-1.92.39-4.1.09-6.28-2.29,2.94-2.38,6.68-3.77,9.9-1.45,3.37-2.88,6.75-4.41,10.09-1.52,3.32-3.15,6.58-5.09,10.59-1.55-4.37-2.87-8.06-4.41-12.38-1.9,2.34-2.38,4.39-2.17,6.43.37,3.63.87,7.27,1.66,10.83.46,2.06.47,3.77-.69,5.6-1.71,2.7-3.19,5.53-4.78,8.31-.35-.03-.7-.06-1.06-.09-1.01-4-2.23-7.97-2.9-12.03-.25-1.49.74-3.23,1.31-4.81,2.52-7.04,5.13-14.05,7.6-21.11.77-2.2,1.26-4.52.34-7.55-5.1,7.18-7.93,14.87-12.04,22.37-2.38-3.89-2.48-8.4-5.68-11.84-1.23,2.29-1.75,4.45-1.58,6.64.33,4.07.67,8.16,1.45,12.16.52,2.68.41,4.94-1.22,7.19-1.4,1.92-2.54,4.03-4.29,6.84-.99-3.71-1.59-6.66-2.57-9.49-1.36-3.93-.86-7.42.55-11.39,2.67-7.56,4.43-15.45,6.41-23.24.35-1.36-.06-2.9-.12-4.36-.3-.05-.6-.11-.9-.16-2.99,6.85-5.97,13.71-8.96,20.56-.25-.05-.5-.1-.75-.16-.62-2.03-1.25-4.07-2.01-6.57-3.6,5.96-1.71,12.51-4.24,18.19-.61-4.35-1.31-8.69-1.75-13.05-.1-.99.65-2.1,1.13-3.11,3.54-7.55,7.23-15.05,8.35-23.44.25-1.85.04-3.75.04-6.3-2.81,2.3-2.79,5.18-3.9,7.46-1.24,2.53-2.12,5.25-3.48,7.72-1.28,2.33-2.96,4.44-4.73,7.04-2.07-3.1-3.4-5.88-2.17-9.22,1.56-4.24,3.29-8.41,4.85-12.64,7.16-19.48,11.22-39.63,13.34-60.24,2.45-23.83-1.93-46.71-9.16-69.23-.6-1.86-1.33-3.68-2-5.52l.16-.13Zm54.51,86.55l1.14-.45c.18-5.48-1.68-10.58-4.13-15.26-2.22-4.25-3.91-8.38-3.47-13.22.03-.34-.3-.71-.64-1.45-.85,1.16-1.52,2.07-2.25,3.07-1.7-1.8-3.28-3.61-5-5.26-1.59-1.53-2.78-3.64-5.37-4.11.38,1.74,1.05,3.23,1.88,4.62,1.95,3.27,4.03,6.47,5.95,9.76.55.94,1.27,2.2,1.04,3.1-1.07,4.28-1.85,8.69-4.14,12.86-3.92-5.3-6.72-11.05-12.37-14.43.36,1.35.99,2.53,1.66,3.69,2.63,4.51,5.25,9.02,7.94,13.5,1.04,1.72,1.09,3.34.31,5.19-1.69,4.03-2.93,8.29-4.92,12.16-2.25,4.38-2.51,7.86,1.28,11.71,3.38,3.43,5.01,7.81,2,12.59-.13.21-.02.59-.02,1.41,1.17-1.71,2.02-2.95,3.06-4.47,2.53,4.17,2.26,9.39,6.48,13.25,0-2.39.25-3.97-.05-5.44-.74-3.58-1.78-7.1-2.62-10.66-.28-1.17-.78-2.61-.37-3.57,1.18-2.76,2.79-5.34,4.38-8.29,1.72,2.51,3.09,4.51,4.46,6.51.32-.15.63-.3.95-.44-.54-2.73-.92-5.51-1.68-8.17-.68-2.4-.85-4.58.15-6.96.58-1.38.44-3.07.62-4.62-.3-.08-.61-.16-.91-.24-.73.99-1.46,1.97-2.37,3.21-.51-.88-.75-1.37-1.06-1.82-3.21-4.63-3.95-9.37-1.24-14.59,1.03-1.99,1.35-4.35,1.99-6.55.31,0,.61-.02.92-.03,2.13,4.47,4.26,8.93,6.38,13.4Z" fill="#fff" stroke-width="0"/><path d="m945.91,433.13c-1.79,3.86-3.21,6.92-4.78,10.31-.59-.86-1.16-1.57-1.59-2.37-2.2-4.11-4.11-8.39-6.61-12.31-1.64-2.57-1.63-4.63.02-6.95.95-1.35,1.86-2.73,3.15-4.65,3.56,5.8,6.78,11.04,9.8,15.96Z" fill="#fff" stroke-width="0"/><path d="m905.91,638.43c1.46,4.4,2.83,8.39,4.07,12.43.22.71.15,1.77-.25,2.36-2.59,3.83-5.31,7.57-8.25,11.7-1.66-2.51-1.97-4.52-1.53-6.87.77-4.16,1.41-8.35,1.85-12.55.31-2.93,2.24-4.67,4.12-7.07Z" fill="#fff" stroke-width="0"/><path d="m918.49,437.36c-2.45-4.08-4.73-7.76-6.86-11.52-.35-.62-.31-1.69-.04-2.39.87-2.19,1.95-4.3,3.3-7.22,2.99,3.81,5.55,7.06,8.13,10.36-1.52,3.61-2.93,6.95-4.54,10.78Z" fill="#fff" stroke-width="0"/><path d="m940.19,412.16c1.15-1.44,2.17-2.73,3.42-4.31,4.64,4.88,8.03,10.14,11.15,15.88-1.66,1.54-3.18,2.95-5.04,4.67-3.18-5.41-6.22-10.6-9.53-16.24Z" fill="#fff" stroke-width="0"/><path d="m902.71,447.63c-3.45-7.81-6.69-15.69-6.78-24.43,0-.51.21-1.03.43-2.01,2.88,1.58,5.18,3.44,6.64,5.92.74,1.26.44,3.21.4,4.84-.12,5.18-.35,10.36-.53,15.54,0,0-.16.13-.16.13Z" fill="#fff" stroke-width="0"/><path d="m917.73,408.69c1.45-2.05,2.72-3.86,4.14-5.87,3.36,2.87,6.44,5.5,9.78,8.35-1.65,2.44-3.2,4.72-5.03,7.42-2.95-3.28-5.72-6.38-8.88-9.9Z" fill="#fff" stroke-width="0"/><path d="m906.44,419.23c-3.34-2.57-6.34-4.85-9.3-7.16-1.49-1.16-1.38-2.81-.71-4.21.75-1.56,2.36-2,4-1.57,3.47.91,6.41,2.79,9.38,5.47-1.07,2.37-2.13,4.72-3.37,7.47Z" fill="#fff" stroke-width="0"/><path d="m907.34,676.88c-1-1.71-1.63-2.79-2.37-4.05,3.12-3.95,6.21-7.86,9.62-12.17,1.32,2.17,2.46,4.05,3.76,6.19-2.85,4.17-6.89,6.86-11,10.03Z" fill="#fff" stroke-width="0"/><path d="m922.29,661.73c-1.61-2.59-2.8-4.5-4.12-6.62,1.7-3.37,3.39-6.73,5.46-10.82,1.36,3.71,2.53,6.66,3.48,9.68.21.65-.16,1.68-.59,2.31-1.18,1.71-2.54,3.3-4.23,5.46Z" fill="#fff" stroke-width="0"/><path d="m957.99,447.06c-1.56-3.76-2.85-6.68-3.96-9.67-.24-.65-.05-1.67.31-2.31.94-1.66,2.08-3.2,3.53-5.37,1.43,3.44,2.73,6.35,3.8,9.34.28.77.06,1.93-.33,2.7-.82,1.6-1.9,3.07-3.34,5.31Z" fill="#fff" stroke-width="0"/><path d="m941.76,643.82c1.41,2.29,2.43,3.94,3.67,5.96-1.75,3.05-3.53,6.16-5.56,9.7-1.7-1.48-2.94-2.55-4.43-3.86,2.05-3.83,4.01-7.49,6.32-11.8Z" fill="#fff" stroke-width="0"/><path d="m912.06,683.55c4.25-3.66,7.85-6.75,11.55-9.94.94.6,1.87,1.2,2.7,1.73.04,2.82-8.75,8.09-14.24,8.21Z" fill="#fff" stroke-width="0"/><path d="m930.23,671.49c-1.29-.99-2.15-1.65-3.37-2.59,1.75-2.52,3.39-4.89,5.13-7.4,1.37.89,2.53,1.64,4.05,2.63-1.92,2.43-3.71,4.69-5.81,7.36Z" fill="#fff" stroke-width="0"/><path d="m905.98,400.59c3.63-2.91,7.04-3.97,10.93-.69-1.24,1.5-2.46,2.99-3.86,4.69-2.37-1.34-4.62-2.62-7.07-4Z" fill="#fff" stroke-width="0"/><path d="m936.18,406.25c-2.96-2.8-5.79-5.47-8.62-8.15,4.81.26,8.31,2.81,12.02,5.81-1.27.87-2.26,1.55-3.4,2.33Z" fill="#fff" stroke-width="0"/><path d="m892.85,683.49c2-1.62,4-3.24,6.19-5.01.64.78,1.14,1.38,2.02,2.45-2.66,1.28-5.04,2.42-7.42,3.56-.26-.33-.52-.66-.79-1Z" fill="#fff" stroke-width="0"/><path d="m943.26,559.88c-2.11-3-3.88-5.5-5.81-8.24,1.9-3.53,3.84-7.14,6.22-11.56,1.45,3.6,2.64,6.37,3.65,9.2.24.68.03,1.66-.28,2.37-1.09,2.57-2.31,5.08-3.78,8.23Z" fill="#fff" stroke-width="0"/><polygon points="895.92 423.2 895.92 423.2 895.92 423.2 895.92 423.2 895.92 423.2" stroke-width="0"/><path d="m584.73,114.55c-1.14.9-2.19,1.93-3.42,2.68-6.59,4.04-14.01,5.85-21.34,7.9-9.73,2.71-19.79,3.08-29.77,3.61-11.55.62-23.14.83-34.7.62-8.71-.16-17.51-.31-26.05-2.53-.8-.21-1.57-.48-2.43-1.31.83-.1,1.67-.3,2.5-.3,10.16.07,20.32.37,30.48.19,7.32-.13,14.65-.74,21.95-1.42,16.45-1.53,32.73-4.31,48.95-7.36,3.18-.6,6.31-1.51,9.47-2.25,1.29-.3,2.59-.55,3.88-.82l.5.99Z" stroke-width="0"/><path d="m465.97,90.41c.34-.16.68-.44,1.03-.47,10.51-.75,21.03-1.48,31.54-2.18,1.26-.08,2.54-.06,3.78.1,1.56.2,3.23.6,3.3,2.58.07,1.75-1.38,2.38-2.79,2.64-2.48.46-5.03,1.2-7.48.99-9.8-.84-19.56-2-29.34-3.04-.01-.21-.03-.42-.04-.62Z" stroke-width="0"/><path d="m378.62,52.55c-8.05,11.81-14.82,24.38-20.67,37.43-1.04,2.32-2.02,4.66-3.01,7-1.19,2.8-3.06,4.2-6.32,4.69,12.38-1.67,20.06-1.31,20.06-1.31h0c.28-14.61,5.68-27.17,12.5-39.67.44.66.74.94.82,1.27,1.86,8.06,7.1,13.67,13.47,18.41,7.65,5.69,16.06,10.01,24.95,13.39,20.62,7.86,42,12.2,64,13.7,17.53,1.19,35.02,1.07,52.49-.97,16.09-1.87,31.69-5.66,46.69-11.8,7.36-3.01,14.3-6.77,20.32-12.07,4.08-3.6,7.73-7.62,9.35-12.88,1.05-3.41,1.2-7.1,1.81-10.97,1.78,1.22,2.64,3.09,3.51,4.95,4.01,8.57,5.54,17.72,6.57,27.21,5.86-2.93,11.27-3.24,11.27-3.24h0c-7.98-24.09-21.78-43.42-45.71-55.27,5.84-3.57,10.89-6.62,15.89-9.74,5.04-3.15,10.02-6.38,15.02-9.58-.16-.27-.33-.54-.49-.81-11.57,5.13-23.1,10.33-33.55,17.93-.75-.31-1.54-.59-2.28-.95-10.22-4.97-20.94-8.5-31.99-11.04-29.89-6.89-60.14-8.78-90.6-5.59-23.92,2.51-47.19,7.62-67.52,21.36-10.66-6.74-22.19-11.35-33.97-15.43,9.35,7.3,19.81,12.76,30.24,18.6-.71.9-1.04,1.35-1.4,1.78-3.83,4.52-8.11,8.74-11.43,13.61Zm31.32-20.47c11.49-5.71,23.76-8.98,36.32-11.21,21.54-3.83,43.23-4.73,65.04-3.26,1.27.08,2.55.18,3.78.45,8.69,1.89,17.38,3.79,26.06,5.76,10.62,2.42,19.76,8.2,29.3,13.04.17.09.23.38.66,1.11-10.88-4.11-21.18-8.67-32.73-8.37,12.15,5.75,24.76,10.42,36.14,17.6-5.33-.74-9.59-4.75-15.15-4.6-.46.01-.91.5-1.99,1.13,6.17,4.14,11.62,8.45,18.29,11.34-2.88.82-2.96.96-4.75-.05-2.69-1.53-5.43-3.07-7.86-4.97-12.35-9.66-26.07-16.38-41.56-18.93-20.54-3.38-41.05-3.43-61.41,1.69-10.02,2.52-18.55,7.58-25.59,14.99-3.2,3.37-6.64,5.54-11.33,5.75-2.38.11-4.73.61-7.43.97,3.41-4.06,9.56-3.15,13.01-7.8-1.4-.31-2.27-.69-3.14-.67-4.45.11-8.65,1.22-12.51,3.48-1.67.97-3.36,1.89-5.24,2.49,6.27-5.69,14.88-7.59,21.94-13.36-9.11-1.21-16.39,1.79-23.62,5.9,1.68-2.94,4.06-4.8,10.83-8.13,4.03-1.98,8.18-3.7,12.14-6.31-2.2.33-4.41.58-6.59,1.02-2.21.45-4.41,1.01-6.58,1.64-2.3.67-4.58,1.45-6.84,2.26-2.07.74-4.1,1.59-6.15,2.4-.14-.27-.29-.54-.43-.81,2.46-1.54,4.81-3.29,7.4-4.57Zm123.74,24.07c-3.45-1.9-6.92-3.78-10.1-6.42,3.25,1.16,6.52,2.26,9.74,3.51,3.24,1.27,6.42,2.69,10.11,4.25-1.36-6.42-7.17-7.05-10.59-10.66,2.36.77,4.77,1.42,7.08,2.33,2.35.92,4.59,2.1,6.88,3.17,1.41-2.25,1.45-2.83-.83-4.15-3.16-1.83-6.37-3.85-9.83-4.87-13.69-4.04-27.47-7.37-41.98-7.21-9.51.1-18.89.37-28.2,2.43-4.89,1.08-9.49,2.77-13.57,5.71-1.47,1.06-3.07,2.05-3.16,4.11,1.49,1.42,2.34.12,3.34-.55,4.82-3.23,11.57-5.85,15.96-6.34-3.43,2.07-7.19,4.25-10.84,6.59-1.21.78-2.7,1.71-1.7,4.21,5.78-1.73,10.81-5.85,17.13-5.64-5.5,2.25-11.29,3.92-14.79,9.43,7.4-3.03,14.77-5.96,23.1-5.91-4.45,3.14-7.24,7.42-9.02,12.6-8.03-1.36-15.53-3.26-21.93-7.98-6.98-5.15-6.65-9.59.86-13.8,6.25-3.5,13.05-5.3,20.11-6.26,21.33-2.91,42.3-1.03,62.91,4.96,3.62,1.05,7.05,2.88,10.45,4.58,1.61.81,3.1,2,4.39,3.28,3.38,3.35,3.11,6.39-.68,9.2-1.02.75-2.13,1.39-3.24,2-6.75,3.73-19.62,6.68-27.99,6.38-1.37-4.97-3.35-9.71-7.89-13.07,3.99-.18,11.5,2.05,15.59,4.36,2.45,1.39,4.99,2.64,7.58,3.75,1.21.52,2.63.56,4.21.87.34-2.92-1.38-3.9-3.08-4.84Zm-48.53-2.69c-3.8,2.49-6.41,5.91-7.68,10.38-.43-5,2.46-8.66,7.68-10.38Zm-70.62,9.6c3.68-1.38,7.51-2.63,11.38-3.19,5.65-.81,10.26-2.94,13.53-7.72.21-.31.61-.5,1.15-.94,3.75,6.66,10.22,9.51,16.69,12.32,11.97,5.2,24.69,7.17,37.54,8.11,12.59.93,25.19.38,37.53-2.48,4.79-1.11,9.5-2.74,14.05-4.63,4.53-1.88,8.23-4.94,10.09-9.76.19-.48.7-.84,1.42-1.67,1.78,1.4,3.69,2.57,5.18,4.13,3.77,3.95,8.49,5.32,13.7,5.8,5.38.49,10.47,1.92,15.39,4.31,3.99,1.95,6.56,5.22,9.99,8.63-2.65,2.14-5.02,4.33-7.65,6.13-9.7,6.64-20.57,10.67-31.92,13.29-27.49,6.34-55.29,8.24-83.41,5.45-14.94-1.48-29.73-3.73-44.18-7.87-8.86-2.54-17.44-5.81-25.49-10.32-3.42-1.92-6.6-4.24-10.12-6.52,4.1-6.02,8.7-10.68,15.12-13.09Z" stroke-width="0"/><path d="m108.1,907.66c1.08-1.2,2.05-2.05,2.68-3.1.38-.63.58-1.87.22-2.32-.5-.63-1.61-1.09-2.45-1.08-1.08.02-2.18.52-3.23.93-7.9,3.09-16.04,3.26-24.2,1.64-2.69-.53-5.5-1.7-7.69-3.33-16.5-12.29-24.21-28.59-22-49.31.65-6.1,3.53-10.96,7.76-15.14,1.7-1.68,3.61-3.17,5.49-4.66,11.97-9.53,25.11-9.73,38.86-4.76.66.24,1.34.5,1.92.89,10.97,7.46,20.37,16.22,23.84,29.68,1.37,5.31.97,10.64-.15,15.97-.49,2.34-1.07,4.73-1.05,7.1.01,1.73.63,3.64,1.53,5.14,1.36,2.26,3.26,2.07,4.56-.23.48-.84.7-1.83,1.25-3.33,4.56,5.19,9.5,9.57,13.38,14.97,1.02,1.42,1.17,2.81.46,4.36-.69,1.5-1.38,3.01-2.26,4.94-13.07-9.74-23.69-21.08-33.02-33.98,3.02-3.69,4.22-7.85,4.25-12.31.05-5.52-1.87-10.3-6.27-13.77-5.11-4.03-10.12-1.97-10.98,4.49-.67,5.02.29,9.85,2.3,14.48.54,1.25,1.03,2.53,1.57,3.86-2.22.92-2.54-.6-3.22-1.83-1.9-3.46-3.81-6.91-5.9-10.26-1.66-2.66-4.19-4.19-7.36-4.42-3.52-.26-5.33,1.5-5.18,5.02.17,4.04,1.87,7.42,4.94,9.96,2.05,1.7,4.36,3.12,6.64,4.52,1.54.95,2.28,2.01,1.36,3.85-3.49-.17-6.98-.41-10.46-.51-3.3-.09-6.34.68-7.59,4.17-1.22,3.39-.06,6.42,2.26,8.98,4.12,4.54,11.89,4.93,17,.87,1.3-1.04,2.44-2.28,3.83-3.6,12.25,9.81,22.91,21,33.26,32.52-.41.66-.57,1.07-.85,1.34-4.02,3.82-5.31,4.28-9.89,1.22-5.59-3.73-10.66-8.22-15.65-12.97Z" fill="#fff" stroke-width="0"/><path d="m177.66,928.52c2.5,1.59,2.34,3.38,1.3,5.59-4.36,9.26-11.26,15.77-20.98,19.61-2.13-2.03-4.66-2.07-7.48-.71,5.33-4.18,8.97-9.31,11.01-15.71-4.83,4.55-9.66,9.11-14.92,14.07-.41-1.41-.53-2.06-.77-2.65-1.22-2.99-2.58-3.82-5.86-3.7-1.3.05-2.61,0-4.04-.43,6.32-4.98,13.34-9.02,16.43-16.77,1.58-3.97,2.67-8.14,3.46-12.51-6.1,8.7-11.3,18.02-20.52,24.06-3.56-3.32-7.09-6.6-10.62-9.89.09-.23.19-.47.28-.71.86.05,1.77-.04,2.58.19,3.52.99,6.78.37,9.66-1.74,7.35-5.38,14.14-11.2,17.63-20.08,1.68-4.26,3.62-8.3,1.13-12.86,4.94-.66,6.97,1.08,7.03,5.3.1,7.38-.54,14.58-2.52,21.78-1.63,5.92-4.63,10.84-8.17,15.61-.72.97-1.46,1.94-1.94,3.17,2.83-.99,5.09-2.67,6.88-5.03,4.66-6.15,8.09-12.9,10.1-20.36.33-1.21.64-2.43.98-3.71,1.51-.26,2.88-.49,4.7-.8.37,7.05.05,13.79-2.98,20.22-2.03,4.29-4.29,8.51-4.68,13.51,5.33-4.17,9.23-9.49,12.33-15.46Z" fill="#fff" stroke-width="0"/><path d="m143.66,910.55c-1.41,1.3-2.52,2.33-3.69,3.4-.49-.3-.92-.42-1.13-.71-9.44-12.84-20.92-23.62-33.59-33.17-1.93-1.45-2.72-2.68-1.47-5.08,1.36-.2,2.86-.42,4.69-.69,10.05,13.37,20.94,26.08,35.19,36.25Z" fill="#fff" stroke-width="0"/><path d="m107.15,850.44c5.22,2.39,6.47,8.18,3.4,15.09-2.44-4.86-4.1-9.47-3.4-15.09Z" fill="#fff" stroke-width="0"/><path d="m94.95,882.01c-5.49,4.94-10.04,4.48-11.91-.95,3.95-.78,7.61-.05,11.91.95Z" fill="#fff" stroke-width="0"/><path d="m88.59,857.31c3.13,1.87,3.75,4.41,4.54,6.86-2.42-1.28-4.11-3.08-4.54-6.86Z" fill="#fff" stroke-width="0"/><path d="m864.61,874.19c.17-11.04,1.5-21.36,5.04-31.31,1.53-4.28,3.48-8.34,6.6-11.73,5.99-6.5,12.84-7.21,19.99-2.04,4.91,3.55,8.42,8.32,11.33,13.54,6.34,11.36,10,23.63,11.75,36.46,1.9,13.97,1.86,27.95-2.11,41.57-1.76,6.03-4.43,11.85-7.2,17.52-2.36,4.82-11.12,7.42-16.6,5.01-3.02-1.33-5.9-3.36-8.33-5.63-5.13-4.79-8.54-10.85-11.23-17.28-6.22-14.92-9-30.53-9.25-46.11Zm19.67-35.47c-.36-.07-.72-.15-1.07-.22-2.09,4.75-4.22,9.47-6.25,14.24-5.28,12.42-6.84,25.29-4.3,38.58,2.91,15.25,11.09,27.62,21.43,38.79.29.31.74.46,1.11.69.11-.14.22-.29.33-.43-1.63-2.87-3.27-5.73-5.02-8.81,3.18.2,4.13,3.77,7.43,3.62-.87-1.82-1.57-3.27-2.38-4.94,1.74.15,3.13.27,5.17.45-1.57-2.34-2.7-4.03-3.96-5.91,1.67.09,2.97.16,4.76.25-1.32-2.21-2.35-3.95-3.64-6.11h4.09c-2.53-3.59-2.51-7.05-1.83-10.8,1.23-6.76.72-13.58-1.05-20.18-.88-3.29-.73-6.39-.26-9.61.25-1.67.49-3.36.54-5.04.02-.71-.45-1.43-.69-2.15-.36-.23-.73-.46-1.09-.68-.72,1.13-1.45,2.27-2.28,3.56-.5-3.67,2.46-6.72,1.17-11.16-1.79,1.95-3.13,3.42-4.47,4.88-.17-.05-.35-.09-.52-.14.81-2.94,1.62-5.89,2.42-8.83-.33-.16-.65-.32-.98-.48-2.02,2.31-4.04,4.62-6.06,6.92.94-3.82,2.39-7.47,2.95-12.34-4.48,3.99-6.32,8.52-8.85,13.1.61-6.16,3.8-11.37,3.28-17.23Z" fill="#fff" stroke-width="0"/><path d="m837.03,916.18c-7.32-.16-14.35-.29-21.38-.52-.92-.03-2.02-.36-2.68-.95-1.98-1.78-4.13-3.53-5.58-5.71-4.92-7.42-5.88-21.47,1.09-30.38,1.55-1.98,3.28-3.29,5.86-3.72,4.45-.74,8.84-1.83,13.27-2.7,1.48-.29,3.01-.35,4.94-.56-2.45,15.4-1.53,30.08,4.47,44.54Zm-6.49-16.22c-1.18-.77-1.58-1.23-2.04-1.29-6.59-.92-13.18-.82-19.74.29-1.22.21-2.12.97-1.83,2.35.33,1.59,1.66,1.78,2.98,1.67,5.61-.47,11.22-.93,16.81-1.53,1.09-.12,2.13-.81,3.82-1.49Zm-22.25-14.4c4.62,1.06,17.03-1.64,20.52-4.27-8.75-.18-17.16,1.47-20.52,4.27Zm19.4-9.26c-6.18,1.04-12.68.55-18.76,4.11,3.77,1.82,13.81-.47,18.76-4.11Zm-18.1,30.64c3.5,1.17,11.72-.11,16.36-2.92-5.41.26-9.98.44-14.56.71-1.25.08-2.16.7-1.81,2.21Zm15.81,2.74c-5.61-1.23-10.64-.87-12.94.92,4.55.81,10.19.41,12.94-.92Z" fill="#fff" stroke-width="0"/><path d="m851.71,858.07c.72-1.59,1.44-3.17,2.16-4.76-3.3,18.62-1.7,36.87,3.21,54.96-.28.1-.56.19-.84.29-.6-1.37-1.17-2.75-1.81-4.1-.62-1.31-1.31-2.58-1.97-3.86-.37.08-.74.16-1.12.25-.1,1.72-.21,3.44-.35,5.9-1.06-1.95-1.86-3.4-2.9-5.32-1.04,1.93-.39,3.46-.04,4.96.35,1.47.78,2.92,1.18,4.38-.29.09-.58.19-.87.28-1.4-3.79-2.8-7.58-4.2-11.37-.36.11-.72.21-1.08.32.68,4.07,1.36,8.15,2.04,12.22-.23.06-.47.12-.7.18-1.27-4.16-2.53-8.31-3.8-12.47l-.47.08c-.11,1.58-.21,3.16-.32,4.74-3.2-11.74-4.94-23.49-1-35.37.54-1.63.55-3.43,2.82-4.14.85-.26,1.26-2.07,1.8-3.2.64-1.34,1.19-2.71,2.17-4.94q0,6.07,1.19,6.48c1.3-3.6,2.6-7.19,3.91-10.78.28.07.56.15.84.22-.22,1.65-.45,3.3-.67,4.94.27.04.54.09.81.13Z" fill="#fff" stroke-width="0"/><path d="m887.08,945.92c-1.5-.89-2.71-1.51-3.81-2.28-4.82-3.36-8.66-7.67-11.86-12.56-7.8-11.93-12.25-25.08-14.01-39.15-1.82-14.59-1.25-29.06,2.93-43.25,1.93-6.55,4.71-12.68,9.61-18.28,0,.8.12,1.17-.02,1.38-5.89,9.32-8.49,19.69-9.35,30.5-1.39,17.36.15,34.44,5.79,51.02,2.42,7.12,5.4,14.03,9.85,20.1,3.14,4.28,6.97,8.07,10.87,12.52Z" fill="#fff" stroke-width="0"/><path d="m909.48,943.79c1.13-1.53,1.81-3.53,4.56-4.72-.94,3.09-3.19,3.44-4.56,4.72Z" fill="#fff" stroke-width="0"/><path d="m874.97,881.19c.81-4.4,1.56-8.81,2.45-13.2.25-1.22.78-2.43,1.39-3.52,2.28-4.03,5.47-4.5,8.39-.87,1.91,2.37,3.51,5.17,4.54,8.03,3.34,9.33,4.32,18.99,2.42,28.74-.58,2.96-1.96,5.88-3.47,8.52-1.42,2.49-3.49,2.77-5.7.93-1.58-1.31-3.24-2.99-3.91-4.85-2.77-7.65-6.42-15.15-6.11-23.79Zm5.62,7.46c-1.21,8.94,1.56,14.86,6.48,15.58-2.02-4.86-4.07-9.78-6.48-15.58Z" fill="#fff" stroke-width="0"/><path d="m925.05,908c.12,0,.24,0,.36,0,0,0,1.59-7,0-15.03-.12-.05-.24-.09-.36-.14-.14,6.98,0,10.11,0,15.16Z" fill="#fff" stroke-width="0"/><path d="m766.89,852.82c.06-.06.12-.12.19-.17-.06.06-.12.12-.19.17Z" fill="#fff" stroke-width="0"/><path d="m896.34,799.13c-7.97-1.53-15.16,0-20.57,6.67-.66.82-1.71,1.67-.37,2.88.37-.14.82-.2,1.14-.44,4.05-2.93,8.53-4.28,13.53-3.58,2.92.41,5.89.72,8.73,1.47,3.77.99,7.43,2.37,11.42,3.67.77-2.26-.48-3.32-1.62-4.3-3.58-3.09-7.64-5.48-12.26-6.37Z" stroke-width="0"/><path d="m933.64,958.35c4.76-6.53,8.09-13.69,5.18-22.22-2.01,6.64-4.28,13.26-8.74,18.48-4.4,5.15-9.78,9.46-14.73,14.14.17.27.34.54.51.82,7.87-.38,13.37-5.18,17.79-11.22Z" stroke-width="0"/><path d="m957.29,940.01c-.29,1.08-.6,2.18-.72,3.29-.81,7.59-3.88,14.32-7.47,20.95-3.4,6.28-8.17,11.06-14.27,14.63-2.43,1.42-4.88,2.84-7.21,4.41-1.2.81-2.17,1.95-3.24,2.94.22.25.45.5.67.75,15-1.45,24.36-10.57,31-23.36,3.85-7.41,4.81-20.17,1.86-24.09-.21.15-.57.27-.62.47Z" stroke-width="0"/><path d="m925.24,798.81c1.95-1.57,1.26-2.78.85-3.94-2.68-7.54-7.92-13.06-14.7-16.82-10.33-5.74-20.66-4.31-30.52,1.59-1.53.91-2.82,2.34-3.95,3.75-.93,1.15-1.69,2.6-.39,4.69,5.2-3.72,11-5.81,17.27-5.85,6.24-.04,12.22,1.23,18,3.96,5.88,2.78,8.96,8.35,13.45,12.63Z" stroke-width="0"/><path d="m934.6,848.42c3.83,4.86,6.39,10.06,8.79,15.43,2.61,5.82,1.29,11.73,1.72,17.67,5.43-4.42,6.92-14.79,3.7-21.86-2.91-6.39-9.39-11.8-14.21-11.24Z" stroke-width="0"/><path d="m961.09,827.78c.29-.32.22-.98.43-2.03-6.09,2.29-14.4,8.74-17.45,13.24-1.19,1.76-1.97,3.6-1.68,6.38,1.78-.91,3.54-1.35,4.62-2.45,4.81-4.94,9.44-10.05,14.08-15.14Z" stroke-width="0"/><path d="m950.19,883.1c5.91,4.99,20.65,7.76,25.13,5.38-2.79-2.66-13.39-6.11-20.09-6.37-1.37-.05-2.77.52-5.03.99Z" stroke-width="0"/><path d="m884.28,838.71c.53,5.86-2.66,11.07-3.28,17.23,2.53-4.58,4.37-9.11,8.85-13.1-.56,4.88-2.01,8.52-2.95,12.34,2.02-2.31,4.04-4.62,6.06-6.92.33.16.65.32.98.48-.81,2.94-1.62,5.89-2.42,8.83.17.05.35.09.52.14,1.34-1.46,2.68-2.92,4.47-4.88,1.29,4.43-1.67,7.49-1.17,11.16.83-1.29,1.55-2.43,2.28-3.56.36.23.73.46,1.09.68.25.72.72,1.44.69,2.15-.05,1.68-.3,3.37-.54,5.04-.48,3.22-.62,6.33.26,9.61,1.77,6.6,2.28,13.42,1.05,20.18-.68,3.75-.7,7.21,1.83,10.8h-4.09c1.28,2.16,2.32,3.9,3.64,6.11-1.79-.09-3.09-.16-4.76-.25,1.26,1.88,2.39,3.57,3.96,5.91-2.04-.18-3.43-.3-5.17-.45.8,1.67,1.5,3.13,2.38,4.94-3.3.14-4.25-3.42-7.43-3.62,1.76,3.08,3.39,5.95,5.02,8.81-.11.14-.22.29-.33.43-.37-.23-.83-.38-1.11-.69-10.33-11.17-18.51-23.54-21.43-38.79-2.54-13.29-.98-26.15,4.3-38.58,2.03-4.77,4.16-9.49,6.25-14.24.36.07.72.15,1.07.22Zm-9.31,42.48c-.31,8.64,3.34,16.14,6.11,23.79.67,1.86,2.34,3.53,3.91,4.85,2.2,1.83,4.28,1.55,5.7-.93,1.51-2.65,2.89-5.56,3.47-8.52,1.9-9.76.92-19.42-2.42-28.74-1.02-2.86-2.63-5.66-4.54-8.03-2.93-3.62-6.11-3.15-8.39.87-.62,1.09-1.15,2.3-1.39,3.52-.89,4.38-1.64,8.8-2.45,13.2Z" stroke-width="0"/><path d="m830.54,899.97c-1.7.68-2.73,1.37-3.82,1.49-5.6.6-11.21,1.06-16.81,1.53-1.32.11-2.64-.09-2.98-1.67-.29-1.39.61-2.15,1.83-2.35,6.56-1.11,13.15-1.21,19.74-.29.46.06.86.53,2.04,1.29Z" stroke-width="0"/><path d="m808.29,885.57c3.37-2.79,11.77-4.45,20.52-4.27-3.49,2.62-15.9,5.33-20.52,4.27Z" stroke-width="0"/><path d="m827.69,876.32c-4.95,3.64-14.99,5.93-18.76,4.11,6.08-3.56,12.58-3.07,18.76-4.11Z" stroke-width="0"/><path d="m809.59,906.96c-.35-1.51.55-2.13,1.81-2.21,4.57-.28,9.15-.46,14.56-.71-4.64,2.81-12.86,4.1-16.36,2.92Z" stroke-width="0"/><path d="m825.4,909.69c-2.75,1.33-8.38,1.73-12.94.92,2.29-1.79,7.33-2.14,12.94-.92Z" stroke-width="0"/><path d="m880.59,888.65c2.41,5.8,4.46,10.72,6.48,15.58-4.92-.71-7.69-6.64-6.48-15.58Z" stroke-width="0"/><path d="m743,868.97c.39,4.58.78,8.79,1.1,13.01.76,10.17,5.19,18.69,11.85,26.16,2.86,3.22,6.46,5.49,10.57,6.83,7.61,2.48,15.21,2.74,22.87.09,4.64-1.61,9.3-3.27,14.45-3.18,2.65,4.26,6.57,7.02,11.25,7.68,6.55.94,13.23,1.27,19.86,1.25,3.58-.01,6.26.59,8.23,3.71.66,1.04,1.73,1.88,2.75,2.62,6.26,4.55,11.98,9.85,19.07,13.28,5.72,2.76,11.18,6.04,16.74,9.13,4.43,2.46,9.23,3.49,14.21,3.75,6.1.31,11.46-1.72,15.86-5.87,2.65-2.5,5.04-5.31,7.27-8.19,4.22-5.46,6.55-11.87,8.27-18.45,4.36-16.68,4.73-33.51,1.3-50.41-2.35-11.59-6.34-22.57-12.53-32.69-3.72-6.09-8.11-11.69-14.24-15.47-10.81-6.68-21.42-6.95-31.12.77-7.64,6.08-14.9,12.58-21.19,20.07-5.25,6.26-11.07,12.18-13.81,20.16-.56,1.63-1.71,1.96-3.21,2.22-3.75.66-7.5,1.38-11.2,2.28-2.46.6-4.83,1.56-7.25,2.34-8.37,2.69-12.3,9.04-13.91,17.16-.65,3.28-.88,6.65-1.37,10.59-7.41,1.19-14.87,2.91-22.43,3.47-11.43.84-20.25-5.63-22.63-16.3-1.44-6.45-2.01-13.09-2.97-19.62.52-.43.82-.74,1.17-.96,0,0-4.96,2.61-12.16,5.35,0,0,0,0,0,0,0,0,0,0,0,0,1.01-.3,2.05-.5,3.2-.77Zm166.48,74.82c1.13-1.53,1.8-3.53,4.56-4.72-.94,3.09-3.19,3.44-4.56,4.72Zm15.93-35.79c-.12,0-.24,0-.36,0,0-5.05-.14-8.18,0-15.16.12.05.24.09.36.14,1.59,8.03,0,15.03,0,15.03Zm-49.15-76.85c5.99-6.5,12.84-7.21,19.99-2.04,4.91,3.55,8.42,8.32,11.33,13.54,6.34,11.36,10,23.63,11.75,36.46,1.9,13.97,1.86,27.95-2.11,41.57-1.76,6.03-4.43,11.85-7.2,17.52-2.36,4.82-11.12,7.42-16.6,5.01-3.03-1.33-5.9-3.36-8.33-5.63-5.13-4.79-8.54-10.85-11.23-17.28-6.22-14.92-9-30.53-9.25-46.11.17-11.04,1.5-21.36,5.04-31.31,1.53-4.28,3.48-8.34,6.6-11.73Zm-15.93,17.53c1.93-6.55,4.71-12.68,9.61-18.28,0,.8.12,1.17-.02,1.38-5.89,9.32-8.49,19.69-9.35,30.5-1.39,17.36.15,34.44,5.79,51.02,2.42,7.12,5.4,14.03,9.85,20.1,3.15,4.28,6.97,8.07,10.87,12.52-1.5-.89-2.71-1.51-3.81-2.28-4.82-3.36-8.66-7.67-11.86-12.56-7.8-11.93-12.25-25.08-14.01-39.15-1.82-14.59-1.25-29.06,2.93-43.25Zm-21.49,20.67c.54-1.63.55-3.43,2.82-4.14.85-.26,1.26-2.07,1.8-3.2.64-1.34,1.19-2.71,2.17-4.94q0,6.07,1.19,6.48c1.3-3.6,2.6-7.19,3.91-10.78.28.07.56.15.84.22-.22,1.65-.45,3.3-.67,4.94.27.04.54.09.81.13l2.16-4.76c-3.3,18.62-1.7,36.87,3.21,54.96-.28.1-.56.19-.84.29-.6-1.37-1.17-2.75-1.81-4.1-.62-1.31-1.31-2.58-1.97-3.86-.37.08-.74.16-1.12.25-.1,1.72-.21,3.44-.35,5.9-1.06-1.95-1.86-3.4-2.9-5.32-1.04,1.93-.39,3.46-.04,4.96.35,1.47.78,2.92,1.18,4.38-.29.09-.58.19-.86.28-1.4-3.79-2.8-7.58-4.2-11.37-.36.11-.72.21-1.08.32.68,4.07,1.36,8.15,2.04,12.22-.23.06-.47.12-.7.18-1.27-4.16-2.53-8.31-3.8-12.47l-.47.08c-.11,1.58-.21,3.16-.32,4.74-3.2-11.74-4.94-23.49-1-35.37Zm-30.36,9.27c1.55-1.98,3.28-3.29,5.86-3.72,4.45-.74,8.84-1.83,13.27-2.7,1.48-.29,3.01-.35,4.94-.56-2.45,15.4-1.53,30.08,4.47,44.54-7.32-.16-14.35-.29-21.38-.52-.92-.03-2.02-.36-2.68-.95-1.98-1.78-4.13-3.53-5.58-5.71-4.92-7.42-5.88-21.47,1.09-30.38Z" stroke-width="0"/><path d="m900.53,582.62c7.16-19.48,11.22-39.63,13.34-60.24,2.45-23.83-1.93-46.71-9.16-69.23-.6-1.86-1.33-3.68-2-5.52-3.45-7.81-6.69-15.69-6.79-24.43,0-.18.03-.36.07-.56.89-6.85-.97-10.75,0-14.64,1-4-.65-11.07-.65-11.07,0,0,0,0,0,0-.18-.68-.35-1.36-.49-2.05-2.73-13.4-8.05-25.57-17.12-35.93-2.32-2.66-2.93-5.61-2.42-9.05,2.08-14.12,4.3-28.17,2.99-42.59-1.28-14.17-3.46-28.03-9.32-41.11-4.97-11.38-5.43-14.24-9.71-20.21-2.41-3.77-5.32-7.26-5.33-12.2-.02-7.51-1.08-14.94-3-22.21-2.91-10.98-6.4-21.67-13.57-30.81-6.03-7.69-12.35-14.99-19.79-21.45-10.41-9.04-22.65-13.54-35.75-16.49-2-.45-4.17-1.21-5.67-2.51-2.2-1.91-3.88-4.42-5.75-6.69-3.58-4.35-6.58-9.36-10.79-12.98-19.06-16.4-41.41-21.74-66.04-18.14-4.31.63-8.11.04-11.68-2.35-1.06-.71-2.16-1.36-3.16-2.14-8.56-6.7-18.53-9.48-29.14-10.26-4.33-.32-8.7-.05-13.2-.05,0,0-5.41.31-11.27,3.24,0,0,0,0,0,0-3.27,1.8-6.49,3.51-9.64,5.33-10.55,6.06-18.9,14.48-24.64,25.1-3.61,6.68-9.29,9.12-15.93,10.52-5.94,1.25-11.93,2.27-17.91,3.31-13.13,2.27-24.47,8.4-35.08,16.15-4.22,3.08-8.57,5.98-12.85,8.98-1.73,1.21-3.55,1.59-5.61.97-3.11-.93-6.28-1.65-9.37-2.63-11.84-3.72-24.03-5.07-36.36-5.3-5.63-.11-10.03-2.59-12.81-7.01-7.07-11.26-16.97-19.54-27.26-27.56-12.87-10.03-27.81-14.75-43.57-17.54-1.66-.29-3.33-.54-5.44-.88,0,0-7.68-.36-20.06,1.31-8.03,1.22-15.83,3.57-22.04,9.11-3.08,2.74-6.04,3.16-9.7,1.98-3.09-1-6.19-2.18-9.37-2.61-8.41-1.11-16.83-1.85-25.31-.21-10.19,1.97-20.14,4.49-29.07,10.05-18.36,11.42-30.44,27.91-38.34,47.72-1.93,4.85-4.64,8.88-9.03,11.95-6.7,4.68-14,8.57-19.76,14.57-.08.08-.17.15-.26.22-1.79,1.5-12.4,10.63-19.31,22.03-9.96,13.81-16.86,28.84-22.56,44.38-7.84,21.34-11.01,43.5-9.86,66.21.36,7.12-1.98,12.73-6.93,17.84-12.8,13.22-22.33,28.41-26.43,46.62-.49,2.18-.97,4.36-1.53,6.9-.26,11.16-.13,20.58,1.87,28.58,2,8,2.89,18-.05,24,0,0,0,0,0,.01,0,0,0,0,0,0-2.94,5.99-3.38,7-3.38,7-.21.86-.3,1.77-.66,2.56-6.01,13.12-8.45,27.22-10.92,41.26-.82,4.66-.36,9.59-.08,14.37.41,7.19.89,14.4,1.86,21.53,1.16,8.6,4.74,16.52,7.69,24.61,1.11,3.03,2.16,6.15,2.69,9.32.34,1.99.1,4.31-.62,6.2-5.23,13.67-8.57,27.8-10.33,42.27-.59,4.86-.11,9.86-.08,14.8,2.88,24.08,6.88,33.08,14.54,51.44,2.94,5.58,5.95,10.99,8.67,16.53,1.99,4.04,2.45,8.3,1.1,12.77-1.22,4.05-2.14,8.2-3.05,12.34-1.72,7.9-2.81,15.96-2.01,23.99,2.17,21.74,9.33,41.61,23.84,58.31,5.29,6.1,11.28,11.64,18.82,14.86,8.58,3.66,17.39,6.74,26.81,7.62,1.37.13,2.71.6,3.99.9.41,1.2.72,2.14,1.06,3.07,2.48,6.77,4.92,13.56,8.99,19.6,7.58,11.24,16.58,21.15,27.82,28.82,8.37,5.72,17.44,9.59,27.43,10.72,1.89.16,3.42.27,4.46.32.18,0,.36.02.55.02,0,0,0,0,0,0,8.14.24,11.86-.24,19.46-2.53,9.09-2.88,17.72-6.68,25.01-13.03.42-.37.89-.7,1.37-.99,3.13-1.96,5.58-1.54,8.4.81,13.08,10.87,26.93,20.01,44.69,21.29,4.71.34,9.33.33,13.92-.31,9.63-1.34,19.37-2.42,28.22-6.96,4.65-2.38,9.14-5.11,13.93-7.17,6.38-2.75,11.75-6.77,16.42-11.76,3.77-4.02,7.58-8.05,10.85-12.47,3.24-4.39,7.19-6.36,12.58-6.42,8.54-.09,16.97-1.37,24.85-4.72,9.53-4.06,18.3-9.51,26.31-16.11,3.8-3.14,8.51-3.23,12.24-.14,16.4,13.56,34.67,23.23,55.8,27.1,5.96,1.09,11.23,3.53,14.65,9.07,2.25,3.65,5.47,6.47,9.1,8.76,4.06,2.55,8.14,5.08,12.27,7.5h0c.47.28.91.54,1.28.84,2.28,1.43,7.26,4.21,12.19,4.75,7.98.32,15.6,1.14,23.17.83,14.12-.59,27.68-3.77,40.13-10.81,5.29-2.99,10.54-6.06,15.87-8.97,5.25-2.87,10.9-3.92,16.81-2.84,10.25,1.87,20.26.78,30.14-2.19,0,0,0,0,0,0,7.2-2.75,12.16-5.35,12.16-5.35h0c14.81-9.15,25.78-21.86,34.16-36.93,1.92-3.44,3.28-7.19,4.97-10.77,2.35-4.97,5.57-9.37,10.64-11.63,4.75-2.12,9.77-3.82,14.84-4.96,7.1-1.59,13.14-5.06,18.95-9.12,13.94-9.72,24.47-22.55,33.26-36.91,2.97-4.85,4.96-10.12,6.21-15.7,2.61-11.66,4.13-23.3,2.08-35.3-.79-4.62,1.87-8.54,4.85-11.06,15.09-12.03,20.09-40.03,20.09-57.03s-4.15-30.52-4.15-30.52h0c-2.07-3.1-3.4-5.88-2.17-9.22,1.56-4.24,3.29-8.41,4.85-12.64Zm-37.52,6.48c1.26.11,2.54-.02,3.81-.08,7.24-.39,12.23,3.04,15.14,9.4,6.47,14.15,9.4,28.88,7.53,44.53-1.1,9.22-3.06,18.09-7.18,26.42-1.09,2.2-1.73,5.02-5.15,4.34-.09,4.98-2.53,7.61-6.53,9.48-1.07-1.49-1.85-2.84-2.88-3.96-3.05-3.32-6.16-6.58-9.33-9.77-.99-1-2.34-1.95-3.76-.8-1.66,1.34-.52,2.76.17,4.15,1.82,3.66,3.62,7.32,5.37,11.01,3.81,8.05,4.03,16.64,3.68,25.29-.85,20.98-9.35,38.81-22.87,54.43-7.32,8.46-16.35,14.76-26.88,18.69-5.25,1.96-10.65,3.51-16.4,5.38.99-7.48,2.56-14.28,5.39-20.78,1.24-2.85,2.31-5.77,3.35-8.69.65-1.83,1.03-3.73,0-6.35-1.75,1.54-3.37,2.64-4.58,4.08-9.21,10.91-16.75,22.73-19.83,36.96-.95,4.42-2.2,8.77-3.34,13.14-2.57,9.86-7.15,18.76-13.44,26.7-2.32,2.93-5.29,5.62-8.5,7.51-6.32,3.71-12.86,7.15-19.6,10-3.95,1.67-8.44,2.45-12.75,2.81-5.61.46-11.3.27-16.95.02-3.79-.17-6.93-2.2-9.77-4.66-1.45-1.26-1.72-2.8-1.49-4.6.59-4.62,1.19-9.24,1.67-13.88.16-1.56-.03-3.16-.07-5.12-1.16.4-1.87.42-2.13.77-3.27,4.4-7.15,8.34-9.28,13.58-2.27,5.6-2.22,10.99.36,16.41.3.63.55,1.3.96,2.27-2.43,2.93-4.6,6.3-7.47,8.91-12.02,10.91-26.07,17.23-42.48,17.76-.14,0-.28-.01-.42,0-13.78,1.73-25.6-3.39-36.49-10.96-12.48-8.68-19.94-20.61-21.24-35.99-.58-6.87-.88-13.76-1.36-20.64-.07-1.08-.4-2.13-.62-3.22-7.79,2.14-14.44,15.61-14.94,30.08-5.8,1.3-11.74,1.64-17.38-.49-5.12-1.93-10.23-4.21-14.79-7.18-7.13-4.64-12.95-10.88-18.69-17.72.87-1.7,1.76-3.42,2.62-5.16,4.65-9.35,3.74-18.9.94-28.49-.26-.91-.85-1.72-1.28-2.58-.41.26-.81.51-1.22.77-.19.87-.48,1.73-.55,2.61-.29,3.24-.39,6.49-.79,9.72-.24,1.94-.56,3.98-1.4,5.71-3.66,7.53-7.84,14.74-14.38,20.24-8.29,6.97-17.1,13.21-27.94,15.35-12.97,2.55-26.03,3.67-39.08.03-4.65-1.3-9.17-2.79-13.13-5.66-.8-.58-1.68-1.05-2.54-1.52-5.93-3.26-11.83-6.58-17.82-9.72-1.41-.74-3.16-1.14-4.75-1.15-1.78-.01-2.57,1.49-1.8,3,2.31,4.5,4.35,9.28,7.42,13.21,4.14,5.3,9.16,9.91,14.03,15.07-3,4.78-6.23,10.07-9.6,15.25-7.59,11.66-18.64,18.1-31.92,21.37-8.56,2.11-17.08,2.08-25.64.51-7.92-1.45-15.25-4.55-21.38-9.75-6.56-5.57-12.92-11.42-18.92-17.58-5.58-5.73-9.1-12.9-11.98-20.33-1.42-3.67-2.62-4.86-4.7-4.3-2.41.65-3.25,3.05-1.89,6.79,2.85,7.82,5.91,15.56,8.89,23.33.25.65.54,1.28.92,2.19-1.02.77-1.96,1.6-3.01,2.25-9.95,6.15-20.35,11.09-32.27,11.9-4.71.32-9.3-.2-13.79-1.71-10.4-3.5-19.44-9.02-26.6-17.45-11.55-13.6-20.01-28.65-22.77-46.61-1.47-9.6-1.13-19.15-.56-28.75.16-2.76-.17-5.63-.81-8.33-.61-2.63-2.32-3.04-4.38-1.22-1.46,1.29-2.98,2.77-3.81,4.48-4.49,9.31-8.42,18.81-8.52,29.41-.03,3.88-.14,7.76-.22,11.89-9.15-.83-17.47-3.92-24.99-9.2-5.73-4.03-10.54-8.99-14.42-14.81-9.79-14.69-15.37-30.88-15.96-48.51-.43-12.92,2.02-25.59,4.91-38.17,1.65-7.15,3.32-14.33,4.37-21.58.7-4.85.33-9.86.44-14.79,0-.14-.02-.28-.04-.42-.32-1.52-.51-3.4-2.37-3.58-2.13-.21-2.59,1.74-3.18,3.35-2.16,5.89-4.36,11.76-6.89,18.59-11.19-17.05-17.81-34.52-18.48-53.86-.65-18.86,1.24-37.4,9.77-54.73,3.6,2.77,6.71,5.44,10.1,7.7,2.33,1.55,4.99,2.62,7.59,3.71,1.33.56,2.83.61,3.71-.98.89-1.59.04-2.78-1.15-3.65-9.03-6.64-14.86-15.82-19.94-25.49-4.81-9.17-7.79-18.93-9.68-29.19-3.29-17.83-.61-35.13,2.83-52.53,3.72-18.78,11.8-35.57,22.31-51.35,3.28-4.93,6.72-9.75,10.05-14.65,1.03-1.52,2.05-3.09,1.07-5.31-3,.02-5.31,1.56-7.33,3.51-4.26,4.12-8.46,8.31-12.61,12.55-.77.79-1.2,1.91-1.79,2.88l-1-.71c-.21-.78-.54-1.56-.6-2.35-.86-11-1.36-22,.02-33.01,1.33-10.61,5.24-20.16,11.06-29.05,7.37-11.25,15.24-22.12,24.38-32.01,6.27-6.78,11.27-14.5,16.25-22.21,2.96-4.58,4.27-9.82,5.55-15.04.19-.79.18-1.73-.05-2.5-.56-1.85-2.7-2.34-4.03-.9-.65.7-1.05,1.66-1.47,2.55-4.47,9.5-10.25,18.12-17.25,25.94-.17.19-.47.27-1.28.71-.4-3.03-.99-5.85-1.11-8.69-.33-8.09.27-16.09,2.53-23.93,4.45-15.48,8.42-31.15,15.45-45.72,9.7-20.09,22.21-38.07,40.4-51.56,1.79-1.33,3.71-2.5,5.75-3.86,1.54,2.69,1,5.25.9,7.69-.12,2.95-.4,5.92-.87,8.83-.6,3.74-1.36,7.47-2.23,11.16-.52,2.21-1.17,4.35.06,6.9,2.29-.63,3.17-2.42,4.33-4.17,5.99-9.03,7.22-19.5,9.14-29.75,1.69-9.03,3.07-18.2,6.85-26.62,9.46-21.09,24.2-36.31,47.72-41.21,8.44-1.76,16.94-1.39,25.29.21,4.21.81,8.18,3,12.16,4.79,2.11.95,2.99,2.56,2.33,5.18-1.2,4.79-1.88,9.72-5.69,13.38-.29.28-.47.71-.61,1.1-.09.24-.02.55-.02,1.22,2.04.77,3.45-.23,4.75-1.28,4.05-3.28,6.89-7.42,8.53-12.39.75-2.27,1.5-4.55,2.36-6.79,2.33-6.11,7.41-9.5,12.89-12.18,8.63-4.22,17.82-5.89,27.49-5.92,15.81-.03,28.97,6.71,41.38,15.42,4.72,3.31,9.25,7.05,13.24,11.2,4.58,4.76,8.49,10.18,12.65,15.34.4.5.53,1.23.89,2.1-5.35,1.08-10.43,2.04-15.48,3.13-7.77,1.68-15.29,4.09-22.02,8.47-1.68,1.09-3.58,2.24-3.31,5.29,2.3-.66,4.25-1.34,6.25-1.77,6.9-1.51,13.77-3.17,20.73-4.33,15.96-2.66,31.97-3.62,48.12-1.4,14.71,2.02,28.6,6.46,42.01,12.72,9.7,4.52,19.54,8.74,29.74,13.28,0-1.22.24-2.05-.04-2.66-2.36-5.26-5.81-9.65-10.63-12.92-1.97-1.34-3.9-2.75-5.88-4.15.27-4.09,2.18-7.13,4.83-9.79,3.73-3.74,8-6.74,12.8-8.94,22.82-10.47,46.34-12.89,70.61-5.88,4.19,1.21,8.29,2.71,12.45,4.04.62.2,1.3.21,2.74.42-8.74-8.06-17.71-14.19-28.46-17.06-.64-4.11.25-7.43,2.23-10.5,6.42-9.93,14.81-17.43,26.34-20.84,4.59-1.36,9.3-2.48,14.03-3.23,10.43-1.66,20.36.35,29.4,5.66,7.02,4.12,12.43,14.63,8.86,23.04-1.1,2.59-2.22,5.17-3.27,7.79-.4,1-.63,2.07-1.01,3.34,3.67.7,6.73-.26,8.5-2.9,1.84-2.74,3.09-6,3.98-9.2.74-2.67.71-5.59.77-8.41.05-2.46,1.37-3.45,3.49-4.09,8.33-2.51,16.71-2.58,25.15-.72,6.9,1.52,13.73,3.24,20.16,6.34,7.97,3.85,14.7,9.07,18.96,16.93,4.63,8.54,7.42,17.71,8.18,27.42.41,5.2.65,10.42.8,15.63.18,6.12-.82,12.11-2.29,18.03-.22.89-.28,1.82-.52,3.49,1.41-.68,2.36-.88,2.94-1.46,7.42-7.29,12.13-15.86,12.51-26.52.17-4.92.61-9.82.93-14.88,8.67.88,16.62,3.47,24.33,7.15,9.47,4.53,16.98,11.06,22.36,20.07,3.11,5.22,6.34,10.37,9.48,15.57.66,1.08,1.26,2.22,1.73,3.4,6.51,16.48,9.29,33.41,6.39,51.08-.59,3.61-.85,7.3-.94,10.96-.15,6.36-.23,12.73,0,19.08.13,3.5.87,6.99,1.56,10.43.3,1.49,1.05,2.92,1.79,4.27.8,1.45,1.68,3.47,3.73,2.7,2.45-.92.58-2.89.49-4.4-.3-5.06-.87-10.12-.91-15.18-.06-8.51,1.2-16.9,2.93-25.22.11-.52.45-.99.97-2.08,1.15,2.15,2.14,3.82,2.96,5.57,2.17,4.6,4.22,9.26,6.42,13.84,7.21,15.07,7.96,30.76,4.19,46.76-1.29,5.48-3.35,10.77-5.11,16.14-.3.9-.85,1.72-1.56,3.13-2.39-2.53-4.69-4.62-6.56-7.05-1.83-2.37-3.21-5.07-4.98-7.95-2.7,2.92-2.23,6-1.28,8.87,1.48,4.44,3.56,8.63,6.98,11.99,3.13,3.07,6.19,6.22,9.44,9.15,13.46,12.13,20.53,27.44,22.48,45.24.29,2.61-.21,5.3-.35,7.96-.12,2.38-.05,4.78-.39,7.12-2.68,18.46-9.44,35.41-19.18,51.23-1.7,2.76-3.65,5.36-5.33,8.13-1.21,1.98-2.16,4.12-3.62,6.94,6.67-1.15,10.81-4.89,14.86-8.38,4.04-3.48,7.8-7.43,10.98-11.7,3.25-4.38,5.64-9.39,8.56-14.39.58.59,1.33,1.16,1.85,1.9,3.71,5.25,6.18,11.14,8.09,17.2,7.71,24.47,8.51,49.27,1.96,74.02-3.83,14.47-10.36,27.76-21.44,38.39-1.75,1.68-3.39,2.67-5.88,2.59-4-.12-7.85.81-11.44,2.66-.63.32-1.43.52-1.82,1.02-.45.58-.78,1.48-.69,2.17.06.4,1.05.88,1.66.94Z" stroke-width="0"/><path d="m863.86,584.97c3.59-1.86,7.43-2.78,11.44-2.66,2.49.07,4.13-.91,5.88-2.59,11.07-10.63,17.61-23.92,21.44-38.39,6.55-24.76,5.75-49.55-1.96-74.02-1.91-6.07-4.38-11.95-8.09-17.2-.52-.74-1.27-1.31-1.85-1.9-2.92,5-5.31,10.01-8.56,14.39-3.17,4.27-6.94,8.22-10.98,11.7-4.05,3.48-8.19,7.22-14.86,8.38,1.46-2.82,2.41-4.95,3.62-6.94,1.68-2.77,3.64-5.37,5.33-8.13,9.73-15.82,16.5-32.77,19.18-51.23.34-2.34.27-4.75.39-7.12.13-2.65.63-5.35.35-7.96-1.95-17.81-9.03-33.11-22.48-45.24-3.25-2.93-6.31-6.08-9.44-9.15-3.42-3.35-5.5-7.54-6.98-11.99-.95-2.87-1.42-5.95,1.28-8.87,1.77,2.88,3.16,5.58,4.98,7.95,1.87,2.43,4.17,4.52,6.56,7.05.72-1.42,1.27-2.23,1.56-3.13,1.76-5.36,3.82-10.66,5.11-16.14,3.78-16,3.02-31.69-4.19-46.76-2.19-4.59-4.25-9.25-6.42-13.84-.82-1.74-1.81-3.41-2.96-5.57-.52,1.09-.86,1.56-.97,2.08-1.73,8.32-2.99,16.71-2.93,25.22.03,5.06.61,10.12.91,15.18.09,1.51,1.96,3.48-.49,4.4-2.05.77-2.93-1.25-3.73-2.7-.74-1.35-1.49-2.78-1.79-4.27-.69-3.45-1.43-6.94-1.56-10.43-.24-6.35-.16-12.72,0-19.08.09-3.66.35-7.35.94-10.96,2.89-17.67.12-34.61-6.39-51.08-.47-1.18-1.07-2.31-1.73-3.4-3.14-5.2-6.37-10.35-9.48-15.57-5.38-9.02-12.89-15.55-22.36-20.07-7.71-3.68-15.66-6.28-24.33-7.15-.32,5.05-.76,9.96-.93,14.88-.38,10.65-5.09,19.22-12.51,26.52-.58.58-1.53.78-2.94,1.46.24-1.66.29-2.59.52-3.49,1.48-5.92,2.47-11.91,2.29-18.03-.15-5.21-.39-10.43-.8-15.63-.76-9.71-3.55-18.88-8.18-27.42-4.27-7.86-10.99-13.08-18.96-16.93-6.43-3.11-13.26-4.82-20.16-6.34-8.43-1.86-16.82-1.79-25.15.72-2.12.64-3.44,1.63-3.49,4.09-.06,2.81-.03,5.73-.77,8.41-.89,3.2-2.14,6.47-3.98,9.2-1.77,2.64-4.83,3.6-8.5,2.9.38-1.27.6-2.34,1.01-3.34,1.05-2.61,2.18-5.19,3.27-7.79,3.56-8.41-1.85-18.92-8.86-23.04-9.04-5.31-18.97-7.32-29.4-5.66-4.73.75-9.43,1.87-14.03,3.23-11.52,3.41-19.92,10.91-26.34,20.84-1.98,3.07-2.87,6.39-2.23,10.5,10.74,2.87,19.72,8.99,28.46,17.06-1.44-.21-2.12-.22-2.74-.42-4.15-1.33-8.26-2.83-12.45-4.04-24.27-7.02-47.79-4.6-70.61,5.88-4.79,2.2-9.07,5.2-12.8,8.94-2.65,2.66-4.56,5.7-4.83,9.79,1.98,1.4,3.91,2.82,5.88,4.15,4.82,3.27,8.27,7.66,10.63,12.92.27.61.04,1.44.04,2.66-10.2-4.54-20.04-8.76-29.74-13.28-13.41-6.25-27.3-10.7-42.01-12.72-16.15-2.22-32.16-1.26-48.12,1.4-6.96,1.16-13.83,2.83-20.73,4.33-2,.44-3.95,1.11-6.25,1.77-.28-3.04,1.63-4.2,3.31-5.29,6.73-4.38,14.25-6.79,22.02-8.47,5.05-1.09,10.13-2.05,15.48-3.13-.36-.87-.49-1.6-.89-2.1-4.16-5.16-8.07-10.58-12.65-15.34-3.99-4.15-8.52-7.88-13.24-11.2-12.41-8.71-25.57-15.45-41.38-15.42-9.66.02-18.86,1.69-27.49,5.92-5.47,2.68-10.55,6.07-12.89,12.18-.85,2.24-1.61,4.51-2.36,6.79-1.64,4.97-4.47,9.1-8.53,12.39-1.3,1.05-2.71,2.05-4.75,1.28,0-.67-.07-.97.02-1.22.14-.39.32-.82.61-1.1,3.81-3.66,4.49-8.59,5.69-13.38.65-2.62-.22-4.23-2.33-5.18-3.98-1.78-7.95-3.98-12.16-4.79-8.34-1.6-16.85-1.97-25.29-.21-23.53,4.9-38.26,20.11-47.72,41.21-3.78,8.42-5.16,17.59-6.85,26.62-1.92,10.25-3.15,20.72-9.14,29.75-1.16,1.75-2.04,3.54-4.33,4.17-1.23-2.55-.57-4.68-.06-6.9.86-3.69,1.63-7.41,2.23-11.16.47-2.92.75-5.88.87-8.83.1-2.44.65-5-.9-7.69-2.05,1.37-3.96,2.53-5.75,3.86-18.18,13.48-30.7,31.47-40.4,51.56-7.03,14.57-11,30.24-15.45,45.72-2.25,7.83-2.86,15.84-2.53,23.93.12,2.84.71,5.66,1.11,8.69.8-.44,1.1-.52,1.28-.71,7-7.81,12.78-16.44,17.25-25.94.42-.89.82-1.84,1.47-2.55,1.33-1.44,3.47-.95,4.03.9.23.77.24,1.71.05,2.5-1.27,5.22-2.58,10.46-5.55,15.04-4.99,7.71-9.98,15.43-16.25,22.21-9.15,9.89-17.01,20.76-24.38,32.01-5.82,8.88-9.73,18.43-11.06,29.05-1.38,11.02-.87,22.01-.02,33.01.06.79.4,1.57.6,2.35l1,.71c.59-.97,1.01-2.09,1.79-2.88,4.15-4.23,8.34-8.43,12.61-12.55,2.02-1.96,4.33-3.49,7.33-3.51.98,2.22-.04,3.79-1.07,5.31-3.33,4.89-6.77,9.72-10.05,14.65-10.51,15.77-18.6,32.57-22.31,51.35-3.44,17.4-6.12,34.7-2.83,52.53,1.89,10.27,4.87,20.03,9.68,29.19,5.08,9.67,10.91,18.85,19.94,25.49,1.18.87,2.03,2.05,1.15,3.65-.88,1.58-2.38,1.53-3.71.98-2.59-1.09-5.26-2.16-7.59-3.71-3.39-2.25-6.5-4.92-10.1-7.7-8.53,17.33-10.41,35.86-9.77,54.73.66,19.34,7.29,36.81,18.48,53.86,2.54-6.83,4.73-12.7,6.89-18.59.59-1.61,1.05-3.56,3.18-3.35,1.86.18,2.05,2.06,2.37,3.58.03.14.05.28.04.42-.11,4.94.26,9.94-.44,14.79-1.05,7.25-2.72,14.43-4.37,21.58-2.89,12.57-5.34,25.25-4.91,38.17.59,17.63,6.17,33.82,15.96,48.51,3.88,5.82,8.69,10.78,14.42,14.81,7.52,5.28,15.83,8.38,24.99,9.2.08-4.13.18-8.01.22-11.89.09-10.6,4.02-20.1,8.52-29.41.83-1.72,2.35-3.19,3.81-4.48,2.07-1.82,3.77-1.41,4.38,1.22.63,2.7.97,5.57.81,8.33-.57,9.61-.91,19.15.56,28.75,2.75,17.95,11.22,33.01,22.77,46.61,7.16,8.43,16.21,13.96,26.6,17.45,4.49,1.51,9.09,2.03,13.79,1.71,11.92-.82,22.32-5.75,32.27-11.9,1.05-.65,1.98-1.48,3.01-2.25-.38-.91-.67-1.54-.92-2.19-2.98-7.77-6.04-15.51-8.89-23.33-1.36-3.74-.52-6.14,1.89-6.79,2.08-.56,3.28.63,4.7,4.3,2.89,7.42,6.41,14.6,11.98,20.33,6,6.16,12.36,12.02,18.92,17.58,6.13,5.21,13.45,8.3,21.38,9.75,8.57,1.57,17.08,1.6,25.64-.51,13.28-3.28,24.34-9.71,31.92-21.37,3.37-5.18,6.59-10.47,9.6-15.25-4.87-5.15-9.89-9.77-14.03-15.07-3.08-3.94-5.11-8.71-7.42-13.21-.77-1.51.01-3.01,1.8-3,1.6.01,3.34.41,4.75,1.15,6,3.13,11.89,6.45,17.82,9.72.87.48,1.75.94,2.54,1.52,3.96,2.87,8.48,4.37,13.13,5.66,13.04,3.64,26.11,2.52,39.08-.03,10.84-2.13,19.64-8.37,27.94-15.35,6.54-5.5,10.72-12.71,14.38-20.24.84-1.73,1.17-3.77,1.4-5.71.4-3.22.5-6.48.79-9.72.08-.88.36-1.74.55-2.61.41-.26.81-.51,1.22-.77.44.86,1.02,1.67,1.28,2.58,2.8,9.59,3.71,19.14-.94,28.49-.86,1.74-1.75,3.46-2.62,5.16,5.74,6.85,11.56,13.08,18.69,17.72,4.57,2.97,9.68,5.25,14.79,7.18,5.65,2.13,11.58,1.79,17.38.49.5-14.47,7.15-27.93,14.94-30.08.22,1.09.54,2.14.62,3.22.48,6.88.78,13.77,1.36,20.64,1.29,15.38,8.76,27.31,21.24,35.99,10.89,7.57,22.71,12.69,36.49,10.96.14-.02.28,0,.42,0,16.41-.53,30.46-6.84,42.48-17.76,2.87-2.61,5.05-5.97,7.47-8.91-.41-.98-.66-1.64-.96-2.27-2.58-5.42-2.63-10.81-.36-16.41,2.12-5.24,6-9.18,9.28-13.58.26-.35.97-.37,2.13-.77.04,1.96.23,3.56.07,5.12-.48,4.63-1.07,9.26-1.67,13.88-.23,1.79.04,3.34,1.49,4.6,2.84,2.46,5.98,4.49,9.77,4.66,5.64.25,11.33.44,16.95-.02,4.31-.35,8.8-1.14,12.75-2.81,6.74-2.85,13.29-6.28,19.6-10,3.21-1.89,6.18-4.58,8.5-7.51,6.28-7.94,10.87-16.84,13.44-26.7,1.14-4.37,2.39-8.73,3.34-13.14,3.07-14.23,10.61-26.05,19.83-36.96,1.21-1.44,2.83-2.54,4.58-4.08,1.03,2.62.65,4.52,0,6.35-1.04,2.93-2.11,5.85-3.35,8.69-2.83,6.5-4.4,13.3-5.39,20.78,5.74-1.87,11.15-3.42,16.4-5.38,10.53-3.93,19.55-10.23,26.88-18.69,13.52-15.61,22.02-33.45,22.87-54.43.35-8.65.13-17.24-3.68-25.29-1.75-3.69-3.55-7.36-5.37-11.01-.69-1.39-1.83-2.81-.17-4.15,1.42-1.15,2.77-.19,3.76.8,3.18,3.19,6.28,6.46,9.33,9.77,1.03,1.12,1.8,2.46,2.88,3.96,4-1.86,6.44-4.5,6.53-9.48,3.42.67,4.07-2.14,5.15-4.34,4.11-8.33,6.08-17.21,7.18-26.42,1.87-15.65-1.06-30.38-7.53-44.53-2.91-6.36-7.9-9.79-15.14-9.4-1.27.07-2.55.2-3.81.08-.61-.05-1.6-.54-1.66-.94-.1-.69.24-1.59.69-2.17.39-.51,1.19-.7,1.82-1.02Z" fill="#fff" stroke-width="0"/></svg>