<?xml version="1.0" encoding="UTF-8"?><svg id="Layer_1" xmlns="http://www.w3.org/2000/svg" viewBox="0 0 1000 1000"><path d="m402.97,37.47c2.05-.8,4.08-1.65,6.15-2.4,2.26-.81,4.53-1.58,6.84-2.26,2.17-.63,4.36-1.2,6.58-1.64,2.18-.44,4.39-.69,6.59-1.02-3.96,2.61-8.11,4.33-12.14,6.31-6.77,3.33-9.15,5.19-10.83,8.13,7.23-4.11,14.51-7.11,23.62-5.9-7.06,5.76-15.67,7.67-21.94,13.36,1.88-.6,3.58-1.52,5.24-2.49,3.87-2.26,8.06-3.37,12.51-3.48.87-.02,1.74.36,3.14.67-3.45,4.65-9.61,3.74-13.01,7.8,2.7-.37,5.06-.87,7.43-.97,4.7-.21,8.13-2.37,11.33-5.75,7.04-7.42,15.57-12.47,25.59-14.99,20.36-5.12,40.87-5.07,61.41-1.69,15.49,2.55,29.22,9.27,41.56,18.93,2.43,1.9,5.16,3.44,7.86,4.97,1.79,1.01,1.87.87,4.75.05-6.67-2.89-12.12-7.2-18.29-11.34,1.08-.63,1.53-1.12,1.99-1.13,5.56-.15,9.82,3.86,15.15,4.6-11.38-7.18-23.99-11.85-36.14-17.6,11.55-.3,21.85,4.27,32.73,8.37-.43-.73-.49-1.02-.66-1.11-9.55-4.85-18.69-10.62-29.3-13.04-8.67-1.98-17.36-3.87-26.06-5.76-1.23-.27-2.52-.37-3.78-.45-21.81-1.46-43.5-.57-65.04,3.26-12.56,2.23-24.83,5.5-36.32,11.21-2.59,1.28-4.94,3.04-7.4,4.57.14.27.29.54.43.81Z" fill="#fff" stroke-width="0"/><path d="m532.55,60.12c-2.59-1.11-5.13-2.36-7.58-3.75-4.09-2.31-11.6-4.54-15.59-4.36,4.53,3.36,6.52,8.1,7.89,13.07,8.37.3,21.24-2.64,27.99-6.38,1.11-.61,2.22-1.25,3.24-2,3.8-2.81,4.06-5.85.68-9.2-1.29-1.28-2.78-2.48-4.39-3.28-3.4-1.7-6.82-3.53-10.45-4.58-20.61-5.99-41.58-7.86-62.91-4.96-7.06.96-13.86,2.76-20.11,6.26-7.51,4.21-7.84,8.65-.86,13.8,6.4,4.72,13.9,6.62,21.93,7.98,1.78-5.18,4.56-9.45,9.02-12.6-8.34-.05-15.7,2.89-23.1,5.91,3.5-5.51,9.3-7.18,14.79-9.43-6.32-.21-11.34,3.91-17.13,5.64-1-2.49.49-3.43,1.7-4.21,3.65-2.34,7.41-4.52,10.84-6.59-4.39.49-11.14,3.11-15.96,6.34-1.01.67-1.86,1.97-3.34.55.1-2.06,1.7-3.06,3.16-4.11,4.08-2.94,8.68-4.62,13.57-5.71,9.3-2.06,18.69-2.33,28.2-2.43,14.51-.15,28.29,3.17,41.98,7.21,3.46,1.02,6.67,3.04,9.83,4.87,2.29,1.32,2.24,1.9.83,4.15-2.29-1.07-4.54-2.24-6.88-3.17-2.31-.91-4.72-1.56-7.08-2.33,3.43,3.61,9.23,4.24,10.59,10.66-3.69-1.56-6.87-2.98-10.11-4.25-3.21-1.25-6.49-2.35-9.74-3.51,3.18,2.65,6.65,4.52,10.1,6.42,1.71.94,3.42,1.91,3.08,4.84-1.58-.31-3-.35-4.21-.87Z" fill="#fff" stroke-width="0"/><path d="m477.47,63.85c1.27-4.48,3.88-7.9,7.68-10.38-5.22,1.72-8.1,5.39-7.68,10.38Z" fill="#fff" stroke-width="0"/><path d="m435.02,92.99c14.45,4.14,29.24,6.39,44.18,7.87,28.12,2.79,55.92.9,83.41-5.45,11.35-2.62,22.22-6.65,31.92-13.29,2.63-1.8,4.99-3.99,7.65-6.13-3.43-3.41-5.99-6.69-9.99-8.63-4.92-2.4-10.01-3.82-15.39-4.31-5.22-.48-9.94-1.85-13.7-5.8-1.49-1.57-3.4-2.74-5.18-4.13-.72.83-1.23,1.19-1.42,1.67-1.86,4.82-5.57,7.88-10.09,9.76-4.54,1.89-9.26,3.52-14.05,4.63-12.35,2.86-24.94,3.41-37.53,2.48-12.86-.95-25.57-2.91-37.54-8.11-6.48-2.81-12.94-5.66-16.69-12.32-.54.43-.94.62-1.15.94-3.26,4.77-7.88,6.9-13.53,7.72-3.87.56-7.7,1.81-11.38,3.19-6.41,2.41-11.02,7.06-15.12,13.09,3.52,2.28,6.7,4.61,10.12,6.52,8.05,4.51,16.63,7.78,25.49,10.32Zm31.99-3.04c10.51-.75,21.03-1.48,31.54-2.18,1.26-.08,2.54-.06,3.78.1,1.56.2,3.23.6,3.3,2.58.07,1.75-1.38,2.38-2.79,2.64-2.48.46-5.03,1.2-7.48.99-9.8-.84-19.56-2-29.34-3.04-.01-.21-.03-.42-.04-.62.34-.16.68-.44,1.03-.47Z" fill="#fff" stroke-width="0"/><path d="m615.07,58.78c-.6,3.87-.76,7.56-1.81,10.97-1.62,5.26-5.27,9.28-9.35,12.88-6.02,5.3-12.96,9.06-20.32,12.07-15,6.14-30.61,9.93-46.69,11.8-17.47,2.03-34.96,2.16-52.49.97-22-1.49-43.38-5.84-64-13.7-8.88-3.38-17.3-7.7-24.95-13.39-6.37-4.74-11.61-10.35-13.47-18.41-.08-.33-.38-.6-.82-1.27-6.82,12.51-12.21,25.06-12.5,39.67,2.11.34,3.78.59,5.44.88,15.75,2.79,30.7,7.51,43.57,17.54,10.29,8.02,20.19,16.3,27.26,27.56,2.78,4.43,7.17,6.91,12.81,7.01,12.33.23,24.52,1.57,36.36,5.3,3.09.97,6.26,1.7,9.37,2.63,2.07.62,3.89.24,5.61-.97,4.28-3,8.63-5.9,12.85-8.98,10.62-7.74,21.95-13.87,35.08-16.15,5.98-1.04,11.97-2.06,17.91-3.31,6.64-1.39,12.32-3.83,15.93-10.52,5.73-10.61,14.08-19.04,24.64-25.1,3.15-1.81,6.37-3.52,9.64-5.33,0,0,0,0,0,0-1.03-9.49-2.56-18.64-6.57-27.21-.87-1.85-1.73-3.73-3.51-4.95Zm-33.76,58.45c-6.58,4.04-14.01,5.85-21.34,7.9-9.73,2.71-19.79,3.08-29.77,3.61-11.55.62-23.14.83-34.7.62-8.71-.16-17.51-.31-26.05-2.53-.8-.21-1.57-.48-2.43-1.31.83-.1,1.67-.3,2.5-.3,10.16.07,20.32.37,30.48.19,7.32-.13,14.65-.74,21.95-1.42,16.45-1.53,32.73-4.31,48.95-7.36,3.18-.6,6.31-1.51,9.47-2.25,1.29-.3,2.59-.55,3.88-.82.17.33.33.66.5.99-1.14.9-2.19,1.93-3.42,2.68Z" fill="#fff" stroke-width="0"/><path d="m584.73,114.55c-1.14.9-2.19,1.93-3.42,2.68-6.59,4.04-14.01,5.85-21.34,7.9-9.73,2.71-19.79,3.08-29.77,3.61-11.55.62-23.14.83-34.7.62-8.71-.16-17.51-.31-26.05-2.53-.8-.21-1.57-.48-2.43-1.31.83-.1,1.67-.3,2.5-.3,10.16.07,20.32.37,30.48.19,7.32-.13,14.65-.74,21.95-1.42,16.45-1.53,32.73-4.31,48.95-7.36,3.18-.6,6.31-1.51,9.47-2.25,1.29-.3,2.59-.55,3.88-.82l.5.99Z" stroke-width="0"/><path d="m465.97,90.41c.34-.16.68-.44,1.03-.47,10.51-.75,21.03-1.48,31.54-2.18,1.26-.08,2.54-.06,3.78.1,1.56.2,3.23.6,3.3,2.58.07,1.75-1.38,2.38-2.79,2.64-2.48.46-5.03,1.2-7.48.99-9.8-.84-19.56-2-29.34-3.04-.01-.21-.03-.42-.04-.62Z" stroke-width="0"/><path d="m378.62,52.55c-8.05,11.81-14.82,24.38-20.67,37.43-1.04,2.32-2.02,4.66-3.01,7-1.19,2.8-3.06,4.2-6.32,4.69,12.38-1.67,20.06-1.31,20.06-1.31h0c.28-14.61,5.68-27.17,12.5-39.67.44.66.74.94.82,1.27,1.86,8.06,7.1,13.67,13.47,18.41,7.65,5.69,16.06,10.01,24.95,13.39,20.62,7.86,42,12.2,64,13.7,17.53,1.19,35.02,1.07,52.49-.97,16.09-1.87,31.69-5.66,46.69-11.8,7.36-3.01,14.3-6.77,20.32-12.07,4.08-3.6,7.73-7.62,9.35-12.88,1.05-3.41,1.2-7.1,1.81-10.97,1.78,1.22,2.64,3.09,3.51,4.95,4.01,8.57,5.54,17.72,6.57,27.21,5.86-2.93,11.27-3.24,11.27-3.24h0c-7.98-24.09-21.78-43.42-45.71-55.27,5.84-3.57,10.89-6.62,15.89-9.74,5.04-3.15,10.02-6.38,15.02-9.58-.16-.27-.33-.54-.49-.81-11.57,5.13-23.1,10.33-33.55,17.93-.75-.31-1.54-.59-2.28-.95-10.22-4.97-20.94-8.5-31.99-11.04-29.89-6.89-60.14-8.78-90.6-5.59-23.92,2.51-47.19,7.62-67.52,21.36-10.66-6.74-22.19-11.35-33.97-15.43,9.35,7.3,19.81,12.76,30.24,18.6-.71.9-1.04,1.35-1.4,1.78-3.83,4.52-8.11,8.74-11.43,13.61Zm31.32-20.47c11.49-5.71,23.76-8.98,36.32-11.21,21.54-3.83,43.23-4.73,65.04-3.26,1.27.08,2.55.18,3.78.45,8.69,1.89,17.38,3.79,26.06,5.76,10.62,2.42,19.76,8.2,29.3,13.04.17.09.23.38.66,1.11-10.88-4.11-21.18-8.67-32.73-8.37,12.15,5.75,24.76,10.42,36.14,17.6-5.33-.74-9.59-4.75-15.15-4.6-.46.01-.91.5-1.99,1.13,6.17,4.14,11.62,8.45,18.29,11.34-2.88.82-2.96.96-4.75-.05-2.69-1.53-5.43-3.07-7.86-4.97-12.35-9.66-26.07-16.38-41.56-18.93-20.54-3.38-41.05-3.43-61.41,1.69-10.02,2.52-18.55,7.58-25.59,14.99-3.2,3.37-6.64,5.54-11.33,5.75-2.38.11-4.73.61-7.43.97,3.41-4.06,9.56-3.15,13.01-7.8-1.4-.31-2.27-.69-3.14-.67-4.45.11-8.65,1.22-12.51,3.48-1.67.97-3.36,1.89-5.24,2.49,6.27-5.69,14.88-7.59,21.94-13.36-9.11-1.21-16.39,1.79-23.62,5.9,1.68-2.94,4.06-4.8,10.83-8.13,4.03-1.98,8.18-3.7,12.14-6.31-2.2.33-4.41.58-6.59,1.02-2.21.45-4.41,1.01-6.58,1.64-2.3.67-4.58,1.45-6.84,2.26-2.07.74-4.1,1.59-6.15,2.4-.14-.27-.29-.54-.43-.81,2.46-1.54,4.81-3.29,7.4-4.57Zm123.74,24.07c-3.45-1.9-6.92-3.78-10.1-6.42,3.25,1.16,6.52,2.26,9.74,3.51,3.24,1.27,6.42,2.69,10.11,4.25-1.36-6.42-7.17-7.05-10.59-10.66,2.36.77,4.77,1.42,7.08,2.33,2.35.92,4.59,2.1,6.88,3.17,1.41-2.25,1.45-2.83-.83-4.15-3.16-1.83-6.37-3.85-9.83-4.87-13.69-4.04-27.47-7.37-41.98-7.21-9.51.1-18.89.37-28.2,2.43-4.89,1.08-9.49,2.77-13.57,5.71-1.47,1.06-3.07,2.05-3.16,4.11,1.49,1.42,2.34.12,3.34-.55,4.82-3.23,11.57-5.85,15.96-6.34-3.43,2.07-7.19,4.25-10.84,6.59-1.21.78-2.7,1.71-1.7,4.21,5.78-1.73,10.81-5.85,17.13-5.64-5.5,2.25-11.29,3.92-14.79,9.43,7.4-3.03,14.77-5.96,23.1-5.91-4.45,3.14-7.24,7.42-9.02,12.6-8.03-1.36-15.53-3.26-21.93-7.98-6.98-5.15-6.65-9.59.86-13.8,6.25-3.5,13.05-5.3,20.11-6.26,21.33-2.91,42.3-1.03,62.91,4.96,3.62,1.05,7.05,2.88,10.45,4.58,1.61.81,3.1,2,4.39,3.28,3.38,3.35,3.11,6.39-.68,9.2-1.02.75-2.13,1.39-3.24,2-6.75,3.73-19.62,6.68-27.99,6.38-1.37-4.97-3.35-9.71-7.89-13.07,3.99-.18,11.5,2.05,15.59,4.36,2.45,1.39,4.99,2.64,7.58,3.75,1.21.52,2.63.56,4.21.87.34-2.92-1.38-3.9-3.08-4.84Zm-48.53-2.69c-3.8,2.49-6.41,5.91-7.68,10.38-.43-5,2.46-8.66,7.68-10.38Zm-70.62,9.6c3.68-1.38,7.51-2.63,11.38-3.19,5.65-.81,10.26-2.94,13.53-7.72.21-.31.61-.5,1.15-.94,3.75,6.66,10.22,9.51,16.69,12.32,11.97,5.2,24.69,7.17,37.54,8.11,12.59.93,25.19.38,37.53-2.48,4.79-1.11,9.5-2.74,14.05-4.63,4.53-1.88,8.23-4.94,10.09-9.76.19-.48.7-.84,1.42-1.67,1.78,1.4,3.69,2.57,5.18,4.13,3.77,3.95,8.49,5.32,13.7,5.8,5.38.49,10.47,1.92,15.39,4.31,3.99,1.95,6.56,5.22,9.99,8.63-2.65,2.14-5.02,4.33-7.65,6.13-9.7,6.64-20.57,10.67-31.92,13.29-27.49,6.34-55.29,8.24-83.41,5.45-14.94-1.48-29.73-3.73-44.18-7.87-8.86-2.54-17.44-5.81-25.49-10.32-3.42-1.92-6.6-4.24-10.12-6.52,4.1-6.02,8.7-10.68,15.12-13.09Z" stroke-width="0"/></svg>