<?xml version="1.0" encoding="UTF-8"?><svg id="Layer_1" xmlns="http://www.w3.org/2000/svg" viewBox="0 0 1000 1000"><path d="m73,431.08c.65,4.95,1.31,9.09,1.67,13.26.1,1.13-.54,2.46-1.17,3.5-6.44,10.66-9.08,22.43-10.28,34.64-.09.97.01,1.96.1,2.94.02.2.37.37.84.8,3.63-10.29,4.35-21.56,11.49-31.57.64,5.24,1.16,9.59,1.69,13.94.31,0,.62,0,.93,0,.31-5.28.8-10.55.86-15.83.03-2.71.66-4.94,2.43-6.96,2.46-2.81,4.35-6.15,7.78-8.72.55,2.07,1,3.77,1.45,5.46.19.03.39.06.58.09.13-.83.28-1.65.4-2.48.12-.84.37-1.7.28-2.52-.37-3.5,1.53-5.54,4.33-7.05.86-.47,1.73-.92,2.59-1.38,2.63,4.45,3.66,16.23,1.96,21.81-12.48,3.16-17.87,13.4-23.23,23.53-2.13,4.02-3.56,8.38-2.13,13.2,3.93-12.43,11.04-22.39,21.98-29.74-.21.86-.3,1.77-.66,2.56-6.01,13.12-8.45,27.22-10.92,41.26-.82,4.66-.36,9.59-.08,14.37.41,7.19.89,14.4,1.86,21.53,1.16,8.6,4.74,16.52,7.69,24.61,1.11,3.03,2.16,6.15,2.69,9.32.34,1.99.1,4.31-.62,6.2-5.23,13.67-8.57,27.8-10.33,42.27-.59,4.86-.11,9.86-.08,14.8,0,1.34.16,2.68-.17,4.2-8.56-6.98-12.15-17.3-17.97-26.31-.51,9.77,8.61,24.69,18.68,31.04,1.27,6.1,2.51,12.01,3.88,18.58-1.62-.53-3.1-.77-4.33-1.46-4.02-2.24-6.99-5.62-9.84-9.19-1.58-1.98.17-3.76-.16-5.9-.68.84-1.16,1.45-1.97,2.45-7.43-11.4-12.85-23.62-19.17-35.32-.29.1-.57.19-.86.29.53,2.23.95,4.5,1.61,6.69.81,2.7,1.36,5.65,2.85,7.95,3.99,6.15.36,10.45-3.22,15.78-4.04-8.39-7.81-16.21-11.58-24.03-.2.05-.41.09-.61.14.56,2.42.91,4.92,1.72,7.25,2.1,6,4.26,11.98,6.69,17.84.97,2.35,1.1,4.2-.45,6.25-1.08,1.43-1.91,3.06-3.3,5.35-3.14-5.59-6-10.54-8.66-15.6-.42-.81-.13-2.2.24-3.17.85-2.24,1.98-4.37,2.95-6.57.31-.71.46-1.5.22-2.45-1.64,2.6-3.28,5.19-5.36,8.5-2.82-5.68-5.35-10.79-7.88-15.9-.23.08-.47.16-.7.24.6,2.04,1.13,4.1,1.81,6.11,1.05,3.07,2.16,6.13,3.32,9.16,1.56,4.1,1.59,4.1-2.46,7.9-12.22-36.1-14.89-73.07-13.54-110.54,1.2-33.48,12.02-84.02,20.8-96.81,2.49,2.59,3.28,5.21,1.76,8.77-4.24,9.91-6.84,20.34-8.61,30.95-.53,3.17-.58,6.41-.12,9.74,1.54-6.01,2.81-12.1,4.69-18,1.87-5.88,4.34-11.56,6.55-17.33.3.02.59.04.89.06,1.08,3.48,2.15,6.95,3.23,10.43.31,0,.62-.02.93-.02.21-1.41.63-2.83.58-4.23-.12-3.94-.2-7.91-.76-11.8-.32-2.23-.32-4.14.87-6.06,1.92-3.09,3.76-6.23,6.09-10.11,1.87,4.44,2.94,8.19,3.08,12.08.05,1.4-.96,2.91-1.71,4.25-6.11,10.9-9.56,22.6-10.67,35.01-.13,1.46.08,2.95.94,4.58.39-.78.89-1.51,1.15-2.33,1.97-6.19,3.74-12.45,5.9-18.57,1.44-4.08,3.43-7.97,5.57-12.84,2.44,5.94,1.37,11.42,2.89,16.82,2.53-2.7,3.19-5.61,3.23-8.56.05-4.51-.02-9.05-.5-13.52-.32-2.97-.11-5.54,1.68-8,1.71-2.35,2.99-5.02,5.71-7.65Zm-43.31,156.85c2.35-6.16,2.12-12.9,4.26-19.11,2.13-6.17,3.62-12.57,6.42-19.3,5.25,11.35,11.91,20.74,20.56,28.73-1.37-3.24-3.17-6.22-4.8-9.29-3.89-7.36-7.67-14.78-11.55-22.14-1.51-2.86-1.38-5.45,0-8.43,3.87-8.32,7.48-16.77,11.07-25.21.89-2.08,1.34-4.34,1.99-6.52-.29-.12-.59-.24-.88-.36-7.14,8.03-11.09,18.08-16.69,27.74-.71-1.57-1.26-2.66-1.71-3.8-1.13-2.89-2.21-5.81-3.34-8.7-.41-1.06-.85-2.2-2.47-1.58-1.16,2.04-.45,4.12.12,6.12,1.03,3.67,2.15,7.32,3.43,10.91.9,2.51.7,4.73-.13,7.31-2.45,7.65-4.79,15.37-6.54,23.2-1.5,6.68-2,13.56.25,20.43Zm12.26-10.46c.56,8.84,7.73,26.03,12.04,28.84.06-3.4-8.57-24.07-12.04-28.84Z" fill="#fff" stroke-width="0"/><path d="m93.66,666.79c.95,2.46,1.74,4.52,2.56,6.65-2.92,1.81-5.59,2.63-8.86,1.58.24-1.88.46-3.65.69-5.42-.14-.07-.28-.13-.41-.2-.9,1.52-1.8,3.05-2.69,4.55-4.32-.46-9.1-3.35-13.61-8.34.95-2.8,1.96-5.79,3.17-9.37,5.53,5.57,10.71,10.85,19.15,10.53Z" fill="#fff" stroke-width="0"/><path d="m62.91,636.59c3.32,5.71,6.31,10.79,9.19,15.92.42.75.66,1.92.38,2.68-.9,2.45-2.08,4.8-3.53,8.04-2.37-3.38-4.11-6.2-6.2-8.75-3.62-4.42-4.88-8.93-1.52-14.07.66-1,.99-2.22,1.67-3.81Z" fill="#fff" stroke-width="0"/><path d="m66.35,668.17c-1.27,1.69-2.6,3.45-4.23,5.6-4.64-4.04-7.62-8.87-10.81-13.6,1.5-2.7,2.85-5.13,4.39-7.91,3.64,5.44,7.05,10.54,10.65,15.91Z" fill="#fff" stroke-width="0"/><path d="m63.29,433.76c-1.32-3.39-2.49-6.4-3.85-9.87,3.03-3.29,6.13-6.66,9.23-10.03.36.09.71.18,1.07.26.68,2.95,1.41,5.88,1.98,8.85.11.56-.33,1.36-.75,1.86-2.42,2.89-4.91,5.72-7.68,8.93Z" fill="#fff" stroke-width="0"/><path d="m85.67,418.54c.59,1.3.79,1.67.93,2.06,1.68,4.76,2.14,9.15-2.7,12.67-1.74,1.27-2.86,3.39-4.94,5.96-.51-4.67-.94-8.46-1.29-12.25-.04-.48.27-1.14.63-1.5,2.29-2.22,4.63-4.38,7.37-6.94Z" fill="#fff" stroke-width="0"/><path d="m64.96,676.32c1.3-1.92,2.46-3.65,3.68-5.45,4.43,2.76,8.66,5.39,13.12,8.17-.55.87-1.16,1.78-1.71,2.72-1.22,2.07-2.83,2.43-4.99,1.39-3.67-1.76-7.26-3.6-10.1-6.84Z" fill="#fff" stroke-width="0"/><path d="m58.06,677.45c-.99.75-1.74,1.38-2.55,1.9-.7.45-1.47.77-2.75,1.43-3.26-4.2-6.5-8.38-10-12.88,2-1.41,3.56-2.51,5.12-3.61,3.42,4.42,6.68,8.63,10.19,13.17Z" fill="#fff" stroke-width="0"/><path d="m34.28,649.09c.97-1.47,2.02-3.06,3.35-5.08,2.9,5.78,5.52,11,8.27,16.49-1.47,1.23-2.83,2.36-4.18,3.49-2.64-2.79-5.35-8.26-7.43-14.9Z" fill="#fff" stroke-width="0"/><path d="m45.43,436.47c-1.48-1.26-2.73-2.32-4.38-3.71,2.51-4.42,4.96-8.75,7.72-13.62,1.76,1.66,3.01,2.85,4.4,4.17-2.67,4.54-5.15,8.74-7.75,13.16Z" fill="#fff" stroke-width="0"/><path d="m65.71,408.02c-3.12,3.5-6.27,7.03-9.59,10.76-1.55-.95-3.05-1.88-5-3.08,2.71-2.99,5.14-5.88,7.79-8.53,2.94-2.94,3.5-2.8,6.8.85Z" fill="#fff" stroke-width="0"/><path d="m73.69,410.25c2.29-1.63,4.32-3.07,6.77-4.81,1.28,2.43,2.42,4.59,3.72,7.07-2.52,2.13-4.92,4.14-7.62,6.41-1-3-1.86-5.61-2.88-8.67Z" fill="#fff" stroke-width="0"/><path d="m73.93,687.96c-4.62,2.35-10.73.77-16.83-4.18,1.43-1.13,2.79-2.21,4.22-3.34,4.13,2.46,8.14,4.86,12.61,7.53Z" fill="#fff" stroke-width="0"/><path d="m92.18,425.06c-.52-3.52-.95-6.41-1.36-9.19q3.26-2.18,7.42-1.02v7.08c-1.81.93-3.65,1.89-6.05,3.12Z" fill="#fff" stroke-width="0"/><path d="m88.59,409.22c-1.01-1.91-1.97-3.73-2.98-5.66,5.75-2.92,8.32,1.72,12.07,4.25-3.12.48-5.89.91-9.08,1.41Z" fill="#fff" stroke-width="0"/><path d="m90.99,680.49c-2.1,2.91-4.79,4.08-8.29,3.72,1.81-4.8,1.98-4.88,8.29-3.72Z" fill="#fff" stroke-width="0"/><path d="m75.57,400.14c-2.23,1.76-3.84,3.03-5.58,4.41-1.26-.82-2.39-1.56-3.84-2.5,2.8-1.8,5.15-3.72,9.42-1.91Z" fill="#fff" stroke-width="0"/><path d="m27.48,735.01c-1.83,2.05-1.21,3.8,1.29,5.02.76.37,1.59.71,2.41.79,8.3.73,16.59,1.5,24.9,2.01,2.75.17,4.2-1.46,4.15-4.24-.13-7.76-.4-15.52-.64-23.27-.02-.56-.08-1.15-.29-1.66-.64-1.61-2.22-2.3-3.81-1.5-1.12.56-2.06,1.47-3.09,2.22-2.5,1.81-5.01,3.62-7.75,5.6-2.77-4.27-4.91-8.11-7.56-11.56-7.31-9.5-12.91-19.88-16.88-31.16-.23-.67-.35-1.55-.83-1.91-.91-.7-2.09-1.54-3.09-1.46-.7.05-1.59,1.44-1.86,2.39-.29,1.03-.06,2.25.11,3.35,1.97,12.34,7.29,23.4,13.44,34.08,2.51,4.36,5.68,8.34,8.44,12.34-3.02,2.99-6.15,5.83-8.95,8.98Z" stroke-width="0"/><path d="m24.04,406.51c1.43-3.69,2.63-7.46,4.08-11.14,3.97-10.06,9.8-18.99,16.64-27.29,5.13,2.3,10.06,4.51,15.19,6.81,1.68-10.87,1.76-21.04-1.03-31.61-1.62,0-3.28-.18-4.89.04-2.94.39-5.94.7-8.74,1.6-5.75,1.86-11.5,3.83-17.03,6.25-3.49,1.53-3.51,3.15-.51,5.51,3.09,2.44,6.37,4.63,9.85,7.12-.27.63-.39,1.04-.61,1.39-.45.72-.92,1.42-1.45,2.09-6.66,8.43-11.06,18.03-14.45,28.13-.85,2.53-1.48,5.16-1.99,7.79-.48,2.49-.23,4.96,1.14,7.15,2.73-.24,3.16-2.22,3.8-3.85Z" stroke-width="0"/><path d="m29.69,587.93c-2.24-6.87-1.75-13.74-.25-20.43,1.76-7.83,4.09-15.55,6.54-23.2.83-2.58,1.02-4.79.13-7.31-1.28-3.59-2.4-7.24-3.43-10.91-.56-1.99-1.28-4.08-.12-6.12,1.61-.62,2.05.51,2.47,1.58,1.13,2.89,2.2,5.81,3.34,8.7.44,1.13,1,2.22,1.71,3.8,5.6-9.66,9.54-19.71,16.69-27.74.29.12.59.24.88.36-.65,2.18-1.11,4.44-1.99,6.52-3.6,8.45-7.2,16.89-11.07,25.21-1.38,2.97-1.51,5.57,0,8.43,3.89,7.36,7.66,14.78,11.55,22.14,1.62,3.07,3.42,6.06,4.8,9.29-8.65-7.98-15.31-17.37-20.56-28.73-2.8,6.73-4.29,13.12-6.42,19.3-2.14,6.2-1.91,12.95-4.26,19.11Z" stroke-width="0"/><path d="m41.95,577.48c3.47,4.77,12.1,25.44,12.04,28.84-4.31-2.81-11.48-20-12.04-28.84Z" stroke-width="0"/><path d="m77.71,474.54c-2.13,4.02-3.56,8.38-2.13,13.2,3.93-12.43,11.04-22.39,21.98-29.74h0s.43-1.01,3.38-7c-12.48,3.16-17.87,13.4-23.23,23.53Z" stroke-width="0"/><path d="m34.89,669.92c2.39,3.99,4.51,8.21,7.34,11.87,4.95,6.4,11.6,10.87,19.15,13.57,15.04,5.38,28.9,4.26,40.28-9h0s0,0,0,0c-7.66-18.36-11.66-27.36-14.54-51.44,0,1.34.16,2.68-.17,4.2-8.56-6.98-12.15-17.3-17.97-26.31-.51,9.77,8.61,24.69,18.68,31.04,1.27,6.1,2.51,12.01,3.88,18.58-1.62-.53-3.1-.77-4.33-1.46-4.02-2.24-6.99-5.62-9.84-9.19-1.58-1.98.17-3.76-.16-5.9-.68.84-1.16,1.45-1.97,2.45-7.43-11.4-12.85-23.62-19.17-35.32-.29.1-.57.19-.86.29.53,2.23.95,4.5,1.61,6.69.81,2.7,1.36,5.65,2.85,7.95,3.99,6.15.36,10.45-3.22,15.78-4.04-8.39-7.81-16.21-11.58-24.03-.2.05-.41.09-.61.14.56,2.42.91,4.92,1.72,7.25,2.1,6,4.26,11.98,6.69,17.84.97,2.35,1.1,4.2-.45,6.25-1.08,1.43-1.91,3.06-3.3,5.35-3.14-5.59-6-10.54-8.66-15.6-.42-.81-.13-2.2.24-3.17.85-2.24,1.98-4.37,2.95-6.57.31-.71.46-1.5.22-2.45-1.64,2.6-3.28,5.19-5.36,8.5-2.82-5.68-5.35-10.79-7.88-15.9-.23.08-.47.16-.7.24.6,2.04,1.13,4.1,1.81,6.11,1.05,3.07,2.16,6.13,3.32,9.16,1.56,4.1,1.59,4.1-2.46,7.9-12.22-36.1-14.89-73.07-13.54-110.54,1.2-33.48,12.02-84.02,20.8-96.81,2.49,2.59,3.28,5.21,1.76,8.77-4.24,9.91-6.84,20.34-8.61,30.95-.53,3.17-.58,6.41-.12,9.74,1.54-6.01,2.81-12.1,4.69-18,1.87-5.88,4.34-11.56,6.55-17.33.3.02.59.04.89.06,1.08,3.48,2.15,6.95,3.23,10.43.31,0,.62-.02.93-.02.21-1.41.63-2.83.58-4.23-.12-3.94-.2-7.91-.76-11.8-.32-2.23-.32-4.14.87-6.06,1.92-3.09,3.76-6.23,6.08-10.11,1.87,4.44,2.94,8.19,3.08,12.08.05,1.4-.96,2.91-1.71,4.25-6.11,10.9-9.56,22.6-10.67,35.01-.13,1.46.08,2.95.94,4.58.39-.78.89-1.51,1.15-2.33,1.97-6.19,3.74-12.45,5.9-18.57,1.44-4.08,3.43-7.97,5.57-12.84,2.44,5.94,1.37,11.42,2.89,16.82,2.53-2.7,3.19-5.61,3.23-8.56.05-4.51-.02-9.05-.5-13.52-.32-2.97-.11-5.54,1.68-8,1.71-2.35,2.99-5.02,5.71-7.65.65,4.95,1.31,9.09,1.67,13.26.1,1.13-.54,2.46-1.17,3.5-6.44,10.66-9.08,22.43-10.28,34.64-.09.97.01,1.96.1,2.94.02.2.37.37.84.8,3.63-10.29,4.35-21.56,11.49-31.57.64,5.24,1.17,9.59,1.69,13.94.31,0,.62,0,.93,0,.31-5.28.8-10.55.86-15.83.03-2.71.66-4.94,2.43-6.96,2.46-2.81,4.35-6.15,7.78-8.72.55,2.07,1,3.77,1.45,5.46.19.03.39.06.58.09.13-.83.28-1.65.4-2.48.12-.84.36-1.7.28-2.52-.37-3.5,1.53-5.54,4.33-7.05.86-.47,1.73-.92,2.59-1.38,2.63,4.45,3.66,16.21,1.97,21.8,2.94-5.99,2.05-16,.05-24-2-8-2.13-17.42-1.87-28.58h0c-1.68-1.1-3.06-2.03-4.48-2.91-10.54-6.57-21.35-6.99-32.11-.8-3.63,2.09-6.98,4.83-10.07,7.69-5.86,5.42-10.28,12.01-14.17,18.94-6.61,11.77-11.53,24.23-15.3,37.17-7.39,25.39-11.04,51.35-12.14,77.73-1.21,29.24.62,58.24,7.11,86.81,3.7,16.28,8.22,32.35,16.9,46.87Zm22.21,13.85c1.43-1.13,2.79-2.21,4.22-3.34,4.13,2.46,8.14,4.86,12.61,7.53-4.62,2.35-10.73.77-16.83-4.18Zm22.95-2.02c-1.22,2.07-2.83,2.43-4.99,1.39-3.67-1.76-7.26-3.6-10.1-6.84,1.3-1.92,2.46-3.65,3.68-5.45,4.43,2.76,8.66,5.39,13.12,8.17-.55.87-1.16,1.78-1.71,2.72Zm2.64,2.45c1.81-4.8,1.98-4.88,8.29-3.72-2.1,2.91-4.79,4.08-8.29,3.72Zm10.97-17.42c.95,2.46,1.74,4.52,2.56,6.65-2.92,1.81-5.59,2.63-8.86,1.58.24-1.88.46-3.65.69-5.42-.14-.07-.28-.13-.41-.2-.9,1.52-1.8,3.05-2.69,4.55-4.32-.46-9.1-3.35-13.61-8.34.95-2.8,1.96-5.79,3.17-9.37,5.53,5.57,10.71,10.85,19.15,10.53Zm-32.43-26.39c.66-1,.99-2.22,1.67-3.81,3.32,5.71,6.31,10.79,9.19,15.92.42.75.66,1.92.38,2.68-.9,2.45-2.08,4.8-3.53,8.04-2.37-3.38-4.11-6.2-6.2-8.75-3.62-4.42-4.88-8.93-1.52-14.07Zm-5.53,11.85c3.64,5.44,7.05,10.54,10.65,15.91-1.27,1.69-2.6,3.45-4.23,5.6-4.64-4.04-7.62-8.87-10.81-13.6,1.5-2.7,2.85-5.13,4.39-7.91Zm2.35,25.19c-.99.75-1.74,1.38-2.55,1.9-.7.45-1.47.77-2.75,1.43-3.26-4.2-6.5-8.38-10-12.88,2-1.41,3.56-2.51,5.12-3.61,3.42,4.42,6.68,8.63,10.19,13.17Zm-20.43-33.44c2.9,5.78,5.52,11,8.27,16.49-1.47,1.23-2.83,2.36-4.18,3.49-2.64-2.79-5.35-8.26-7.43-14.9.97-1.47,2.02-3.06,3.35-5.08Zm33.35-219.18c-2.42,2.89-4.91,5.72-7.68,8.93-1.32-3.39-2.49-6.4-3.85-9.87,3.03-3.29,6.13-6.66,9.23-10.03.36.09.71.18,1.07.26.68,2.95,1.41,5.88,1.98,8.85.11.56-.33,1.36-.75,1.86Zm12.93,8.44c-1.74,1.27-2.86,3.39-4.94,5.96-.51-4.67-.95-8.46-1.29-12.25-.04-.48.27-1.14.63-1.5,2.29-2.22,4.63-4.38,7.37-6.94.59,1.3.79,1.67.93,2.06,1.68,4.76,2.14,9.15-2.7,12.67Zm14.33-11.33c-1.81.93-3.65,1.89-6.05,3.12-.52-3.52-.95-6.41-1.36-9.19q3.26-2.18,7.42-1.02v7.08Zm-.57-14.12c-3.12.48-5.89.91-9.08,1.41-1.01-1.91-1.97-3.73-2.98-5.66,5.75-2.92,8.32,1.72,12.07,4.25Zm-17.21-2.37c1.28,2.43,2.42,4.59,3.72,7.07-2.52,2.13-4.92,4.14-7.62,6.41-1-3-1.86-5.61-2.88-8.67,2.29-1.63,4.32-3.07,6.77-4.81Zm-4.89-5.29c-2.23,1.76-3.84,3.03-5.58,4.41-1.26-.82-2.39-1.56-3.84-2.5,2.8-1.8,5.15-3.72,9.42-1.91Zm-16.66,7.03c2.94-2.94,3.5-2.8,6.8.85-3.12,3.5-6.27,7.03-9.59,10.76-1.55-.95-3.05-1.88-5-3.08,2.71-2.99,5.14-5.88,7.79-8.53Zm-10.13,11.96c1.76,1.66,3.01,2.85,4.4,4.17-2.67,4.54-5.15,8.74-7.75,13.16-1.48-1.26-2.73-2.32-4.38-3.71,2.51-4.42,4.96-8.75,7.72-13.62Z" stroke-width="0"/></svg>