<?xml version="1.0" encoding="UTF-8"?><svg id="Layer_1" xmlns="http://www.w3.org/2000/svg" viewBox="0 0 1000 1000"><path d="m989.42,411.24c-.13-1.39-.47-2.78-.89-4.12-1.47-4.57-2.95-9.14-4.54-13.66-3.2-9.09-6.83-17.95-12.91-25.6-2.34-2.95-4.43-6.09-7.24-9.98,1.64-1.27,3.38-2.31,4.72-3.72,1.93-2.03,3.79-4.2,5.3-6.56,2.39-3.73,1.29-6.45-3.05-6.87-5.31-.51-10.68-.42-16.02-.38-3.38.02-6.75.56-10.14.62-3.78.06-6.13,1.78-5.95,5.46.4,8.32,1.12,16.62,1.78,24.92.17,2.15,1.42,3.6,3.44,4.45,2.08.88,3.45-.19,4.9-1.45,3.16-2.77,6.41-5.44,9.96-8.44,2.11,2.86,4.28,5.45,6.06,8.29,2.92,4.66,5.72,9.42,8.32,14.27,2.26,4.21,4.28,8.56,6.21,12.94,1.36,3.1,2.38,6.34,3.55,9.52.24.66.45,1.34.77,1.97.78,1.57,1.74,3.15,3.82,2.56,2.09-.59,2.09-2.49,1.93-4.2Z" stroke-width="0"/><path d="m975.18,666.18c-1.94-.62-2.81.77-3.45,2.29-1.2,2.87-2.3,5.77-3.56,8.61-5.98,13.5-12.95,26.36-24.22,36.98-1.7-1.04-3.22-2.08-4.84-2.92-2.25-1.17-4.5-2.38-6.88-3.21-2.98-1.03-4.52,0-5.22,3.05-.16.68-.17,1.4-.27,2.1-1.21,7.86.89,15.45,1.9,23.12.32,2.46,1.65,3.26,4.24,3.04,1.26-.1,2.53-.34,3.74-.71,7.02-2.15,14.01-4.36,21.03-6.53,1.7-.53,3.27-1.22,3.51-3.21.23-1.97-1.16-2.97-2.58-4.02-2.68-1.98-5.23-4.13-8.01-6.35,1.25-1.65,2.15-2.89,3.1-4.09,6.63-8.32,12.17-17.33,17.28-26.64,3.03-5.53,4.5-11.56,5.81-17.64.34-1.56.36-3.27-1.56-3.89Z" stroke-width="0"/><path d="m957.38,534.05c-2.13-4.47-4.26-8.93-6.38-13.4-.31,0-.61.02-.92.03-.64,2.19-.95,4.56-1.99,6.55-2.71,5.22-1.97,9.96,1.24,14.59.31.45.55.95,1.06,1.82.91-1.23,1.64-2.22,2.37-3.21.3.08.61.16.91.24-.18,1.55-.04,3.23-.62,4.62-1,2.38-.83,4.56-.15,6.96.76,2.67,1.14,5.44,1.68,8.17-.32.15-.63.3-.95.44-1.37-2-2.74-4-4.46-6.51-1.6,2.95-3.2,5.53-4.38,8.29-.41.97.09,2.4.37,3.57.84,3.56,1.88,7.08,2.62,10.66.3,1.47.05,3.05.05,5.44-4.22-3.85-3.95-9.08-6.48-13.25-1.04,1.51-1.89,2.76-3.06,4.47,0-.82-.12-1.2.02-1.41,3.01-4.78,1.38-9.16-2-12.59-3.79-3.85-3.53-7.34-1.28-11.71,1.99-3.87,3.23-8.12,4.92-12.16.78-1.85.72-3.47-.31-5.19-2.69-4.47-5.31-8.99-7.94-13.5-.68-1.16-1.31-2.34-1.66-3.69,5.65,3.38,8.45,9.13,12.37,14.43,2.29-4.18,3.07-8.59,4.14-12.86.22-.9-.49-2.16-1.04-3.1-1.93-3.29-4-6.49-5.95-9.76-.83-1.39-1.51-2.88-1.88-4.62,2.59.46,3.78,2.57,5.37,4.11,1.72,1.66,3.3,3.46,5,5.26.73-1,1.4-1.91,2.25-3.07.34.73.67,1.11.64,1.45-.44,4.84,1.25,8.97,3.47,13.22,2.45,4.69,4.31,9.78,4.13,15.26l-1.14.45Zm-14.12,25.83c1.46-3.16,2.68-5.67,3.78-8.23.3-.71.52-1.69.28-2.37-1-2.84-2.2-5.6-3.65-9.2-2.38,4.42-4.32,8.03-6.22,11.56,1.94,2.75,3.7,5.25,5.81,8.24Z" stroke-width="0"/><path d="m896,408c-.97,3.89.89,7.8,0,14.64.08-.37.22-.81.36-1.45,2.88,1.58,5.18,3.44,6.64,5.92.74,1.26.44,3.21.4,4.84-.12,5.18-.35,10.36-.53,15.54.52.12,1.05.25,1.87.45,1.13-3.8,2.24-7.55,3.44-11.57,2.03,1.01,2.32,3.16,3.52,4.57,3.63,4.27,4.67,8.76,2.8,14.37-1.92,5.75.31,11.42,2.29,16.89.13.37.49.69.8.96.19.17.51.19.99.35,1.89-2.29.88-5.05,1.03-7.58.15-2.62.03-5.25.49-7.96,5.39,8.28,7.11,18.16,12.07,26.5l.99-.24c-.15-1.71-.04-3.5-.51-5.12-2.74-9.49-5.49-18.99-8.54-28.38-.89-2.73-1.05-5.18-.13-7.8,1.01-2.88,2.01-5.77,3.37-9.68,1.52,2.58,2.51,4.2,3.45,5.86.9,1.6,1.64,3.3,2.63,4.84,3.33,5.16,5.4,10.31,2.43,16.55-1.27,2.68-1.29,5.96-.19,9.37,3.64-2.13,2.75-6.45,5.53-9.48,3.83,11.07,6.18,22.16,10.26,32.7,1.41-8.23.63-16.25-1.82-24.11-1.47-4.72-3-9.42-4.66-14.08-.62-1.73-.67-3.21.13-4.86,1.29-2.65,2.43-5.38,4.04-9,.89,1.99,1.46,3.18,1.96,4.39.86,2.09,1.63,4.22,2.52,6.3,1.49,3.5,1.94,6.91.39,10.62-.99,2.38-1.9,5-1.01,8.04,3.09-1.09,2.42-4.44,4.66-6.43,2.24,5.24,2.88,10.8,5.1,16.23,1.26-1.41.84-2.76.68-4.02-.74-5.74-1.53-11.48-2.28-17.22-.57-4.32.1-6.15,3.79-10.07.54,1.6,1.09,2.98,1.48,4.4,5.52,20.13,8.41,40.58,8.7,61.5.5,36.5-3.96,72.16-16.33,106.66-2.67,7.44-6.22,14.45-10.38,21.79-2.35-3.91-3.17-6.98-1.47-11.26,3.64-9.16,6.49-18.64,9.48-28.05.61-1.92.39-4.1.09-6.28-2.29,2.94-2.38,6.68-3.77,9.9-1.45,3.37-2.88,6.75-4.41,10.09-1.52,3.32-3.15,6.58-5.09,10.59-1.55-4.37-2.87-8.06-4.41-12.38-1.9,2.34-2.38,4.39-2.17,6.43.37,3.63.87,7.27,1.66,10.83.46,2.06.47,3.77-.69,5.6-1.71,2.7-3.19,5.53-4.78,8.31-.35-.03-.7-.06-1.06-.09-1.01-4-2.23-7.97-2.9-12.03-.25-1.49.74-3.23,1.31-4.81,2.52-7.04,5.13-14.05,7.6-21.11.77-2.2,1.26-4.52.34-7.55-5.1,7.18-7.93,14.87-12.04,22.37-2.38-3.89-2.48-8.4-5.68-11.84-1.23,2.29-1.76,4.45-1.58,6.64.33,4.07.67,8.16,1.45,12.16.52,2.68.41,4.94-1.22,7.19-1.4,1.92-2.54,4.03-4.29,6.84-.99-3.71-1.59-6.66-2.57-9.49-1.36-3.93-.86-7.42.55-11.39,2.67-7.56,4.43-15.45,6.41-23.24.35-1.36-.06-2.9-.12-4.36-.3-.05-.6-.11-.9-.16-2.99,6.85-5.97,13.71-8.96,20.56-.25-.05-.5-.1-.75-.16-.62-2.03-1.25-4.07-2.01-6.57-3.6,5.96-1.71,12.51-4.24,18.19-.61-4.35-1.31-8.69-1.75-13.05-.1-.99.65-2.1,1.12-3.11,3.54-7.55,7.23-15.05,8.35-23.44.25-1.85.04-3.75.04-6.3-2.81,2.3-2.79,5.18-3.9,7.46-1.24,2.53-2.12,5.25-3.48,7.72-1.28,2.33-2.96,4.44-4.73,7.04h0s4.15,13.52,4.15,30.52-5,45-20.09,57.03h0s0,0,0,0c6.2,1.74,11.53,3.68,17.03,4.65,4.97.88,10.18,1.16,15.08-.81,12.73-5.12,23.37-12.82,31.4-24.25,11.11-15.81,18.8-33.13,24.4-51.49,7.67-25.14,11.65-50.91,13.01-77.14,1.41-27.26-.38-54.26-6.25-80.93-3.51-15.94-8.53-31.36-16.87-45.52-4.11-6.99-8.92-13.42-15.15-18.7-14.03-11.9-29.99-12.83-45.31-2.66-1.14.76-2.31,1.49-3.4,2.18-.32-.28-.47-.35-.5-.45h0s0,0,0,0c0,0,1.65,7.07.65,11.07Zm-2.36,276.49l-.79-1c2-1.62,4-3.24,6.19-5.01.64.78,1.15,1.38,2.02,2.45-2.66,1.28-5.04,2.42-7.42,3.56Zm6.31-26.43c.77-4.16,1.41-8.35,1.85-12.55.31-2.93,2.24-4.67,4.12-7.07,1.46,4.4,2.83,8.39,4.07,12.43.22.71.15,1.77-.25,2.36-2.59,3.83-5.31,7.57-8.25,11.7-1.66-2.51-1.97-4.52-1.53-6.87Zm5.02,14.77c3.12-3.95,6.21-7.86,9.62-12.17,1.32,2.17,2.46,4.05,3.76,6.19-2.85,4.17-6.89,6.86-11,10.03-1-1.71-1.63-2.79-2.37-4.05Zm7.08,10.72c4.25-3.66,7.85-6.75,11.55-9.94.94.6,1.87,1.2,2.7,1.73.04,2.82-8.75,8.09-14.24,8.21Zm10.24-21.82c-1.61-2.59-2.8-4.5-4.12-6.62,1.7-3.37,3.39-6.73,5.46-10.82,1.36,3.71,2.53,6.66,3.48,9.68.21.65-.16,1.68-.59,2.31-1.18,1.71-2.54,3.3-4.23,5.46Zm7.94,9.76c-1.29-.99-2.15-1.65-3.37-2.59,1.75-2.52,3.39-4.89,5.13-7.4,1.37.89,2.53,1.64,4.05,2.63-1.92,2.43-3.71,4.69-5.81,7.36Zm9.65-12.01c-1.7-1.48-2.94-2.55-4.43-3.86,2.05-3.83,4.01-7.49,6.32-11.8,1.41,2.29,2.43,3.94,3.68,5.96-1.75,3.05-3.53,6.16-5.56,9.7Zm-21.39-222.12c-2.45-4.08-4.73-7.76-6.86-11.52-.35-.62-.31-1.69-.04-2.39.87-2.19,1.95-4.3,3.3-7.22,2.99,3.81,5.55,7.06,8.13,10.36-1.52,3.61-2.93,6.95-4.54,10.78Zm22.65,6.08c-.59-.86-1.16-1.58-1.59-2.37-2.2-4.11-4.11-8.39-6.61-12.31-1.64-2.57-1.63-4.63.02-6.95.95-1.35,1.86-2.73,3.15-4.65,3.56,5.8,6.78,11.04,9.8,15.96-1.79,3.86-3.21,6.92-4.78,10.31Zm20.52-4.38c.28.77.06,1.93-.33,2.7-.82,1.6-1.9,3.07-3.34,5.31-1.56-3.76-2.85-6.68-3.96-9.67-.24-.65-.05-1.67.31-2.31.94-1.66,2.08-3.2,3.52-5.37,1.43,3.44,2.73,6.35,3.8,9.34Zm-18.05-31.21c4.64,4.88,8.03,10.14,11.15,15.88-1.66,1.54-3.18,2.95-5.04,4.67-3.18-5.41-6.22-10.6-9.53-16.24,1.15-1.44,2.17-2.73,3.42-4.31Zm-4.03-3.93c-1.27.87-2.26,1.55-3.4,2.33-2.96-2.8-5.79-5.47-8.62-8.15,4.81.26,8.31,2.81,12.02,5.81Zm-17.72-1.09c3.36,2.87,6.44,5.5,9.78,8.35-1.66,2.44-3.2,4.72-5.03,7.42-2.95-3.28-5.72-6.38-8.88-9.9,1.45-2.05,2.72-3.86,4.14-5.87Zm-4.95-2.92c-1.24,1.5-2.46,2.99-3.86,4.69-2.37-1.34-4.62-2.62-7.07-4,3.63-2.91,7.04-3.97,10.93-.69Zm-16.48,6.39c3.47.91,6.41,2.79,9.38,5.47-1.07,2.37-2.13,4.72-3.37,7.47-3.34-2.57-6.34-4.85-9.3-7.16-1.49-1.16-1.38-2.81-.71-4.21.75-1.56,2.36-2,4-1.57Z" stroke-width="0"/><path d="m902.87,447.5c.52.13,1.05.25,1.87.45,1.13-3.8,2.24-7.55,3.44-11.57,2.03,1.01,2.32,3.16,3.52,4.57,3.63,4.27,4.67,8.76,2.8,14.37-1.92,5.75.31,11.42,2.29,16.89.13.37.49.69.8.96.19.17.51.19.99.35,1.89-2.29.88-5.05,1.03-7.58.15-2.62.03-5.25.49-7.96,5.39,8.28,7.11,18.16,12.07,26.5.33-.08.66-.16.99-.24-.15-1.71-.04-3.5-.51-5.12-2.74-9.49-5.49-18.99-8.54-28.38-.89-2.73-1.05-5.18-.13-7.8,1.01-2.88,2.01-5.77,3.37-9.68,1.52,2.58,2.51,4.2,3.45,5.86.9,1.6,1.64,3.3,2.63,4.84,3.33,5.16,5.4,10.31,2.43,16.55-1.27,2.68-1.29,5.96-.19,9.37,3.64-2.13,2.75-6.45,5.53-9.48,3.83,11.07,6.18,22.16,10.26,32.7,1.41-8.23.63-16.25-1.82-24.11-1.47-4.72-3-9.42-4.66-14.08-.62-1.73-.67-3.21.13-4.86,1.29-2.65,2.43-5.38,4.04-9,.89,1.99,1.46,3.18,1.96,4.39.86,2.09,1.63,4.22,2.52,6.3,1.49,3.5,1.94,6.91.39,10.62-.99,2.38-1.9,5-1.01,8.04,3.09-1.09,2.42-4.44,4.66-6.43,2.24,5.24,2.88,10.8,5.1,16.23,1.26-1.41.84-2.76.68-4.02-.75-5.74-1.53-11.48-2.28-17.22-.57-4.32.1-6.15,3.79-10.07.54,1.6,1.09,2.98,1.48,4.4,5.52,20.13,8.41,40.58,8.7,61.5.5,36.5-3.96,72.16-16.32,106.66-2.67,7.44-6.22,14.45-10.38,21.79-2.35-3.91-3.17-6.98-1.47-11.26,3.64-9.16,6.49-18.64,9.48-28.05.61-1.92.39-4.1.09-6.28-2.29,2.94-2.38,6.68-3.77,9.9-1.45,3.37-2.88,6.75-4.41,10.09-1.52,3.32-3.15,6.58-5.09,10.59-1.55-4.37-2.87-8.06-4.41-12.38-1.9,2.34-2.38,4.39-2.17,6.43.37,3.63.87,7.27,1.66,10.83.46,2.06.47,3.77-.69,5.6-1.71,2.7-3.19,5.53-4.78,8.31-.35-.03-.7-.06-1.06-.09-1.01-4-2.23-7.97-2.9-12.03-.25-1.49.74-3.23,1.31-4.81,2.52-7.04,5.13-14.05,7.6-21.11.77-2.2,1.26-4.52.34-7.55-5.1,7.18-7.93,14.87-12.04,22.37-2.38-3.89-2.48-8.4-5.68-11.84-1.23,2.29-1.75,4.45-1.58,6.64.33,4.07.67,8.16,1.45,12.16.52,2.68.41,4.94-1.22,7.19-1.4,1.92-2.54,4.03-4.29,6.84-.99-3.71-1.59-6.66-2.57-9.49-1.36-3.93-.86-7.42.55-11.39,2.67-7.56,4.43-15.45,6.41-23.24.35-1.36-.06-2.9-.12-4.36-.3-.05-.6-.11-.9-.16-2.99,6.85-5.97,13.71-8.96,20.56-.25-.05-.5-.1-.75-.16-.62-2.03-1.25-4.07-2.01-6.57-3.6,5.96-1.71,12.51-4.24,18.19-.61-4.35-1.31-8.69-1.75-13.05-.1-.99.65-2.1,1.13-3.11,3.54-7.55,7.23-15.05,8.35-23.44.25-1.85.04-3.75.04-6.3-2.81,2.3-2.79,5.18-3.9,7.46-1.24,2.53-2.12,5.25-3.48,7.72-1.28,2.33-2.96,4.44-4.73,7.04-2.07-3.1-3.4-5.88-2.17-9.22,1.56-4.24,3.29-8.41,4.85-12.64,7.16-19.48,11.22-39.63,13.34-60.24,2.45-23.83-1.93-46.71-9.16-69.23-.6-1.86-1.33-3.68-2-5.52l.16-.13Zm54.51,86.55l1.14-.45c.18-5.48-1.68-10.58-4.13-15.26-2.22-4.25-3.91-8.38-3.47-13.22.03-.34-.3-.71-.64-1.45-.85,1.16-1.52,2.07-2.25,3.07-1.7-1.8-3.28-3.61-5-5.26-1.59-1.53-2.78-3.64-5.37-4.11.38,1.74,1.05,3.23,1.88,4.62,1.95,3.27,4.03,6.47,5.95,9.76.55.94,1.27,2.2,1.04,3.1-1.07,4.28-1.85,8.69-4.14,12.86-3.92-5.3-6.72-11.05-12.37-14.43.36,1.35.99,2.53,1.66,3.69,2.63,4.51,5.25,9.02,7.94,13.5,1.04,1.72,1.09,3.34.31,5.19-1.69,4.03-2.93,8.29-4.92,12.16-2.25,4.38-2.51,7.86,1.28,11.71,3.38,3.43,5.01,7.81,2,12.59-.13.21-.02.59-.02,1.41,1.17-1.71,2.02-2.95,3.06-4.47,2.53,4.17,2.26,9.39,6.48,13.25,0-2.39.25-3.97-.05-5.44-.74-3.58-1.78-7.1-2.62-10.66-.28-1.17-.78-2.61-.37-3.57,1.18-2.76,2.79-5.34,4.38-8.29,1.72,2.51,3.09,4.51,4.46,6.51.32-.15.63-.3.95-.44-.54-2.73-.92-5.51-1.68-8.17-.68-2.4-.85-4.58.15-6.96.58-1.38.44-3.07.62-4.62-.3-.08-.61-.16-.91-.24-.73.99-1.46,1.97-2.37,3.21-.51-.88-.75-1.37-1.06-1.82-3.21-4.63-3.95-9.37-1.24-14.59,1.03-1.99,1.35-4.35,1.99-6.55.31,0,.61-.02.92-.03,2.13,4.47,4.26,8.93,6.38,13.4Z" fill="#fff" stroke-width="0"/><path d="m945.91,433.13c-1.79,3.86-3.21,6.92-4.78,10.31-.59-.86-1.16-1.57-1.59-2.37-2.2-4.11-4.11-8.39-6.61-12.31-1.64-2.57-1.63-4.63.02-6.95.95-1.35,1.86-2.73,3.15-4.65,3.56,5.8,6.78,11.04,9.8,15.96Z" fill="#fff" stroke-width="0"/><path d="m905.91,638.43c1.46,4.4,2.83,8.39,4.07,12.43.22.71.15,1.77-.25,2.36-2.59,3.83-5.31,7.57-8.25,11.7-1.66-2.51-1.97-4.52-1.53-6.87.77-4.16,1.41-8.35,1.85-12.55.31-2.93,2.24-4.67,4.12-7.07Z" fill="#fff" stroke-width="0"/><path d="m918.49,437.36c-2.45-4.08-4.73-7.76-6.86-11.52-.35-.62-.31-1.69-.04-2.39.87-2.19,1.95-4.3,3.3-7.22,2.99,3.81,5.55,7.06,8.13,10.36-1.52,3.61-2.93,6.95-4.54,10.78Z" fill="#fff" stroke-width="0"/><path d="m940.19,412.16c1.15-1.44,2.17-2.73,3.42-4.31,4.64,4.88,8.03,10.14,11.15,15.88-1.66,1.54-3.18,2.95-5.04,4.67-3.18-5.41-6.22-10.6-9.53-16.24Z" fill="#fff" stroke-width="0"/><path d="m902.71,447.63c-3.45-7.81-6.69-15.69-6.78-24.43,0-.51.21-1.03.43-2.01,2.88,1.58,5.18,3.44,6.64,5.92.74,1.26.44,3.21.4,4.84-.12,5.18-.35,10.36-.53,15.54,0,0-.16.13-.16.13Z" fill="#fff" stroke-width="0"/><path d="m917.73,408.69c1.45-2.05,2.72-3.86,4.14-5.87,3.36,2.87,6.44,5.5,9.78,8.35-1.65,2.44-3.2,4.72-5.03,7.42-2.95-3.28-5.72-6.38-8.88-9.9Z" fill="#fff" stroke-width="0"/><path d="m906.44,419.23c-3.34-2.57-6.34-4.85-9.3-7.16-1.49-1.16-1.38-2.81-.71-4.21.75-1.56,2.36-2,4-1.57,3.47.91,6.41,2.79,9.38,5.47-1.07,2.37-2.13,4.72-3.37,7.47Z" fill="#fff" stroke-width="0"/><path d="m907.34,676.88c-1-1.71-1.63-2.79-2.37-4.05,3.12-3.95,6.21-7.86,9.62-12.17,1.32,2.17,2.46,4.05,3.76,6.19-2.85,4.17-6.89,6.86-11,10.03Z" fill="#fff" stroke-width="0"/><path d="m922.29,661.73c-1.61-2.59-2.8-4.5-4.12-6.62,1.7-3.37,3.39-6.73,5.46-10.82,1.36,3.71,2.53,6.66,3.48,9.68.21.65-.16,1.68-.59,2.31-1.18,1.71-2.54,3.3-4.23,5.46Z" fill="#fff" stroke-width="0"/><path d="m957.99,447.06c-1.56-3.76-2.85-6.68-3.96-9.67-.24-.65-.05-1.67.31-2.31.94-1.66,2.08-3.2,3.53-5.37,1.43,3.44,2.73,6.35,3.8,9.34.28.77.06,1.93-.33,2.7-.82,1.6-1.9,3.07-3.34,5.31Z" fill="#fff" stroke-width="0"/><path d="m941.76,643.82c1.41,2.29,2.43,3.94,3.67,5.96-1.75,3.05-3.53,6.16-5.56,9.7-1.7-1.48-2.94-2.55-4.43-3.86,2.05-3.83,4.01-7.49,6.32-11.8Z" fill="#fff" stroke-width="0"/><path d="m912.06,683.55c4.25-3.66,7.85-6.75,11.55-9.94.94.6,1.87,1.2,2.7,1.73.04,2.82-8.75,8.09-14.24,8.21Z" fill="#fff" stroke-width="0"/><path d="m930.23,671.49c-1.29-.99-2.15-1.65-3.37-2.59,1.75-2.52,3.39-4.89,5.13-7.4,1.37.89,2.53,1.64,4.05,2.63-1.92,2.43-3.71,4.69-5.81,7.36Z" fill="#fff" stroke-width="0"/><path d="m905.98,400.59c3.63-2.91,7.04-3.97,10.93-.69-1.24,1.5-2.46,2.99-3.86,4.69-2.37-1.34-4.62-2.62-7.07-4Z" fill="#fff" stroke-width="0"/><path d="m936.18,406.25c-2.96-2.8-5.79-5.47-8.62-8.15,4.81.26,8.31,2.81,12.02,5.81-1.27.87-2.26,1.55-3.4,2.33Z" fill="#fff" stroke-width="0"/><path d="m892.85,683.49c2-1.62,4-3.24,6.19-5.01.64.78,1.14,1.38,2.02,2.45-2.66,1.28-5.04,2.42-7.42,3.56-.26-.33-.52-.66-.79-1Z" fill="#fff" stroke-width="0"/><path d="m943.26,559.88c-2.11-3-3.88-5.5-5.81-8.24,1.9-3.53,3.84-7.14,6.22-11.56,1.45,3.6,2.64,6.37,3.65,9.2.24.68.03,1.66-.28,2.37-1.09,2.57-2.31,5.08-3.78,8.23Z" fill="#fff" stroke-width="0"/><polygon points="895.92 423.2 895.92 423.2 895.92 423.2 895.92 423.2 895.92 423.2" stroke-width="0"/></svg>