<?xml version="1.0" encoding="UTF-8"?><svg id="Layer_1" xmlns="http://www.w3.org/2000/svg" viewBox="0 0 1000 1000"><path d="m864.61,874.19c.17-11.04,1.5-21.36,5.04-31.31,1.53-4.28,3.48-8.34,6.6-11.73,5.99-6.5,12.84-7.21,19.99-2.04,4.91,3.55,8.42,8.32,11.33,13.54,6.34,11.36,10,23.63,11.75,36.46,1.9,13.97,1.86,27.95-2.11,41.57-1.76,6.03-4.43,11.85-7.2,17.52-2.36,4.82-11.12,7.42-16.6,5.01-3.02-1.33-5.9-3.36-8.33-5.63-5.13-4.79-8.54-10.85-11.23-17.28-6.22-14.92-9-30.53-9.25-46.11Zm19.67-35.47c-.36-.07-.72-.15-1.07-.22-2.09,4.75-4.22,9.47-6.25,14.24-5.28,12.42-6.84,25.29-4.3,38.58,2.91,15.25,11.09,27.62,21.43,38.79.29.31.74.46,1.11.69.11-.14.22-.29.33-.43-1.63-2.87-3.27-5.73-5.02-8.81,3.18.2,4.13,3.77,7.43,3.62-.87-1.82-1.57-3.27-2.38-4.94,1.74.15,3.13.27,5.17.45-1.57-2.34-2.7-4.03-3.96-5.91,1.67.09,2.97.16,4.76.25-1.32-2.21-2.35-3.95-3.64-6.11h4.09c-2.53-3.59-2.51-7.05-1.83-10.8,1.23-6.76.72-13.58-1.05-20.18-.88-3.29-.73-6.39-.26-9.61.25-1.67.49-3.36.54-5.04.02-.71-.45-1.43-.69-2.15-.36-.23-.73-.46-1.09-.68-.72,1.13-1.45,2.27-2.28,3.56-.5-3.67,2.46-6.72,1.17-11.16-1.79,1.95-3.13,3.42-4.47,4.88-.17-.05-.35-.09-.52-.14.81-2.94,1.62-5.89,2.42-8.83-.33-.16-.65-.32-.98-.48-2.02,2.31-4.04,4.62-6.06,6.92.94-3.82,2.39-7.47,2.95-12.34-4.48,3.99-6.32,8.52-8.85,13.1.61-6.16,3.8-11.37,3.28-17.23Z" fill="#fff" stroke-width="0"/><path d="m837.03,916.18c-7.32-.16-14.35-.29-21.38-.52-.92-.03-2.02-.36-2.68-.95-1.98-1.78-4.13-3.53-5.58-5.71-4.92-7.42-5.88-21.47,1.09-30.38,1.55-1.98,3.28-3.29,5.86-3.72,4.45-.74,8.84-1.83,13.27-2.7,1.48-.29,3.01-.35,4.94-.56-2.45,15.4-1.53,30.08,4.47,44.54Zm-6.49-16.22c-1.18-.77-1.58-1.23-2.04-1.29-6.59-.92-13.18-.82-19.74.29-1.22.21-2.12.97-1.83,2.35.33,1.59,1.66,1.78,2.98,1.67,5.61-.47,11.22-.93,16.81-1.53,1.09-.12,2.13-.81,3.82-1.49Zm-22.25-14.4c4.62,1.06,17.03-1.64,20.52-4.27-8.75-.18-17.16,1.47-20.52,4.27Zm19.4-9.26c-6.18,1.04-12.68.55-18.76,4.11,3.77,1.82,13.81-.47,18.76-4.11Zm-18.1,30.64c3.5,1.17,11.72-.11,16.36-2.92-5.41.26-9.98.44-14.56.71-1.25.08-2.16.7-1.81,2.21Zm15.81,2.74c-5.61-1.23-10.64-.87-12.94.92,4.55.81,10.19.41,12.94-.92Z" fill="#fff" stroke-width="0"/><path d="m851.71,858.07c.72-1.59,1.44-3.17,2.16-4.76-3.3,18.62-1.7,36.87,3.21,54.96-.28.1-.56.19-.84.29-.6-1.37-1.17-2.75-1.81-4.1-.62-1.31-1.31-2.58-1.97-3.86-.37.08-.74.16-1.12.25-.1,1.72-.21,3.44-.35,5.9-1.06-1.95-1.86-3.4-2.9-5.32-1.04,1.93-.39,3.46-.04,4.96.35,1.47.78,2.92,1.18,4.38-.29.09-.58.19-.87.28-1.4-3.79-2.8-7.58-4.2-11.37-.36.11-.72.21-1.08.32.68,4.07,1.36,8.15,2.04,12.22-.23.06-.47.12-.7.18-1.27-4.16-2.53-8.31-3.8-12.47l-.47.08c-.11,1.58-.21,3.16-.32,4.74-3.2-11.74-4.94-23.49-1-35.37.54-1.63.55-3.43,2.82-4.14.85-.26,1.26-2.07,1.8-3.2.64-1.34,1.19-2.71,2.17-4.94q0,6.07,1.19,6.48c1.3-3.6,2.6-7.19,3.91-10.78.28.07.56.15.84.22-.22,1.65-.45,3.3-.67,4.94.27.04.54.09.81.13Z" fill="#fff" stroke-width="0"/><path d="m887.08,945.92c-1.5-.89-2.71-1.51-3.81-2.28-4.82-3.36-8.66-7.67-11.86-12.56-7.8-11.93-12.25-25.08-14.01-39.15-1.82-14.59-1.25-29.06,2.93-43.25,1.93-6.55,4.71-12.68,9.61-18.28,0,.8.12,1.17-.02,1.38-5.89,9.32-8.49,19.69-9.35,30.5-1.39,17.36.15,34.44,5.79,51.02,2.42,7.12,5.4,14.03,9.85,20.1,3.14,4.28,6.97,8.07,10.87,12.52Z" fill="#fff" stroke-width="0"/><path d="m909.48,943.79c1.13-1.53,1.81-3.53,4.56-4.72-.94,3.09-3.19,3.44-4.56,4.72Z" fill="#fff" stroke-width="0"/><path d="m874.97,881.19c.81-4.4,1.56-8.81,2.45-13.2.25-1.22.78-2.43,1.39-3.52,2.28-4.03,5.47-4.5,8.39-.87,1.91,2.37,3.51,5.17,4.54,8.03,3.34,9.33,4.32,18.99,2.42,28.74-.58,2.96-1.96,5.88-3.47,8.52-1.42,2.49-3.49,2.77-5.7.93-1.58-1.31-3.24-2.99-3.91-4.85-2.77-7.65-6.42-15.15-6.11-23.79Zm5.62,7.46c-1.21,8.94,1.56,14.86,6.48,15.58-2.02-4.86-4.07-9.78-6.48-15.58Z" fill="#fff" stroke-width="0"/><path d="m925.05,908c.12,0,.24,0,.36,0,0,0,1.59-7,0-15.03-.12-.05-.24-.09-.36-.14-.14,6.98,0,10.11,0,15.16Z" fill="#fff" stroke-width="0"/><path d="m766.89,852.82c.06-.06.12-.12.19-.17-.06.06-.12.12-.19.17Z" fill="#fff" stroke-width="0"/><path d="m896.34,799.13c-7.97-1.53-15.16,0-20.57,6.67-.66.82-1.71,1.67-.37,2.88.37-.14.82-.2,1.14-.44,4.05-2.93,8.53-4.28,13.53-3.58,2.92.41,5.89.72,8.73,1.47,3.77.99,7.43,2.37,11.42,3.67.77-2.26-.48-3.32-1.62-4.3-3.58-3.09-7.64-5.48-12.26-6.37Z" stroke-width="0"/><path d="m933.64,958.35c4.76-6.53,8.09-13.69,5.18-22.22-2.01,6.64-4.28,13.26-8.74,18.48-4.4,5.15-9.78,9.46-14.73,14.14.17.27.34.54.51.82,7.87-.38,13.37-5.18,17.79-11.22Z" stroke-width="0"/><path d="m957.29,940.01c-.29,1.08-.6,2.18-.72,3.29-.81,7.59-3.88,14.32-7.47,20.95-3.4,6.28-8.17,11.06-14.27,14.63-2.43,1.42-4.88,2.84-7.21,4.41-1.2.81-2.17,1.95-3.24,2.94.22.25.45.5.67.75,15-1.45,24.36-10.57,31-23.36,3.85-7.41,4.81-20.17,1.86-24.09-.21.15-.57.27-.62.47Z" stroke-width="0"/><path d="m925.24,798.81c1.95-1.57,1.26-2.78.85-3.94-2.68-7.54-7.92-13.06-14.7-16.82-10.33-5.74-20.66-4.31-30.52,1.59-1.53.91-2.82,2.34-3.95,3.75-.93,1.15-1.69,2.6-.39,4.69,5.2-3.72,11-5.81,17.27-5.85,6.24-.04,12.22,1.23,18,3.96,5.88,2.78,8.96,8.35,13.45,12.63Z" stroke-width="0"/><path d="m934.6,848.42c3.83,4.86,6.39,10.06,8.79,15.43,2.61,5.82,1.29,11.73,1.72,17.67,5.43-4.42,6.92-14.79,3.7-21.86-2.91-6.39-9.39-11.8-14.21-11.24Z" stroke-width="0"/><path d="m961.09,827.78c.29-.32.22-.98.43-2.03-6.09,2.29-14.4,8.74-17.45,13.24-1.19,1.76-1.97,3.6-1.68,6.38,1.78-.91,3.54-1.35,4.62-2.45,4.81-4.94,9.44-10.05,14.08-15.14Z" stroke-width="0"/><path d="m950.19,883.1c5.91,4.99,20.65,7.76,25.13,5.38-2.79-2.66-13.39-6.11-20.09-6.37-1.37-.05-2.77.52-5.03.99Z" stroke-width="0"/><path d="m884.28,838.71c.53,5.86-2.66,11.07-3.28,17.23,2.53-4.58,4.37-9.11,8.85-13.1-.56,4.88-2.01,8.52-2.95,12.34,2.02-2.31,4.04-4.62,6.06-6.92.33.16.65.32.98.48-.81,2.94-1.62,5.89-2.42,8.83.17.05.35.09.52.14,1.34-1.46,2.68-2.92,4.47-4.88,1.29,4.43-1.67,7.49-1.17,11.16.83-1.29,1.55-2.43,2.28-3.56.36.23.73.46,1.09.68.25.72.72,1.44.69,2.15-.05,1.68-.3,3.37-.54,5.04-.48,3.22-.62,6.33.26,9.61,1.77,6.6,2.28,13.42,1.05,20.18-.68,3.75-.7,7.21,1.83,10.8h-4.09c1.28,2.16,2.32,3.9,3.64,6.11-1.79-.09-3.09-.16-4.76-.25,1.26,1.88,2.39,3.57,3.96,5.91-2.04-.18-3.43-.3-5.17-.45.8,1.67,1.5,3.13,2.38,4.94-3.3.14-4.25-3.42-7.43-3.62,1.76,3.08,3.39,5.95,5.02,8.81-.11.14-.22.29-.33.43-.37-.23-.83-.38-1.11-.69-10.33-11.17-18.51-23.54-21.43-38.79-2.54-13.29-.98-26.15,4.3-38.58,2.03-4.77,4.16-9.49,6.25-14.24.36.07.72.15,1.07.22Zm-9.31,42.48c-.31,8.64,3.34,16.14,6.11,23.79.67,1.86,2.34,3.53,3.91,4.85,2.2,1.83,4.28,1.55,5.7-.93,1.51-2.65,2.89-5.56,3.47-8.52,1.9-9.76.92-19.42-2.42-28.74-1.02-2.86-2.63-5.66-4.54-8.03-2.93-3.62-6.11-3.15-8.39.87-.62,1.09-1.15,2.3-1.39,3.52-.89,4.38-1.64,8.8-2.45,13.2Z" stroke-width="0"/><path d="m830.54,899.97c-1.7.68-2.73,1.37-3.82,1.49-5.6.6-11.21,1.06-16.81,1.53-1.32.11-2.64-.09-2.98-1.67-.29-1.39.61-2.15,1.83-2.35,6.56-1.11,13.15-1.21,19.74-.29.46.06.86.53,2.04,1.29Z" stroke-width="0"/><path d="m808.29,885.57c3.37-2.79,11.77-4.45,20.52-4.27-3.49,2.62-15.9,5.33-20.52,4.27Z" stroke-width="0"/><path d="m827.69,876.32c-4.95,3.64-14.99,5.93-18.76,4.11,6.08-3.56,12.58-3.07,18.76-4.11Z" stroke-width="0"/><path d="m809.59,906.96c-.35-1.51.55-2.13,1.81-2.21,4.57-.28,9.15-.46,14.56-.71-4.64,2.81-12.86,4.1-16.36,2.92Z" stroke-width="0"/><path d="m825.4,909.69c-2.75,1.33-8.38,1.73-12.94.92,2.29-1.79,7.33-2.14,12.94-.92Z" stroke-width="0"/><path d="m880.59,888.65c2.41,5.8,4.46,10.72,6.48,15.58-4.92-.71-7.69-6.64-6.48-15.58Z" stroke-width="0"/><path d="m743,868.97c.39,4.58.78,8.79,1.1,13.01.76,10.17,5.19,18.69,11.85,26.16,2.86,3.22,6.46,5.49,10.57,6.83,7.61,2.48,15.21,2.74,22.87.09,4.64-1.61,9.3-3.27,14.45-3.18,2.65,4.26,6.57,7.02,11.25,7.68,6.55.94,13.23,1.27,19.86,1.25,3.58-.01,6.26.59,8.23,3.71.66,1.04,1.73,1.88,2.75,2.62,6.26,4.55,11.98,9.85,19.07,13.28,5.72,2.76,11.18,6.04,16.74,9.13,4.43,2.46,9.23,3.49,14.21,3.75,6.1.31,11.46-1.72,15.86-5.87,2.65-2.5,5.04-5.31,7.27-8.19,4.22-5.46,6.55-11.87,8.27-18.45,4.36-16.68,4.73-33.51,1.3-50.41-2.35-11.59-6.34-22.57-12.53-32.69-3.72-6.09-8.11-11.69-14.24-15.47-10.81-6.68-21.42-6.95-31.12.77-7.64,6.08-14.9,12.58-21.19,20.07-5.25,6.26-11.07,12.18-13.81,20.16-.56,1.63-1.71,1.96-3.21,2.22-3.75.66-7.5,1.38-11.2,2.28-2.46.6-4.83,1.56-7.25,2.34-8.37,2.69-12.3,9.04-13.91,17.16-.65,3.28-.88,6.65-1.37,10.59-7.41,1.19-14.87,2.91-22.43,3.47-11.43.84-20.25-5.63-22.63-16.3-1.44-6.45-2.01-13.09-2.97-19.62.52-.43.82-.74,1.17-.96,0,0-4.96,2.61-12.16,5.35,0,0,0,0,0,0,0,0,0,0,0,0,1.01-.3,2.05-.5,3.2-.77Zm166.48,74.82c1.13-1.53,1.8-3.53,4.56-4.72-.94,3.09-3.19,3.44-4.56,4.72Zm15.93-35.79c-.12,0-.24,0-.36,0,0-5.05-.14-8.18,0-15.16.12.05.24.09.36.14,1.59,8.03,0,15.03,0,15.03Zm-49.15-76.85c5.99-6.5,12.84-7.21,19.99-2.04,4.91,3.55,8.42,8.32,11.33,13.54,6.34,11.36,10,23.63,11.75,36.46,1.9,13.97,1.86,27.95-2.11,41.57-1.76,6.03-4.43,11.85-7.2,17.52-2.36,4.82-11.12,7.42-16.6,5.01-3.03-1.33-5.9-3.36-8.33-5.63-5.13-4.79-8.54-10.85-11.23-17.28-6.22-14.92-9-30.53-9.25-46.11.17-11.04,1.5-21.36,5.04-31.31,1.53-4.28,3.48-8.34,6.6-11.73Zm-15.93,17.53c1.93-6.55,4.71-12.68,9.61-18.28,0,.8.12,1.17-.02,1.38-5.89,9.32-8.49,19.69-9.35,30.5-1.39,17.36.15,34.44,5.79,51.02,2.42,7.12,5.4,14.03,9.85,20.1,3.15,4.28,6.97,8.07,10.87,12.52-1.5-.89-2.71-1.51-3.81-2.28-4.82-3.36-8.66-7.67-11.86-12.56-7.8-11.93-12.25-25.08-14.01-39.15-1.82-14.59-1.25-29.06,2.93-43.25Zm-21.49,20.67c.54-1.63.55-3.43,2.82-4.14.85-.26,1.26-2.07,1.8-3.2.64-1.34,1.19-2.71,2.17-4.94q0,6.07,1.19,6.48c1.3-3.6,2.6-7.19,3.91-10.78.28.07.56.15.84.22-.22,1.65-.45,3.3-.67,4.94.27.04.54.09.81.13l2.16-4.76c-3.3,18.62-1.7,36.87,3.21,54.96-.28.1-.56.19-.84.29-.6-1.37-1.17-2.75-1.81-4.1-.62-1.31-1.31-2.58-1.97-3.86-.37.08-.74.16-1.12.25-.1,1.72-.21,3.44-.35,5.9-1.06-1.95-1.86-3.4-2.9-5.32-1.04,1.93-.39,3.46-.04,4.96.35,1.47.78,2.92,1.18,4.38-.29.09-.58.19-.86.28-1.4-3.79-2.8-7.58-4.2-11.37-.36.11-.72.21-1.08.32.68,4.07,1.36,8.15,2.04,12.22-.23.06-.47.12-.7.18-1.27-4.16-2.53-8.31-3.8-12.47l-.47.08c-.11,1.58-.21,3.16-.32,4.74-3.2-11.74-4.94-23.49-1-35.37Zm-30.36,9.27c1.55-1.98,3.28-3.29,5.86-3.72,4.45-.74,8.84-1.83,13.27-2.7,1.48-.29,3.01-.35,4.94-.56-2.45,15.4-1.53,30.08,4.47,44.54-7.32-.16-14.35-.29-21.38-.52-.92-.03-2.02-.36-2.68-.95-1.98-1.78-4.13-3.53-5.58-5.71-4.92-7.42-5.88-21.47,1.09-30.38Z" stroke-width="0"/></svg>