<svg xmlns="http://www.w3.org/2000/svg" viewBox="0 0 44.03 43.4"><path d="M4.47,32.52l-1.08-.71,3.67-4.12L1,31.18l-.57-1L6,27c-1.21.7-4.49.37-6,.12l.22-.79c.55.57,2.42,1.4,5.47.17,3.82-1.54,4.61-6,5.76-8.66.92-2.13-4.57-5.59-7.43-7l.72-1.08,6.13,2.46L6,8.32l1-.59c1.28,1,4.56,3.24,7.5,3.68,3.68.54,5.12-1.62,7.64-3.08,2-1.16.88-5.84.07-8l.5-.29,1.37,5.87L23.76.71l.79.21C24.41,3,27.08,8.79,27.37,9.29s.94,2.8,5.77,5.34c3.87,2,6.32-1.87,7.06-4.08l1.59.42-4.9,5.5,6.56-3.79.58,1A65.51,65.51,0,0,0,34.81,21c-.72,1.09-3.24,2.54-4.46,8.58a14.41,14.41,0,0,0-.09,5.34,18.85,18.85,0,0,0,6,3.26l-1.73,1a8.16,8.16,0,0,1-3.82-2.45,9.94,9.94,0,0,0,1.84,3.6l-.51.29a12,12,0,0,0-1.66-1.71c-1.73-1.44-6-4.29-9.08-4.09s-3.6,5.41-3.45,8l-1,.58.13-6.56a34.53,34.53,0,0,1-2.22,6.43l-.58-1a14.61,14.61,0,0,0,.5-9.62c-1.59-5.08-5-5.13-7.29-4.46C5.51,28.72,4.66,31.29,4.47,32.52Z" fill="#4e4e4e"/><circle cx="22.35" cy="22.93" r="6" fill="#fff"/></svg>