<?xml version="1.0" encoding="UTF-8"?><svg id="Layer_1" xmlns="http://www.w3.org/2000/svg" viewBox="0 0 100 100"><path d="m13.89,55.08c.24.17.71.21.98.09.68-.29,1.31-.71,1.97-1.06,2.36-1.26,4.82-2.25,7.55-2.01,1.63.14,3.34.17,4.7,1.37,1.56,1.37,2.91,2.87,3.81,4.78.42.9,1.08,1.7,1.7,2.5,3.06,3.93,6.97,6.64,11.69,8.21,1.99.66,3.78,1.69,5.13,3.29,1.08,1.28,2.27,2.62,1.82,4.53-.38,1.65-.77,3.31-1.88,4.68-.59.74-1.16,1.49-1.68,2.28-.17.26-.16.64-.23.96.33.07.67.2,1,.19.24,0,.5-.15.72-.27,1.59-.91,2.92-2.07,3.72-3.76.38-.8.76-1.61,1.17-2.46.2.24.39.42.52.64,1.47,2.55,3.64,4.37,5.94,6.14,2.08,1.6,3.93,3.47,4.47,6.23.19.96.39,1.91.65,2.85.08.29.36.52.54.78.18-.28.52-.56.51-.83-.03-1.36-.07-2.72-.28-4.06-.2-1.27-.61-2.5-.95-3.84,1.12.11,2.15.2,3.18.31,1.76.18,3.45-.13,5.07-.78.27-.11.42-.5.63-.76-.31-.17-.6-.36-.92-.52-.1-.05-.26,0-.39,0-4.57-.02-8.83-.95-12.54-3.86-5.25-4.1-3.34-10.03,1.13-12.58,1.54-.88,3.09-1.87,4.37-3.08,1.61-1.54,3.37-2.59,5.54-3.11,1.68-.4,3.07-.11,4.3,1.11,1.87,1.85,3.58,3.79,4.78,6.16.15.29.61.43.92.63.09-.37.28-.75.24-1.11-.07-.61-.22-1.23-.46-1.79-.78-1.84-1.62-3.67-2.45-5.54.22-.02.53-.05.84-.08,2.55-.28,5.07-.67,7.1-2.42.3-.25.42-.71.62-1.08-.39-.01-.78-.03-1.17-.03-.06,0-.12.06-.18.08-1.88.5-3.69,1.13-5.73,1.02-4.78-.25-7.35-3.47-7.98-7.91-.48-3.36-1.31-6.59-3.19-9.48-3.69-5.67-8.98-8.92-15.48-10.51-2.89-.7-5.04-2.54-6.25-5.33-1.81-4.17-.37-7.87,1.84-11.36.64-1.01,1.81-1.67,2.65-2.56.26-.27.25-.79.36-1.19-.39-.08-.87-.35-1.16-.21-1.22.59-2.52,1.13-3.54,1.99-1.7,1.45-3.42,2.96-4.02,5.3-.24-.14-.35-.17-.4-.24-2.31-2.86-5.42-4.09-8.97-4.37-.46-.04-1.2.18-1.39.52-.35.62.24,1.05.76,1.37.19.12.39.24.59.34,2,1.07,3.95,2.28,5.34,4.07,2.68,3.43,3.08,5.6,1.01,9.34-.27.48-.54.99-.92,1.39-1.93,2.06-3.95,4.04-5.83,6.14-1.19,1.33-2.34,2.74-3.24,4.27-.74,1.25-1.68,2.14-2.9,2.8-.8.44-1.62.86-2.48,1.17-2.39.86-4.72.48-6.65-1.04-1.28-1-2.19-2.47-3.25-3.75-.41-.49-.81-1.01-1.54-.73-.7.27-.69.88-.58,1.49.43,2.32,1.34,4.42,2.91,6.21.49.56,1,1.11,1.45,1.61-1.47,1.14-3,2.16-4.32,3.4-.71.67-1.11,1.7-1.56,2.61-.1.21.05.72.25.85Z" fill="#0095ff" stroke-width="0"/><path d="m57.08,11.32c-.22.2-.37.63-.33.93.11.73.36,1.44.54,2.17.64,2.6.99,5.23.09,7.81-.54,1.55-.99,3.2-2.49,4.22-1.71,1.17-3.5,2.12-5.57,2.52-.98.19-1.92.62-2.84,1.03-4.56,1.99-8.16,5.12-10.84,9.3-1.13,1.77-2.57,3.24-4.46,4.16-1.51.73-3.1,1.55-4.84.65-1.51-.78-3.01-1.57-4.07-2.97-.57-.75-1.16-1.49-1.79-2.19-.21-.23-.58-.31-.87-.46-.15.31-.35.6-.43.92-.06.23.02.52.09.76.49,1.76,1.29,3.34,2.73,4.54.68.57,1.37,1.14,2.1,1.74-.28.13-.51.28-.75.35-2.83.79-5.14,2.45-7.42,4.24-2.06,1.62-4.33,2.96-7.14,2.79-.97-.06-1.95-.09-2.93-.07-.3,0-.59.22-.89.34.22.24.41.64.68.7,1.32.3,2.66.6,4,.73,1.28.12,2.57.02,3.95.02-.38,1.06-.72,2.04-1.08,3.01-.61,1.66-.73,3.37-.49,5.11.04.29.38.53.58.8.24-.25.5-.5.73-.77.07-.09.06-.25.09-.38,1.14-4.43,3.1-8.32,6.83-11.21,5.27-4.08,10.54-.76,11.91,4.2.47,1.71,1.05,3.45,1.91,4.99,1.09,1.94,1.68,3.91,1.64,6.13-.03,1.73-.65,3-2.13,3.89-2.25,1.35-4.56,2.54-7.15,3.11-.32.07-.56.49-.84.74.34.18.66.45,1.02.5.61.08,1.25.09,1.85,0,1.98-.3,3.95-.66,5.98-1.01-.03.22-.08.53-.13.84-.36,2.54-.6,5.08.59,7.48.17.35.59.58.89.86.11-.37.22-.75.32-1.12.02-.06-.03-.13-.03-.19-.02-1.94-.18-3.85.42-5.8,1.42-4.57,5.17-6.26,9.63-5.78,3.37.36,6.71.36,9.97-.76,6.41-2.18,10.86-6.5,14-12.41,1.39-2.63,3.71-4.25,6.7-4.74,4.48-.73,7.72,1.58,10.55,4.58.82.87,1.17,2.16,1.83,3.2.2.31.7.44,1.07.65.17-.36.55-.76.49-1.07-.27-1.33-.47-2.72-1.06-3.92-.98-2-2.02-4.04-4.15-5.2.2-.2.25-.3.33-.33,3.34-1.53,5.3-4.24,6.45-7.61.15-.44.12-1.21-.16-1.48-.51-.49-1.08-.03-1.52.4-.16.16-.33.32-.48.49-1.53,1.68-3.19,3.27-5.26,4.18-3.98,1.75-6.19,1.6-9.3-1.32-.4-.38-.82-.77-1.12-1.23-1.52-2.38-2.94-4.82-4.51-7.17-.99-1.48-2.08-2.94-3.34-4.2-1.02-1.02-1.66-2.16-2-3.5-.23-.88-.43-1.78-.52-2.69-.24-2.53.7-4.69,2.64-6.19,1.29-.99,2.94-1.51,4.43-2.23.58-.28,1.18-.54,1.09-1.31-.09-.75-.69-.89-1.3-.93-2.35-.15-4.61.21-6.73,1.29-.66.34-1.32.69-1.91,1.01-.74-1.71-1.35-3.44-2.23-5.02-.47-.86-1.38-1.49-2.15-2.16-.17-.15-.71-.12-.88.03Z" stroke-width="0"/><path d="m49.22,48.98c-1.33,0-2.58-.02-3.82,0-1.11.02-1.48-.31-1.53-1.46-.05-1.04.33-1.46,1.39-1.51,1.05-.05,2.11-.1,3.16-.09.74,0,.99-.25,1.11-1.03.52-3.47,1.39-6.84,3.69-9.63,1.2-1.45,2.78-2.23,4.65-2.35,1.26-.08,2.42.88,3.03,2.53.55,1.49,1.04,3.03-.3,4.39-.71.72-2.07.72-2.71.08-.68-.68-.67-1.77.07-2.6.47-.52,1.2-1.07.53-1.77-.63-.66-1.39-.11-1.99.28-.9.57-1.53,1.41-1.67,2.47-.3,2.34-.52,4.69-.79,7.24,1.59-.07,2.99-.07,4.36-.22,1.82-.2,2.53.54,2.08,2.32-.19.77-.69,1.11-1.45,1.13-1.34.02-2.68.11-4.02.04-.88-.04-1.23.16-1.29,1.1-.18,2.61-.37,5.23-.74,7.82-.35,2.44-1.17,4.72-3.24,6.32-1.61,1.24-3.13,1.36-4.9.39-1.71-.94-2.98-2.26-3.81-4.04-.74-1.58-.34-3.03.52-4.35.72-1.11,1.65-1.22,2.94-.6.93.45,1.43,1.63,1.13,2.69-.08.27-.2.54-.33.79-.62,1.15-.47,2.12.44,2.78.8.59,2.15.34,2.94-.49.89-.94,1.25-2.08,1.19-3.33-.1-2.04-.26-4.08-.41-6.12-.07-.92-.15-1.83-.24-2.79Z" fill="#fff" stroke-width="0"/></svg>