<?xml version="1.0" encoding="UTF-8"?><svg id="Layer_1" xmlns="http://www.w3.org/2000/svg" viewBox="0 0 100 100"><path d="m90.74,50.38c-.25-.19-.73-.25-1.03-.14-.73.27-1.41.68-2.12,1.02-2.54,1.21-5.17,2.14-8.03,1.76-1.71-.23-3.51-.34-4.88-1.67-1.57-1.51-2.92-3.16-3.78-5.21-.4-.97-1.05-1.84-1.66-2.7-3.02-4.27-7.01-7.31-11.89-9.19-2.06-.79-3.89-1.96-5.23-3.71-1.08-1.4-2.26-2.86-1.7-4.85.48-1.72.97-3.44,2.2-4.83.66-.75,1.29-1.51,1.88-2.31.19-.26.2-.66.29-1-.35-.09-.69-.24-1.04-.25-.25,0-.53.13-.77.25-1.71.88-3.17,2.04-4.09,3.77-.44.83-.88,1.65-1.35,2.53-.2-.26-.39-.46-.52-.7-1.42-2.75-3.62-4.77-5.95-6.74-2.1-1.78-3.97-3.83-4.4-6.76-.15-1.02-.32-2.03-.55-3.03-.07-.31-.35-.57-.54-.85-.2.28-.57.56-.58.85-.03,1.43-.06,2.87.1,4.28.15,1.34.52,2.66.82,4.08-1.17-.17-2.25-.31-3.33-.47-1.84-.28-3.63-.03-5.37.58-.29.1-.47.5-.7.77.31.2.62.41.94.59.11.06.27,0,.41.01,4.8.24,9.23,1.42,13,4.65,5.32,4.56,3.03,10.7-1.79,13.17-1.67.85-3.34,1.81-4.74,3.03-1.77,1.54-3.67,2.56-5.97,3-1.79.34-3.23-.03-4.47-1.37-1.87-2.03-3.58-4.16-4.73-6.71-.14-.31-.62-.48-.94-.71-.11.39-.33.78-.3,1.16.05.64.17,1.3.4,1.91.73,1.98,1.52,3.93,2.31,5.94-.23.01-.56.03-.89.05-2.69.17-5.36.47-7.58,2.21-.32.25-.47.73-.7,1.1.41.03.82.07,1.22.09.06,0,.13-.06.19-.07,2-.43,3.93-1.01,6.07-.8,5.01.49,7.56,4,8.01,8.7.34,3.55,1.06,6.99,2.9,10.12,3.61,6.14,9.01,9.81,15.77,11.78,3,.88,5.17,2.91,6.31,5.9,1.7,4.46.02,8.29-2.47,11.85-.72,1.03-1.98,1.66-2.91,2.56-.28.27-.3.82-.44,1.24.41.1.9.41,1.21.28,1.31-.56,2.71-1.07,3.81-1.92,1.86-1.44,3.73-2.94,4.48-5.38.25.16.36.2.41.27,2.29,3.12,5.5,4.55,9.22,5.02.49.06,1.27-.14,1.49-.48.4-.63-.2-1.12-.74-1.48-.2-.13-.4-.27-.61-.39-2.06-1.22-4.05-2.59-5.42-4.53-2.65-3.73-2.97-6.04-.62-9.86.31-.5.62-1.01,1.03-1.41,2.13-2.07,4.34-4.06,6.42-6.17,1.32-1.34,2.59-2.77,3.61-4.33.84-1.27,1.87-2.17,3.18-2.81.86-.42,1.74-.83,2.66-1.11,2.55-.78,4.98-.28,6.94,1.41,1.3,1.11,2.18,2.71,3.24,4.09.41.53.8,1.1,1.59.85.75-.25.77-.9.68-1.54-.35-2.46-1.2-4.71-2.77-6.66-.49-.61-.99-1.21-1.44-1.76,1.6-1.12,3.26-2.12,4.7-3.36.78-.67,1.25-1.74,1.77-2.67.12-.21-.02-.75-.22-.9Z" stroke-width="0"/><ellipse cx="50.03" cy="53.35" rx="18.2" ry="20.54" transform="translate(-21.19 70.01) rotate(-60)" fill="#fff" stroke-width="0"/><ellipse cx="44.76" cy="53.68" rx="9.24" ry="10.89" stroke-width="0"/><path d="m44.12,47.66c.6-.43.68-.41,1.08.19.27.43.32,1.03.3,2.95-.03,1.33,0,3.98.11,5.93.19,3.9.11,4.14-1.11,4.01l-.6-.08-.22-5.23c-.27-6.12-.22-7.34.43-7.77Z" fill="#fff" stroke-width="0"/><path d="m68.94,9.92c.54.14,1.23.23,1.84.51,1.08.48,1.42,1.23,1.03,2.35-1.16,3.33-2.38,6.64-3.56,9.97-.26.74-.46,1.5-.69,2.26-.19.62-.55,1.05-1.26.96-.71-.09-.94-.59-.97-1.24-.21-4.1-.43-8.2-.65-12.31-.07-1.43.15-1.74,1.57-2.05.83-.18,1.69-.28,2.69-.44Z" fill="#ff0015" stroke-width="0"/><path d="m24.56,71.18c-.99.3-1.98.65-2.99.87-1,.22-2.03.38-3.05.43-.44.02-1.07-.15-1.31-.47-.18-.25.02-.91.24-1.28,1.02-1.7,2.1-3.37,3.24-5.17-.97-.08-1.83-.14-2.7-.21-.27-.02-.55,0-.82-.07-.58-.14-1.18-.34-1.13-1.1.05-.75.63-.93,1.25-.95,1.03-.03,2.06-.02,3.09-.02.65,0,1.31-.03,1.96.04,1.36.15,1.8,1.14,1.01,2.27-.95,1.35-1.94,2.66-2.91,4-.17.24-.3.52-.48.83,1.59.01,3.14-.57,4.53.41.02.14.05.29.07.43Z" fill="#ff0015" stroke-width="0"/><path d="m33.96,80.34c-2.03,1.09-4.19,1.76-6.5,1.85-1.08.04-1.53-.84-.93-1.89.86-1.52,1.84-2.97,2.77-4.46.2-.31.4-.62.7-1.07-1.01-.05-1.88-.09-2.75-.14-.34-.02-.72.03-1.01-.1-.3-.13-.53-.44-.79-.67.25-.24.48-.67.75-.7,1.91-.2,3.82-.37,5.74-.43.91-.03,1.31.87.79,1.73-.58.97-1.28,1.87-1.91,2.81-.65.96-1.28,1.93-2.01,3.03,1.82-.08,3.44-.16,5.06-.23.03.09.05.18.08.26Z" fill="#ff0015" stroke-width="0"/><path d="m40.86,86.3c2.06-.2,3.96-.39,5.86-.57.13.15.26.3.4.46-.26.07-.56.08-.78.22-2.12,1.33-4.46,1.92-6.93,2.04-1.31.07-1.76-.7-1.14-1.85.94-1.74,1.92-3.47,2.96-5.36-1.09,0-2.03.06-2.96-.03-.4-.04-.77-.38-1.16-.58.33-.29.62-.78.98-.84,1.38-.21,2.79-.4,4.19-.36,1.46.04,1.84.85,1.14,2.14-.71,1.33-1.46,2.64-2.19,3.96-.11.21-.2.43-.36.77Z" fill="#ff0015" stroke-width="0"/><path d="m21.39,54.26c-.52-.45-1.14-.83-1.55-1.36-1.68-2.15-3.91-3.11-6.56-3.38-.38-.04-.72-.44-1.08-.68.32-.36.57-.91.96-1.04.55-.19,1.21-.13,1.82-.07,3.58.34,6.03,2.35,6.56,5.37.06.32.05.66.08.99-.08.06-.15.11-.23.17Z" fill="#ff0015" stroke-width="0"/><path d="m65.3,76.66c0,1.01.11,1.79-.02,2.53-.42,2.48.23,4.52,2.2,6.15.3.25.34.8.5,1.21-.49.08-1.05.35-1.47.21-2.15-.71-3.73-3.51-3.42-5.87.27-2.03.82-3.18,2.2-4.23Z" fill="#ff0015" stroke-width="0"/><path d="m84.44,44.47c-.42.52-.78,1.1-1.27,1.54-2.25,2-7.33.63-8.53-1.17-.26-.39-.34-1.18-.11-1.54.4-.63,1.02-.26,1.49.14,1.75,1.49,3.74,1.71,5.89,1.16.75-.19,1.52-.3,2.28-.45.08.11.17.21.25.32Z" fill="#ff0015" stroke-width="0"/><path d="m66.21,28.76c1.74.05,2.67.77,2.66,2.06,0,1.37-1.3,2.57-2.73,2.53-1.27-.03-2.16-.99-2.14-2.28.03-1.6.75-2.35,2.22-2.31Z" fill="#ff0015" stroke-width="0"/></svg>