<?xml version="1.0" encoding="UTF-8"?><svg id="Layer_1" xmlns="http://www.w3.org/2000/svg" viewBox="0 0 100 100"><path d="m94.2,56.48c-.4-.71-.92-1.4-1.52-1.96-1.9-1.78-3.87-3.49-5.83-5.25,2.17-.94,3.94-2.69,5.49-4.66.62-.79,1.11-1.74,1.47-2.69.35-.91-.26-1.5-1.22-1.28-.35.08-.71.28-.99.52-2.38,2.09-5.17,3.45-8.12,4.5-1.74.62-3.45.53-5.15-.23-2.34-1.05-3.97-2.83-5.27-4.97-1.45-2.4-2.77-4.89-4.39-7.17-3.74-5.25-8.77-8.43-15.33-8.65-2.13-.07-4.12-.46-6.04-1.25-2.66-1.09-4.79-2.74-5.53-5.74-.53-2.14-1.1-4.28-1.74-6.39-.11-.38-.6-.65-.91-.97-.28.33-.77.65-.8,1.01-.17,1.78-.23,3.56-.32,5.35-.02.4.03.8.06,1.31-2.63-1.03-5.21-.93-7.8-.63-.34.04-.63.4-.95.61.23.31.39.71.69.92.39.27.88.41,1.33.56,1.58.51,3.17.97,4.74,1.52,2.39.84,3.57,2.66,3.79,5.09.09,1.02-.09,2.07-.23,3.09-.31,2.23-1.63,4.01-2.71,5.9-1.03,1.81-2.2,3.5-3.99,4.7-1.51,1.01-3.09,1.72-4.95,1.5-3.15-.37-5.95-1.4-7.99-4.04-2.13-2.76-4.46-5.39-5.77-8.68-.25-.63-.65-1.13-1.27-.84-.37.17-.72.87-.68,1.3.16,1.65.46,3.29,1.43,4.71.73,1.07,1.4,2.18,2.24,3.49-.64-.23-1.07-.35-1.46-.52-3.06-1.34-6.28-1.91-9.6-1.91-.68,0-1.39.11-2.02.35-.31.12-.45.67-.67,1.02.32.2.63.51.97.57.7.14,1.44.11,2.15.21,5.02.75,9.7,2.46,14.07,5.04,2.38,1.4,4.8,2.71,7.2,4.07.19.11.36.25.4.28-1.53,1.3-3.06,2.54-4.51,3.85-1.48,1.35-2.9,2.77-4.33,4.18-.48.47-.76,1.07-.16,1.63.57.53,1.06.14,1.54-.27,1-.85,2.04-1.66,3.04-2.51,2.3-1.95,4.95-2.71,7.92-2.35,2.75.34,5.01,1.34,6.06,4.26.89,2.49,2.48,4.61,4.17,6.65,1.2,1.45,2.35,3,3.23,4.66,1.19,2.26,2.3,4.64,1.46,7.33-.5,1.57-1.1,3.12-1.69,4.66-.89,2.33-2.9,3.41-5.05,4.13-2.57.85-5.27,1.12-7.99,1-.38-.02-.77,0-1.13.08-.6.15-.7.54-.29.99.21.22.47.42.75.54,2.23.91,4.51,1.55,6.96,1.17,1.38-.22,2.77-.43,4.25-.66.09,1.39.19,2.76.25,4.14.15,3.55,1.7,6.35,4.51,8.47.25.19.65.18.99.26.1-.44.3-.89.28-1.33-.01-.31-.28-.63-.49-.9-1.56-1.99-1.74-4.4-1.6-6.71.23-3.91,1.27-7.7,2.66-11.37.23-.61.6-1.17,1.01-1.95.87,1.3,1.55,2.38,2.31,3.4.84,1.13,1.73,2.23,2.65,3.3.17.2.57.2.86.3-.04-.28-.03-.58-.14-.83-.65-1.64-1.42-3.23-1.98-4.9-.83-2.47.15-5.53,2.31-6.89,2.27-1.43,4.66-2.69,7.06-3.9,2.84-1.43,5.28-3.33,7.09-5.94,1.58-2.27,3.56-4.12,5.69-5.86,2.95-2.4,8.25-3.35,12.08-.95,2.02,1.27,4.02,2.57,6.07,3.77.39.23.99.11,1.5.15-.04-.48.07-1.03-.14-1.41Zm-41.25,3.21c-6.31,0-11.43-5.46-11.43-12.19s5.12-12.19,11.43-12.19,11.43,5.46,11.43,12.19-5.12,12.19-11.43,12.19Z" stroke-width="0"/><path d="m48.72,41.65c.22-.16,1.75-.25,4.4-.3,3.47-.03,4.09.03,4.31.3.25.3.22.41-.22.76-.41.35-.87.38-3.69.38-1.75,0-3.22.11-3.28.22-.08.08-.22.85-.27,1.67-.11,1.09-.05,1.56.14,1.67.14.11.93.25,1.77.33,1.2.14,1.61.27,1.91.68.68.82.38.93-1.86.93-2.02,0-2.1.03-2.29.52-.11.3-.16,1.31-.14,2.27l.05,1.75,1.09.14c.6.08,2.16.14,3.49.11,2.02-.05,2.46-.03,2.73.27.85.9-1.17,1.06-3.44,1.17-1.67.05-3.47.16-4.01.22-1.39.16-1.99-.33-1.72-1.39.22-.82.68-7.45.68-9.91,0-1.15.08-1.61.33-1.77Z" fill="#231f1f" stroke-width="0"/></svg>