<?xml version="1.0" encoding="UTF-8"?><svg id="Layer_1" xmlns="http://www.w3.org/2000/svg" viewBox="0 0 100 100"><path d="m17.56,69.34c-.05-2.74,1.09-4.27,4.63-6.37-1.89-2.84-3.86-5.39-7.84-4.95-.64.07-1.34-.42-1.96-.88,2.86-1.98,5.7-1.75,8.72-.19.25-1.73.47-3.37.73-5,.08-.49.15-1.04.41-1.43.2-.29.73-.51,1.1-.48.22.01.57.54.58.85.03.66-.23,1.35-.16,2,.28,2.48.61,4.95,1.01,7.41.07.44.55.81,1.04,1.49,1.3-7.09,5.37-10.92,12.25-11.58,0-3.69,0-7.32,0-10.96,0-2.45.86-3.1,2.95-1.85,2.01,1.21,3.82,2.75,5.72,4.14.9.66,1.8,1.31,2.86,2.08,2.44-3.86,4.29-7.84,4.96-12.18.5-3.25.29-6.6.39-9.91.02-.84-.08-1.7.04-2.53.23-1.53,1.04-2.68,2.73-2.67,4.73.02,9.45.1,14.18.22,1.61.04,2.25,1.24,2.32,2.62.16,3.19.38,6.41.2,9.59-.38,6.75-2.68,13-5.98,18.8-1.43,2.53-3.77,4.54-5.68,6.78,1.22,1.27,2.64,2.77,4.07,4.26,1.79,1.87,1.3,3.78-1.25,4.26-3.75.71-7.55,1.2-11.5,1.81.2,5.28-2.32,9.19-7.04,12,2.65,3.19,5.92,1.51,8.92,1.41-1.13,3.64-4.99,4.73-10.86,3.06-.24,2.96.03,6.12-3.06,8.64-.07-2.87-.15-5.34-.2-7.82-.06-3.29-.37-3.59-3.63-4.34-5.09-1.18-8.79-4.15-10.99-8.9-1.32-2.86-3.24-3.57-5.96-2.02-1.24.71-2.34,1.68-3.68,2.66Zm23.88-28c.36,2.84.74,5.33.96,7.84.09,1.03.55,1.47,1.46,1.74,4.72,1.43,7.68,4.69,9.4,9.19.2.51.37,1.04.58,1.63,3.37-.61,6.65-1.21,10.11-1.84-.28-.34-.43-.56-.63-.73-1.42-1.28-2.88-2.52-4.26-3.84-1.39-1.32-1.3-2.03.08-3.3,1.78-1.63,3.72-3.15,5.2-5.02,3.84-4.86,6.11-10.5,7.05-16.58.38-2.46.23-5.04.08-7.55-.13-2.27-.41-2.36-2.6-2.33-.96.01-1.91-.1-2.87-.11-2.4-.02-4.79,0-7.3,0,.05,1,.1,1.83.14,2.67.39,7.85-1.8,15-6.01,21.57-1.94,3.03-3.35,3.18-6.11.93-1.68-1.37-3.38-2.72-5.28-4.25Zm-2.07,30.38c2.8-.01,4.33-1.79,3.71-4.29-.73-2.92-4.55-5.65-7.54-5.38-2.35.22-3.81,2.34-3.14,4.57.72,2.41,4.42,5.11,6.98,5.1Z" stroke-width="0"/><path d="m41.45,41.34c1.9,1.52,3.6,2.87,5.28,4.25,2.76,2.25,4.17,2.1,6.11-.93,4.21-6.56,6.4-13.71,6.01-21.57-.04-.84-.09-1.68-.14-2.67,2.51,0,4.9-.01,7.3,0,.96,0,1.91.12,2.87.11,2.18-.02,2.46.07,2.6,2.33.15,2.51.3,5.08-.08,7.55-.94,6.09-3.2,11.73-7.05,16.58-1.48,1.87-3.43,3.39-5.2,5.02-1.39,1.28-1.47,1.98-.08,3.3,1.38,1.32,2.85,2.56,4.26,3.84.19.18.34.4.63.73-3.45.63-6.74,1.23-10.11,1.84-.21-.59-.39-1.12-.58-1.63-1.72-4.5-4.68-7.76-9.4-9.19-.91-.27-1.37-.71-1.46-1.74-.22-2.51-.6-5-.96-7.84Z" fill="#fff" stroke-width="0"/><path d="m39.37,71.71c-2.55.01-6.25-2.69-6.98-5.1-.67-2.23.79-4.35,3.14-4.57,2.99-.27,6.82,2.45,7.54,5.38.62,2.5-.91,4.28-3.71,4.29Z" fill="#fff" stroke-width="0"/></svg>