<?xml version="1.0" encoding="UTF-8"?><svg id="Layer_1" xmlns="http://www.w3.org/2000/svg" viewBox="0 0 100 100"><path d="m70.13,34.66c-.47,5.92-1.16,11.67-1.33,17.43-.23,7.87.01,15.74-.15,23.61-.04,1.98-.74,3.98-1.36,5.9-.17.52-1.17,1.04-1.81,1.08-7.05.41-14.1.83-21.15,1.02-2.44.06-4.91-.41-7.33-.85-2.86-.52-3.89-1.61-4.12-4.53-.24-3.01-.15-6.04-.3-9.05-.36-7.31-.72-14.61-1.18-21.91-.25-4.01-.72-8.01-1.09-12.1-1.49.21-2.61.51-3.72.46-.66-.03-1.55-.44-1.89-.97-1.05-1.64-.97-3.52-.37-5.28.19-.56,1.11-1.07,1.79-1.22,3.64-.83,7.32-1.54,10.98-2.29.58-.12,1.17-.2,1.66-.28.22-1.19.25-2.37.66-3.39,1.73-4.23,6.92-6.56,11.34-5.33,3.59,1,6.21,2.92,6.99,6.77.15.73.56.93,1.26.92,4.83-.1,9.43,1.19,14.04,2.39.49.13,1.11.48,1.31.91.92,1.87.95,3.88.28,5.81-.15.44-1.06.75-1.66.87-.78.15-1.6.04-2.83.04Zm-19.13,9.27c.08,0,.17-.02.25-.03,0-3.22.04-6.45-.05-9.67-.01-.45-.62-1.17-1.05-1.26-.87-.17-1.42.41-1.43,1.36-.05,3.48-.22,6.97-.13,10.45.27,9.77.63,19.54,1.01,29.31.05,1.38.37,2.77.69,4.13.25,1.05,1.29,1.28,1.99.42.34-.41.5-1.08.5-1.63.02-3.06.03-6.13-.08-9.18-.1-2.59-.38-5.17-.57-7.76-.38-5.38-.76-10.76-1.13-16.14Zm10.94-10.56c-.29.69-.62,1.15-.66,1.62-.21,2.71-.45,5.42-.5,8.14-.2,9.48-.33,18.96-.47,28.44-.02,1.66-.04,3.32.06,4.97.04.74.2,1.6,1.28,1.57,1.07-.03,1.78-.39,1.75-1.65-.07-2.63-.12-5.27-.1-7.9.06-10.41.15-20.83.24-31.24.01-1.39-.4-2.57-1.6-3.95Zm-24.3,34.25h-.07c0,1.83-.07,3.66.02,5.49.08,1.56.29,3.13.54,4.67.16.98.76,1.11,1.57.55.89-.61,1.12-1.48,1.05-2.45-.23-3.3-.59-6.6-.72-9.91-.28-6.96-.44-13.93-.68-20.9-.1-3.06-.25-6.11-.41-9.17-.04-.81-.29-1.63-1.25-1.64-1.05,0-.95.95-.96,1.63-.02,1.78.02,3.57.07,5.35.27,8.79.55,17.58.83,26.37Zm4.8-42.51c4.05-.23,8.09-.47,12.14-.7-.5-2.35-3.82-4.69-6.5-4.63-2.71.06-5.21,2.41-5.64,5.33Z" stroke-width="0"/><path d="m51,43.94c.38,5.38.75,10.76,1.13,16.14.18,2.59.47,5.17.57,7.76.11,3.06.1,6.12.08,9.18,0,.55-.17,1.22-.5,1.63-.7.86-1.74.63-1.99-.42-.32-1.36-.64-2.74-.69-4.13-.38-9.77-.74-19.54-1.01-29.31-.1-3.48.07-6.96.13-10.45.01-.94.57-1.52,1.43-1.36.43.08,1.04.81,1.05,1.26.09,3.22.05,6.45.05,9.67-.08,0-.17.02-.25.03Z" fill="#fff" stroke-width="0"/><path d="m61.93,33.38c1.2,1.37,1.61,2.56,1.6,3.95-.1,10.41-.18,20.83-.24,31.24-.02,2.63.03,5.27.1,7.9.03,1.26-.68,1.63-1.75,1.65-1.08.03-1.24-.83-1.28-1.57-.09-1.65-.08-3.31-.06-4.97.14-9.48.27-18.96.47-28.44.06-2.72.29-5.43.5-8.14.04-.48.37-.93.66-1.62Z" fill="#fff" stroke-width="0"/><path d="m37.64,67.63c-.28-8.79-.56-17.58-.83-26.37-.05-1.78-.09-3.57-.07-5.35,0-.68-.09-1.63.96-1.63.96,0,1.21.83,1.25,1.64.15,3.06.3,6.11.41,9.17.23,6.97.4,13.94.68,20.9.13,3.31.5,6.6.72,9.91.07.97-.17,1.84-1.05,2.45-.82.56-1.41.43-1.57-.55-.25-1.55-.46-3.11-.54-4.67-.09-1.82-.02-3.66-.02-5.48h.07Z" fill="#fff" stroke-width="0"/></svg>