<?xml version="1.0" encoding="UTF-8"?><svg id="Layer_1" xmlns="http://www.w3.org/2000/svg" viewBox="0 0 100 100"><path d="m64.53,79.14c-.64-1.24-1.29-2.49-2.02-3.91-.72,3.29-.23,6.3.28,9.41.84-.91,1.51-1.75,2.29-2.47.85-.78,1.69-.57,2.15.48.33.76.6,1.55.92,2.31.41.98.85,1.96,1.28,2.93.09-.02.17-.04.26-.06.31-3.21.62-6.42.92-9.63-.09-.06-.18-.12-.28-.18-.99.59-2.02,1.13-2.97,1.8-1.41.98-2.03.87-2.84-.69Z" fill="#fff" stroke-width="0"/><path d="m74.76,12.74c-.06-.11-.12-.22-.19-.34-.84-.13-1.67-.29-2.52-.39-1.56-.18-1.81-.56-1.26-2.01.47-1.23.94-2.46,1.42-3.68-.07-.04-.14-.09-.21-.13-2.19,2.08-4.39,4.16-6.78,6.42,1.46.29,2.61.52,3.75.76,1.09.23,1.33.84.74,1.8-.6.97-1.21,1.93-1.78,2.91-.3.52-.55,1.07-.82,1.61.1.08.2.15.3.23,2.45-2.39,4.9-4.78,7.35-7.17Z" fill="#fff" stroke-width="0"/><path d="m83.44,26.37c-.87-.81-1.69-1.54-2.49-2.31-.76-.73-.76-1.46.09-1.98,3.27-2,6.57-3.96,9.86-5.92.04-.02.12.02.44.1-2.73,2.55-5.53,4.76-8.5,6.89.76.82,1.49,1.54,2.15,2.33.85,1.01.72,1.63-.47,2.19-3.07,1.44-6.14,2.86-9.23,4.23-.3.13-.77-.1-1.16-.17.2-.34.32-.85.63-1.01,2.82-1.46,5.67-2.85,8.67-4.34Z" fill="#3f0" stroke-width="0"/><path d="m52.81,8.25c1.05,0,1.95-.03,2.85,0,1.38.05,1.67.64,1.08,1.86-.5,1.02-.86,2.11-1.22,3.19-.81,2.49-1.58,5-2.37,7.5-.08.25-.21.47-.44.68.27-3.91.94-7.74,2.05-11.66-1.01,0-1.9,0-2.79,0-.87,0-1.27-.41-1.04-1.22.56-1.92,1.15-3.84,1.76-5.75.12-.38.32-.8.61-1.06.27-.24.71-.27,1.07-.4.06.38.25.79.16,1.13-.45,1.59-.98,3.16-1.47,4.75-.08.26-.13.53-.24.98Z" fill="#3f0" stroke-width="0"/><path d="m58.81,97.49c0,1.63-.94,2.29-2.33,1.71-2.06-.85-3.38-2.4-3.89-4.54-.32-1.34-.45-2.72-.6-4.09-.04-.34.17-.71.27-1.06.27.16.51.4.8.47,1.01.27,1.18,1.16,1.52,1.93.64,1.46,1.56,2.68,2.96,3.5.84.49,1.33,1.19,1.26,2.08Z" fill="#3f0" stroke-width="0"/><path d="m41.54,72.64c-.18,2.85-3.18,6.49-5.87,6.91-.61.09-1.29-.11-1.89-.3-.23-.07-.49-.55-.45-.79.04-.24.43-.58.7-.61,2.29-.21,3.64-1.63,4.66-3.5.35-.63.57-1.34.95-1.95.25-.39.68-.67,1.03-1,.29.41.57.82.86,1.24Z" fill="#3f0" stroke-width="0"/><path d="m82.57,58.74c-2.23-.51-3.75.44-5.28,1.44-.48.31-1.08,1.13-1.66.38-.52-.67.16-1.26.62-1.76,1.59-1.71,3.48-2.69,5.89-2.37,1.06.14,2.13.2,3.17.4.34.06.61.47.91.71-.29.27-.54.7-.87.78-1,.23-2.03.32-2.78.42Z" fill="#3f0" stroke-width="0"/><path d="m32.46,36.14c-.52.45-.96,1.1-1.56,1.3-2.33.79-4.57.52-6.55-1.03-.29-.22-.53-.56-.67-.89-.08-.2,0-.6.15-.74.15-.14.6-.19.74-.07,2.08,1.78,4.5,1.44,6.92,1.16.26-.03.53,0,.79,0,.06.09.12.18.18.28Z" fill="#3f0" stroke-width="0"/><path d="m41.52,47.5c0,6.73,5.12,12.19,11.43,12.19s11.43-5.46,11.43-12.19-5.12-12.19-11.43-12.19-11.43,5.46-11.43,12.19Zm15.91-5.85c.25.3.22.41-.22.76-.41.35-.87.38-3.69.38-1.75,0-3.22.11-3.28.22-.08.08-.22.85-.27,1.67-.11,1.09-.05,1.56.14,1.67.14.11.93.25,1.77.33,1.2.14,1.61.27,1.91.68.68.82.38.93-1.86.93-2.02,0-2.1.03-2.29.52-.11.3-.16,1.31-.14,2.27l.05,1.75,1.09.14c.6.08,2.16.14,3.49.11,2.02-.05,2.46-.03,2.73.27.85.9-1.17,1.06-3.44,1.17-1.67.05-3.47.16-4.01.22-1.39.16-1.99-.33-1.72-1.39.22-.82.68-7.45.68-9.91,0-1.15.08-1.61.33-1.77.22-.16,1.75-.25,4.4-.3,3.47-.03,4.09.03,4.31.3Z" fill="#fff" stroke-width="0"/><path d="m65.57,84.25c-.85,1.02-1.59,1.98-2.42,2.85-.26.27-.81.46-1.16.38-.27-.06-.56-.58-.62-.94-.74-4.27-1.24-8.56-.96-12.91.07-1.14.19-2.28.45-3.38.09-.39.67-.96.98-.93.4.04.92.52,1.1.94,1.1,2.45,2.11,4.94,3.16,7.44,1.41-.68,2.6-1.3,3.82-1.83,1.53-.65,2.43-.2,2.62,1.49.16,1.39.06,2.83-.06,4.24-.31,3.51-.68,7.01-1.08,10.51-.05.4-.46.75-.71,1.13-.42-.28-1.04-.46-1.24-.86-1.31-2.62-2.54-5.29-3.88-8.14Zm-3.07-9.02c-.72,3.29-.23,6.3.28,9.41.84-.91,1.51-1.75,2.29-2.47.85-.78,1.69-.57,2.15.48.33.76.6,1.55.92,2.31.41.98.85,1.96,1.28,2.93.09-.02.17-.04.26-.06.31-3.21.62-6.42.92-9.63-.09-.06-.18-.12-.28-.18-.99.59-2.02,1.13-2.97,1.8-1.41.98-2.03.87-2.84-.69-.64-1.24-1.29-2.49-2.02-3.91Z" fill="#3f0" stroke-width="0"/><path d="m67.45,15.23c-1.48-.27-2.75-.44-3.98-.77-.5-.14-1.12-.57-1.27-1-.11-.35.32-1.01.68-1.35,2.76-2.62,5.53-5.23,8.36-7.77.81-.72,1.81-1.26,2.8-1.75.39-.19.95-.03,1.44-.03-.01.51.12,1.08-.06,1.53-.74,1.79-1.57,3.53-2.36,5.3-.09.21-.13.45-.21.75.97.2,1.89.34,2.78.57,1.88.48,2.27,1.42.97,2.85-2.4,2.63-4.94,5.12-7.42,7.67-.93.96-1.9,1.89-2.79,2.89-.74.83-1.53,1.08-2.08.36-.3-.39-.41-1.14-.26-1.61.5-1.54,1.11-3.04,1.77-4.52.46-1.03,1.05-1.99,1.65-3.11Zm-2.23-2.62c1.46.29,2.61.52,3.75.76,1.09.23,1.33.84.74,1.8-.6.97-1.21,1.93-1.78,2.91-.3.52-.55,1.07-.82,1.61.1.08.2.15.3.23,2.45-2.39,4.9-4.78,7.35-7.17-.06-.11-.12-.22-.19-.34-.84-.13-1.67-.29-2.52-.39-1.56-.18-1.81-.56-1.26-2.01.47-1.23.94-2.46,1.42-3.68-.07-.04-.14-.09-.21-.13-2.19,2.08-4.39,4.16-6.78,6.42Z" fill="#3f0" stroke-width="0"/><path d="m94.2,56.48c-.4-.71-.92-1.4-1.52-1.96-1.9-1.78-3.87-3.49-5.83-5.25,2.17-.94,3.94-2.69,5.49-4.66.62-.79,1.11-1.74,1.47-2.69.35-.91-.26-1.5-1.22-1.28-.35.08-.71.28-.99.52-2.38,2.09-5.17,3.45-8.12,4.5-1.74.62-3.45.53-5.15-.23-2.34-1.05-3.97-2.83-5.27-4.97-1.45-2.4-2.77-4.89-4.39-7.17-3.74-5.25-8.77-8.43-15.33-8.65-2.13-.07-4.12-.46-6.04-1.25-2.66-1.09-4.79-2.74-5.53-5.74-.53-2.14-1.1-4.28-1.74-6.39-.11-.38-.6-.65-.91-.97-.28.33-.77.65-.8,1.01-.17,1.78-.23,3.56-.32,5.35-.02.4.03.8.06,1.31-2.63-1.03-5.21-.93-7.8-.63-.34.04-.63.4-.95.61.23.31.39.71.69.92.39.27.88.41,1.33.56,1.58.51,3.17.97,4.74,1.52,2.39.84,3.57,2.66,3.79,5.09.09,1.02-.09,2.07-.23,3.09-.31,2.23-1.63,4.01-2.71,5.9-1.03,1.81-2.2,3.5-3.99,4.7-1.51,1.01-3.09,1.72-4.95,1.5-3.15-.37-5.95-1.4-7.99-4.04-2.13-2.76-4.46-5.39-5.77-8.68-.25-.63-.65-1.13-1.27-.84-.37.17-.72.87-.68,1.3.16,1.65.46,3.29,1.43,4.71.73,1.07,1.4,2.18,2.24,3.49-.64-.23-1.07-.35-1.46-.52-3.06-1.34-6.28-1.91-9.6-1.91-.68,0-1.39.11-2.02.35-.31.12-.45.67-.67,1.02.32.2.63.51.97.57.7.14,1.44.11,2.15.21,5.02.75,9.7,2.46,14.07,5.04,2.38,1.4,4.8,2.71,7.2,4.07.19.11.36.25.4.28-1.53,1.3-3.06,2.54-4.51,3.85-1.48,1.35-2.9,2.77-4.33,4.18-.48.47-.76,1.07-.16,1.63.57.53,1.06.14,1.54-.27,1-.85,2.04-1.66,3.04-2.51,2.3-1.95,4.95-2.71,7.92-2.35,2.75.34,5.01,1.34,6.06,4.26.89,2.49,2.48,4.61,4.17,6.65,1.2,1.45,2.35,3,3.23,4.66,1.19,2.26,2.3,4.64,1.46,7.33-.5,1.57-1.1,3.12-1.69,4.66-.89,2.33-2.9,3.41-5.05,4.13-2.57.85-5.27,1.12-7.99,1-.38-.02-.77,0-1.13.08-.6.15-.7.54-.29.99.21.22.47.42.75.54,2.23.91,4.51,1.55,6.96,1.17,1.38-.22,2.77-.43,4.25-.66.09,1.39.19,2.76.25,4.14.15,3.55,1.7,6.35,4.51,8.47.25.19.65.18.99.26.1-.44.3-.89.28-1.33-.01-.31-.28-.63-.49-.9-1.56-1.99-1.74-4.4-1.6-6.71.23-3.91,1.27-7.7,2.66-11.37.23-.61.6-1.17,1.01-1.95.87,1.3,1.55,2.38,2.31,3.4.84,1.13,1.73,2.23,2.65,3.3.17.2.57.2.86.3-.04-.28-.03-.58-.14-.83-.65-1.64-1.42-3.23-1.98-4.9-.83-2.47.15-5.53,2.31-6.89,2.27-1.43,4.66-2.69,7.06-3.9,2.84-1.43,5.28-3.33,7.09-5.94,1.58-2.27,3.56-4.12,5.69-5.86,2.95-2.4,8.25-3.35,12.08-.95,2.02,1.27,4.02,2.57,6.07,3.77.39.23.99.11,1.5.15-.04-.48.07-1.03-.14-1.41Zm-41.25,3.21c-6.31,0-11.43-5.46-11.43-12.19s5.12-12.19,11.43-12.19,11.43,5.46,11.43,12.19-5.12,12.19-11.43,12.19Z" stroke-width="0"/><path d="m48.72,41.65c.22-.16,1.75-.25,4.4-.3,3.47-.03,4.09.03,4.31.3.25.3.22.41-.22.76-.41.35-.87.38-3.69.38-1.75,0-3.22.11-3.28.22-.08.08-.22.85-.27,1.67-.11,1.09-.05,1.56.14,1.67.14.11.93.25,1.77.33,1.2.14,1.61.27,1.91.68.68.82.38.93-1.86.93-2.02,0-2.1.03-2.29.52-.11.3-.16,1.31-.14,2.27l.05,1.75,1.09.14c.6.08,2.16.14,3.49.11,2.02-.05,2.46-.03,2.73.27.85.9-1.17,1.06-3.44,1.17-1.67.05-3.47.16-4.01.22-1.39.16-1.99-.33-1.72-1.39.22-.82.68-7.45.68-9.91,0-1.15.08-1.61.33-1.77Z" stroke-width="0"/></svg>