<?xml version="1.0" encoding="UTF-8"?><svg id="Layer_1" xmlns="http://www.w3.org/2000/svg" xmlns:xlink="http://www.w3.org/1999/xlink" viewBox="0 0 100 100"><defs><filter id="drop-shadow-1" filterUnits="userSpaceOnUse"><feOffset dx="1" dy="2"/><feGaussianBlur result="blur" stdDeviation="3"/><feFlood flood-color="#000" flood-opacity=".75"/><feComposite in2="blur" operator="in"/><feComposite in="SourceGraphic"/></filter><filter id="drop-shadow-2" filterUnits="userSpaceOnUse"><feOffset dx="1" dy="2"/><feGaussianBlur result="blur-2" stdDeviation="2"/><feFlood flood-color="#000" flood-opacity=".34"/><feComposite in2="blur-2" operator="in"/><feComposite in="SourceGraphic"/></filter></defs><path d="m32.16,21.68h48.97c1.77,0,3.2,1.43,3.2,3.2v48.72c0,1.77-1.43,3.2-3.2,3.2H17.64c-1.77,0-3.2-1.43-3.2-3.2v-34.2c0-9.78,7.94-17.72,17.72-17.72Z" transform="translate(-2.21 2.32) rotate(-2.63)" fill="#ffb094" filter="url(#drop-shadow-1)" stroke-width="0"/><path d="m27.47,35.41s-1.12-5.48.76-12.68c-7.87.91-13.89,7.44-14.18,15.34,7.33-4.17,13.42-2.66,13.42-2.66Z" fill="#ffcfbe" filter="url(#drop-shadow-2)" stroke-width="0"/><path d="m36.42,35.07c.56-.77.76-.72,1.36.19.44.62.53,1.19.57,3.03,0,1.24.25,4.41.5,7.04.51,4.99.44,5.6-.62,5.71-.66.07-5.37-3.62-7.09-5.58-1.42-1.62-3.3-3.44-3.64-3.53-.1-.02-.19.69-.16,1.6-.03.94.02,2.92-.02,4.17-.1,3.68-.07,4.31-.91,4.3-.64,0-.57.6-1.31-8.59-.34-4.33-.27-5.21.5-5.3.56-.06,2.95,1.79,3.67,2.86.6.91,1.95,2.21,6.08,5.82.93.84,1.58,1.21,1.76,1.09.25-.2.15-1.73-.41-6.24-.63-5.44-.66-6.01-.28-6.56Z" fill="#231f1f" stroke-width="0"/><path d="m44.27,38.38c1.49-.53,3.36-.63,4.41-.28,2.97,1.02,4.2,6.13,2.18,8.93-1.61,2.19-3.04,2.89-5.43,2.57-2.01-.25-3.09-.87-4.09-2.38-.65-1.07-.81-1.56-.79-2.6.02-1.65.36-2.59,1.74-4.42.73-.99,1.4-1.6,1.98-1.83Zm3.04,1.65c-1.37-.56-2.43-.1-4.08,1.69-.81.89-.88,1.14-.86,2.58.02,1.44.08,1.64.83,2.36,1.09,1.06,2.14,1.41,3.66,1.25,2.36-.26,3.46-2.19,2.85-5.01-.3-1.51-1.03-2.34-2.39-2.86Z" fill="#231f1f" stroke-width="0"/><path d="m52.65,33.2c.53-.73.66-.74,1.28,0,.35.4.56,1.15.69,2.28.1.93.29,1.75.43,1.8.11.09,1.08.08,2.15.03,1.47-.09,2.02.02,2.32.32.84.92.47,1.26-1.61,1.55-2.81.44-2.8.47-2.15,4.33.32,1.75.69,3.22.87,3.4.64.6,2.11.27,2.73-.57.32-.44.57-.9.56-1.03-.02-.13.19-.69.41-1.22.71-1.52,1.12-.86.82,1.32-.45,3.54-.78,3.95-3.2,4.21-1.59.17-3.02-.61-3.61-1.99-.19-.52-.76-3.85-1.25-7.42-.78-5.96-.81-6.5-.43-7.01Z" fill="#231f1f" stroke-width="0"/><path d="m65.49,34.49c2.22-1.49,6.36.11,7.12,2.75.21.65.18,1.33.04,1.94l-.27.9-3.92.43-3.88.42.15.79c.2.92,2.02,2.77,2.98,3,.38.13,1.49.11,2.42-.03l1.93-.21c.67-.04-.16,2.23-2.12,2.45-2.12.23-3.27.19-4.82-1.02-1.91-1.47-2.62-2.74-2.87-5.06-.17-1.56-.13-2.1.27-2.75.25-.43.44-.89.42-1.05-.03-.3,1.58-1.89,2.54-2.56Zm4.19,2.1c-.4-.29-1.17-.51-2-.52-1.28,0-1.37.05-2.32,1.19-.57.63-.94,1.28-.78,1.43.15.15,1.26.13,3.08-.07,2.79-.3,2.86-.31,2.79-.91-.04-.33-.39-.83-.76-1.13Z" fill="#231f1f" stroke-width="0"/><path d="m75.89,44.21c.66-.68,1.33-.78,2-.18.56.48.58.98.27,1.52-.39.71-1.51.97-2.46.57-.63-.27-.59-1.15.2-1.9Z" fill="#231f1f" stroke-width="0"/><path d="m73.58,52.56c-1.97-.49-3.38.95-5.04,1.7-1.6.73-3.47.39-5.16.33-1.65-.06-3.31.15-4.56,1.33-.32.3-.57.68-.91.95-.37.3-.52.09-.83-.19-.65-.59-1.42-.97-2.3-1.07-1.96-.22-3.64.7-5.37,1.47-.97.43-1.95.76-3.03.69-1.01-.06-1.99-.32-3-.38-.99-.06-1.89.14-2.76.6-.87.46-1.5.52-2.33-.08-.7-.5-1.3-1.7-2.22-1.66-1.01.04-2.07.31-3.03.62-1.1.35-2.16.84-3.15,1.43-.11.07-.53.43-.64.41-.04,0-.06-.06-.12-.1-.21-.13-.36-.52-.51-.72-.46-.62-1.05-1.11-1.86-.99-1.02.14-1.45,1.16-1.62,2.06-.2,1.08,1.48,1.45,1.67.37.04-.21.06-.52.2-.7,0,0,0,0,0,0,.2.13.36.49.49.67.44.62,1,1.19,1.83,1.14.57-.04,1.03-.42,1.5-.71.58-.35,1.18-.65,1.81-.9,1.05-.42,2.14-.69,3.27-.83.78.87,1.67,1.7,2.82,2,.61.16,1.26.13,1.85-.09.68-.25,1.23-.71,1.97-.8,1.47-.18,2.94.42,4.41.38,1.52-.04,2.87-.73,4.22-1.35,1.15-.53,2.56-1.13,3.85-.74.61.19.96.66,1.46,1,.57.38,1.24.47,1.87.19,1.1-.47,1.56-1.7,2.74-2.09,1.18-.38,2.51-.21,3.73-.14,1.43.08,2.92.1,4.26-.48,1.26-.55,2.67-2.02,4.13-1.66,1.07.27,1.44-1.41.37-1.67Z" stroke-width="0"/><path d="m73.39,63.87c-2.4-.3-4.79-.24-7.16.23-1.2.24-2.35.63-3.52.99-.53.16-1.08.32-1.64.37-.67.06-1.2-.14-1.85-.22-.49-.07-.97.04-1.35.38-.33.3-.5.73-.83,1.03-.64.56-1.57.63-2.38.58-2.13-.14-4.05-1.39-6.23-1.27-1.29.07-2.25.68-3.29,1.38-.42.29-.91.66-1.45.6-.15-.01-.77-.16-.74-.39.05-.45-.13-.92-.62-1.04-3-.69-5.71.79-8.47,1.72-.95.32-2.91,1.13-3.64.07-.66-.96-.63-2.16-1.56-2.99-.51-.46-1.21-.19-1.42.41-.14.42-.6.53-.98.42-1.06-.31-1.47,1.35-.41,1.66.81.24,1.6.04,2.2-.44.35.75.48,1.65,1.07,2.28,1.01,1.08,2.57.93,3.88.63,2.74-.64,5.5-2.57,8.39-2.19.45,1.47,2.48,1.89,3.89,1.18,1.05-.53,1.87-1.46,3.09-1.59,1.25-.13,2.52.36,3.7.73,1.82.57,4.1.97,5.78-.21.38-.27.68-.59.94-.97.24-.34.22-.29.63-.19.32.08.64.13.97.15,1.27.07,2.51-.35,3.7-.73,2.88-.94,5.89-1.3,8.91-.92,1.08.13,1.5-1.53.41-1.66Z" stroke-width="0"/></svg>