<?xml version="1.0" encoding="UTF-8"?><svg id="Layer_1" xmlns="http://www.w3.org/2000/svg" xmlns:xlink="http://www.w3.org/1999/xlink" viewBox="0 0 100 100"><defs><filter id="drop-shadow-18" filterUnits="userSpaceOnUse"><feOffset dx="1" dy="2"/><feGaussianBlur result="blur" stdDeviation="2"/><feFlood flood-color="#000" flood-opacity=".3"/><feComposite in2="blur" operator="in"/><feComposite in="SourceGraphic"/></filter></defs><path d="m64.7,75.97v3.54h-28.85v-3.54c2.89,0,4.74-.4,5.53-1.19s1.19-2.46,1.19-5v-22.57c0-2.01-.41-3.23-1.24-3.67-.83-.44-1.92-.66-3.27-.66-.59,0-1.36.06-2.3.18v-3.72l13.27-2.48h8.85v32.66c0,1.71.16,3.04.49,3.98.32.94.97,1.59,1.95,1.95.97.35,2.43.53,4.38.53Zm-14.69-58.85c2.83,0,4.99.75,6.46,2.26,1.47,1.5,2.21,3.5,2.21,5.97s-.74,4.57-2.21,6.11c-1.47,1.53-3.63,2.3-6.46,2.3-2.66,0-4.73-.75-6.24-2.26-1.5-1.5-2.26-3.52-2.26-6.06s.74-4.56,2.21-6.06c1.47-1.5,3.57-2.26,6.28-2.26Z" stroke-width="0"/><path d="m50,5C25.15,5,5,25.15,5,50s20.15,45,45,45,45-20.15,45-45S74.85,5,50,5Zm0,7.96c13.4,0,25.17,7.16,31.67,17.85L15.7,63.94c-1.76-4.31-2.73-9.01-2.73-13.94,0-20.42,16.61-37.04,37.04-37.04Zm0,74.07c-12.31,0-23.23-6.04-29.96-15.31l65.31-32.8c1.1,3.5,1.69,7.21,1.69,11.07,0,20.42-16.61,37.04-37.04,37.04Z" fill="red" filter="url(#drop-shadow-18)" stroke-width="0"/></svg>