<?xml version="1.0" encoding="UTF-8"?><svg id="Layer_1" xmlns="http://www.w3.org/2000/svg" viewBox="0 0 100 100"><path d="m22.36,68c-.69,1.94-2.09,3.12-4.53,3.18.98-1.43,1.85-2.69,2.72-3.95-.1-.16-.2-.32-.29-.49h-4.15c-.26-1.45.68-2.35,2.58-2.19.73.06,1.86.31,2.13-.04.56-.73.98-1.83.89-2.73-.89-9.78.74-19.22,3.71-28.74-1.39.21-2.68.4-3.97.59l-.19-.47c1.55-.78,3.11-1.56,4.6-2.31-1.01-.72-2.16-1.54-3.3-2.35.05-.16.1-.31.16-.47.77.21,1.55.38,2.31.63.83.28,1.63.62,2.62,1-.47-1.65-.81-3.2.56-4.63.59,1.54,1.14,2.96,1.54,4.02,6.04-1.21,11.68-2.52,17.37-3.43,5.47-.87,11.01-.8,16.48.14.99.17,1.88.88,2.81,1.34-.02.25-.03.51-.05.76-.99.27-1.98.81-2.96.78-8.57-.28-16.81,1.96-25.16,3.23-2.35.36-4.23,1.94-6.27,3.26-4.01,2.58-4.92,6.52-5.87,10.38-1.32,5.38-1.64,10.95.28,16.32.71,1.99,2.2,3.53,4.59,3.71.6.04,1.26.04,1.78.29.55.26.98.8,1.46,1.22-.45.48-.87,1.33-1.37,1.37-2.51.24-5.04.34-7.56.32-.95,0-1.89-.46-2.93-.74Z" stroke-width="0"/><path d="m76.42,27.52c1.65,2.64,1.36,4.83-.09,7.04,1.73.11,3.36.21,4.99.32.03.22.07.44.1.66-1.29.49-2.54,1.08-3.86,1.42-1.02.26-1.37.75-1.3,1.74.68,8.95-.03,17.85-.85,26.75-.09.96.34,1.96.51,2.94.14.8.25,1.6.4,2.57,1.77.45,3.65.94,5.68,1.46-1.81,1.67-3.69,1.74-7.42.44.75,1.59,1.49,3.15,2.23,4.72-.17.13-.34.25-.52.38-.88-.83-1.82-1.61-2.62-2.5-1.35-1.5-2.84-2.01-4.87-1.47-8.31,2.23-16.88,2.75-25.4,3.4-3.39.26-6.88-.62-10.3-1.15-.6-.09-1.52-.98-1.53-1.5-.01-1.22,1.15-1.11,2.01-1.03,11.75,1.03,23.19-1.12,34.62-3.31.52-.1,1.14-.65,1.37-1.15,1.78-3.81,2.18-7.93,2.65-12.05.68-5.96-.18-11.8-1.35-17.59-.23-1.12-1.33-2.18-2.27-2.98-.76-.64-1.96-.73-2.84-1.27-.56-.34-.89-1.05-1.33-1.59.61-.35,1.21-1,1.83-1.01,1.97-.04,3.98-.02,5.92.3,1.77.29,2.57-.45,3.06-1.94.35-1.09.71-2.18,1.17-3.59Z" stroke-width="0"/><path d="m50.17,54.49c0,2.68-.15,5.32.04,7.93.2,2.7-2.23,3.41-4.36,2.31-.44-.23-.75-1.08-.77-1.66-.08-2.3-.02-4.6-.02-6.9,0-.32,0-.64,0-1.19-2.61.25-5.11.48-7.61.75-1.14.12-2.28.31-2.63-1.2-.49-2.11,0-3.55,1.63-3.93,2.4-.57,4.86-.95,7.31-1.22,1.27-.14,1.69-.55,1.64-1.82-.09-2.09-.07-4.19.05-6.28.11-1.91.78-2.48,2.56-2.55,1.87-.08,2.47.47,2.5,2.4.03,2.36,0,4.73,0,7.36,1.26-.16,2.21-.26,3.16-.39,1.85-.26,3.7-.56,5.56-.78,1.26-.15,1.97.52,2.15,1.75.42,2.94-.37,4.03-3.3,4.47-1.25.19-2.52.31-3.78.46-1.25.15-2.5.3-4.13.49Z" stroke-width="0"/></svg>