<?xml version="1.0" encoding="UTF-8"?><svg id="Layer_1" xmlns="http://www.w3.org/2000/svg" viewBox="0 0 100 100"><path d="m31.39,49.72c1.44,5.7,3.02,6.69,9.81,6.34,5.57-.29,11.94-5.35,12.41-11.97.09-1.22.01-2.46.01-3.89-1.91.18-3.56.32-5.21.48-.81.08-1.61.26-2.42.25-1.84-.02-2.84-1.5-2.16-3.21.24-.6.61-1.17,1-1.7,4.48-5.97,8.96-11.95,13.48-17.9,1.76-2.32,2.73-2.4,4.89-.51,5.59,4.88,11.17,9.75,16.75,14.63.37.32.71.67,1.07.99,1.11.97,2.08,2.13,1.56,3.64-.51,1.52-2.1,1.53-3.43,1.69-1.98.24-3.98.4-6.17.61.06.57.09,1.09.17,1.6,2.32,16.17-8.38,35.14-23.25,41.18-4.11,1.67-8.32,2.43-12.66,1.01-3.14-1.03-5.72-2.89-7.39-5.76-2.22-3.83-4.92-2.71-6.8.23-.3.47-.47,1.09-.78,1.56-.48.7-1.58.36-1.61-.49-.08-2.23.19-2.7,2.06-5.6-1.7-.97-2.89-2.32-3.44-4.39-.12-.46.42-.82.79-.52.46.37.86.69,1.26,1,.71.54,1.38,1.17,2.16,1.56,1.18.59,2.58.07,3.09-1.14,1.15-2.72,1.65-4.78,3.32-7.21.76-1.14,2.06-2.98,1.08-4.76-.73-1.27-2.99-1.39-4.39-.21-.22.19-.42.41-.65.67-.25.28-.72.11-.72-.27,0-1.59.94-2.63,1.95-3.75-2.03-.73-3.91-1.08-5.85-.14-.49.24-.97.5-1.48.64-.25.07-.73-.06-.84-.24-.15-.26-.19-.81-.02-.99.46-.5,1.01-.98,1.62-1.28,2.88-1.41,4.97-1.65,8.19-1.11.57.19.21-5.59,1.47-4.78.45.37.62,1.6,1.1,3.73Zm46.51-15.12c-5.67-4.75-11.07-9.26-16.57-13.86-3.89,5.19-7.69,10.26-11.64,15.53,1.79,0,3.23,0,4.67,0,1.98.01,2.82.58,3.11,2.55.23,1.53.3,3.14.11,4.67-.73,6-3.53,10.72-9.04,13.72,6.61,4.29,8.63,10.2,6.53,17.73.35-.18.55-.25.71-.38,9.92-8.09,15.88-23.16,12.52-35.13-.43-1.54-.03-2.73,1.32-3.45.93-.49,2-.8,3.05-.95,1.6-.24,3.23-.27,5.25-.42Zm-36.37,33.04c-.06-.37-.11-1.02-.28-1.64-.35-1.31-1.04-2.41-2.46-2.73-1.44-.33-2.53.43-3.36,1.49-1.71,2.18-2.25,4.64-1.33,7.29.83,2.4,3.56,2.96,5.32,1.15,1.43-1.47,2-3.28,2.11-5.56Z" stroke-width="0"/><path d="m77.9,34.6c-2.02.15-3.65.19-5.25.42-1.04.15-2.12.46-3.05.95-1.35.71-1.75,1.91-1.32,3.45,3.36,11.97-2.6,27.04-12.52,35.13-.16.13-.36.2-.71.38,2.1-7.53.09-13.44-6.53-17.73,5.51-3.01,8.31-7.73,9.04-13.72.19-1.53.11-3.14-.11-4.67-.29-1.97-1.13-2.54-3.11-2.55-1.44-.01-2.88,0-4.67,0,3.95-5.27,7.75-10.34,11.64-15.53,5.5,4.6,10.9,9.12,16.57,13.86Z" fill="#fff" stroke-width="0"/><path d="m41.53,67.64c-.11,2.28-.68,4.09-2.11,5.56-1.76,1.81-4.48,1.25-5.32-1.15-.92-2.65-.38-5.11,1.33-7.29.83-1.06,1.92-1.81,3.36-1.49,1.42.32,2.11,1.42,2.46,2.73.17.62.22,1.27.28,1.64Z" fill="#fff" stroke-width="0"/></svg>