<?xml version="1.0" encoding="UTF-8"?><svg id="Layer_1" xmlns="http://www.w3.org/2000/svg" viewBox="0 0 100 100"><path d="m59.95,22.89c4.09.6,7.67,1.12,11.25,1.65,1.18.17,1.86.86,2.02,2.05.7,5.16,1.59,10.3,2.06,15.48.78,8.72,1.31,17.47,1.91,26.21.09,1.27.02,2.55-.04,3.82-.08,1.73-.23,2.01-1.98,2.28-2.4.37-4.82.7-7.25.79-8.25.31-16.34,1.71-24.44,3.15-3.3.59-6.64.98-9.97,1.41-3.29.42-4.1,0-5.7-3.05-2.36-4.5-3.52-9.38-4.49-14.31-1.54-7.86-2.49-15.8-2.21-23.83.09-2.61.6-5.2.95-7.79.12-.91.68-1.55,1.54-1.87,1.62-.61,3.22-1.33,4.9-1.72,5-1.15,9.99-2.49,15.06-3.15,5.57-.73,11.23-.79,16.4-1.11Zm-11.46,47.61c7.21.44,13.32-5.05,13.81-12.4.42-6.33-4.61-11.87-11.16-12.28-7.1-.45-13.42,5.06-13.86,12.09-.41,6.63,4.53,12.19,11.21,12.59Zm-13.93-26.3c.06,0,.17-.02.28-.05,8.14-1.59,16.24-3.37,24.57-3.71.27-.01.73-.52.76-.84.41-4.1.18-8.17-.54-12.22-.16-.89-.62-1.24-1.59-1.25-6.38-.06-12.74.23-19.03,1.35-2.53.45-5.02,1.09-7.55,1.65.76,5.19.83,10.29,3.09,15.07Z" stroke-width="0"/><path d="m48.49,70.5c-6.68-.41-11.62-5.96-11.21-12.59.44-7.03,6.75-12.55,13.86-12.09,6.55.42,11.58,5.96,11.16,12.28-.49,7.35-6.6,12.84-13.81,12.4Zm-2.87-12.2c-.13,1.97,1.39,3.78,3.28,3.92,1.99.15,3.36-1.12,3.53-3.24.17-2.15-1.24-3.7-3.46-3.81-1.73-.08-3.23,1.33-3.35,3.13Zm12.48-3.55c-1.05.21-1.8.37-2.55.51q-1.77.35-1.54,2.08.3,2.26,2.48,1.95c.08-.01.16,0,.23-.01,2.87-.63,2.77-.1,2.24-3.41-.07-.43-.6-.79-.86-1.12Z" fill="#fff" stroke-width="0"/><path d="m34.56,44.2c-2.26-4.78-2.33-9.88-3.09-15.07,2.52-.56,5.02-1.19,7.55-1.65,6.29-1.12,12.65-1.41,19.03-1.35.96,0,1.43.36,1.59,1.25.72,4.05.95,8.13.54,12.22-.03.31-.49.83-.76.84-8.33.34-16.44,2.12-24.57,3.71-.11.02-.22.04-.28.05Zm14.1-4.09c2.89-.14,5.28-.22,7.67-.38,1.62-.1,2.51-.76,2.45-2.19-.12-2.99-.45-5.98-.75-8.97-.08-.76-.56-1.23-1.43-1.19-2.84.12-5.68.14-8.52.33-1.47.1-2.15,1.08-1.94,2.59.39,2.74.9,5.47,1.24,8.21.14,1.18.61,1.68,1.28,1.59Z" fill="#fff" stroke-width="0"/><path d="m45.61,58.3c.12-1.81,1.62-3.22,3.35-3.13,2.22.11,3.63,1.66,3.46,3.81-.16,2.13-1.54,3.39-3.53,3.24-1.89-.14-3.41-1.95-3.28-3.92Zm3.71-1.72c-1.61-.11-2.21.62-1.99,2.45,1.38.29,2.09-.58,1.99-2.45Z" stroke-width="0"/><path d="m58.09,54.75c.27.33.8.69.86,1.12.53,3.3.62,2.77-2.24,3.41-.07.02-.15,0-.23.01q-2.18.31-2.48-1.95-.23-1.73,1.54-2.08c.75-.15,1.5-.3,2.55-.51Z" stroke-width="0"/><path d="m48.66,40.11c-.66.09-1.13-.42-1.28-1.59-.34-2.75-.85-5.47-1.24-8.21-.21-1.51.47-2.49,1.94-2.59,2.83-.19,5.68-.22,8.52-.33.87-.04,1.35.43,1.43,1.19.3,2.98.63,5.97.75,8.97.06,1.43-.84,2.09-2.45,2.19-2.39.15-4.78.24-7.67.38Z" stroke-width="0"/><path d="m49.32,56.58c.1,1.87-.62,2.74-1.99,2.45-.21-1.83.38-2.55,1.99-2.45Z" fill="#fff" stroke-width="0"/><path d="m98.5,15.18c-.33-2.1-2.88-3.07-8.8-3.34l-1.86-.11-.31-3.58c-.41-4.61-.99-6.27-2.28-6.6-1.21-.3-2.14.84-2.91,2-.78,1.17-1.26,3.41-1.26,5.83l-.06,3.06-4.1.65c-5.69,1.02-7.6,1.36-7.6,4.26,0,.55,0,1.31.56,1.83.67.62,1.61.58,3.87.41,1.82-.15,4.47-.31,5.79-.31l1.46-.05v4.27c0,4.93.42,6.8,1.66,7.38.23.11.46.16.7.16.51,0,1.05-.23,1.62-.71.65-.56,1.36-1.4,1.08-2.25l-.03-.08c-.06-.68.34-3.47.53-4.82l.66-4.07,4.06-.39c4.46-.4,6.09-.63,6.85-1.59.54-.69.42-1.52.36-1.98Z" stroke-width="0"/><path d="m91.1,16.76c1.9-.17,5.05-.45,5.47-.85-.02.01,0-.09-.05-.43-.05-.3-.69-1.35-6.93-1.64l-3.6-.21-.46-5.3c-.27-2.99-.58-4.17-.78-4.64-.16.16-.4.45-.74.97h0c-.44.67-.92,2.44-.92,4.75l-.09,4.75-5.74.91c-5.94,1.07-5.94,1.3-5.94,2.29,0,.14,0,.25,0,.33.47.05,1.58-.03,2.27-.09,1.82-.15,4.52-.31,5.92-.31l3.49-.11v6.33c0,3.81.31,5.06.49,5.46.06-.04.13-.09.21-.16.18-.15.3-.29.37-.38-.11-.67.02-2.02.52-5.54l.91-5.61,5.6-.54Z" fill="#fff" stroke-width="0"/></svg>