<?xml version="1.0" encoding="UTF-8"?><svg id="Layer_1" xmlns="http://www.w3.org/2000/svg" xmlns:xlink="http://www.w3.org/1999/xlink" viewBox="0 0 100 100"><defs><filter id="drop-shadow-19" filterUnits="userSpaceOnUse"><feOffset dx="1" dy="2"/><feGaussianBlur result="blur" stdDeviation="2"/><feFlood flood-color="#000" flood-opacity=".3"/><feComposite in2="blur" operator="in"/><feComposite in="SourceGraphic"/></filter></defs><path d="m58.65,21.64c4.64.38,9.07,1.4,13.11,3.83,3.32,1.99,5.93,4.55,7.04,8.36.52,1.78.35,3.48-.95,4.91-1.38,1.51-3.27,1.61-4.76.2-3.88-3.68-8.41-6.06-13.63-7.17-5.64-1.2-11.26-1.08-16.88.15-7.46,1.64-13.2,6.13-18.62,11.18-.41.38-.64.95-1.05,1.33-.82.77-1.6,1.69-2.58,2.12-.66.29-1.86.12-2.42-.33-.49-.39-.75-1.57-.55-2.23.44-1.43,1.12-2.81,1.9-4.09,5.29-8.69,13.36-13.59,22.85-16.43,5.39-1.61,10.91-2.35,16.54-1.83Z" stroke-width="0"/><path d="m56.17,40.62c4.74.61,9.53,2.61,12.15,8.11.77,1.62.56,3.13-.74,4.55-1,1.09-2.5,1.41-4.03.8-.7-.28-1.46-.52-2.05-.96-5.61-4.19-11.9-4.25-18.29-2.74-2.76.65-5.37,1.99-8.03,3.06-1.05.42-2.02,1.06-3.08,1.43-2.23.77-3.79-.55-3.21-2.79.28-1.09.85-2.31,1.68-3,1.77-1.46,3.73-2.75,5.74-3.87,5.89-3.29,12.14-5.21,19.88-4.59Z" stroke-width="0"/><path d="m51.12,57.3c2.89.1,5.36,1.02,7.55,2.59,2.83,2.03,2.78,5.67-.15,7.03-.85.39-2.32.45-3.04-.03-3.73-2.5-7.68-2.24-11.75-1.38-1.06.22-2.1.6-3.17.74-2.64.33-4.4-1.67-3.53-3.98.14-.37.41-.76.72-.99,4.01-2.99,8.46-4.55,13.36-3.97Z" stroke-width="0"/><path d="m41.73,77.4c.33-3.54,3.4-5.95,6.94-5.84,3.21.09,6.38,4.32,6.04,6.89-.46,3.49-3.57,6.2-7.09,5.92-3.65-.29-6.22-3.34-5.89-6.97Z" stroke-width="0"/><path d="m50,5C25.15,5,5,25.15,5,50s20.15,45,45,45,45-20.15,45-45S74.85,5,50,5Zm0,7.96c13.4,0,25.17,7.16,31.67,17.85L15.7,63.94c-1.76-4.31-2.73-9.01-2.73-13.94,0-20.42,16.61-37.04,37.04-37.04Zm0,74.07c-12.31,0-23.23-6.04-29.96-15.31l65.31-32.8c1.1,3.5,1.69,7.21,1.69,11.07,0,20.42-16.61,37.04-37.04,37.04Z" fill="red" filter="url(#drop-shadow-19)" stroke-width="0"/></svg>