<?xml version="1.0" encoding="UTF-8"?><svg id="Layer_1" xmlns="http://www.w3.org/2000/svg" viewBox="0 0 100 100"><path d="m56.17,40.62c4.74.61,9.53,2.61,12.15,8.11.77,1.62.56,3.13-.74,4.55-1,1.09-2.5,1.41-4.03.8-.7-.28-1.46-.52-2.05-.96-5.61-4.19-11.9-4.25-18.29-2.74-2.76.65-5.37,1.99-8.03,3.06-1.05.42-2.02,1.06-3.08,1.43-2.23.77-3.79-.55-3.21-2.79.28-1.09.85-2.31,1.68-3,1.77-1.46,3.73-2.75,5.74-3.87,5.89-3.29,12.14-5.21,19.88-4.59Z" stroke-width="0"/><path d="m51.12,57.3c2.89.1,5.36,1.02,7.55,2.59,2.83,2.03,2.78,5.67-.15,7.03-.85.39-2.32.45-3.04-.03-3.73-2.5-7.68-2.24-11.75-1.38-1.06.22-2.1.6-3.17.74-2.64.33-4.4-1.67-3.53-3.98.14-.37.41-.76.72-.99,4.01-2.99,8.46-4.55,13.36-3.97Z" stroke-width="0"/><path d="m41.73,77.4c.33-3.54,3.4-5.95,6.94-5.84,3.21.09,6.38,4.32,6.04,6.89-.46,3.49-3.57,6.2-7.09,5.92-3.65-.29-6.22-3.34-5.89-6.97Z" stroke-width="0"/></svg>