<svg id="Layer_1" data-name="Layer 1" xmlns="http://www.w3.org/2000/svg" viewBox="0 0 1000 1000"><path d="M114,127.47v-12c4.58-1.59,9.72,1.15,14.14-2.19-1.58-3-4.16-2.35-6.39-2.43-2.39-.08-4.79,0-7.79,0A163.28,163.28,0,0,1,114.11,94h23.73a27.15,27.15,0,0,0,4.23,0c.81-.13,1.5-1,2.25-1.45-.61-.82-1-1.94-1.87-2.38a7.44,7.44,0,0,0-3.3-.55H114.63V74.75h11.53a23.73,23.73,0,0,0,3.77.14c.64-.11,1.66-1.09,1.6-1.57-.1-.78-.83-2-1.48-2.09a63.13,63.13,0,0,0-8-1c-2.1-.15-4.22,0-6.27,0-1-3.46-.47-13,.89-17.94,4.26.37,8.59.84,12.92,1.1,5.92.37,11.84.6,17.77.84a5.37,5.37,0,0,0,2.47-.44,1.86,1.86,0,0,0,.12-3.38,8.87,8.87,0,0,0-3.65-.85c-8.75-.38-17.5-.67-26.26-1h-3.68c.54-4.81,1-9.26,1.59-14.23,2.89.2,5.52.41,8.14.57a13.32,13.32,0,0,0,4.18.06,3.46,3.46,0,0,0,1.87-2.3c.1-.43-1.15-1.63-1.9-1.74-2.79-.38-5.63-.45-8.45-.64l-3.08-.2c.36-4,.71-7.84,1.12-12.28C135,17.1,150,16.27,165,16.47c-5.65,58.42-11.26,116.45-16.91,174.86l-31.7-1.43c-.33-3.17-.65-6.16-1-9.44l9.21-.62a15.91,15.91,0,0,0,1.69-.06c1.39-.16,3.13-.13,3.06-2.09-.06-1.62-1.61-1.74-2.89-1.81-3.1-.16-6.21-.28-9.31-.4h-2c-.22-3.12-.43-6-.67-9.33,1.35-.07,2.41-.17,3.47-.16,6.36,0,12.71.17,19.07.15,1.74,0,3.8.21,4.54-2.22-1.13-2.18-3.19-2.1-5.13-2.12-6.64-.08-13.28-.1-19.93-.15-.54,0-1.08-.07-2-.13V149.65c1.91.16,4,.32,6,.5,1.68.15,3.35.44,5,.45,1.5,0,2.93-.51,3-2.32,0-1.64-1.35-2-2.67-2.12-3.79-.24-7.59-.4-11.7-.61V131.93c3.5.16,6.84.34,10.18.45,4.52.15,9,.32,13.55.34,1.63,0,3.89,0,3.84-2.26s-2.3-2.09-3.95-2.15c-7.76-.3-15.51-.55-23.76-.83Z" fill="#fff"/><path d="M73,431.08c.65,4.95,1.31,9.09,1.67,13.26a6.46,6.46,0,0,1-1.17,3.5c-6.44,10.66-9.08,22.43-10.28,34.64a16,16,0,0,0,.1,2.94c0,.2.37.37.84.8,3.63-10.29,4.35-21.56,11.49-31.57.64,5.24,1.16,9.59,1.69,13.94h.93c.31-5.28.8-10.55.86-15.83a10,10,0,0,1,2.43-7C84,443,85.91,439.61,89.34,437l1.45,5.46.58.09c.13-.83.28-1.65.4-2.48a10.2,10.2,0,0,0,.28-2.52c-.37-3.5,1.53-5.54,4.33-7,.86-.47,1.73-.92,2.59-1.38,2.63,4.45,3.66,16.23,2,21.81-12.48,3.16-17.87,13.4-23.23,23.53-2.13,4-3.56,8.38-2.13,13.2a54.26,54.26,0,0,1,22-29.74,14.16,14.16,0,0,1-.66,2.56C91,473.64,88.5,487.74,86,501.78c-.82,4.66-.36,9.59-.08,14.37.41,7.19.89,14.4,1.86,21.53,1.16,8.6,4.74,16.52,7.69,24.61a53.09,53.09,0,0,1,2.69,9.32,12.34,12.34,0,0,1-.62,6.2,177.82,177.82,0,0,0-10.33,42.27c-.59,4.86-.11,9.86-.08,14.8a18.46,18.46,0,0,1-.17,4.2c-8.56-7-12.15-17.3-18-26.31-.51,9.77,8.61,24.69,18.68,31,1.27,6.1,2.51,12,3.88,18.58A25.58,25.58,0,0,1,87.19,661c-4-2.24-7-5.62-9.84-9.19-1.58-2,.17-3.76-.16-5.9l-2,2.45C67.76,637,62.34,624.74,56,613l-.86.29c.53,2.23,1,4.5,1.61,6.69.81,2.7,1.36,5.65,2.85,8,4,6.15.36,10.45-3.22,15.78l-11.58-24-.61.14A70.3,70.3,0,0,0,46,627.08c2.1,6,4.26,12,6.69,17.84,1,2.35,1.1,4.2-.45,6.25-1.08,1.43-1.91,3.06-3.3,5.35-3.14-5.59-6-10.54-8.66-15.6a4.51,4.51,0,0,1,.24-3.17c.85-2.24,2-4.37,3-6.57a3.63,3.63,0,0,0,.22-2.45c-1.64,2.6-3.28,5.19-5.36,8.5-2.82-5.68-5.35-10.79-7.88-15.9l-.7.24c.6,2,1.13,4.1,1.81,6.11q1.57,4.61,3.32,9.16c1.56,4.1,1.59,4.1-2.46,7.9-12.22-36.1-14.89-73.07-13.54-110.54,1.2-33.48,12-84,20.8-96.81,2.49,2.59,3.28,5.21,1.76,8.77a134.26,134.26,0,0,0-8.61,30.95,31.81,31.81,0,0,0-.12,9.74c1.54-6,2.81-12.1,4.69-18s4.34-11.56,6.55-17.33l.89.06L48,462h.93a24.18,24.18,0,0,0,.58-4.23,105.91,105.91,0,0,0-.76-11.8c-.32-2.23-.32-4.14.87-6.06,1.92-3.09,3.76-6.23,6.09-10.11a33.77,33.77,0,0,1,3.08,12.08c0,1.4-1,2.91-1.71,4.25a86.53,86.53,0,0,0-10.67,35,7.93,7.93,0,0,0,.94,4.58,16.8,16.8,0,0,0,1.15-2.33c2-6.19,3.74-12.45,5.9-18.57,1.44-4.08,3.43-8,5.57-12.84,2.44,5.94,1.37,11.42,2.89,16.82a12,12,0,0,0,3.23-8.56,115.14,115.14,0,0,0-.5-13.52c-.32-3-.11-5.54,1.68-8s3-5,5.71-7.65ZM29.69,587.93C32,581.77,31.81,575,34,568.82s3.62-12.57,6.42-19.3A89.08,89.08,0,0,0,61,578.25C59.56,575,57.76,572,56.13,569c-3.89-7.36-7.67-14.78-11.55-22.14-1.51-2.86-1.38-5.45,0-8.43,3.87-8.32,7.48-16.77,11.07-25.21a59.12,59.12,0,0,0,2-6.52l-.88-.36c-7.14,8-11.09,18.08-16.69,27.74-.71-1.57-1.26-2.66-1.71-3.8-1.13-2.89-2.21-5.81-3.34-8.7-.41-1.06-.85-2.2-2.47-1.58-1.16,2-.45,4.12.12,6.12,1,3.67,2.15,7.32,3.43,10.91A10.63,10.63,0,0,1,36,544.3c-2.45,7.65-4.79,15.37-6.54,23.2-1.5,6.68-2,13.56.25,20.43ZM42,577.47c.56,8.84,7.73,26,12,28.84C54.05,602.91,45.42,582.24,42,577.47Z" fill="#fff"/><path d="M93.66,666.79l2.56,6.65c-2.92,1.81-5.59,2.63-8.86,1.58.24-1.88.46-3.65.69-5.42l-.41-.2L85,674c-4.32-.46-9.1-3.35-13.61-8.34l3.17-9.37c5.53,5.57,10.71,10.85,19.15,10.53Z" fill="#fff"/><path d="M62.91,636.59c3.32,5.71,6.31,10.79,9.19,15.92a3.63,3.63,0,0,1,.38,2.68c-.9,2.45-2.08,4.8-3.53,8-2.37-3.38-4.11-6.2-6.2-8.75-3.62-4.42-4.88-8.93-1.52-14.07a25.29,25.29,0,0,0,1.67-3.81Z" fill="#fff"/><path d="M66.35,668.17l-4.23,5.6c-4.64-4-7.62-8.87-10.81-13.6l4.39-7.91Z" fill="#fff"/><path d="M63.29,433.76c-1.32-3.39-2.49-6.4-3.85-9.87l9.23-10,1.07.26c.68,3,1.41,5.88,2,8.85a2.69,2.69,0,0,1-.75,1.86C68.55,427.72,66.06,430.55,63.29,433.76Z" fill="#fff"/><path d="M85.67,418.54c.59,1.3.79,1.67.93,2.06,1.68,4.76,2.14,9.15-2.7,12.67-1.74,1.27-2.86,3.39-4.94,6-.51-4.67-.94-8.46-1.29-12.25a2.22,2.22,0,0,1,.63-1.5C80.59,423.26,82.93,421.1,85.67,418.54Z" fill="#fff"/><path d="M65,676.32l3.68-5.45L81.76,679c-.55.87-1.16,1.78-1.71,2.72-1.22,2.07-2.83,2.43-5,1.39-3.67-1.76-7.26-3.6-10.1-6.84Z" fill="#fff"/><path d="M58.06,677.45c-1,.75-1.74,1.38-2.55,1.9s-1.47.77-2.75,1.43l-10-12.88,5.12-3.61,10.19,13.17Z" fill="#fff"/><path d="M34.28,649.09,37.63,644l8.27,16.5L41.72,664c-2.64-2.79-5.35-8.26-7.43-14.9Z" fill="#fff"/><path d="M45.43,436.47l-4.38-3.71,7.72-13.62,4.4,4.17-7.75,13.16Z" fill="#fff"/><path d="M65.71,408l-9.59,10.76-5-3.08c2.71-3,5.14-5.88,7.79-8.53,2.94-2.94,3.5-2.8,6.8.85Z" fill="#fff"/><path d="M73.69,410.25l6.77-4.81,3.72,7.07c-2.52,2.13-4.92,4.14-7.62,6.41-1-3-1.86-5.61-2.88-8.67Z" fill="#fff"/><path d="M73.93,688c-4.62,2.35-10.73.77-16.83-4.18l4.22-3.34Z" fill="#fff"/><path d="M92.18,425.06l-1.36-9.19a8.62,8.62,0,0,1,7.42-1V422l-6,3.12Z" fill="#fff"/><path d="M88.59,409.22c-1-1.91-2-3.73-3-5.66,5.75-2.92,8.32,1.72,12.07,4.25l-9.08,1.41Z" fill="#fff"/><path d="M91,680.49a8.4,8.4,0,0,1-8.29,3.72C84.51,679.41,84.68,679.33,91,680.49Z" fill="#fff"/><path d="M75.57,400.14,70,404.55l-3.84-2.5C69,400.25,71.3,398.33,75.57,400.14Z" fill="#fff"/><path d="M250.14,896.24a25.29,25.29,0,0,1,3,.47c-.79,2.35-1.3,4.41-2.15,6.31a116.24,116.24,0,0,1-6.4,13.36,63.9,63.9,0,0,1-40.93,30,24.89,24.89,0,0,1-7.15.57,51.28,51.28,0,0,1-7.06-1.3c-2.79-.56-3.31-.17-4.42,2.45a32.61,32.61,0,0,1-2.48,4.18l.14-.12c-1.09,1.57-2.25,3.1-3.26,4.71-.48.77-1.15,1.88-.9,2.51a3.09,3.09,0,0,0,2.35,1.26c11.75.61,23.51,1.15,34.29-5a24.25,24.25,0,0,1,2.75-1.1c23.38-9.82,39.5-26.29,46.68-50.95a61.94,61.94,0,0,0,1.74-6.55c.34-2,1.38-2.75,3.22-3.33-7.6,2.29-11.33,2.77-19.46,2.53Z" fill="gray"/><path d="M30.57,811.43a56.85,56.85,0,0,0-6.93-5.54,23.65,23.65,0,0,0-4.48-2c-3.95,0-5.75,2-5.27,4.94a9.28,9.28,0,0,0,4.25,6.6c6.41,3.8,13,7.25,19.57,10.82a2.64,2.64,0,0,0,3.63-.83l.06-.11c1.07-1.43.51-2.7-.56-3.77-3.39-3.39-6.75-6.82-10.27-10.08Z" fill="gray"/><path d="M65.36,926c-2.77,6.25-5.57,12.48-8.28,18.75a9.28,9.28,0,0,0-.61,3.3c-.1,3.61,2.39,5.12,5.52,3.39a9.4,9.4,0,0,0,5.15-7.74c.37-4.34.68-8.69.77-13a22.58,22.58,0,0,0-1-4.6l-1.54-.1Z" fill="gray"/><path d="M112.65,941.29c-2.67-3.77-5.46-7.46-8.24-11.15a3.72,3.72,0,0,0-1.13-.75c-1.36.07-2,1.17-1.8,3,.71,5.93,3.9,10.78,7.12,15.55a2.93,2.93,0,0,0,4,.87l.11-.08a3.19,3.19,0,0,0,1.41-4,14,14,0,0,0-1.52-3.45Z" fill="gray"/><path d="M90.55,944.1c-1.46.22-2.91.55-4.7.89q-.07-1.5,0-3c.49-3.91,1.08-7.81,1.54-11.72.25-2.11,1-4.38-1.6-6.56a17.33,17.33,0,0,0-1.74,3.47c-1.71,7.54-3.4,15.09-4.91,22.68-.49,2.49,1.39,3.86,4,3.14,1.72-.47,3.39-1.16,5.54-1.91,1.53,10,2.36,19.32,4.74,28.61.48-.4.64-.46.64-.53.4-10.42.83-20.84,1.14-31.26C95.33,945,93.59,943.65,90.55,944.1Z" fill="gray"/><path d="M34.69,836.35c-3.79-2.39-7.57-4.84-11.53-6.92a9.81,9.81,0,0,0-5.28-.92,4.54,4.54,0,0,0-3.09,2.3c-.39.84.2,2.45.85,3.38a8.27,8.27,0,0,0,3,2.27,23.88,23.88,0,0,0,11.69,3.16,26.43,26.43,0,0,0,3.77-.25,1.62,1.62,0,0,0,.62-3Z" fill="gray"/><path d="M151.74,859.82a22.5,22.5,0,0,0,3.85,0l5.38-.62a46.23,46.23,0,0,0,5.86-.74,15.35,15.35,0,0,0,5-2.07,4.4,4.4,0,0,0,1.55-5.26c-.94-2-2.7-2.29-4.62-2.22a3.79,3.79,0,0,0-1.25.18c-5.16,1.84-10.31,3.67-15.45,5.57a3.2,3.2,0,0,0-1.67,1.22,4.15,4.15,0,0,0-.62,2.66c.13.55,1.23,1.09,2,1.23Z" fill="gray"/><path d="M183.46,928.27a13.42,13.42,0,0,1-2.05-3.2c-.56-1.52-1.24-3.27-1-4.77.59-3.51-.19-6.75-1.18-10-1.81-5.89-2.48-6.25-8.43-5.21a5.14,5.14,0,0,1-1.35-.21c-.28-2.4-.5-4.77-.83-7.12a9.85,9.85,0,0,0-4.82-7.11c-3.72-2.41-7.56-2.88-11.17-1.16-5-4.55-9.53-8.81-14.25-12.85a4.8,4.8,0,0,1-1.76-4.74c.38-4.06.9-8.21.44-12.22-1.11-9.72-5.6-18-12.28-25.06-2.33-2.47-4.79-4.8-7.19-7.2-10.77-10.74-24.12-13.49-38.35-10.81-13.4,2.54-23.46,10.85-30.58,22.39a26.22,26.22,0,0,0-3.42,10.35c-2.81,23,5.72,41.44,23.56,55.82a26.2,26.2,0,0,0,12.26,5.47c5.74,1,11.54,1.54,17.28.31a7.46,7.46,0,0,1,6.94,2c5.31,4.62,10.59,9.28,15.84,13.88.27,6.44.48,6.87,5.48,10.62a9.91,9.91,0,0,1,4.16,6.55c.89,5,2.29,6,7.38,6.33a13.73,13.73,0,0,1,2.06.32c1,3,1.09,6.9,4.46,7.8,2.8.74,6-.05,9.38-.18,3.25,2.86,4.1,2.92,8.15.42,1.19-.74,2.44-1.39,3.56-2,6,3.17,10.21,2.41,14.85-2.52a24.9,24.9,0,0,1,2-1.81c.7-3.44,1.51-6.88-.44-9.59.88-2.65,1.45-4.84,2.32-6.9a7,7,0,0,0-1-7.55Zm-75.37-20.61a23.29,23.29,0,0,0,2.68-3.1,2.64,2.64,0,0,0,.22-2.32,3.41,3.41,0,0,0-2.45-1.08,9.9,9.9,0,0,0-3.23.93c-7.9,3.09-16,3.26-24.2,1.64a19.58,19.58,0,0,1-7.69-3.33c-16.5-12.29-24.21-28.59-22-49.31.65-6.1,3.53-11,7.76-15.14a65.9,65.9,0,0,1,5.49-4.66c12-9.53,25.11-9.73,38.86-4.76a9,9,0,0,1,1.92.89c11,7.46,20.37,16.22,23.84,29.68,1.37,5.31,1,10.64-.15,16a33.94,33.94,0,0,0-1,7.1,10.59,10.59,0,0,0,1.53,5.14c1.36,2.26,3.26,2.07,4.56-.23a24.71,24.71,0,0,0,1.25-3.33c4.56,5.19,9.5,9.57,13.38,15a4,4,0,0,1,.46,4.36L147,906a153.84,153.84,0,0,1-33-34,18.93,18.93,0,0,0,4.25-12.31c0-5.52-1.87-10.3-6.27-13.77-5.11-4-10.12-2-11,4.49a27,27,0,0,0,2.3,14.48c.54,1.25,1,2.53,1.57,3.86-2.22.92-2.54-.6-3.22-1.83-1.9-3.46-3.81-6.91-5.9-10.26a9.1,9.1,0,0,0-7.36-4.42c-3.52-.26-5.33,1.5-5.18,5a13.22,13.22,0,0,0,4.94,10,56.66,56.66,0,0,0,6.64,4.52c1.54,1,2.28,2,1.36,3.85-3.49-.17-7-.41-10.46-.51-3.3-.09-6.34.68-7.59,4.17s-.06,6.42,2.26,9c4.12,4.54,11.9,4.93,17,.87,1.3-1,2.44-2.28,3.83-3.6,12.25,9.81,22.91,21,33.26,32.52a8.19,8.19,0,0,1-.85,1.34c-4,3.82-5.31,4.28-9.89,1.22a118,118,0,0,1-15.65-13Zm.37-33.35c10.05,13.37,20.94,26.08,35.19,36.25L140,914c-.49-.3-.92-.42-1.14-.71-9.44-12.84-20.92-23.62-33.59-33.17-1.93-1.45-2.72-2.68-1.47-5.08l4.69-.69Zm-1.32-23.87c5.22,2.39,6.47,8.18,3.4,15.09-2.44-4.86-4.1-9.47-3.4-15.09Zm-14,13.73a8,8,0,0,1-4.54-6.86c3.12,1.87,3.74,4.41,4.53,6.86ZM94.94,882c-5.49,4.94-10,4.48-11.91-1C87,880.29,90.64,881,94.94,882Zm84,52.1a37.51,37.51,0,0,1-21,19.61c-2.13-2-4.66-2.07-7.48-.71a31.63,31.63,0,0,0,11-15.71l-14.92,14.07c-.41-1.41-.53-2.06-.77-2.65-1.22-3-2.58-3.82-5.86-3.7a12,12,0,0,1-4-.43c6.32-5,13.34-9,16.43-16.77a64.45,64.45,0,0,0,3.46-12.51c-6.1,8.7-11.3,18-20.52,24.06l-10.62-9.89c.09-.23.19-.47.28-.71a12.41,12.41,0,0,1,2.58.19,10.76,10.76,0,0,0,9.66-1.74c7.35-5.38,14.14-11.2,17.63-20.08,1.68-4.27,3.62-8.3,1.13-12.86,4.94-.66,7,1.08,7,5.3a77.29,77.29,0,0,1-2.52,21.78c-1.63,5.92-4.63,10.84-8.18,15.61a13.55,13.55,0,0,0-1.94,3.17,14.47,14.47,0,0,0,6.88-5,58.8,58.8,0,0,0,10.1-20.36c.33-1.21.64-2.43,1-3.71l4.7-.8c.37,7,0,13.79-3,20.22-2,4.29-4.29,8.51-4.68,13.51a46,46,0,0,0,12.33-15.46c2.5,1.59,2.34,3.38,1.3,5.59Z" fill="gray"/><path d="M27.48,735c-1.83,2-1.21,3.8,1.29,5a7.35,7.35,0,0,0,2.41.79c8.3.73,16.59,1.5,24.9,2,2.75.17,4.2-1.46,4.15-4.24-.13-7.76-.4-15.52-.64-23.27a4.91,4.91,0,0,0-.29-1.66A2.63,2.63,0,0,0,56,711.91a2.33,2.33,0,0,0-.49.21,23.23,23.23,0,0,0-3.09,2.22L44.65,720c-2.77-4.27-4.91-8.11-7.56-11.56a111.56,111.56,0,0,1-16.88-31.16c-.23-.67-.35-1.55-.83-1.91-.91-.7-2.09-1.54-3.09-1.46-.7.05-1.59,1.44-1.86,2.39a8.4,8.4,0,0,0,.11,3.35C16.51,692,21.83,703,28,713.71c2.51,4.36,5.68,8.34,8.44,12.34-3,3-6.15,5.83-9,9Z" fill="gray"/><path d="M24,406.51c1.43-3.69,2.63-7.46,4.08-11.14a101.53,101.53,0,0,1,16.64-27.29L60,374.89c1.68-10.87,1.76-21-1-31.61a36.27,36.27,0,0,0-4.89,0,49.8,49.8,0,0,0-8.74,1.6,178.84,178.84,0,0,0-17,6.25c-3.49,1.53-3.51,3.15-.51,5.51s6.37,4.63,9.85,7.12a11.48,11.48,0,0,1-.61,1.39,22.91,22.91,0,0,1-1.45,2.09c-6.66,8.43-11.06,18-14.45,28.13a59.73,59.73,0,0,0-2,7.79,9.68,9.68,0,0,0,1.14,7.15c2.73-.24,3.16-2.22,3.8-3.85Z" fill="gray"/><path d="M29.69,587.93c-2.24-6.87-1.75-13.74-.25-20.43,1.76-7.83,4.09-15.5,6.56-23.2a10.68,10.68,0,0,0,.13-7.31c-1.28-3.59-2.4-7.24-3.43-10.91-.56-2-1.28-4.08-.12-6.12,1.61-.62,2,.51,2.47,1.58,1.13,2.89,2.2,5.81,3.34,8.7.44,1.13,1,2.22,1.71,3.8,5.6-9.66,9.54-19.71,16.69-27.74l.88.36a62.07,62.07,0,0,1-2,6.52c-3.6,8.45-7.2,16.89-11.07,25.21a8.77,8.77,0,0,0,0,8.43c3.89,7.36,7.66,14.78,11.55,22.14,1.62,3.07,3.42,6.06,4.8,9.29a88.71,88.71,0,0,1-20.56-28.73c-2.8,6.73-4.29,13.12-6.42,19.3s-1.91,12.95-4.26,19.11Z" fill="gray"/><path d="M42,577.48c3.47,4.77,12.1,25.44,12,28.84C49.68,603.51,42.51,586.32,42,577.48Z" fill="gray"/><path d="M77.71,474.54c-2.13,4-3.56,8.38-2.13,13.2a54.26,54.26,0,0,1,22-29.74h0s.43-1,3.38-7c-12.48,3.16-17.87,13.4-23.23,23.53Z" fill="gray"/><path d="M34.89,669.92c2.39,4,4.51,8.21,7.34,11.87a41.42,41.42,0,0,0,19.15,13.57c15,5.38,28.9,4.26,40.28-9h0C94,668,90,659,87.12,634.92a18.46,18.46,0,0,1-.17,4.2c-8.56-7-12.15-17.3-18-26.31-.51,9.77,8.61,24.69,18.68,31,1.27,6.1,2.51,12,3.88,18.58a25.08,25.08,0,0,1-4.3-1.39c-4-2.24-7-5.62-9.84-9.19-1.58-2,.17-3.76-.16-5.9l-2,2.45C67.78,637,62.36,624.74,56,613l-.86.29c.53,2.23,1,4.5,1.61,6.69.81,2.7,1.36,5.65,2.85,8,4,6.15.36,10.45-3.22,15.78l-11.58-24-.61.14A70.21,70.21,0,0,0,46,627.08c2.1,6,4.26,12,6.69,17.84,1,2.35,1.1,4.2-.45,6.25-1.08,1.43-1.91,3.06-3.3,5.35-3.14-5.59-6-10.54-8.66-15.6a4.51,4.51,0,0,1,.24-3.17c.85-2.24,2-4.37,3-6.57a3.63,3.63,0,0,0,.22-2.45c-1.64,2.6-3.28,5.19-5.36,8.5-2.82-5.68-5.35-10.79-7.88-15.9l-.7.24c.6,2,1.13,4.1,1.81,6.11q1.57,4.61,3.32,9.16c1.56,4.1,1.59,4.1-2.46,7.9-12.22-36.1-14.89-73.07-13.54-110.54,1.2-33.48,12-84,20.8-96.81,2.49,2.59,3.28,5.21,1.76,8.77a134.26,134.26,0,0,0-8.61,30.95,31.81,31.81,0,0,0-.12,9.74c1.54-6,2.81-12.1,4.69-18s4.34-11.56,6.55-17.33l.89.06L48.05,462H49a24.18,24.18,0,0,0,.58-4.23A105.38,105.38,0,0,0,48.8,446c-.32-2.23-.32-4.14.87-6.06,1.92-3.09,3.76-6.23,6.08-10.11a33.77,33.77,0,0,1,3.08,12.08c.05,1.4-1,2.91-1.71,4.25a86.53,86.53,0,0,0-10.67,35,7.93,7.93,0,0,0,.94,4.58,16.8,16.8,0,0,0,1.15-2.33c2-6.19,3.74-12.45,5.9-18.57,1.44-4.08,3.43-8,5.57-12.84,2.44,5.94,1.37,11.42,2.89,16.82a12,12,0,0,0,3.23-8.56,115.14,115.14,0,0,0-.5-13.52c-.32-3-.11-5.54,1.68-8s3-5,5.71-7.65c.65,5,1.31,9.09,1.67,13.26a6.46,6.46,0,0,1-1.17,3.5c-6.44,10.66-9.08,22.43-10.28,34.64a16,16,0,0,0,.1,2.94c0,.2.37.37.84.8,3.63-10.29,4.35-21.56,11.49-31.57.64,5.24,1.17,9.59,1.69,13.94h.93c.31-5.28.8-10.55.86-15.83a10,10,0,0,1,2.43-7c2.46-2.81,4.35-6.15,7.78-8.72l1.45,5.46.58.09c.13-.83.28-1.65.4-2.48a11.25,11.25,0,0,0,.28-2.52c-.37-3.5,1.53-5.54,4.33-7.05.86-.47,1.73-.92,2.59-1.38,2.63,4.45,3.66,16.21,2,21.8,2.94-6,2.05-16,.05-24s-2.13-17.42-1.87-28.58h0c-1.68-1.1-3.06-2-4.48-2.91-10.54-6.57-21.35-7-32.11-.8a57,57,0,0,0-10.07,7.69c-5.86,5.42-10.28,12-14.17,18.94A176.13,176.13,0,0,0,23,458.49c-7.39,25.39-11,51.35-12.14,77.73-1.2,29.24.63,58.24,7.14,86.78,3.7,16.28,8.22,32.35,16.9,46.87ZM57.1,683.77l4.22-3.34L73.93,688c-4.62,2.35-10.73.77-16.83-4.18Zm22.95-2c-1.22,2.07-2.83,2.43-5,1.39-3.67-1.76-7.26-3.6-10.1-6.84l3.68-5.45L81.76,679c-.55.87-1.16,1.78-1.71,2.72Zm2.64,2.45c1.81-4.8,2-4.88,8.29-3.72a8.4,8.4,0,0,1-8.29,3.7Zm11-17.42,2.56,6.65c-2.92,1.81-5.59,2.63-8.86,1.58.24-1.88.46-3.65.69-5.42l-.41-.2L85,673.94c-4.32-.46-9.1-3.35-13.61-8.34l3.17-9.37c5.53,5.57,10.71,10.85,19.15,10.53ZM61.23,640.39a25.29,25.29,0,0,0,1.67-3.81c3.32,5.71,6.31,10.79,9.19,15.92a3.63,3.63,0,0,1,.38,2.68c-.9,2.45-2.08,4.8-3.53,8-2.37-3.38-4.11-6.2-6.2-8.75-3.62-4.42-4.88-8.93-1.52-14.07ZM55.7,652.24l10.65,15.91-4.23,5.6c-4.64-4-7.62-8.87-10.81-13.6Zm2.35,25.19c-1,.75-1.74,1.38-2.55,1.9s-1.47.77-2.75,1.43l-10-12.88,5.12-3.61,10.19,13.17ZM37.62,644l8.27,16.49L41.71,664c-2.64-2.79-5.35-8.26-7.43-14.9l3.35-5.1ZM71,424.81c-2.42,2.89-4.91,5.72-7.68,8.93-1.32-3.39-2.49-6.4-3.85-9.87l9.23-10,1.07.26c.68,2.95,1.41,5.88,2,8.85A2.67,2.67,0,0,1,71,424.81Zm12.93,8.44c-1.74,1.27-2.86,3.39-4.94,6-.51-4.67-.95-8.46-1.29-12.25a2.22,2.22,0,0,1,.63-1.5c2.29-2.22,4.63-4.38,7.37-6.94.59,1.3.79,1.67.93,2.06,1.65,4.72,2.11,9.11-2.73,12.63Zm14.33-11.33-6,3.12-1.36-9.19a8.62,8.62,0,0,1,7.42-1v7.08Zm-.57-14.12-9.08,1.41c-1-1.91-2-3.73-3-5.66,5.75-2.92,8.32,1.72,12.07,4.25Zm-17.21-2.37,3.72,7.07c-2.52,2.13-4.92,4.14-7.62,6.41-1-3-1.86-5.61-2.88-8.67l6.77-4.81Zm-4.89-5.29L70,404.55l-3.84-2.5c2.78-1.8,5.13-3.72,9.4-1.91Zm-16.66,7c2.94-2.94,3.5-2.8,6.8.85l-9.59,10.76-5-3.08c2.71-3,5.14-5.88,7.79-8.53Zm-10.13,12,4.4,4.17-7.75,13.16L41,432.75l7.72-13.62Z" fill="gray"/><path d="M989.42,411.24a20.05,20.05,0,0,0-.89-4.12c-1.47-4.57-2.95-9.14-4.54-13.66-3.2-9.09-6.83-17.95-12.91-25.6-2.34-2.95-4.43-6.09-7.24-10a41.28,41.28,0,0,0,4.72-3.72,44,44,0,0,0,5.3-6.56c2.39-3.73,1.29-6.45-3.05-6.87a155.25,155.25,0,0,0-16-.38c-3.38,0-6.75.56-10.14.62-3.78.06-6.13,1.78-5.95,5.46.4,8.32,1.12,16.62,1.78,24.92a5.09,5.09,0,0,0,3.44,4.45c2.08.88,3.45-.19,4.9-1.45,3.16-2.77,6.41-5.44,10-8.44,2.11,2.86,4.28,5.45,6.06,8.29,2.92,4.66,5.72,9.42,8.32,14.27,2.26,4.21,4.28,8.56,6.21,12.94,1.36,3.1,2.38,6.34,3.55,9.52a17.94,17.94,0,0,0,.77,2c.78,1.57,1.74,3.15,3.82,2.56s2.09-2.49,1.93-4.2Z" fill="gray"/><path d="M975.18,666.18c-1.94-.62-2.81.77-3.45,2.29-1.2,2.87-2.3,5.77-3.56,8.61-6,13.5-12.95,26.36-24.22,37-1.7-1-3.22-2.08-4.84-2.92a52.46,52.46,0,0,0-6.88-3.21c-3-1-4.52,0-5.22,3-.16.68-.17,1.4-.27,2.1-1.21,7.86.89,15.45,1.9,23.12.32,2.46,1.65,3.26,4.24,3a17.64,17.64,0,0,0,3.74-.71c7-2.15,14-4.36,21-6.53,1.7-.53,3.27-1.22,3.51-3.21s-1.16-3-2.58-4c-2.68-2-5.23-4.13-8-6.35,1.25-1.65,2.15-2.89,3.1-4.09A186.07,186.07,0,0,0,971,687.69c3-5.53,4.5-11.56,5.81-17.64.34-1.56.36-3.27-1.56-3.89Z" fill="gray"/><path d="M957.38,534.05q-3.2-6.7-6.38-13.4h-.92c-.64,2.19-1,4.56-2,6.55-2.71,5.22-2,10,1.24,14.59.31.45.55,1,1.06,1.82l2.37-3.21.91.24c-.18,1.55,0,3.23-.62,4.62a9.93,9.93,0,0,0-.15,7c.76,2.67,1.14,5.44,1.68,8.17l-1,.44-4.46-6.51c-1.6,2.95-3.2,5.53-4.38,8.29-.41,1,.09,2.4.37,3.57.84,3.56,1.88,7.08,2.62,10.66.3,1.47,0,3,0,5.44-4.22-3.85-4-9.08-6.48-13.25l-3.06,4.47c0-.82-.12-1.2,0-1.41,3-4.78,1.38-9.16-2-12.59-3.79-3.85-3.53-7.34-1.28-11.71,2-3.87,3.23-8.12,4.92-12.16a5.31,5.31,0,0,0-.31-5.19c-2.69-4.47-5.31-9-7.94-13.5a14.76,14.76,0,0,1-1.66-3.69c5.65,3.38,8.45,9.13,12.37,14.43,2.29-4.18,3.07-8.59,4.14-12.86.22-.9-.49-2.16-1-3.1-1.93-3.29-4-6.49-6-9.76a14.89,14.89,0,0,1-1.88-4.62c2.59.46,3.78,2.57,5.37,4.11s3.3,3.46,5,5.26l2.25-3.07c.34.73.67,1.11.64,1.45-.44,4.84,1.25,9,3.47,13.22,2.45,4.69,4.31,9.78,4.13,15.26l-1.14.45Zm-14.12,25.83c1.46-3.16,2.68-5.67,3.78-8.23a3.66,3.66,0,0,0,.28-2.37c-1-2.84-2.2-5.6-3.65-9.2l-6.22,11.56,5.81,8.24Z" fill="gray"/><path d="M896,408c-1,3.89.89,7.8,0,14.64.08-.37.22-.81.36-1.45a16.57,16.57,0,0,1,6.64,5.92c.74,1.26.44,3.21.4,4.84-.12,5.18-.35,10.36-.53,15.54l1.87.45c1.13-3.8,2.24-7.55,3.44-11.57,2,1,2.32,3.16,3.52,4.57,3.63,4.27,4.67,8.76,2.8,14.37s.31,11.42,2.29,16.89a2.6,2.6,0,0,0,.8,1,3.22,3.22,0,0,0,1,.35c1.89-2.29.88-5.05,1-7.58a69.13,69.13,0,0,1,.49-8c5.39,8.28,7.11,18.16,12.07,26.5l1-.24a27.52,27.52,0,0,0-.51-5.12c-2.74-9.49-5.49-19-8.54-28.38a11.55,11.55,0,0,1-.13-7.8c1-2.88,2-5.77,3.37-9.68,1.52,2.58,2.51,4.2,3.45,5.86s1.64,3.3,2.63,4.84c3.33,5.16,5.4,10.31,2.43,16.55a12.7,12.7,0,0,0-.19,9.37c3.64-2.13,2.75-6.45,5.53-9.48,3.83,11.07,6.18,22.16,10.26,32.7A51.11,51.11,0,0,0,949.64,469c-1.47-4.72-3-9.42-4.66-14.08a5.81,5.81,0,0,1,.13-4.86c1.29-2.65,2.43-5.38,4-9,.89,2,1.46,3.18,2,4.39.86,2.09,1.63,4.22,2.52,6.3,1.49,3.5,1.94,6.91.39,10.62-1,2.38-1.9,5-1,8,3.09-1.09,2.42-4.44,4.66-6.43,2.24,5.24,2.88,10.8,5.1,16.23,1.26-1.41.84-2.76.68-4-.74-5.74-1.53-11.48-2.28-17.22-.57-4.32.1-6.15,3.79-10.07.54,1.6,1.09,3,1.48,4.4a244,244,0,0,1,8.7,61.5c.5,36.5-4,72.16-16.33,106.66a140.31,140.31,0,0,1-10.38,21.79c-2.35-3.91-3.17-7-1.47-11.26,3.64-9.16,6.49-18.64,9.48-28.05a14.46,14.46,0,0,0,.09-6.28c-2.29,2.94-2.38,6.68-3.77,9.9-1.45,3.37-2.88,6.75-4.41,10.09s-3.15,6.58-5.09,10.59c-1.55-4.37-2.87-8.06-4.41-12.38a8.36,8.36,0,0,0-2.17,6.43,94.06,94.06,0,0,0,1.66,10.83,6.81,6.81,0,0,1-.69,5.6c-1.71,2.7-3.19,5.53-4.78,8.31l-1.06-.09c-1-4-2.23-8-2.9-12-.25-1.49.74-3.23,1.31-4.81,2.52-7,5.13-14.05,7.6-21.11a11.26,11.26,0,0,0,.34-7.55c-5.1,7.18-7.93,14.87-12,22.37-2.38-3.89-2.48-8.4-5.68-11.84a11.79,11.79,0,0,0-1.58,6.64,110.21,110.21,0,0,0,1.45,12.16c.52,2.68.41,4.94-1.22,7.19-1.4,1.92-2.54,4-4.29,6.84-1-3.71-1.59-6.66-2.57-9.49-1.36-3.93-.86-7.42.55-11.39,2.67-7.56,4.43-15.45,6.41-23.24.35-1.36-.06-2.9-.12-4.36l-.9-.16q-4.49,10.27-9,20.56l-.75-.16c-.62-2-1.25-4.07-2-6.57-3.6,6-1.71,12.51-4.24,18.19-.61-4.35-1.31-8.69-1.75-13-.1-1,.65-2.1,1.12-3.11,3.54-7.55,7.23-15,8.35-23.44a50.93,50.93,0,0,0,0-6.3c-2.81,2.3-2.79,5.18-3.9,7.46-1.24,2.53-2.12,5.25-3.48,7.72s-3,4.44-4.73,7h0A115.43,115.43,0,0,1,902,635c0,17-5,45-20.09,57h0c6.2,1.74,11.53,3.68,17,4.65,5,.88,10.18,1.16,15.08-.81,12.73-5.12,23.37-12.82,31.4-24.25,11.11-15.81,18.8-33.13,24.4-51.49,7.67-25.14,11.65-50.91,13-77.14A302.16,302.16,0,0,0,976.54,462c-3.51-15.94-8.53-31.36-16.87-45.52a71.43,71.43,0,0,0-15.15-18.7c-14-11.9-30-12.83-45.31-2.66-1.14.76-2.31,1.49-3.4,2.18-.32-.28-.47-.35-.5-.45h0S897,404,896,408Zm-2.36,276.49-.79-1,6.19-5c.64.78,1.15,1.38,2,2.45l-7.42,3.56ZM900,658.06c.77-4.16,1.41-8.35,1.85-12.55.31-2.93,2.24-4.67,4.12-7.07,1.46,4.4,2.83,8.39,4.07,12.43a3.13,3.13,0,0,1-.25,2.36c-2.59,3.83-5.31,7.57-8.25,11.7a8.56,8.56,0,0,1-1.53-6.87Zm5,14.77,9.62-12.17,3.76,6.19c-2.85,4.17-6.89,6.86-11,10l-2.37-4Zm7.08,10.72,11.55-9.94,2.7,1.73c0,2.82-8.75,8.09-14.24,8.21Zm10.24-21.82-4.12-6.62c1.7-3.37,3.39-6.73,5.46-10.82,1.34,3.71,2.5,6.71,3.45,9.71a3.17,3.17,0,0,1-.59,2.31c-1.18,1.71-2.54,3.3-4.23,5.46Zm7.94,9.76-3.37-2.59,5.13-7.4,4,2.63-5.81,7.36Zm9.65-12c-1.7-1.48-2.94-2.55-4.43-3.86l6.32-11.8,3.68,6-5.56,9.7ZM918.49,437.36c-2.45-4.08-4.73-7.76-6.86-11.52a3.19,3.19,0,0,1,0-2.39c.87-2.19,2-4.3,3.3-7.22,3,3.81,5.55,7.06,8.13,10.36l-4.54,10.78Zm22.65,6.08c-.59-.86-1.16-1.58-1.59-2.37-2.2-4.11-4.11-8.39-6.61-12.31-1.64-2.57-1.63-4.63,0-6.95.95-1.35,1.86-2.73,3.15-4.65l9.8,16-4.78,10.31Zm20.52-4.38a3.83,3.83,0,0,1-.33,2.7c-.82,1.6-1.9,3.07-3.34,5.31-1.56-3.76-2.85-6.68-4-9.67a3.15,3.15,0,0,1,.31-2.31c.94-1.66,2.08-3.2,3.52-5.37,1.43,3.44,2.73,6.35,3.8,9.34Zm-18-31.21a72.59,72.59,0,0,1,11.15,15.88l-5,4.67-9.53-16.24,3.42-4.31Zm-4-3.93-3.4,2.33-8.62-8.15c4.81.26,8.31,2.81,12,5.81Zm-17.72-1.09,9.78,8.35-5,7.42-8.88-9.9,4.14-5.87Zm-5-2.92-3.86,4.69-7.07-4c3.6-2.91,7-4,10.9-.69Zm-16.48,6.39a22.37,22.37,0,0,1,9.38,5.47l-3.37,7.47c-3.34-2.57-6.34-4.85-9.3-7.16-1.49-1.16-1.38-2.81-.71-4.21a3.23,3.23,0,0,1,4-1.57Z" fill="gray"/><path d="M25.93,193.2a9,9,0,0,0,2.44.64c4.65.32,9.3.62,14,.83,8.33.38,16.67.5,25,1.1,10,.71,20,1.18,29.79,3.89,2.69.75,5.6.71,8.41,1,8.72.85,17.45,1.61,25.9,4.18,7.84,2.38,15.72,4.64,23.51,7.15,3.81,1.23,7.48,2.91,11.5,4.5,6.94-11.44,17.6-20.6,19.33-22a6,6,0,0,1-3.58.78q-9.09-.53-18.16-1.4c-2.73-.27-5.43-.92-8.28-1.43.59-7.39,1.1-14.29,1.71-21.17,1.51-16.9,3-33.79,4.63-50.68,2.1-22,4.33-43.89,6.43-65.84,1.06-11.12,2.15-22.23,2.87-33.38.53-8.24-1.38-9.93-9.62-10.16-14-.4-28-.41-41.92,1.15-4.83.54-7.21,2.6-7.56,7.43-1.42,19.59-2.77,39.19-4.16,58.79-.09,1.21-.28,2.42-.42,3.59C99.89,82,92.4,82,84.93,81.53c-16.08-.89-32.15-2-48.22-3a5,5,0,0,0-2.5.09,7.31,7.31,0,0,0-2.9,2.67c-.73,1.55.08,3.1,1.58,3.94a8.11,8.11,0,0,0,3.18,1c6.61.63,13.22,1.17,19.84,1.71,2,.16,4,.23,6.62.37a14.74,14.74,0,0,1-1.37,1.57c-6.52,5.6-11.27,12.68-15.84,19.79-3,4.61-2.66,6.1,3.32,6.31,3.76.13,7.52.56,11.43.87-.16,2.38-.38,4.33-.41,6.29-.14,10.74,0,21.49-.42,32.22-.41,10.51-1.39,21-2.14,31.66-.78,0-1.61.13-2.45.12-6.92-.09-13.85-.27-20.77-.29a37.68,37.68,0,0,0-7.57.61A4.12,4.12,0,0,0,23.87,190c-.49,1.52.59,2.67,2.05,3.24ZM114.11,94h23.73a27.15,27.15,0,0,0,4.23,0c.81-.13,1.5-1,2.25-1.45-.61-.82-1-1.94-1.87-2.38a7.44,7.44,0,0,0-3.3-.55H114.63V74.74h11.53a23.73,23.73,0,0,0,3.77.14c.64-.11,1.66-1.09,1.6-1.57-.1-.78-.83-2-1.48-2.09a63.13,63.13,0,0,0-8-1c-2.1-.15-4.22,0-6.27,0-1-3.46-.47-13,.89-17.94,4.26.37,8.59.84,12.92,1.1,5.92.37,11.84.6,17.77.84a5.37,5.37,0,0,0,2.47-.44A1.86,1.86,0,0,0,150,50.4a8.87,8.87,0,0,0-3.65-.85c-8.75-.38-17.5-.67-26.26-1h-3.68c.54-4.81,1-9.26,1.59-14.23,2.89.2,5.52.41,8.14.57a13.32,13.32,0,0,0,4.18.06,3.46,3.46,0,0,0,1.87-2.3c.1-.43-1.15-1.63-1.9-1.74-2.79-.38-5.63-.45-8.45-.64l-3.08-.2c.36-4,.71-7.84,1.11-12.28C135,17.09,150,16.26,165,16.46c-5.65,58.42-11.26,116.45-16.91,174.86l-31.7-1.43c-.33-3.17-.65-6.16-1-9.44l9.21-.62a15.91,15.91,0,0,0,1.69-.06c1.39-.16,3.13-.13,3.06-2.09-.06-1.62-1.61-1.74-2.89-1.81-3.1-.16-6.21-.28-9.31-.4h-2c-.22-3.12-.43-6-.67-9.33,1.35-.07,2.41-.17,3.47-.16,6.36.05,12.71.17,19.07.15,1.74,0,3.8.21,4.54-2.22-1.13-2.18-3.19-2.1-5.13-2.12-6.64-.08-13.28-.1-19.93-.15-.54,0-1.08-.07-2-.13V149.64c1.91.16,4,.32,6,.5,1.68.15,3.35.44,5,.45,1.5,0,2.93-.51,2.95-2.32,0-1.64-1.35-2-2.67-2.12-3.79-.24-7.59-.4-11.7-.61V131.92c3.5.16,6.84.34,10.18.45,4.52.15,9,.32,13.55.34,1.63,0,3.89,0,3.84-2.26s-2.3-2.09-4-2.15c-7.76-.3-15.51-.55-23.76-.83v-12c4.58-1.59,9.72,1.15,14.14-2.19-1.58-3-4.16-2.35-6.39-2.43-2.39-.08-4.79,0-7.79,0A163.29,163.29,0,0,1,114.08,94Zm-46,23.16h8.58c1.55,0,3.1.12,4.64,0,2.84-.12,3.6-1.4,2.13-3.79-2.07-3.36-4.18-6.72-6.51-9.91-3.64-5-7.48-9.8-11.16-14.6,2.49-.7,37.55.8,41.87,2-.6,32.66-1.18,65.41,3.23,98.65-15.88-1.45-31.66.16-47.25-2,1.32-23.72,5.18-46.61,4.48-70.33Z" fill="gray"/><path d="M403,37.47c2-.8,4.08-1.65,6.15-2.4,2.26-.81,4.53-1.58,6.84-2.26s4.36-1.2,6.58-1.64,4.39-.69,6.59-1c-4,2.61-8.11,4.33-12.14,6.31-6.77,3.33-9.15,5.19-10.83,8.13,7.23-4.11,14.51-7.11,23.62-5.9-7.06,5.76-15.67,7.67-21.94,13.36a26.2,26.2,0,0,0,5.24-2.49,25.7,25.7,0,0,1,12.51-3.48,16,16,0,0,1,3.14.67c-3.45,4.65-9.61,3.74-13,7.8,2.7-.37,5.06-.87,7.43-1,4.7-.21,8.13-2.37,11.33-5.75a52.2,52.2,0,0,1,25.59-15c20.36-5.12,40.87-5.07,61.41-1.69C537,33.7,550.7,40.42,563,50.08a62.53,62.53,0,0,0,7.86,5c1.79,1,1.87.87,4.75.05-6.67-2.89-12.12-7.2-18.29-11.34,1.08-.63,1.53-1.12,2-1.13,5.56-.15,9.82,3.86,15.15,4.6-11.38-7.18-24-11.85-36.14-17.6,11.55-.3,21.85,4.27,32.73,8.37-.43-.73-.49-1-.66-1.11-9.55-4.85-18.69-10.62-29.3-13-8.67-2-17.36-3.87-26.06-5.76a24.07,24.07,0,0,0-3.78-.45,268,268,0,0,0-65,3.26c-12.56,2.23-24.83,5.5-36.32,11.21a80.09,80.09,0,0,0-7.4,4.57l.43.81Z" fill="#fff"/><path d="M532.55,60.12A76.82,76.82,0,0,1,525,56.37c-4.09-2.31-11.6-4.54-15.59-4.36,4.53,3.36,6.52,8.1,7.89,13.07,8.37.3,21.24-2.64,28-6.38a30,30,0,0,0,3.24-2c3.8-2.81,4.06-5.85.68-9.2a17.43,17.43,0,0,0-4.39-3.28,63.44,63.44,0,0,0-10.45-4.58,150.53,150.53,0,0,0-62.91-5,56.09,56.09,0,0,0-20.11,6.26c-7.51,4.21-7.84,8.65-.86,13.8,6.4,4.72,13.9,6.62,21.93,8a24.45,24.45,0,0,1,9-12.6c-8.34,0-15.7,2.89-23.1,5.91,3.5-5.51,9.3-7.18,14.79-9.43-6.32-.21-11.34,3.91-17.13,5.64-1-2.49.49-3.43,1.7-4.21,3.65-2.34,7.41-4.52,10.84-6.59-4.39.49-11.14,3.11-16,6.34-1,.67-1.86,2-3.34.55.1-2.06,1.7-3.06,3.16-4.11a36.13,36.13,0,0,1,13.57-5.71c9.3-2.06,18.69-2.33,28.2-2.43,14.51-.15,28.29,3.17,42,7.21,3.46,1,6.67,3,9.83,4.87,2.29,1.32,2.24,1.9.83,4.15-2.29-1.07-4.54-2.24-6.88-3.17s-4.72-1.56-7.08-2.33c3.43,3.61,9.23,4.24,10.59,10.66-3.69-1.56-6.87-3-10.11-4.25s-6.49-2.35-9.74-3.51a61.84,61.84,0,0,0,10.1,6.42c1.71.94,3.42,1.91,3.08,4.84a21.57,21.57,0,0,1-4.21-.87Z" fill="#fff"/><path d="M477.47,63.85a17.84,17.84,0,0,1,7.68-10.38C479.93,55.19,477.05,58.86,477.47,63.85Z" fill="#fff"/><path d="M435,93c14.45,4.14,29.24,6.39,44.18,7.87a255.72,255.72,0,0,0,83.41-5.45c11.35-2.62,22.22-6.65,31.92-13.29,2.63-1.8,5-4,7.65-6.13-3.43-3.41-6-6.69-10-8.63a43.74,43.74,0,0,0-15.39-4.31c-5.22-.48-9.94-1.85-13.7-5.8a45.76,45.76,0,0,0-5.18-4.13c-.72.83-1.23,1.19-1.42,1.67-1.86,4.82-5.57,7.88-10.09,9.76a88.31,88.31,0,0,1-14,4.63,124.86,124.86,0,0,1-37.53,2.48c-12.86-1-25.57-2.91-37.54-8.11-6.48-2.81-12.94-5.66-16.69-12.32a5.77,5.77,0,0,0-1.15.94c-3.26,4.77-7.88,6.9-13.53,7.72a55.45,55.45,0,0,0-11.38,3.19c-6.41,2.41-11,7.06-15.12,13.09,3.52,2.28,6.7,4.61,10.12,6.52A118.49,118.49,0,0,0,435,93Zm32-3q15.76-1.12,31.54-2.18a19.89,19.89,0,0,1,3.78.1c1.56.2,3.23.6,3.3,2.58.07,1.75-1.38,2.38-2.79,2.64-2.48.46-5,1.2-7.48,1-9.8-.84-19.56-2-29.34-3v-.62a3.39,3.39,0,0,1,1-.47Z" fill="#fff"/><path d="M615.07,58.78c-.6,3.87-.76,7.56-1.81,11C611.64,75,608,79,603.91,82.63A70.54,70.54,0,0,1,583.59,94.7a176.34,176.34,0,0,1-46.69,11.8,285.88,285.88,0,0,1-52.49,1,220,220,0,0,1-64-13.7,102.41,102.41,0,0,1-25-13.39C389.09,75.64,383.85,70,382,62a6.27,6.27,0,0,0-.82-1.27c-6.82,12.51-12.21,25.06-12.5,39.67,2.11.34,3.78.59,5.44.88,15.75,2.79,30.7,7.51,43.57,17.54,10.29,8,20.19,16.3,27.26,27.56a14.7,14.7,0,0,0,12.81,7c12.33.23,24.52,1.57,36.36,5.3,3.09,1,6.26,1.7,9.37,2.63a6.14,6.14,0,0,0,5.61-1c4.28-3,8.63-5.9,12.85-9,10.62-7.74,21.95-13.87,35.08-16.15,6-1,12-2.06,17.91-3.31,6.64-1.39,12.32-3.83,15.93-10.52a63.41,63.41,0,0,1,24.64-25.1c3.15-1.81,6.37-3.52,9.64-5.33h0c-1-9.49-2.56-18.64-6.57-27.21-.87-1.85-1.73-3.73-3.51-4.95Zm-33.76,58.45c-6.58,4-14,5.85-21.34,7.9-9.73,2.71-19.79,3.08-29.77,3.61-11.55.62-23.14.83-34.7.62-8.71-.16-17.51-.31-26.05-2.53a5,5,0,0,1-2.43-1.31,21.05,21.05,0,0,1,2.5-.3c10.16.07,20.32.37,30.48.19,7.32-.13,14.65-.74,22-1.42,16.45-1.53,32.73-4.31,49-7.36,3.18-.6,6.31-1.51,9.47-2.25,1.29-.3,2.59-.55,3.88-.82l.5,1a36.65,36.65,0,0,1-3.42,2.68Z" fill="#fff"/><path d="M902.87,447.5l1.87.45c1.13-3.8,2.24-7.55,3.44-11.57,2,1,2.32,3.16,3.52,4.57,3.63,4.27,4.67,8.76,2.8,14.37s.31,11.42,2.29,16.89a2.6,2.6,0,0,0,.8,1,3.22,3.22,0,0,0,1,.35c1.89-2.29.88-5,1-7.58a69.13,69.13,0,0,1,.49-8c5.39,8.28,7.11,18.16,12.07,26.5l1-.24a27.52,27.52,0,0,0-.51-5.12c-2.74-9.49-5.49-19-8.54-28.38a11.55,11.55,0,0,1-.13-7.8c1-2.88,2-5.77,3.37-9.68,1.52,2.58,2.51,4.2,3.45,5.86s1.64,3.3,2.63,4.84c3.33,5.16,5.4,10.31,2.43,16.55a12.7,12.7,0,0,0-.19,9.37c3.64-2.13,2.75-6.45,5.53-9.48,3.83,11.07,6.18,22.16,10.26,32.7a50.9,50.9,0,0,0-1.81-24.1c-1.47-4.72-3-9.42-4.66-14.08a5.81,5.81,0,0,1,.13-4.86c1.29-2.65,2.43-5.38,4-9,.89,2,1.46,3.18,2,4.39.86,2.09,1.63,4.22,2.52,6.3,1.49,3.5,1.94,6.91.39,10.62-1,2.38-1.9,5-1,8,3.09-1.09,2.42-4.44,4.66-6.43,2.24,5.24,2.88,10.8,5.1,16.23,1.26-1.41.84-2.76.68-4-.75-5.74-1.53-11.48-2.28-17.22-.57-4.32.1-6.15,3.79-10.07.54,1.6,1.09,3,1.48,4.4a244,244,0,0,1,8.7,61.5c.5,36.5-4,72.16-16.32,106.66a140.31,140.31,0,0,1-10.38,21.79c-2.35-3.91-3.17-7-1.47-11.26,3.64-9.16,6.49-18.64,9.48-28.05a14.46,14.46,0,0,0,.09-6.28c-2.29,2.94-2.38,6.68-3.77,9.9-1.45,3.37-2.88,6.75-4.41,10.09s-3.15,6.58-5.09,10.59c-1.55-4.37-2.87-8.06-4.41-12.38a8.36,8.36,0,0,0-2.17,6.43,94.06,94.06,0,0,0,1.66,10.83,6.81,6.81,0,0,1-.69,5.6c-1.71,2.7-3.19,5.53-4.78,8.31l-1.06-.09c-1-4-2.23-8-2.9-12-.25-1.49.74-3.23,1.31-4.81,2.52-7,5.13-14.05,7.6-21.11a11.26,11.26,0,0,0,.34-7.55c-5.1,7.18-7.93,14.87-12,22.37-2.38-3.89-2.48-8.4-5.68-11.84a11.79,11.79,0,0,0-1.58,6.64,110.21,110.21,0,0,0,1.45,12.16c.52,2.68.41,4.94-1.22,7.19-1.4,1.92-2.54,4-4.29,6.84-1-3.71-1.59-6.66-2.57-9.49-1.36-3.93-.86-7.42.55-11.39,2.67-7.56,4.43-15.45,6.41-23.24.35-1.36-.06-2.9-.12-4.36l-.9-.16q-4.49,10.27-9,20.56l-.75-.16c-.62-2-1.25-4.07-2-6.57-3.6,6-1.71,12.51-4.24,18.19-.61-4.35-1.31-8.69-1.75-13-.1-1,.65-2.1,1.13-3.11,3.54-7.55,7.23-15,8.35-23.44a50.93,50.93,0,0,0,0-6.3c-2.81,2.3-2.79,5.18-3.9,7.46-1.24,2.53-2.12,5.25-3.48,7.72s-3,4.44-4.73,7c-2.07-3.1-3.4-5.88-2.17-9.22,1.56-4.24,3.29-8.41,4.85-12.64,7.16-19.48,11.22-39.63,13.34-60.24,2.45-23.83-1.93-46.71-9.16-69.23-.6-1.86-1.33-3.68-2-5.52l.16-.13Zm54.51,86.55,1.14-.45c.18-5.48-1.68-10.58-4.13-15.26-2.22-4.25-3.91-8.38-3.47-13.22,0-.34-.3-.71-.64-1.45L948,506.74c-1.7-1.8-3.28-3.61-5-5.26s-2.78-3.64-5.37-4.11a15.24,15.24,0,0,0,1.88,4.62c2,3.27,4,6.47,6,9.76.55.94,1.27,2.2,1,3.1-1.07,4.28-1.85,8.69-4.14,12.86-3.92-5.3-6.72-11.05-12.37-14.43a15.12,15.12,0,0,0,1.66,3.69c2.63,4.51,5.25,9,7.94,13.5a5.29,5.29,0,0,1,.31,5.19c-1.69,4-2.93,8.29-4.92,12.16-2.25,4.38-2.51,7.86,1.28,11.71,3.38,3.43,5,7.81,2,12.59-.13.21,0,.59,0,1.41l3.06-4.47c2.53,4.17,2.26,9.39,6.48,13.25a38.83,38.83,0,0,0,0-5.44c-.74-3.58-1.78-7.1-2.62-10.66-.28-1.17-.78-2.61-.37-3.57,1.18-2.76,2.79-5.34,4.38-8.29l4.46,6.51,1-.44c-.54-2.73-.92-5.51-1.68-8.17a9.93,9.93,0,0,1,.15-7c.58-1.38.44-3.07.62-4.62l-.91-.24-2.37,3.21c-.51-.88-.75-1.37-1.06-1.82-3.21-4.63-4-9.37-1.24-14.59,1-2,1.35-4.35,2-6.55H951q3.19,6.71,6.38,13.4Z" fill="#fff"/><path d="M945.91,433.13l-4.78,10.31a27.21,27.21,0,0,1-1.59-2.37c-2.2-4.11-4.11-8.39-6.61-12.31-1.64-2.57-1.63-4.63,0-6.95,1-1.35,1.86-2.73,3.15-4.65l9.8,16Z" fill="#fff"/><path d="M905.91,638.43c1.46,4.4,2.83,8.39,4.07,12.43a3.13,3.13,0,0,1-.25,2.36c-2.59,3.83-5.31,7.57-8.25,11.7a8.56,8.56,0,0,1-1.53-6.87c.77-4.16,1.41-8.35,1.85-12.55.31-2.93,2.24-4.67,4.12-7.07Z" fill="#fff"/><path d="M918.49,437.36c-2.45-4.08-4.73-7.76-6.86-11.52a3.19,3.19,0,0,1,0-2.39c.87-2.19,2-4.3,3.3-7.22,3,3.81,5.55,7.06,8.13,10.36l-4.54,10.78Z" fill="#fff"/><path d="M940.19,412.16l3.42-4.31a72.59,72.59,0,0,1,11.15,15.88l-5,4.67-9.53-16.24Z" fill="#fff"/><path d="M902.71,447.63c-3.45-7.81-6.69-15.69-6.78-24.43a11.31,11.31,0,0,1,.43-2,16.57,16.57,0,0,1,6.64,5.92c.74,1.26.44,3.21.4,4.84-.12,5.18-.35,10.36-.53,15.54l-.16.13Z" fill="#fff"/><path d="M917.73,408.69l4.14-5.87,9.78,8.35-5,7.42-8.88-9.9Z" fill="#fff"/><path d="M906.44,419.23c-3.34-2.57-6.34-4.85-9.3-7.16-1.49-1.16-1.38-2.81-.71-4.21a3.23,3.23,0,0,1,4-1.57,22.37,22.37,0,0,1,9.38,5.47Z" fill="#fff"/><path d="M907.34,676.88l-2.37-4,9.62-12.17,3.76,6.19c-2.85,4.17-6.89,6.86-11,10Z" fill="#fff"/><path d="M922.29,661.73l-4.12-6.62c1.7-3.37,3.39-6.73,5.46-10.82C925,648,926.16,651,927.11,654a3.17,3.17,0,0,1-.59,2.31c-1.18,1.71-2.54,3.3-4.23,5.46Z" fill="#fff"/><path d="M958,447.06c-1.56-3.76-2.85-6.68-4-9.67a3.15,3.15,0,0,1,.31-2.31c.94-1.66,2.08-3.2,3.53-5.37,1.43,3.44,2.73,6.35,3.8,9.34a3.83,3.83,0,0,1-.33,2.7c-.82,1.6-1.9,3.07-3.34,5.31Z" fill="#fff"/><path d="M941.76,643.82l3.67,6-5.56,9.7c-1.7-1.48-2.94-2.55-4.43-3.86l6.32-11.8Z" fill="#fff"/><path d="M912.06,683.55l11.55-9.94,2.7,1.73c0,2.82-8.75,8.09-14.24,8.21Z" fill="#fff"/><path d="M930.23,671.49l-3.37-2.59,5.13-7.4,4,2.63-5.81,7.36Z" fill="#fff"/><path d="M906,400.59c3.63-2.91,7-4,10.93-.69l-3.86,4.69Z" fill="#fff"/><path d="M936.18,406.25l-8.62-8.15c4.81.26,8.31,2.81,12,5.81l-3.4,2.33Z" fill="#fff"/><path d="M892.85,683.49l6.19-5,2,2.45-7.42,3.56-.79-1Z" fill="#fff"/><path d="M943.26,559.88l-5.81-8.24,6.22-11.56c1.45,3.6,2.64,6.37,3.65,9.2a3.6,3.6,0,0,1-.28,2.37c-1.09,2.57-2.31,5.08-3.78,8.23Z" fill="#fff"/><path d="M584.73,114.55a36.65,36.65,0,0,1-3.42,2.68c-6.59,4-14,5.85-21.34,7.9-9.73,2.71-19.79,3.08-29.77,3.61-11.55.62-23.14.83-34.7.62-8.71-.16-17.51-.31-26.05-2.53a5,5,0,0,1-2.43-1.31,21.05,21.05,0,0,1,2.5-.3c10.16.07,20.32.37,30.48.19,7.32-.13,14.65-.74,22-1.42,16.45-1.53,32.73-4.31,49-7.36,3.18-.6,6.31-1.51,9.47-2.25,1.29-.3,2.59-.55,3.88-.82l.5,1Z" fill="gray"/><path d="M466,90.41a3.39,3.39,0,0,1,1-.47q15.76-1.12,31.54-2.18a19.89,19.89,0,0,1,3.78.1c1.56.2,3.23.6,3.3,2.58.07,1.75-1.38,2.38-2.79,2.64-2.48.46-5,1.2-7.48,1-9.8-.84-19.56-2-29.34-3v-.67Z" fill="gray"/><path d="M378.62,52.55A241,241,0,0,0,358,90c-1,2.32-2,4.66-3,7-1.19,2.8-3.06,4.2-6.32,4.69a123.53,123.53,0,0,1,20.06-1.31h0c.28-14.61,5.68-27.17,12.5-39.67A6,6,0,0,1,382,62c1.86,8.06,7.1,13.67,13.47,18.41A102.43,102.43,0,0,0,420.42,93.8a220.7,220.7,0,0,0,64,13.7,285,285,0,0,0,52.49-1A176.34,176.34,0,0,0,583.6,94.7a70.54,70.54,0,0,0,20.32-12.07C608,79,611.65,75,613.27,69.74c1.05-3.41,1.2-7.1,1.81-11,1.78,1.22,2.64,3.09,3.51,4.95,4,8.57,5.54,17.72,6.57,27.21a32.23,32.23,0,0,1,11.27-3.24h0c-8-24.09-21.78-43.42-45.71-55.27,5.84-3.57,10.89-6.62,15.89-9.74s10-6.38,15-9.58l-.49-.81c-11.57,5.13-23.1,10.33-33.55,17.93-.75-.31-1.54-.59-2.28-1a148.93,148.93,0,0,0-32-11,273.85,273.85,0,0,0-90.6-5.59C438.8,15.15,415.53,20.26,395.2,34c-10.66-6.74-22.19-11.35-34-15.43,9.35,7.3,19.81,12.76,30.24,18.6-.71.9-1,1.35-1.4,1.78-3.83,4.52-8.11,8.74-11.43,13.61Zm31.32-20.47c11.49-5.71,23.76-9,36.32-11.21a267.54,267.54,0,0,1,65-3.26,24.07,24.07,0,0,1,3.78.45c8.69,1.89,17.38,3.79,26.06,5.76,10.62,2.42,19.76,8.2,29.3,13,.17.09.23.38.66,1.11-10.88-4.11-21.18-8.67-32.73-8.37,12.15,5.75,24.76,10.42,36.14,17.6-5.33-.74-9.59-4.75-15.15-4.6-.46,0-.91.5-2,1.13,6.17,4.14,11.62,8.45,18.29,11.34-2.88.82-3,1-4.75,0A62.53,62.53,0,0,1,563,50c-12.3-9.64-26-16.36-41.51-18.91-20.54-3.38-41.05-3.43-61.41,1.69a52.2,52.2,0,0,0-25.59,15c-3.2,3.37-6.64,5.54-11.33,5.75-2.38.11-4.73.61-7.43,1,3.41-4.06,9.56-3.15,13-7.8a16,16,0,0,0-3.14-.67,25.7,25.7,0,0,0-12.51,3.48A26.44,26.44,0,0,1,407.85,52c6.27-5.69,14.88-7.59,21.94-13.36-9.11-1.21-16.39,1.79-23.62,5.9,1.68-2.94,4.06-4.8,10.83-8.13,4-2,8.18-3.7,12.14-6.31-2.2.33-4.41.58-6.59,1s-4.41,1-6.58,1.64-4.58,1.45-6.84,2.26c-2.07.74-4.1,1.59-6.15,2.4l-.43-.81C405,35.05,407.36,33.3,410,32ZM533.68,56.15a61.84,61.84,0,0,1-10.1-6.42c3.25,1.16,6.52,2.26,9.74,3.51s6.42,2.69,10.11,4.25c-1.36-6.42-7.17-7.05-10.59-10.66,2.36.77,4.77,1.42,7.08,2.33s4.59,2.1,6.88,3.17c1.41-2.25,1.45-2.83-.83-4.15-3.16-1.83-6.37-3.85-9.83-4.87-13.69-4-27.47-7.37-42-7.21-9.51.1-18.89.37-28.2,2.43a36,36,0,0,0-13.57,5.71c-1.47,1.06-3.07,2-3.16,4.11,1.49,1.42,2.34.12,3.34-.55,4.82-3.23,11.57-5.85,16-6.34-3.43,2.07-7.19,4.25-10.84,6.59-1.21.78-2.7,1.71-1.7,4.21,5.78-1.73,10.81-5.85,17.13-5.64-5.5,2.25-11.29,3.92-14.79,9.43,7.4-3,14.77-6,23.1-5.91a24.45,24.45,0,0,0-9,12.6c-8-1.36-15.53-3.26-21.93-8-7-5.15-6.65-9.59.86-13.8a56.09,56.09,0,0,1,20.11-6.26,150.37,150.37,0,0,1,62.91,5,63.44,63.44,0,0,1,10.45,4.58,17.85,17.85,0,0,1,4.39,3.28c3.38,3.35,3.11,6.39-.68,9.2a30,30,0,0,1-3.24,2c-6.75,3.73-19.62,6.68-28,6.38-1.37-5-3.35-9.71-7.89-13.07,4-.18,11.5,2,15.59,4.36a77.31,77.31,0,0,0,7.58,3.75,21.57,21.57,0,0,0,4.21.87c.34-2.92-1.38-3.9-3.08-4.84Zm-48.53-2.69a17.91,17.91,0,0,0-7.68,10.38C477,58.84,479.93,55.18,485.15,53.46Zm-70.62,9.6a55.45,55.45,0,0,1,11.38-3.19c5.65-.81,10.26-2.94,13.53-7.72a6.47,6.47,0,0,1,1.15-.94c3.75,6.66,10.22,9.51,16.69,12.32,12,5.2,24.69,7.17,37.54,8.11a124.86,124.86,0,0,0,37.53-2.48,89.34,89.34,0,0,0,14-4.63c4.53-1.88,8.23-4.94,10.09-9.76.19-.48.7-.84,1.42-1.67A49.1,49.1,0,0,1,563,57.23c3.77,4,8.49,5.32,13.7,5.8a44.17,44.17,0,0,1,15.39,4.31c4,2,6.56,5.22,10,8.63-2.65,2.14-5,4.33-7.65,6.13-9.7,6.64-20.57,10.67-31.92,13.29a256.28,256.28,0,0,1-83.41,5.45C464.25,99.36,449.46,97.11,435,93a118.44,118.44,0,0,1-25.49-10.32c-3.42-1.92-6.6-4.24-10.12-6.52,4.1-6,8.7-10.68,15.12-13.09Z" fill="gray"/><path d="M108.1,907.66a23.29,23.29,0,0,0,2.68-3.1,2.64,2.64,0,0,0,.22-2.32,3.41,3.41,0,0,0-2.45-1.08,9.9,9.9,0,0,0-3.23.93c-7.9,3.09-16,3.26-24.2,1.64a19.58,19.58,0,0,1-7.69-3.33c-16.5-12.29-24.21-28.59-22-49.31.65-6.1,3.53-11,7.76-15.14a65.9,65.9,0,0,1,5.49-4.66c12-9.53,25.11-9.73,38.86-4.76a9,9,0,0,1,1.92.89c11,7.46,20.37,16.22,23.84,29.68,1.37,5.31,1,10.64-.15,16a34,34,0,0,0-1.05,7.1,10.59,10.59,0,0,0,1.53,5.14c1.36,2.26,3.26,2.07,4.56-.23a24.71,24.71,0,0,0,1.25-3.33c4.56,5.19,9.5,9.57,13.38,15a4,4,0,0,1,.46,4.36L147,906a153.84,153.84,0,0,1-33-34,18.93,18.93,0,0,0,4.25-12.31c0-5.52-1.87-10.3-6.27-13.77-5.11-4-10.12-2-11,4.49a27,27,0,0,0,2.3,14.48c.54,1.25,1,2.53,1.57,3.86-2.22.92-2.54-.6-3.22-1.83-1.9-3.46-3.81-6.91-5.9-10.26a9.1,9.1,0,0,0-7.36-4.42c-3.52-.26-5.33,1.5-5.18,5a13.22,13.22,0,0,0,4.94,10,56.66,56.66,0,0,0,6.64,4.52c1.54,1,2.28,2,1.36,3.85-3.49-.17-7-.41-10.46-.51-3.3-.09-6.34.68-7.59,4.17s-.06,6.42,2.26,9c4.12,4.54,11.89,4.93,17,.87,1.3-1,2.44-2.28,3.83-3.6,12.25,9.81,22.91,21,33.26,32.52a8.19,8.19,0,0,1-.85,1.34c-4,3.82-5.31,4.28-9.89,1.22a118,118,0,0,1-15.65-13Z" fill="#fff"/><path d="M177.66,928.52c2.5,1.59,2.34,3.38,1.3,5.59a37.51,37.51,0,0,1-21,19.61c-2.13-2-4.66-2.07-7.48-.71a31.63,31.63,0,0,0,11-15.71l-14.92,14.07c-.41-1.41-.53-2.06-.77-2.65-1.22-3-2.58-3.82-5.86-3.7a12,12,0,0,1-4-.43c6.32-5,13.34-9,16.43-16.77a64.45,64.45,0,0,0,3.46-12.51c-6.1,8.7-11.3,18-20.52,24.06l-10.62-9.89c.09-.23.19-.47.28-.71a12.41,12.41,0,0,1,2.58.19,10.76,10.76,0,0,0,9.66-1.74c7.35-5.38,14.14-11.2,17.63-20.08,1.68-4.26,3.62-8.3,1.13-12.86,4.94-.66,7,1.08,7,5.3a77.29,77.29,0,0,1-2.52,21.78c-1.63,5.92-4.63,10.84-8.17,15.61a13.55,13.55,0,0,0-1.94,3.17,14.47,14.47,0,0,0,6.88-5,58.8,58.8,0,0,0,10.1-20.36c.33-1.21.64-2.43,1-3.71l4.7-.8c.37,7,.05,13.79-3,20.22-2,4.29-4.29,8.51-4.68,13.51a46,46,0,0,0,12.33-15.46Z" fill="#fff"/><path d="M143.66,910.55,140,914c-.49-.3-.92-.42-1.13-.71-9.44-12.84-20.92-23.62-33.59-33.17-1.93-1.45-2.72-2.68-1.47-5.08l4.69-.69C118.52,887.67,129.41,900.38,143.66,910.55Z" fill="#fff"/><path d="M107.15,850.44c5.22,2.39,6.47,8.18,3.4,15.09C108.11,860.67,106.45,856.06,107.15,850.44Z" fill="#fff"/><path d="M95,882c-5.49,4.94-10,4.48-11.91-1C87,880.28,90.65,881,95,882Z" fill="#fff"/><path d="M88.59,857.31c3.13,1.87,3.75,4.41,4.54,6.86A8,8,0,0,1,88.59,857.31Z" fill="#fff"/><path d="M864.61,874.19c.17-11,1.5-21.36,5-31.31a33.39,33.39,0,0,1,6.6-11.73c6-6.5,12.84-7.21,20-2,4.91,3.55,8.42,8.32,11.33,13.54a102.39,102.39,0,0,1,11.75,36.46c1.9,14,1.86,28-2.11,41.57A112.25,112.25,0,0,1,910,938.2c-2.36,4.82-11.12,7.42-16.6,5a30.58,30.58,0,0,1-8.33-5.63c-5.13-4.79-8.54-10.85-11.23-17.28a124.25,124.25,0,0,1-9.25-46.11Zm19.67-35.47-1.07-.22c-2.09,4.75-4.22,9.47-6.25,14.24a65.31,65.31,0,0,0-4.3,38.58c2.91,15.25,11.09,27.62,21.43,38.79a4.91,4.91,0,0,0,1.11.69l.33-.43-5-8.81c3.18.2,4.13,3.77,7.43,3.62-.87-1.82-1.57-3.27-2.38-4.94l5.17.45-4-5.91,4.76.25-3.64-6.11H902c-2.53-3.59-2.51-7-1.83-10.8a45.87,45.87,0,0,0-1-20.18,23.06,23.06,0,0,1-.26-9.61,41.76,41.76,0,0,0,.54-5,7,7,0,0,0-.69-2.15l-1.09-.68-2.35,3.5c-.5-3.67,2.46-6.72,1.17-11.16l-4.49,4.9-.52-.14c.81-2.94,1.62-5.89,2.42-8.83l-1-.48-6.06,6.92c.94-3.82,2.39-7.47,3-12.34-4.48,4-6.32,8.52-8.85,13.1.61-6.16,3.8-11.37,3.28-17.23Z" fill="#fff"/><path d="M837,916.18c-7.32-.16-14.35-.29-21.38-.52a4.51,4.51,0,0,1-2.68-.95,32.43,32.43,0,0,1-5.58-5.71c-4.92-7.42-5.88-21.47,1.09-30.38a9,9,0,0,1,5.86-3.72c4.45-.74,8.84-1.83,13.27-2.7,1.48-.29,3-.35,4.94-.56C830.1,887,831,901.72,837,916.18ZM830.54,900c-1.18-.77-1.58-1.23-2-1.29a64.37,64.37,0,0,0-19.74.29c-1.22.21-2.12,1-1.83,2.35.33,1.59,1.66,1.78,3,1.67,5.61-.47,11.22-.93,16.81-1.53,1.09-.12,2.13-.81,3.82-1.49Zm-22.25-14.4c4.62,1.06,17-1.64,20.52-4.27-8.75-.22-17.16,1.43-20.52,4.23Zm19.4-9.26c-6.18,1-12.68.55-18.76,4.11,3.77,1.78,13.81-.51,18.76-4.15ZM809.59,907c3.5,1.17,11.72-.11,16.36-2.92-5.41.26-10,.44-14.56.71-1.25.08-2.16.7-1.81,2.21Zm15.81,2.74c-5.61-1.23-10.64-.87-12.94.92,4.54.77,10.19.36,12.94-1Z" fill="#fff"/><path d="M851.71,858.07l2.16-4.76c-3.3,18.62-1.7,36.87,3.21,55l-.84.29c-.6-1.37-1.17-2.75-1.81-4.1s-1.31-2.58-2-3.86l-1.12.25c-.1,1.72-.21,3.44-.35,5.9-1.06-2-1.86-3.4-2.9-5.32-1,1.93-.39,3.46,0,5s.78,2.92,1.18,4.38l-.87.28-4.2-11.37-1.08.32,2,12.22-.7.18L840.59,900l-.47.08c-.11,1.58-.21,3.16-.32,4.74-3.2-11.74-4.94-23.49-1-35.37.54-1.63.55-3.43,2.82-4.14.85-.26,1.26-2.07,1.8-3.2.64-1.34,1.19-2.71,2.17-4.94q0,6.08,1.19,6.48,2-5.4,3.91-10.78l.84.22c-.22,1.65-.45,3.3-.67,4.94l.81.13Z" fill="#fff"/><path d="M887.08,945.92c-1.5-.89-2.71-1.51-3.81-2.28a45.06,45.06,0,0,1-11.86-12.56,91.21,91.21,0,0,1-14-39.15c-1.82-14.59-1.25-29.06,2.93-43.25A46.84,46.84,0,0,1,870,830.4c0,.8.12,1.17,0,1.38-5.89,9.32-8.49,19.69-9.35,30.5-1.39,17.36.15,34.44,5.79,51,2.42,7.12,5.4,14,9.85,20.1,3.14,4.28,7,8.07,10.87,12.52Z" fill="#fff"/><path d="M909.48,943.79c1.13-1.53,1.81-3.53,4.56-4.72C913.1,942.16,910.85,942.51,909.48,943.79Z" fill="#fff"/><path d="M875,881.19c.81-4.4,1.56-8.81,2.45-13.2a12.43,12.43,0,0,1,1.39-3.52c2.28-4,5.47-4.5,8.39-.87a28.3,28.3,0,0,1,4.54,8,53.72,53.72,0,0,1,2.42,28.74,28.9,28.9,0,0,1-3.47,8.52c-1.42,2.49-3.49,2.77-5.7.93a12.49,12.49,0,0,1-3.91-4.85c-2.77-7.65-6.42-15.15-6.11-23.79Zm5.62,7.46c-1.21,8.94,1.56,14.86,6.48,15.58Z" fill="#fff"/><path d="M925.05,908h.36a40.25,40.25,0,0,0,0-15l-.36-.14c-.14,7,0,10.11,0,15.16Z" fill="#fff"/><path d="M766.89,852.82a1.54,1.54,0,0,1,.19-.17A1.54,1.54,0,0,1,766.89,852.82Z" fill="gray"/><path d="M896.34,799.13c-8-1.53-15.16,0-20.57,6.67-.66.82-1.71,1.67-.37,2.88a4.28,4.28,0,0,0,1.14-.44,18.09,18.09,0,0,1,13.53-3.58,75.73,75.73,0,0,1,8.73,1.47c3.77,1,7.43,2.37,11.42,3.67.77-2.26-.48-3.32-1.62-4.3a26.56,26.56,0,0,0-12.26-6.37Z" fill="gray"/><path d="M933.64,958.35c4.76-6.53,8.09-13.69,5.18-22.22-2,6.64-4.28,13.26-8.74,18.48s-9.78,9.46-14.73,14.14l.51.82c7.87-.38,13.37-5.18,17.79-11.22Z" fill="gray"/><path d="M957.29,940a23.27,23.27,0,0,0-.72,3.29c-.81,7.59-3.88,14.32-7.47,21a37,37,0,0,1-14.27,14.63c-2.43,1.42-4.88,2.84-7.21,4.41a29.14,29.14,0,0,0-3.24,2.94l.67.75c15-1.45,24.36-10.57,31-23.36,3.85-7.41,4.81-20.17,1.86-24.09-.21.15-.57.27-.62.47Z" fill="gray"/><path d="M925.24,798.81c2-1.57,1.26-2.78.85-3.94a30.9,30.9,0,0,0-14.7-16.82c-10.33-5.74-20.66-4.31-30.52,1.59a15.51,15.51,0,0,0-4,3.75,3.61,3.61,0,0,0-.39,4.69,29.63,29.63,0,0,1,17.27-5.85,40.9,40.9,0,0,1,18,4c5.88,2.78,9,8.35,13.45,12.63Z" fill="gray"/><path d="M934.6,848.42a70.55,70.55,0,0,1,8.79,15.43c2.61,5.82,1.29,11.73,1.72,17.67,5.43-4.42,6.92-14.79,3.7-21.86-2.91-6.39-9.39-11.8-14.21-11.24Z" fill="gray"/><path d="M961.09,827.78c.29-.32.22-1,.43-2-6.09,2.29-14.4,8.74-17.45,13.24a8.88,8.88,0,0,0-1.68,6.38c1.78-.91,3.54-1.35,4.62-2.45,4.81-4.94,9.44-10,14.08-15.14Z" fill="gray"/><path d="M950.19,883.1c5.91,5,20.65,7.76,25.13,5.38-2.79-2.66-13.39-6.11-20.09-6.37-1.37-.05-2.77.52-5,1Z" fill="gray"/><path d="M884.28,838.71c.53,5.86-2.66,11.07-3.28,17.23,2.53-4.58,4.37-9.11,8.85-13.1-.56,4.88-2,8.52-3,12.34l6.06-6.92,1,.48c-.81,2.94-1.62,5.89-2.42,8.83l.52.14,4.47-4.88c1.29,4.43-1.67,7.49-1.17,11.16l2.28-3.56,1.09.68a6.52,6.52,0,0,1,.69,2.15,46.58,46.58,0,0,1-.54,5,23.06,23.06,0,0,0,.26,9.61,45.87,45.87,0,0,1,1,20.18c-.68,3.75-.7,7.21,1.83,10.8h-4.09c1.28,2.16,2.32,3.9,3.64,6.11l-4.76-.25,4,5.91-5.17-.45c.8,1.67,1.5,3.13,2.38,4.94-3.3.14-4.25-3.42-7.43-3.62l5,8.81-.33.43a4.91,4.91,0,0,1-1.11-.69c-10.33-11.17-18.51-23.54-21.43-38.79a65.31,65.31,0,0,1,4.3-38.58c2-4.77,4.16-9.49,6.25-14.24l1.07.22ZM875,881.19c-.31,8.64,3.34,16.14,6.11,23.79a12.65,12.65,0,0,0,3.91,4.85c2.2,1.83,4.28,1.55,5.7-.93a29.17,29.17,0,0,0,3.47-8.52,53.72,53.72,0,0,0-2.42-28.74,28.06,28.06,0,0,0-4.54-8c-2.93-3.62-6.11-3.15-8.39.87a11.76,11.76,0,0,0-1.39,3.52c-.89,4.38-1.64,8.8-2.45,13.2Z" fill="gray"/><path d="M830.54,900c-1.7.68-2.73,1.37-3.82,1.49-5.6.6-11.21,1.06-16.81,1.53-1.32.11-2.64-.09-3-1.67-.29-1.39.61-2.15,1.83-2.35a64.37,64.37,0,0,1,19.74-.29c.46.06.86.53,2,1.29Z" fill="gray"/><path d="M808.29,885.57c3.37-2.79,11.77-4.45,20.52-4.27C825.32,883.92,812.91,886.63,808.29,885.57Z" fill="gray"/><path d="M827.69,876.32c-5,3.64-15,5.93-18.76,4.11C815,876.87,821.51,877.36,827.69,876.32Z" fill="gray"/><path d="M809.59,907c-.35-1.51.55-2.13,1.81-2.21,4.57-.28,9.15-.46,14.56-.71-4.64,2.81-12.86,4.1-16.36,2.92Z" fill="gray"/><path d="M825.4,909.69c-2.75,1.33-8.38,1.73-12.94.92C814.75,908.82,819.79,908.47,825.4,909.69Z" fill="gray"/><path d="M880.59,888.65l6.48,15.58C882.15,903.52,879.38,897.59,880.59,888.65Z" fill="gray"/><path d="M743,869c.39,4.58.78,8.79,1.1,13,.76,10.17,5.19,18.69,11.85,26.16A23.82,23.82,0,0,0,766.52,915a35,35,0,0,0,22.87.09c4.64-1.61,9.3-3.27,14.45-3.18a15.8,15.8,0,0,0,11.25,7.68A136.66,136.66,0,0,0,835,920.81c3.58,0,6.26.59,8.23,3.71a10.55,10.55,0,0,0,2.75,2.62c6.26,4.55,12,9.85,19.07,13.28,5.72,2.76,11.18,6,16.74,9.13A32.2,32.2,0,0,0,896,953.3a20.85,20.85,0,0,0,15.86-5.87,71.53,71.53,0,0,0,7.27-8.19c4.22-5.46,6.55-11.87,8.27-18.45a110.23,110.23,0,0,0,1.3-50.41,100.13,100.13,0,0,0-12.53-32.69C912.4,831.6,908,826,901.88,822.22c-10.81-6.68-21.42-7-31.12.77a145.29,145.29,0,0,0-21.19,20.07c-5.25,6.26-11.07,12.18-13.81,20.16-.56,1.63-1.71,2-3.21,2.22-3.75.66-7.5,1.38-11.2,2.28-2.46.6-4.83,1.56-7.25,2.34-8.37,2.69-12.3,9-13.91,17.16-.65,3.28-.88,6.65-1.37,10.59-7.41,1.19-14.87,2.91-22.43,3.47-11.43.84-20.25-5.63-22.63-16.3-1.44-6.45-2-13.09-3-19.62a14,14,0,0,1,1.17-1,121.82,121.82,0,0,1-12.16,5.35h0c1-.3,2.05-.5,3.2-.77Zm166.48,74.82c1.13-1.53,1.8-3.53,4.56-4.72-.94,3.06-3.19,3.41-4.56,4.69ZM925.41,908h-.36c0-5-.14-8.18,0-15.16l.36.14a40.25,40.25,0,0,1,0,15Zm-49.15-76.85c6-6.5,12.84-7.21,20-2,4.91,3.55,8.42,8.32,11.33,13.54a102.39,102.39,0,0,1,11.75,36.46c1.9,14,1.86,28-2.11,41.57A111.51,111.51,0,0,1,910,938.2c-2.36,4.82-11.12,7.42-16.6,5a30.36,30.36,0,0,1-8.33-5.63c-5.13-4.79-8.54-10.85-11.23-17.28a124.25,124.25,0,0,1-9.25-46.11c.17-11,1.5-21.36,5-31.31a33.39,33.39,0,0,1,6.6-11.73Zm-15.93,17.53a46.84,46.84,0,0,1,9.61-18.28c0,.8.12,1.17,0,1.38-5.89,9.32-8.49,19.69-9.35,30.5-1.39,17.36.15,34.44,5.79,51,2.42,7.12,5.4,14,9.85,20.1,3.15,4.28,7,8.07,10.87,12.52-1.5-.89-2.71-1.51-3.81-2.28a45.06,45.06,0,0,1-11.86-12.56,91.21,91.21,0,0,1-14-39.15c-1.82-14.59-1.25-29.06,2.93-43.25Zm-21.49,20.67c.54-1.63.55-3.43,2.82-4.14.85-.26,1.26-2.07,1.8-3.2.64-1.34,1.19-2.71,2.17-4.94q0,6.07,1.19,6.48,1.95-5.4,3.91-10.78l.84.22c-.22,1.65-.45,3.3-.67,4.94l.81.13,2.16-4.76c-3.3,18.62-1.7,36.87,3.21,55l-.84.29c-.6-1.37-1.17-2.75-1.81-4.1s-1.31-2.58-2-3.86l-1.12.25c-.1,1.72-.21,3.44-.35,5.9-1.06-2-1.86-3.4-2.9-5.32-1,1.93-.39,3.46,0,5s.78,2.92,1.18,4.38l-.86.28-4.2-11.37-1.08.32,2,12.22-.7.18L840.6,900l-.47.08c-.11,1.58-.21,3.16-.32,4.74-3.2-11.74-4.94-23.49-1-35.37Zm-30.36,9.27a9,9,0,0,1,5.86-3.72c4.45-.74,8.84-1.83,13.27-2.7,1.48-.29,3-.35,4.94-.56C830.1,887,831,901.72,837,916.18c-7.32-.16-14.35-.29-21.38-.52a4.51,4.51,0,0,1-2.68-.95,32.43,32.43,0,0,1-5.58-5.71c-4.92-7.42-5.88-21.47,1.09-30.38Z" fill="gray"/><path d="M900.53,582.62c7.16-19.48,11.22-39.63,13.34-60.24,2.45-23.83-1.93-46.71-9.16-69.23-.6-1.86-1.33-3.68-2-5.52-3.45-7.81-6.69-15.69-6.79-24.43a2.6,2.6,0,0,1,.07-.56c.89-6.85-1-10.75,0-14.64s-.65-11.07-.65-11.07h0c-.18-.68-.35-1.36-.49-2.05-2.73-13.4-8.05-25.57-17.12-35.93a10.5,10.5,0,0,1-2.42-9.05c2.08-14.12,4.3-28.17,3-42.59-1.28-14.17-3.46-28-9.32-41.11-5-11.38-5.43-14.24-9.71-20.21-2.41-3.77-5.32-7.26-5.33-12.2a88.12,88.12,0,0,0-3-22.21c-2.91-11-6.4-21.67-13.57-30.81a151.74,151.74,0,0,0-19.79-21.45c-10.41-9-22.65-13.54-35.75-16.49a13.37,13.37,0,0,1-5.67-2.51c-2.2-1.91-3.88-4.42-5.75-6.69-3.58-4.35-6.58-9.36-10.79-13-19.06-16.4-41.41-21.74-66-18.14A15.8,15.8,0,0,1,682,100.14c-1.06-.71-2.16-1.36-3.16-2.14-8.56-6.7-18.53-9.48-29.14-10.26-4.33-.32-8.7,0-13.2,0A32.06,32.06,0,0,0,625.13,91h0c-3.27,1.8-6.49,3.51-9.64,5.33a63.48,63.48,0,0,0-24.64,25.1c-3.61,6.68-9.29,9.12-15.93,10.52-5.92,1.2-11.92,2.22-17.92,3.26-13.13,2.27-24.47,8.4-35.08,16.15-4.22,3.08-8.57,6-12.85,9a6.17,6.17,0,0,1-5.61,1c-3.11-.93-6.28-1.65-9.37-2.63-11.84-3.72-24-5.07-36.36-5.3a14.76,14.76,0,0,1-12.81-7c-7.07-11.26-17-19.54-27.26-27.56-12.87-10-27.81-14.75-43.57-17.54-1.66-.29-3.33-.54-5.44-.88a123.53,123.53,0,0,0-20.06,1.31c-8,1.22-15.83,3.57-22,9.11-3.08,2.74-6,3.16-9.7,2a55.43,55.43,0,0,0-9.37-2.61c-8.41-1.11-16.83-1.85-25.31-.21-10.19,2-20.14,4.49-29.07,10C234.78,131.47,222.7,148,214.8,167.77a25.2,25.2,0,0,1-9,11.95c-6.7,4.68-14,8.57-19.76,14.57a2.75,2.75,0,0,1-.26.22c-1.79,1.5-12.4,10.63-19.31,22-10,13.81-16.86,28.84-22.56,44.38A165.9,165.9,0,0,0,134,327.1c.36,7.12-2,12.73-6.93,17.84-12.8,13.22-22.33,28.41-26.43,46.62-.49,2.18-1,4.36-1.53,6.9C98.84,409.62,99,419,101,427s2.89,18,0,24h0c-2.94,6-3.38,7-3.38,7a14.16,14.16,0,0,1-.66,2.56c-6,13.12-8.45,27.22-10.92,41.26-.82,4.66-.36,9.59-.08,14.37.41,7.19.89,14.4,1.86,21.53,1.16,8.6,4.74,16.52,7.69,24.61a53.09,53.09,0,0,1,2.69,9.32,12.34,12.34,0,0,1-.62,6.2,177.82,177.82,0,0,0-10.33,42.27c-.59,4.86-.11,9.86-.08,14.8C90,659.05,94,668.05,101.63,686.41c2.94,5.58,6,11,8.67,16.53a16.92,16.92,0,0,1,1.1,12.77c-1.22,4-2.14,8.2-3.05,12.34-1.72,7.9-2.81,16-2,24,2.17,21.74,9.33,41.61,23.84,58.31,5.29,6.1,11.28,11.64,18.82,14.86,8.58,3.66,17.39,6.74,26.81,7.62a30.42,30.42,0,0,1,4,.9c.41,1.2.72,2.14,1.06,3.07,2.48,6.77,4.92,13.56,9,19.6,7.58,11.24,16.58,21.15,27.82,28.82,8.37,5.72,17.44,9.59,27.43,10.72,1.89.16,3.42.27,4.46.32h.55c8.14.24,11.86-.24,19.46-2.53,9.09-2.88,17.72-6.68,25-13a9.61,9.61,0,0,1,1.37-1c3.13-2,5.58-1.54,8.4.81,13.08,10.87,26.93,20,44.69,21.29a66.11,66.11,0,0,0,13.92-.31c9.63-1.34,19.37-2.42,28.22-7,4.65-2.38,9.14-5.11,13.93-7.17a48.8,48.8,0,0,0,16.42-11.76,142.91,142.91,0,0,0,10.85-12.47,14.64,14.64,0,0,1,12.6-6.39A64.9,64.9,0,0,0,469.81,852a107.79,107.79,0,0,0,26.31-16.11c3.8-3.14,8.51-3.23,12.24-.14,16.4,13.56,34.67,23.23,55.8,27.1,6,1.09,11.23,3.53,14.65,9.07a27.81,27.81,0,0,0,9.1,8.76c4.06,2.55,8.14,5.08,12.27,7.5h0a10.85,10.85,0,0,1,1.28.84c2.28,1.43,7.26,4.21,12.19,4.75,8,.32,15.6,1.14,23.17.83,14.12-.59,27.68-3.77,40.13-10.81,5.29-3,10.54-6.06,15.87-9A25,25,0,0,1,709.63,872c10.25,1.87,20.26.78,30.14-2.19h0a125.23,125.23,0,0,0,12.16-5.35h0c14.81-9.15,25.78-21.86,34.16-36.93,1.92-3.44,3.28-7.19,5-10.77,2.35-5,5.57-9.37,10.64-11.63a79.24,79.24,0,0,1,14.84-5c7.1-1.59,13.14-5.06,19-9.12,13.94-9.72,24.47-22.55,33.26-36.91A51.37,51.37,0,0,0,875,738.4c2.61-11.66,4.13-23.3,2.08-35.3-.79-4.62,1.87-8.54,4.85-11.06,15.09-12,20.09-40,20.09-57a115.3,115.3,0,0,0-4.15-30.52h0c-2.07-3.1-3.4-5.88-2.17-9.22,1.56-4.24,3.29-8.41,4.85-12.64ZM863,589.1a28.51,28.51,0,0,0,3.81-.08c7.24-.39,12.23,3,15.14,9.4,6.47,14.15,9.4,28.88,7.53,44.53-1.1,9.22-3.06,18.09-7.18,26.42-1.09,2.2-1.73,5-5.15,4.34-.09,5-2.53,7.61-6.53,9.48a41.75,41.75,0,0,0-2.88-4q-4.57-5-9.33-9.77c-1-1-2.34-2-3.76-.8-1.66,1.34-.52,2.76.17,4.15,1.82,3.66,3.62,7.32,5.37,11,3.81,8,4,16.64,3.68,25.29-.85,21-9.35,38.81-22.87,54.43a65.37,65.37,0,0,1-26.88,18.69c-5.25,2-10.65,3.51-16.4,5.38a76.23,76.23,0,0,1,5.39-20.78c1.24-2.85,2.31-5.77,3.35-8.69a8.23,8.23,0,0,0,0-6.35,44.34,44.34,0,0,0-4.58,4.08c-9.21,10.91-16.75,22.73-19.83,37-.95,4.42-2.2,8.77-3.34,13.14a71.94,71.94,0,0,1-13.44,26.7,31.61,31.61,0,0,1-8.5,7.51,168,168,0,0,1-19.6,10A42.19,42.19,0,0,1,724.43,853a133.15,133.15,0,0,1-16.95,0c-3.79-.17-6.93-2.2-9.77-4.66a4.75,4.75,0,0,1-1.49-4.6c.59-4.62,1.19-9.24,1.67-13.88a46,46,0,0,0-.07-5.12c-1.16.4-1.87.42-2.13.77-3.27,4.4-7.15,8.34-9.28,13.58a19.42,19.42,0,0,0,.36,16.41c.3.63.55,1.3,1,2.27-2.43,2.93-4.6,6.3-7.47,8.91-12,10.91-26.07,17.23-42.48,17.76h-.42c-13.78,1.73-25.6-3.39-36.49-11-12.48-8.68-19.94-20.61-21.24-36-.58-6.87-.88-13.76-1.36-20.64a25.07,25.07,0,0,0-.62-3.22c-7.79,2.14-14.44,15.61-14.94,30.08-5.8,1.3-11.74,1.64-17.38-.49A76.82,76.82,0,0,1,530.58,836c-7.13-4.64-13-10.88-18.69-17.72.87-1.7,1.76-3.42,2.62-5.16,4.65-9.35,3.74-18.9.94-28.49a16.3,16.3,0,0,0-1.28-2.58l-1.22.77a19.53,19.53,0,0,0-.55,2.61c-.29,3.24-.39,6.49-.79,9.72a18.46,18.46,0,0,1-1.4,5.71c-3.66,7.53-7.84,14.74-14.38,20.24-8.29,7-17.1,13.21-27.94,15.35-13,2.55-26,3.67-39.08,0-4.65-1.3-9.17-2.79-13.13-5.66a22.43,22.43,0,0,0-2.54-1.52c-5.93-3.26-11.83-6.58-17.82-9.72a10.73,10.73,0,0,0-4.75-1.15,1.93,1.93,0,0,0-1.8,3c2.31,4.5,4.35,9.28,7.42,13.21,4.14,5.3,9.16,9.91,14,15.07-3,4.78-6.23,10.07-9.6,15.25C393,876.58,382,883,368.67,886.29a60.25,60.25,0,0,1-25.64.51,45.1,45.1,0,0,1-21.38-9.75c-6.56-5.57-12.92-11.42-18.92-17.58-5.58-5.73-9.1-12.9-12-20.33-1.42-3.67-2.62-4.86-4.7-4.3-2.41.65-3.25,3-1.89,6.79,2.85,7.82,5.91,15.56,8.89,23.33.25.65.54,1.28.92,2.19-1,.77-2,1.6-3,2.25-9.95,6.15-20.35,11.09-32.27,11.9a35.27,35.27,0,0,1-13.79-1.71c-10.4-3.5-19.44-9-26.6-17.45-11.55-13.6-20-28.65-22.77-46.61-1.47-9.6-1.13-19.15-.56-28.75a29.19,29.19,0,0,0-.81-8.33c-.61-2.63-2.32-3-4.38-1.22A15.52,15.52,0,0,0,186,781.8c-4.49,9.31-8.42,18.81-8.52,29.41,0,3.88-.14,7.76-.22,11.89a50.8,50.8,0,0,1-25-9.2,55.81,55.81,0,0,1-14.42-14.81,92.21,92.21,0,0,1-16-48.51c-.43-12.92,2-25.59,4.91-38.17,1.65-7.15,3.32-14.33,4.37-21.58.7-4.85.33-9.86.44-14.79a2.94,2.94,0,0,0,0-.42c-.32-1.52-.51-3.4-2.37-3.58-2.13-.21-2.59,1.74-3.18,3.35-2.16,5.89-4.36,11.76-6.89,18.59-11.19-17.05-17.81-34.52-18.48-53.86-.65-18.86,1.24-37.4,9.77-54.73,3.6,2.77,6.71,5.44,10.1,7.7a44.8,44.8,0,0,0,7.59,3.71c1.33.56,2.83.61,3.71-1s0-2.78-1.15-3.65c-9-6.64-14.86-15.82-19.94-25.49A101.65,101.65,0,0,1,101,537.49c-3.29-17.83-.61-35.13,2.83-52.53,3.72-18.78,11.8-35.57,22.31-51.35,3.28-4.93,6.72-9.75,10-14.65,1-1.52,2.05-3.09,1.07-5.31-3,0-5.31,1.56-7.33,3.51q-6.39,6.18-12.61,12.55a15.57,15.57,0,0,0-1.79,2.88l-1-.71a13.5,13.5,0,0,1-.6-2.35c-.86-11-1.36-22,0-33a67.86,67.86,0,0,1,11.06-29,242.76,242.76,0,0,1,24.38-32c6.27-6.78,11.27-14.5,16.25-22.21,3-4.58,4.27-9.82,5.55-15a5,5,0,0,0,0-2.5,2.32,2.32,0,0,0-4-.9,10,10,0,0,0-1.47,2.55A107.23,107.23,0,0,1,148.4,323.3a7,7,0,0,1-1.28.71c-.4-3-1-5.85-1.11-8.69a74.61,74.61,0,0,1,2.53-23.93C153,275.91,157,260.24,164,245.67c9.7-20.09,22.21-38.07,40.4-51.56,1.79-1.33,3.71-2.5,5.75-3.86,1.54,2.69,1,5.25.9,7.69a74.57,74.57,0,0,1-.87,8.83c-.6,3.74-1.36,7.47-2.23,11.16-.52,2.21-1.17,4.35.06,6.9,2.29-.63,3.17-2.42,4.33-4.17,6-9,7.22-19.5,9.14-29.75,1.69-9,3.07-18.2,6.85-26.62,9.46-21.09,24.2-36.31,47.72-41.21a64.08,64.08,0,0,1,25.29.21c4.21.81,8.18,3,12.16,4.79,2.11.95,3,2.56,2.33,5.18-1.2,4.79-1.88,9.72-5.69,13.38a2.91,2.91,0,0,0-.61,1.1,5,5,0,0,0,0,1.22c2,.77,3.45-.23,4.75-1.28a26.2,26.2,0,0,0,8.53-12.39c.75-2.27,1.5-4.55,2.36-6.79,2.33-6.11,7.41-9.5,12.89-12.18,8.63-4.22,17.82-5.89,27.49-5.92,15.81,0,29,6.71,41.38,15.42A91,91,0,0,1,420.14,137c4.58,4.76,8.49,10.18,12.65,15.34a9.47,9.47,0,0,1,.89,2.1c-5.35,1.08-10.43,2-15.48,3.13-7.77,1.68-15.29,4.09-22,8.47-1.68,1.09-3.58,2.24-3.31,5.29,2.3-.66,4.25-1.34,6.25-1.77,6.9-1.51,13.77-3.17,20.73-4.33,16-2.66,32-3.62,48.12-1.4a145.46,145.46,0,0,1,42,12.72c9.7,4.52,19.54,8.74,29.74,13.28a9.63,9.63,0,0,0,0-2.66,30.05,30.05,0,0,0-10.63-12.92c-2-1.34-3.9-2.75-5.88-4.15.27-4.09,2.18-7.13,4.83-9.79a43.87,43.87,0,0,1,12.8-8.94c22.82-10.47,46.34-12.89,70.61-5.88,4.19,1.21,8.29,2.71,12.45,4a21.08,21.08,0,0,0,2.74.42c-8.74-8.06-17.71-14.19-28.46-17.06a14.28,14.28,0,0,1,2.23-10.5c6.42-9.93,14.81-17.43,26.34-20.84a110.06,110.06,0,0,1,14-3.23,43.37,43.37,0,0,1,29.4,5.66c7,4.12,12.43,14.63,8.86,23-1.1,2.59-2.22,5.17-3.27,7.79-.4,1-.63,2.07-1,3.34,3.67.7,6.73-.26,8.5-2.9a31.94,31.94,0,0,0,4-9.2,34.46,34.46,0,0,0,.77-8.41c0-2.46,1.37-3.45,3.49-4.09a49.09,49.09,0,0,1,25.15-.72c6.9,1.52,13.73,3.24,20.16,6.34,8,3.85,14.7,9.07,19,16.93A68.31,68.31,0,0,1,764,163.44c.41,5.2.65,10.42.8,15.63a66.69,66.69,0,0,1-2.29,18c-.22.89-.28,1.82-.52,3.49,1.41-.68,2.36-.88,2.94-1.46,7.42-7.29,12.13-15.86,12.51-26.52.17-4.92.61-9.82.93-14.88a72.85,72.85,0,0,1,24.24,7.3A50.75,50.75,0,0,1,825,185.05c3.11,5.22,6.34,10.37,9.48,15.57a22.64,22.64,0,0,1,1.73,3.4c6.51,16.48,9.29,33.41,6.39,51.08a79.52,79.52,0,0,0-.94,11c-.15,6.36-.23,12.73,0,19.08a65.64,65.64,0,0,0,1.56,10.43,15.54,15.54,0,0,0,1.79,4.27c.8,1.45,1.68,3.47,3.73,2.7,2.45-.92.58-2.89.49-4.4-.3-5.06-.87-10.12-.91-15.18a119.56,119.56,0,0,1,2.93-25.22,12.43,12.43,0,0,1,1-2.08c1.15,2.15,2.14,3.82,3,5.57,2.17,4.6,4.22,9.26,6.42,13.84,7.21,15.07,8,30.76,4.19,46.76-1.29,5.48-3.35,10.77-5.11,16.14a30.41,30.41,0,0,1-1.56,3.13c-2.39-2.53-4.69-4.62-6.56-7.05a92.21,92.21,0,0,1-5-7.95c-2.7,2.92-2.23,6-1.28,8.87a29.36,29.36,0,0,0,7,12c3.13,3.07,6.19,6.22,9.44,9.15,13.46,12.13,20.53,27.44,22.48,45.24.29,2.61-.21,5.3-.35,8-.12,2.38,0,4.78-.39,7.12-2.68,18.46-9.44,35.41-19.18,51.23-1.7,2.76-3.65,5.36-5.33,8.13-1.21,2-2.16,4.12-3.62,6.94,6.67-1.15,10.81-4.89,14.86-8.38a73.86,73.86,0,0,0,11-11.7c3.25-4.38,5.64-9.39,8.56-14.39a15.81,15.81,0,0,1,1.85,1.9,61.56,61.56,0,0,1,8.09,17.2,130.81,130.81,0,0,1,2,74c-3.83,14.47-10.36,27.76-21.44,38.39-1.75,1.68-3.39,2.67-5.88,2.59a23.25,23.25,0,0,0-11.6,2.57,5.32,5.32,0,0,0-1.82,1,3.28,3.28,0,0,0-.69,2.17c.06.4,1,.88,1.66.94Z" fill="gray"/><path d="M863.86,585a23.11,23.11,0,0,1,11.44-2.66c2.49.07,4.13-.91,5.88-2.59,11.07-10.63,17.61-23.92,21.44-38.39a130.81,130.81,0,0,0-2-74,61.28,61.28,0,0,0-8.09-17.2,15.81,15.81,0,0,0-1.85-1.9c-2.92,5-5.31,10-8.56,14.39a73.86,73.86,0,0,1-11,11.7c-4,3.48-8.19,7.22-14.86,8.38,1.46-2.82,2.41-5,3.62-6.94,1.68-2.77,3.64-5.37,5.33-8.13,9.73-15.82,16.5-32.77,19.18-51.23.34-2.34.27-4.75.39-7.12.13-2.65.63-5.35.35-8-2-17.81-9-33.11-22.48-45.24-3.25-2.93-6.31-6.08-9.44-9.15a29.08,29.08,0,0,1-7-12c-1-2.87-1.42-5.95,1.28-8.87a92.21,92.21,0,0,0,5,7.95c1.87,2.43,4.17,4.52,6.56,7.05a26.08,26.08,0,0,0,1.56-3.13c1.76-5.36,3.82-10.66,5.11-16.14,3.78-16,3-31.69-4.19-46.76-2.19-4.59-4.25-9.25-6.42-13.84-.82-1.74-1.81-3.41-3-5.57a12.43,12.43,0,0,0-1,2.08,119.56,119.56,0,0,0-2.93,25.22c0,5.06.61,10.12.91,15.18.09,1.51,2,3.48-.49,4.4-2.05.77-2.93-1.25-3.73-2.7a15.54,15.54,0,0,1-1.79-4.27,65.64,65.64,0,0,1-1.56-10.43c-.24-6.35-.16-12.72,0-19.08a79.52,79.52,0,0,1,.94-11c2.89-17.67.12-34.61-6.39-51.08a22.64,22.64,0,0,0-1.73-3.4c-3.14-5.2-6.37-10.35-9.48-15.57a50.61,50.61,0,0,0-22.36-20.07,72.7,72.7,0,0,0-24.33-7.15c-.32,5-.76,10-.93,14.88-.38,10.65-5.09,19.22-12.51,26.52-.58.58-1.53.78-2.94,1.46.24-1.66.29-2.59.52-3.49a65.9,65.9,0,0,0,2.29-18c-.15-5.21-.39-10.43-.8-15.63a68.31,68.31,0,0,0-8.18-27.42c-4.27-7.86-11-13.08-19-16.93-6.43-3.11-13.26-4.82-20.16-6.34a49.09,49.09,0,0,0-25.15.72c-2.12.64-3.44,1.63-3.49,4.09a34.46,34.46,0,0,1-.77,8.41,31.94,31.94,0,0,1-4,9.2c-1.77,2.64-4.83,3.6-8.5,2.9.38-1.27.6-2.34,1-3.34,1-2.61,2.18-5.19,3.27-7.79,3.56-8.41-1.85-18.92-8.86-23a43.37,43.37,0,0,0-29.4-5.66,110.06,110.06,0,0,0-14,3.23C615,105,606.64,112.46,600.22,122.39a14.28,14.28,0,0,0-2.23,10.5c10.74,2.87,19.72,9,28.46,17.06a21.08,21.08,0,0,1-2.74-.42c-4.15-1.33-8.26-2.83-12.45-4-24.27-7-47.79-4.6-70.61,5.88a43.87,43.87,0,0,0-12.8,8.94c-2.65,2.66-4.56,5.7-4.83,9.79,2,1.4,3.91,2.82,5.88,4.15a30.05,30.05,0,0,1,10.63,12.92c.27.61,0,1.44,0,2.66-10.2-4.54-20-8.76-29.74-13.28a146.08,146.08,0,0,0-42-12.72c-16.15-2.22-32.16-1.26-48.12,1.4-7,1.16-13.83,2.83-20.73,4.33-2,.44-3.95,1.11-6.25,1.77-.28-3,1.63-4.2,3.31-5.29,6.73-4.38,14.25-6.79,22-8.47,5-1.09,10.13-2,15.48-3.13a9.47,9.47,0,0,0-.89-2.1c-4.16-5.16-8.07-10.58-12.65-15.34a90.72,90.72,0,0,0-13.24-11.2c-12.41-8.71-25.57-15.45-41.38-15.42a61.38,61.38,0,0,0-27.49,5.92c-5.47,2.68-10.55,6.07-12.89,12.18-.85,2.24-1.61,4.51-2.36,6.79a26.13,26.13,0,0,1-8.53,12.39c-1.3,1.05-2.71,2.05-4.75,1.28a5,5,0,0,1,0-1.22,2.91,2.91,0,0,1,.61-1.1c3.81-3.66,4.49-8.59,5.69-13.38.65-2.62-.22-4.23-2.33-5.18-4-1.78-7.95-4-12.16-4.79a64.08,64.08,0,0,0-25.29-.21c-23.53,4.9-38.26,20.11-47.72,41.21-3.78,8.42-5.16,17.59-6.85,26.62-1.92,10.25-3.15,20.72-9.14,29.75-1.16,1.75-2,3.54-4.33,4.17-1.23-2.55-.57-4.68-.06-6.9.86-3.69,1.63-7.41,2.23-11.16a74.57,74.57,0,0,0,.87-8.83c.1-2.44.65-5-.9-7.69-2,1.37-4,2.53-5.75,3.86-18.18,13.48-30.7,31.47-40.4,51.56-7,14.57-11,30.24-15.45,45.72A75,75,0,0,0,146,315.27c.12,2.84.71,5.66,1.11,8.69a7.6,7.6,0,0,0,1.28-.71,106.79,106.79,0,0,0,17.25-25.94,10,10,0,0,1,1.47-2.55,2.32,2.32,0,0,1,4,.9,4.93,4.93,0,0,1,0,2.5c-1.27,5.22-2.58,10.46-5.55,15-5,7.71-10,15.43-16.25,22.21a241.24,241.24,0,0,0-24.38,32,67.81,67.81,0,0,0-11,29.1c-1.38,11-.87,22,0,33a13.5,13.5,0,0,0,.6,2.35l1,.71a15.57,15.57,0,0,1,1.79-2.88c4.15-4.23,8.34-8.43,12.61-12.55,2-2,4.33-3.49,7.33-3.51,1,2.22,0,3.79-1.07,5.31-3.33,4.89-6.77,9.72-10,14.65-10.51,15.77-18.6,32.57-22.31,51.35-3.44,17.4-6.12,34.7-2.83,52.53a101.69,101.69,0,0,0,9.68,29.19c5.08,9.67,10.91,18.85,19.94,25.49,1.18.87,2,2,1.15,3.65s-2.38,1.53-3.71,1A45.89,45.89,0,0,1,120.5,593c-3.39-2.25-6.5-4.92-10.1-7.7-8.53,17.33-10.41,35.86-9.77,54.73.66,19.34,7.29,36.81,18.48,53.86,2.54-6.83,4.73-12.7,6.89-18.59.59-1.61,1-3.56,3.18-3.35,1.86.18,2,2.06,2.37,3.58a1.48,1.48,0,0,1,0,.42c-.11,4.94.26,9.94-.44,14.79-1.05,7.25-2.72,14.43-4.37,21.58-2.89,12.57-5.34,25.25-4.91,38.17.59,17.63,6.17,33.82,16,48.51a55.81,55.81,0,0,0,14.42,14.81,50.63,50.63,0,0,0,25,9.2c.08-4.13.18-8,.22-11.89.09-10.6,4-20.1,8.52-29.41a15.2,15.2,0,0,1,3.81-4.48c2.07-1.82,3.77-1.41,4.38,1.22a29.55,29.55,0,0,1,.81,8.33c-.57,9.61-.91,19.15.56,28.75,2.75,18,11.22,33,22.77,46.61,7.16,8.43,16.21,14,26.6,17.45a35.27,35.27,0,0,0,13.79,1.71c11.92-.82,22.32-5.75,32.27-11.9,1-.65,2-1.48,3-2.25-.38-.91-.67-1.54-.92-2.19-3-7.77-6-15.51-8.89-23.33-1.36-3.74-.52-6.14,1.89-6.79,2.08-.56,3.28.63,4.7,4.3,2.89,7.42,6.41,14.6,12,20.33,6,6.16,12.36,12,18.92,17.58A45,45,0,0,0,343,886.84a60.25,60.25,0,0,0,25.64-.51c13.36-3.28,24.36-9.71,32-21.33,3.37-5.18,6.59-10.47,9.6-15.25-4.87-5.15-9.89-9.77-14-15.07-3.08-3.94-5.11-8.71-7.42-13.21a1.93,1.93,0,0,1,1.8-3,10.73,10.73,0,0,1,4.75,1.15c6,3.13,11.89,6.45,17.82,9.72a22.43,22.43,0,0,1,2.54,1.52c4,2.87,8.48,4.37,13.13,5.66,13,3.64,26.11,2.52,39.08,0,10.84-2.13,19.64-8.37,27.94-15.35,6.54-5.5,10.72-12.71,14.38-20.24a17.85,17.85,0,0,0,1.4-5.71c.4-3.22.5-6.48.79-9.72a21.24,21.24,0,0,1,.55-2.61l1.22-.77a14.75,14.75,0,0,1,1.28,2.58c2.8,9.59,3.71,19.14-.94,28.49-.86,1.74-1.75,3.46-2.62,5.16,5.74,6.85,11.56,13.08,18.69,17.72a77.4,77.4,0,0,0,14.79,7.18c5.65,2.13,11.58,1.79,17.38.49.5-14.47,7.15-27.93,14.94-30.08a26.91,26.91,0,0,1,.62,3.22c.48,6.88.78,13.77,1.36,20.64,1.29,15.38,8.76,27.31,21.24,36,10.89,7.57,22.71,12.69,36.49,11h.42c16.41-.53,30.46-6.84,42.48-17.76,2.87-2.61,5.05-6,7.47-8.91a23.82,23.82,0,0,0-1-2.27,19.42,19.42,0,0,1-.36-16.41c2.12-5.24,6-9.18,9.28-13.58.26-.35,1-.37,2.13-.77a46,46,0,0,1,.07,5.12c-.48,4.63-1.07,9.26-1.67,13.88a4.75,4.75,0,0,0,1.49,4.6c2.84,2.46,6,4.49,9.77,4.66a133.93,133.93,0,0,0,17,0,41.7,41.7,0,0,0,12.75-2.81,167.24,167.24,0,0,0,19.6-10,31.61,31.61,0,0,0,8.5-7.51,72.09,72.09,0,0,0,13.44-26.7c1.14-4.37,2.39-8.73,3.34-13.14,3.07-14.23,10.61-26,19.83-37a43.2,43.2,0,0,1,4.58-4.08,8.23,8.23,0,0,1,0,6.35c-1,2.93-2.11,5.85-3.35,8.69a76.23,76.23,0,0,0-5.39,20.78c5.74-1.87,11.15-3.42,16.4-5.38A65.5,65.5,0,0,0,841,763.49c13.52-15.61,22-33.45,22.87-54.43.35-8.65.13-17.24-3.68-25.29-1.75-3.69-3.55-7.36-5.37-11-.69-1.39-1.83-2.81-.17-4.15,1.42-1.15,2.77-.19,3.76.8,3.18,3.19,6.28,6.46,9.33,9.77a43.57,43.57,0,0,1,2.88,4c4-1.86,6.44-4.5,6.53-9.48,3.42.67,4.07-2.14,5.15-4.34,4.11-8.33,6.08-17.21,7.18-26.42,1.87-15.65-1.06-30.38-7.53-44.53-2.91-6.36-7.9-9.79-15.14-9.4a25.52,25.52,0,0,1-3.81.08c-.61,0-1.6-.54-1.66-.94A3.21,3.21,0,0,1,862,586a4.85,4.85,0,0,1,1.82-1Z" fill="#fff"/></svg>