<?xml version="1.0" encoding="UTF-8"?><svg id="Layer_1" xmlns="http://www.w3.org/2000/svg" viewBox="0 0 1000 1000"><path d="m454.64,942.88c-2.68-4.81-3.46-10.16-3.74-15.48-.9-17.15,4.39-32.15,17.18-43.83,12.31-11.24,26.8-15.18,43.19-10.84.39.1.75.35,1.55.74-1.51,1.36-2.22,2.9-1.07,4.71.97,1.53,1.87,3.09,3.29,5.46-3.77-1.07-6.68-1.91-9.6-2.72-1.76-.49-3.73-1.32-5.18.3-1.64,1.83-.33,3.7.55,5.47,1.2,2.4,2.36,4.82,3.62,7.18.76,1.42,1.78,2.66,3.68,2.09,1.59-.48,2.15-2.06,1.49-4.26-.4-1.34-1-2.62-1.65-4.31,2.65-.05,4.68,1.21,6.83,1.88,1.35.41,2.61,1.09,3.97,1.47,2.86.79,4.64-.9,3.52-3.63-1.71-4.15-3.86-8.12-5.91-12.35,4.62,2.33,9.28,4.65,13.04,8.44,9.09,9.16,13.54,20.4,14.38,33.06,1.54,23.31-10.99,44.79-34.72,54.29-8.64,3.46-17.81,2.79-26.6-.25-13.64-4.72-23-13.9-27.93-27.51,1.94,1.2,3.85.53,5.67-.22,4.3-1.78,8.56-3.66,12.83-5.51,2.54-1.11,5.07-2.24,7.68-3.4,1.06,3.75.63,7.52,3.65,10.73,3.03-2.21,6.05-4.41,9.23-6.72.46,1.13.8,2.05,1.21,2.93,1.25,2.71,1.6,2.86,4.58,1.82,1.56-.54,3.08-1.18,4.64-1.79,1.11,1.43,2.07,2.64,3.01,3.88,3.49,4.63,6.94,9.28,10.47,13.87.58.75,1.45,1.27,2.19,1.89l.92-.64c-2.25-7.88-4.45-15.78-8.07-23.15,1.66-.99,3.05-1.82,4.58-2.74-1.22-2.39-2.27-4.44-3.39-6.63,3.68-1.37,6.99-2.61,10.31-3.85-.02-.3-.05-.6-.07-.9-2.38-.88-4.75-1.75-7.74-2.86,6.6-5.34,14.29-8.38,19.15-14.79-.13-.29-.26-.58-.39-.87-7.67,1.19-15.34,2.39-23.02,3.58-.16-2.51-.29-4.49-.44-6.95-3.1,1.55-5.52,2.77-8.34,4.18-.25-2.15-.46-3.66-.59-5.19-.25-2.8-1.09-3.61-3.74-2.99-2.3.54-4.52,1.43-6.91,2.2-.87-1.05-1.75-2.13-2.65-3.21-3.19-3.78-6.33-7.61-9.62-11.3-.63-.71-2.03-1.39-2.81-1.16-1.45.42-.81,1.75-.47,2.84,1.05,3.37,2.01,6.76,3.08,10.13.83,2.61,1.77,5.2,2.65,7.77-2.48.43-4.59.81-6.98,1.22.94,2.43,1.65,4.26,2.39,6.15-1.11,1.12-2.08,2.36-3.3,3.29-1.18.91-2.6,1.5-4.08,2.32,1.14,3.93,5.32,4.22,7.54,7.01-2.97,2-5.8,3.82-8.52,5.78-5.38,3.88-10.78,7.74-14.54,13.39Zm35.55,21.46c3.21,1.32,4.84,1.08,6.57-.83,1.57-1.73,2.08-4.37.72-6.24-1.03-1.42-2.53-2.64-4.06-3.53-1.8-1.05-3.86-1.65-6.01-2.52.36-.56.74-.97.9-1.45.29-.84.46-1.72.68-2.59-1.02-.23-2.15-.84-3.06-.61-2.16.56-3.68,2.03-4.13,4.35-.43,2.23.39,3.86,2.74,5.18,1.22.68,2.6,1.08,3.87,1.69,1.33.63,2.6,1.36,3.95,2.08-.88,1.81-1.53,3.14-2.19,4.48Z" fill="#fff" stroke-width="0"/><path d="m481.67,868.65c-1.03.5-1.74.87-2.47,1.21-30.14,14.09-42.61,51.64-26.91,80.98,9.84,18.37,28.24,28.62,48.32,26.06,10.56-1.35,20.1-5.32,28.92-12,11.72-8.89,17.22-20.94,20.64-34.34,2.18-8.55,2.3-17.48.09-26.06-2.89-11.24-7.95-21.6-17.1-29.09-3.94-3.23-9.1-4.98-13.72-7.37-.48-.25-1.16-.47-1.64-.34-5.24,1.48-8.19-2.57-11.82-5.31,2.26.38,4.57.61,6.78,1.17,14.45,3.63,25.88,11.65,34.29,23.95,3.84,5.62,5.61,12,6.54,18.63,5.02,35.7-19.01,67.68-49.29,74.59-9.96,2.27-19.34.86-28.55-2.96-1.26-.52-2.42-1.44-3.43-2.39-5.76-5.43-11.44-10.93-17.17-16.38-3.12-2.96-5.53-6.4-7.2-10.37-2.03-4.81-4.12-9.6-6.07-14.44-.46-1.14-.63-2.46-.66-3.7-.58-23.35,8.55-42.26,26.45-57,2.7-2.22,5.94-3.78,8.96-5.6,1.57-.94,3.15-1.2,5.04.77Z" fill="#fff" stroke-width="0"/><path d="m573.25,949.69c-1.09,4.03-2.22,7.34-2.84,10.75-.59,3.26-.64,6.61,3.48,8.38-.67,1.27-1.83,2.89.4,3.6,1.45.46,3.04.45,4.83.68-1,2.14-2.75,3.46-4.84,3.11-2.45-.41-4.99-1.43-5.92-4.19-.44-1.31-.68-2.75-.7-4.14-.03-3.52.51-7.1.09-10.56-.5-4.16,1.82-5.81,5.5-7.64Z" fill="#fff" stroke-width="0"/><path d="m583.03,948.55c6.04,6.97,3.27,16.41-5.2,18.99-.58-6.93,2.09-12.9,5.2-18.99Z" fill="#fff" stroke-width="0"/><path d="m484.23,865.26c4.05-2.06,7.49-3.07,11-.15-5.56,2-7.64,2.1-11,.15Z" fill="#fff" stroke-width="0"/><path d="m560.98,965.39c.2,2.17.4,4.35.66,7.21-2.27-2.61-1.8-4.91-.66-7.21Z" fill="#fff" stroke-width="0"/><path d="m562.33,977.41c-.31-.74-.62-1.47-.93-2.21.28-.12.56-.23.84-.35.29.74.59,1.48.88,2.23-.26.11-.53.22-.79.33Z" fill="#fff" stroke-width="0"/><path d="m527.18,908.72c-.83.65-1.61,1.37-2.49,1.93-3.41,2.19-6.85,4.34-10.29,6.48-.47.29-.99.59-1.52.66-4.09.55-8.19,1.04-12.56.83,1.19-.89,2.35-1.83,3.57-2.67,1.5-1.03,3.33-1.74,4.53-3.03,2.73-2.95,6.2-3.4,9.86-3.71,2.89-.25,5.76-.72,8.64-1.09.08.2.17.4.25.6Z" fill="#fff" stroke-width="0"/><path d="m493.31,921.23c-2.33,3.06-4.62,5.68-8.6,6.9-4.66,1.43-8.95,4.01-13.43,6.06-1.08.5-2.23.85-3.66.66,3.61-2.89,7.6-5.41,10.73-8.75,4.26-4.55,9.81-3.71,14.96-4.87Z" fill="#fff" stroke-width="0"/><path d="m496.15,923.36c2.03,5.54,3.7,10.09,5.46,14.9-1.33.71-2.53,1.35-3.88,2.07-3.51-5.13-3.77-10.42-1.58-16.98Z" fill="#fff" stroke-width="0"/><path d="m477.72,907.19c4.04-1.48,6.74-.16,8.89,2.94,1.1,1.59,2.42,3.04,4.06,5.07-4.23.27-7.59-1.16-10.56-2.91-1.33-.79-1.63-3.34-2.4-5.1Z" fill="#fff" stroke-width="0"/><path d="m494.02,901.11c1.97-.5,3.58-.92,5.19-1.33,1.34,3.19,1.81,6.14-.3,9.18-.92,1.32-1.22,3.07-2.51,4.62-.76-4.01-1.53-8.02-2.38-12.47Z" fill="#fff" stroke-width="0"/><path d="m513.46,932.94c-4.07.82-7.29-1.64-10.23-7.49,5.73.01,7.84,1.5,10.23,7.49Z" fill="#fff" stroke-width="0"/><path d="m434.33,965.35c-.45-2.12-.49-4.82-3.35-5.32-2.78-.49-3.89,1.92-5.17,3.7-1.7,2.36-3.19,4.88-4.76,7.29-15.98-8.85-19.42-33.25-13.4-43.17,2.7,1.39,5.46,2.73,8.14,4.22,3.81,2.11,6.29.94,5.94-3.36-.63-7.72-1.7-15.41-2.78-23.09-.19-1.37-1.31-2.62-2.01-3.92-8,3.82-15.21,7.32-22.48,10.71-3.45,1.61-3.95,5.02-.9,7.29.67.5,1.51.77,2.23,1.2,1.65.99,3.27,2.02,4.81,2.98-7.56,21.65-.52,42.71,16.56,53.01-.17.49-.29,1.04-.56,1.51-1.33,2.33-2.8,4.59-4.02,6.97-1.29,2.52-.46,3.76,2.32,3.69.98-.02,1.96-.24,2.93-.4,6.53-1.04,13.05-2.12,19.58-3.13,2.55-.4,3.49-2.08,2.15-4.59-2.62-4.92-4.12-10.17-5.26-15.58Z" fill="gray" stroke-width="0"/><path d="m454.64,942.88c3.76-5.64,9.16-9.51,14.54-13.39,2.72-1.96,5.56-3.78,8.52-5.78-2.22-2.79-6.4-3.08-7.54-7.01,1.48-.82,2.9-1.42,4.08-2.32,1.21-.93,2.19-2.16,3.3-3.29-.73-1.89-1.44-3.72-2.39-6.15,2.39-.42,4.5-.79,6.98-1.22-.88-2.57-1.82-5.15-2.65-7.77-1.07-3.36-2.03-6.76-3.08-10.13-.34-1.09-.99-2.42.47-2.84.78-.22,2.17.46,2.81,1.16,3.29,3.69,6.43,7.52,9.62,11.3.9,1.07,1.79,2.16,2.65,3.21,2.39-.78,4.61-1.67,6.91-2.2,2.65-.62,3.5.19,3.74,2.99.13,1.52.34,3.04.59,5.19,2.82-1.41,5.25-2.63,8.34-4.18.16,2.46.28,4.45.44,6.95,7.68-1.19,15.35-2.39,23.02-3.58.13.29.26.58.39.87-4.86,6.41-12.55,9.44-19.15,14.79,2.98,1.1,5.36,1.98,7.74,2.86.02.3.05.6.07.9-3.32,1.24-6.64,2.48-10.31,3.85,1.12,2.19,2.16,4.24,3.39,6.63-1.53.92-2.92,1.74-4.58,2.74,3.61,7.38,5.81,15.27,8.07,23.15l-.92.64c-.74-.63-1.62-1.14-2.19-1.89-3.53-4.6-6.98-9.25-10.47-13.87-.93-1.24-1.9-2.45-3.01-3.88-1.56.6-3.08,1.24-4.64,1.79-2.98,1.04-3.34.89-4.58-1.82-.41-.88-.74-1.8-1.21-2.93-3.18,2.32-6.2,4.52-9.23,6.72-3.02-3.21-2.58-6.98-3.65-10.73-2.61,1.16-5.14,2.3-7.68,3.4-4.27,1.86-8.53,3.73-12.83,5.51-1.82.75-3.72,1.43-5.67.22,0,0,.11.1.11.1Zm72.54-34.16c-.08-.2-.17-.4-.25-.6-2.88.37-5.75.84-8.64,1.09-3.65.32-7.12.77-9.86,3.71-1.2,1.3-3.03,2-4.53,3.03-1.22.84-2.38,1.78-3.57,2.67,4.37.21,8.47-.28,12.56-.83.53-.07,1.05-.37,1.52-.66,3.44-2.14,6.88-4.29,10.29-6.48.88-.57,1.66-1.29,2.49-1.93Zm-33.87,12.51c-5.15,1.16-10.7.32-14.96,4.87-3.12,3.34-7.12,5.86-10.73,8.75,1.43.19,2.58-.17,3.66-.66,4.47-2.05,8.77-4.63,13.43-6.06,3.98-1.22,6.27-3.85,8.6-6.9Zm2.84,2.12c-2.18,6.55-1.92,11.85,1.58,16.98,1.35-.72,2.55-1.36,3.88-2.07-1.77-4.81-3.43-9.36-5.46-14.9Zm-18.43-16.16c.77,1.76,1.06,4.31,2.4,5.1,2.96,1.75,6.32,3.18,10.56,2.91-1.64-2.03-2.96-3.48-4.06-5.07-2.15-3.1-4.85-4.42-8.89-2.94Zm16.3-6.08c.85,4.45,1.61,8.46,2.38,12.47,1.29-1.55,1.6-3.3,2.51-4.62,2.1-3.04,1.64-5.99.3-9.18-1.61.41-3.22.82-5.19,1.33Zm19.44,31.83c-2.39-5.98-4.49-7.48-10.23-7.49,2.93,5.85,6.16,8.3,10.23,7.49Z" fill="gray" stroke-width="0"/><path d="m490.19,964.34c.66-1.34,1.3-2.67,2.19-4.48-1.35-.71-2.63-1.44-3.95-2.08-1.27-.61-2.65-1-3.87-1.69-2.35-1.32-3.17-2.95-2.74-5.18.44-2.31,1.96-3.79,4.13-4.35.91-.23,2.03.38,3.06.61-.22.87-.38,1.75-.68,2.59-.17.48-.54.89-.9,1.45,2.15.87,4.21,1.47,6.01,2.52,1.53.89,3.03,2.11,4.06,3.53,1.36,1.87.84,4.51-.72,6.24-1.72,1.91-3.36,2.15-6.57.83Z" fill="gray" stroke-width="0"/><path d="m611.7,907.56c.89-1.6.95-3.71,1.19-5.61.37-2.9.57-5.81.79-8.22h0c-4.93-.54-9.91-3.33-12.19-4.75.63.52,1.07,1.16,1.17,2.22.57,5.88.43,11.64-2.75,16.84-2.06,3.37-4.4,6.56-6.65,9.81-3.69,5.34-7.45,10.64-11.09,16.01-1.73,2.56-3.25,5.26-4.27,6.93-4.55,1.33-8.14,2.38-11.8,3.45.74-3.14-1.61-4.46-4.31-5.53.27-1.28.48-2.37.72-3.46,3.27-15.18,1.71-29.87-5.06-43.81-8.47-17.45-22.01-29.43-40.77-34.54-17.42-4.74-34.3-3.75-49.78,7.15-9.22,6.49-17.98,13.31-23.78,23.19-13.1,22.32-13.27,44.98-1.59,67.93,9.46,18.6,24.18,29.7,45.09,32.5,21.15,2.83,39.8-2.24,55.65-16.77.62-.57,1.26-1.11,1.98-1.74.57.29,1.05.54,1.53.79,3.64,1.92,5.15,1.17,5.48-2.98.25-3.13,1.36-5.82,3.39-8.76q-1.89,7.6.34,15.29c.12.41.25.81.35,1.22,1.48,6.65,5.95,9.99,12.59,8.45,4.47-1.03,9.06-2.6,12.91-5.03,5.88-3.71,9.74-9.35,11.36-16.28.77-3.29,1.55-6.59,2.19-9.91.54-2.77,1.33-5.58,1.25-8.35-.26-9.09,2.85-16.8,8.34-23.89,2.93-3.78,5.38-7.96,7.72-12.14Zm-100.44-34.83c.39.1.75.35,1.55.74-1.51,1.36-2.22,2.9-1.07,4.71.97,1.53,1.87,3.09,3.29,5.46-3.77-1.07-6.68-1.91-9.6-2.72-1.76-.49-3.73-1.32-5.18.3-1.64,1.83-.33,3.7.55,5.47,1.2,2.4,2.36,4.82,3.62,7.18.76,1.42,1.78,2.66,3.68,2.09,1.59-.48,2.15-2.06,1.49-4.26-.4-1.34-1-2.62-1.65-4.31,2.65-.05,4.68,1.21,6.83,1.88,1.35.41,2.61,1.09,3.97,1.47,2.86.79,4.64-.9,3.52-3.63-1.71-4.15-3.86-8.12-5.91-12.35,4.62,2.33,9.28,4.65,13.04,8.44,9.09,9.16,13.54,20.4,14.38,33.06,1.54,23.31-10.99,44.79-34.72,54.29-8.64,3.46-17.81,2.79-26.6-.25-13.64-4.72-23-13.9-27.93-27.52l.12.11c-2.68-4.81-3.46-10.16-3.74-15.48-.9-17.15,4.39-32.15,17.18-43.83,12.31-11.24,26.8-15.18,43.19-10.84Zm-16.04-7.62c-5.56,2-7.64,2.1-11,.15,4.05-2.06,7.49-3.07,11-.15Zm9.08,115.61c-9.96,2.27-19.34.86-28.55-2.96-1.26-.52-2.42-1.44-3.43-2.39-5.76-5.43-11.44-10.93-17.17-16.38-3.12-2.96-5.53-6.4-7.2-10.37-2.03-4.81-4.12-9.6-6.07-14.44-.46-1.14-.63-2.46-.66-3.7-.58-23.35,8.55-42.26,26.45-57,2.7-2.22,5.94-3.78,8.96-5.6,1.57-.94,3.15-1.2,5.04.77-1.03.5-1.74.87-2.47,1.21-30.14,14.09-42.61,51.64-26.91,80.98,9.84,18.37,28.24,28.62,48.32,26.06,10.56-1.35,20.1-5.32,28.92-12,11.72-8.89,17.23-20.94,20.64-34.34,2.18-8.55,2.3-17.48.09-26.06-2.89-11.24-7.95-21.6-17.1-29.09-3.94-3.23-9.1-4.98-13.72-7.37-.48-.25-1.16-.47-1.64-.34-5.24,1.48-8.19-2.57-11.82-5.31,2.26.38,4.57.61,6.78,1.17,14.45,3.63,25.88,11.65,34.29,23.95,3.84,5.62,5.61,12,6.54,18.63,5.02,35.7-19.01,67.68-49.29,74.59Zm56.68-15.33c.2,2.17.4,4.35.66,7.21-2.27-2.61-1.8-4.91-.66-7.21Zm1.34,12.02c-.31-.74-.62-1.47-.93-2.21.28-.12.56-.23.84-.35.29.74.59,1.48.88,2.23-.26.11-.53.22-.79.33Zm11.95-1.2c-2.45-.41-4.99-1.43-5.92-4.19-.44-1.31-.68-2.75-.7-4.14-.03-3.52.51-7.1.09-10.56-.5-4.16,1.82-5.81,5.5-7.64-1.09,4.03-2.22,7.34-2.84,10.75-.59,3.26-.64,6.61,3.48,8.38-.67,1.27-1.83,2.89.4,3.6,1.45.46,3.04.45,4.83.68-1,2.14-2.75,3.46-4.84,3.11Zm3.55-8.67c-.58-6.93,2.09-12.9,5.2-18.99,6.04,6.97,3.27,16.41-5.2,18.99Z" fill="gray" stroke-width="0"/></svg>