<?xml version="1.0" encoding="UTF-8"?><svg id="Layer_1" xmlns="http://www.w3.org/2000/svg" viewBox="0 0 1000 1000"><path d="m883.88,148.59c1.66-.87,3-1.58,4.69-2.47-2.66-1.98-4.81.18-7.35.13-.92-.84-2.02-1.85-3.62-3.31,4.24-1.22,8.29-1.53,11.66-5.15-1.63.11-2.66.02-3.61.28-2.45.66-4.88,1.4-7.28,2.22-2.32.79-4.12.53-5.27-2.4,5-.94,9.6-2.74,13.78-5.59-6.1-.47-11.85,2.52-18,1.5,5.92-1.36,11.46-3.39,16.09-7.57-4.94,1.19-9.89,2.38-14.83,3.57-.13-.36-.26-.72-.4-1.07,5.72-2.2,11.68-4.06,16.13-8.42,4.32-4.23,8.28-8.82,10.88-14.74.68.6,1.17.87,1.44,1.28,7.62,11.54,15.39,22.98,22.74,34.68,3.51,5.59,6.43,11.58,9.23,17.57,2.26,4.82-.41,10.58-5.5,12.35-4.99,1.73-10.05,1.81-14.66-1.19-2.82-1.83-5.46-3.97-8.05-6.12-4.35-3.6-8.6-7.32-12.88-11-1.7-1.46-3.37-2.95-5.2-4.55Z" fill="#fff" stroke-width="0"/><path d="m804.25,90.73c-5.42-11.05-4.7-21.92,1.5-32.33,7.85-13.17,24.9-20.88,40.05-18.48q3.05.48,4.07,3.52c-2.09.3-4.15.6-6.2.9-.06.35-.12.71-.18,1.06,1.91,1,3.82,2,6.04,3.16-.82,1.46-1.56,2.76-2.31,4.09-4.26-1.18-8.23-2.28-11.33-3.13-2.66.18-4.53.27-6.4.43-2.66.23-5.34.4-7.96.87-.72.13-1.27,1.25-1.89,1.91.7.6,1.33,1.58,2.11,1.72,1.9.33,3.87.27,6.2.39-1.58,2.54-3.66,3.22-6.13,3.41-4.61.35-8.83,1.91-12.5,4.73-1.5,1.15-3.24,2.32-3.12,5.07,1.07-.3,1.93-.6,2.81-.77.76-.14,1.73-.44,2.3-.12,3.63,2,7.08,1.09,9.9-1.19,4.56-3.69,8.83-2.33,13.76-.16-2.68,2.96-4.92,5.39-9.31,4.32-3.72-.9-7.59-.63-11.29.61-7.49,2.52-11.43,8.99-10.31,16.81.16,1.1.09,2.22.12,3.34l.06-.13Z" fill="#fff" stroke-width="0"/><path d="m859.49,124.8c3.4-1.02,6.87-1.35,9.51-4.27-3.73-1.91-7.2.53-11.26.16,3.13-1.6,5.79-2.96,9.01-4.61-2.96-1.65-5.4-.12-8.8-.54,1.9-.96,3-1.54,4.13-2.09,8.51-4.13,15.23-10.17,19.67-18.58.98-1.86,1.64-3.89,2.42-5.86.62-1.55,1.2-3.1,2.06-5.34,2.87,4.07,5.43,7.57,7.8,11.19.46.7.44,1.98.17,2.84-1.13,3.63-2.17,7.32-3.75,10.76-4.19,9.12-12.23,13.29-21.34,15.88-3.05.87-6.16,1.81-9.61.46Z" fill="#fff" stroke-width="0"/><path d="m804.19,90.87c.38-1.33.92-2.64,1.12-3.99,1.39-9.48,8.5-14.62,18.45-12.92-1.22,2.08-3.12,3.18-5.06,3.28-4.76.25-7.69,3.02-10.63,6.98,1.99,4.47,4.11,9.22,6.2,13.92-3.26.92-5.25.42-7.12-2.3-1.1-1.61-1.93-3.41-2.89-5.11,0,.01-.07.14-.07.14Z" fill="#fff" stroke-width="0"/><path d="m845.63,80.91c1.23-1.11,2.55-2.3,3.97-3.58,3.41,2.97,4.99,6.71,6.29,10.55.68,2.01-.12,2.84-3.92,5.04-2-3.79-4.01-7.59-6.33-12Z" fill="#fff" stroke-width="0"/><path d="m813.54,85.69c6.52-3.82,12.14-3.74,17.05,1.77-.51,1.5-1.44,1.42-2.65.87-1.52-.7-3.07-1.38-4.66-1.88-1.55-.49-3.15-.38-4.23,1.02-1.19,1.55-.78,3.22.1,4.75.61,1.07,1.42,2.02,2.48,3.5-1.08.11-2.03.5-2.36.19-3.05-2.78-5.45-5.95-5.72-10.23Z" fill="#fff" stroke-width="0"/><path d="m842.14,99.95c-1.2-3.67-2.4-7.35-3.8-11.64.94-.83,2.25-2.01,4.05-3.61,1.25,2.54,2.63,4.79,3.5,7.23,1.8,5.02,1.28,5.89-3.75,8.03Z" fill="#fff" stroke-width="0"/><path d="m864.66,79.22c-1.18,1.51-2.19,2.8-3.46,4.43-2.41-3.91-4.59-7.44-7-11.33.78-1.08,1.65-2.27,2.65-3.66,4.2,2.46,5.48,6.61,7.8,10.55Z" fill="#fff" stroke-width="0"/><path d="m864.02,59.21c2.65,3.33,4.97,6.25,7.35,9.25-.74,1.45-1.36,2.67-2.09,4.12-2.74-3.12-5.27-6.02-8.21-9.37.76-1.03,1.69-2.29,2.95-4Z" fill="#fff" stroke-width="0"/><path d="m840.35,68.43c1.13.74,2.32,1.45,3.43,2.28.77.57,1.42,1.31,2.5,2.34-1.66,1.49-3.16,2.84-4.82,4.33-2.09-1.5-3.97-2.86-6.23-4.49,1.76-1.53,3.22-2.81,5.12-4.46Z" fill="#fff" stroke-width="0"/><path d="m857.53,59.66c-2.3-1.65-4.36-3.12-6.68-4.77.74-1.57,1.45-3.05,2.22-4.68,3.27,1,5.15,3.44,7.62,5.64-1.17,1.41-2.13,2.57-3.16,3.81Z" fill="#fff" stroke-width="0"/><path d="m835.22,91.66c2.05,2.16,3.3,4.51,3.22,7.3-.03.96-.67,2.56-1.34,2.73-4.13,1.09-8.14.79-11.49-2.5,1.19.47,2.36,1.22,3.59,1.35,1.44.16,3.22.23,4.34-.47,1.56-.98,1.44-2.86.73-4.58-.55-1.32-1.8-2.84.95-3.83Z" fill="#fff" stroke-width="0"/><path d="m827.43,79.53c1.47-1.27,2.61-2.26,3.98-3.44,2.26,1.4,4.38,2.71,6.91,4.27-1.38,1.53-2.47,2.73-3.75,4.16-2.28-1.6-4.43-3.1-7.13-4.99Z" fill="#fff" stroke-width="0"/><path d="m850.14,68.81c-2.14-1.63-3.99-3.03-6.19-4.71,1.08-1.43,2.03-2.7,3.18-4.23,2.26,1.59,4.27,3.01,6.53,4.61-1.26,1.56-2.28,2.81-3.51,4.33Z" fill="#fff" stroke-width="0"/><path d="m843.23,57.83c-1.41,1.66-2.28,2.69-3.31,3.9-2.7-.97-5.27-1.89-7.84-2.81,1.63-4.12,3.04-3.88,6.26-2.9,1.43.44,2.82,1.04,4.89,1.81Z" fill="#fff" stroke-width="0"/><path d="m854.03,42.07c3.48.8,6.48,2.55,9.32,4.57,1.52,1.08,1.44,1.21.1,3.63-2.89-1.73-5.75-3.49-8.68-5.16-1.23-.71-1.47-1.55-.74-3.04Z" fill="#fff" stroke-width="0"/><path d="m873.16,61.8c-1.95-2.38-3.85-4.39-5.33-6.68-.5-.77.06-2.23.14-3.59,4.71,2.69,6.35,5.85,5.19,10.26Z" fill="#fff" stroke-width="0"/><path d="m815.98,104.04q4.15-2.25,9.2,1.86c-3.76,2.71-3.72,1.5-9.2-1.86Z" fill="#fff" stroke-width="0"/><path d="m866.89,84.57c1.03,3.42.99,6.36-2.63,8.21-2.33-3.56-1.98-4.72,2.63-8.21Z" fill="#fff" stroke-width="0"/><path d="m863.15,105c-.59-4.16,2.04-5.8,4.62-7.6,1.36,3.31.84,4.17-4.62,7.6Z" fill="#fff" stroke-width="0"/><path d="m856.89,94.97c1.06,4.9-2.53,5.1-4.77,6.99-.51-3.88,2.83-4.37,4.77-6.99Z" fill="#fff" stroke-width="0"/><path d="m822.05,88.95c1.32.61,2.65,1.23,4.46,2.07-1.08,1.14-1.86,1.95-3.1,3.26-.91-1.79-1.59-3.12-2.27-4.46l.91-.87Z" fill="#fff" stroke-width="0"/><path d="m852.74,108.75c-.38,4.01-3.56,3.25-5.75,4.29-.16-.28-.32-.55-.47-.83,2.07-1.16,4.15-2.31,6.22-3.47Z" fill="#fff" stroke-width="0"/><path d="m833.38,109.42c3.01-1.12,6.03-2.23,9.04-3.35-2.48,2.5-5.79,2.86-9.04,3.35Z" fill="#fff" stroke-width="0"/><path d="m874.22,79.99c-2.37-1.35-3.02-2.78-.32-4.94.13,2.02.23,3.48.32,4.94Z" fill="#fff" stroke-width="0"/><path d="m831.62,98.11c-1.45-.32-2.27-.5-3.54-.78,1.55-1.71,2.53-2.51,3.54.78Z" fill="#fff" stroke-width="0"/><path d="m766.96,71.74c-1.88,3.72-4.55,7.06-7,10.47-1.45,2.02-3.17,3.86-5.03,6.1,12.1-1.44,18.95-10.59,20.42-21.53.82-6.09-.69-11.78-4.05-16.92-.88-1.34-1.64-3.13-4.4-2.26.23,1.4.4,2.85.73,4.27,1.56,6.69,2.56,13.46-.67,19.86Z" stroke-width="0"/><path d="m915.57,58.59c3.89.98,7.81.97,11.44-1.62-1.76-2.42-4.41-2.69-6.8-3.11-4.68-.83-8.3-3.29-11.61-6.49-6.43-6.2-10.86-13.3-10.63-22.62.05-1.96.07-3.94-.05-5.89-.11-1.84.18-3.88-1.8-5.5-2.73,3.15-3.55,6.64-3.71,10.32-.41,9.09,2.31,17.13,7.77,24.46,3.99,5.35,9.04,8.86,15.4,10.46Z" stroke-width="0"/><path d="m920.18,43.21c2.32.71,4.8,1.83,8.17-.48-1.64-1.26-2.67-2.34-3.92-2.96-6.31-3.14-10.58-7.76-11.94-14.91-.48-2.53-1.66-4.92-2.58-7.53-4.26,3.84-4.24,12.34-.25,18.5,2.51,3.87,6.26,6.07,10.52,7.38Z" stroke-width="0"/><path d="m760.88,65.44c.59-4.42-1.68-8.44-5.48-9.57-.93,3.65,1.3,7.55-1,11.1-2.04,3.15-3.86,6.46-5.97,10.03,6.53-.42,11.6-5.17,12.45-11.57Z" stroke-width="0"/><path d="m945.17,184.12c-3.79-3.71-6.38-8.17-9.2-12.53-1.39-2.15-1.86-4.27-1.72-6.76.22-3.99-.3-7.89-2.17-11.52-2.26-4.39-4.2-8.98-6.75-13.19-8.25-13.66-16.74-27.18-25.09-40.78-.64-1.05-1.41-2.31-1.36-3.44.16-3.27-1.5-5.66-3.27-8.05-2.1-2.84-4.3-5.6-6.42-8.42-1.45-1.94-2.44-3.97-2.58-6.55-.63-10.95-5.17-20.14-13.07-27.68-18.75-17.88-50.09-17.26-67.68,1.77-12.17,13.16-15.96,28.69-8.99,45.52,6.97,16.84,20.49,25.45,38.51,26.77,3.19.23,5.68.93,7.81,3.2.68.72,1.46,1.34,2.17,2.02,2.48,2.39,5.27,4.15,8.64,5.14,1.66.49,3.24,1.67,4.56,2.86,6.61,5.96,13,12.16,19.7,18.01,7.66,6.69,15.52,13.16,23.39,19.61,4.41,3.62,9.29,6.41,14.95,7.69,1.16.26,2.3.99,3.25,1.74,3.21,2.54,6.07,5.63,9.56,7.66,2.56,1.49,4.74,3.16,6.19,5.54,2.71,4.46,5.51,8.95,7.47,13.75,5.01,12.26,1.69,25.12-8.3,33.86-5.95,5.21-12.7,8.74-20.48,10.61-7.3,1.75-14.62,1.9-21.9,1-10.22-1.26-20.36-3.12-30.52-4.79-.92-.15-2.14-.49-2.58-1.17,4.28,5.98,4.74,8.83,9.7,20.21-.26-.58-.33-1.26-.55-2.14,4.12.2,7.92.29,11.69.59,16.14,1.32,31.87-.74,47.3-5.49,5.05-1.55,9.9-3.61,13.76-7.27,4.4-4.18,8.81-8.42,12.64-13.11,6.08-7.44,7.87-16.53,6.17-25.61-2.04-10.93-6.67-21.07-14.82-29.05Zm-71.28-109.07c.13,2.02.23,3.48.32,4.94-2.37-1.35-3.02-2.78-.32-4.94Zm-5.93-23.51c4.71,2.69,6.35,5.85,5.19,10.26-1.95-2.38-3.85-4.39-5.33-6.68-.5-.77.06-2.23.14-3.59Zm-44.69,34.91c-1.55-.49-3.15-.38-4.23,1.02-1.19,1.55-.78,3.22.1,4.75.61,1.07,1.42,2.02,2.48,3.5-1.08.11-2.03.5-2.36.19-3.05-2.78-5.45-5.95-5.72-10.23,6.52-3.82,12.14-3.74,17.04,1.77-.51,1.51-1.44,1.42-2.65.87-1.52-.7-3.07-1.38-4.66-1.88Zm3.23,4.57c-1.08,1.14-1.86,1.95-3.1,3.26-.91-1.79-1.59-3.12-2.27-4.46.3-.29.61-.58.91-.87,1.32.61,2.65,1.23,4.46,2.07Zm5.11,7.1c-1.45-.32-2.27-.5-3.54-.78,1.55-1.71,2.53-2.51,3.54.78Zm-4.2-18.58c1.47-1.27,2.61-2.26,3.98-3.44,2.26,1.4,4.38,2.71,6.91,4.27-1.38,1.53-2.47,2.73-3.75,4.16-2.28-1.6-4.43-3.1-7.13-4.99Zm7.8-6.65c1.76-1.53,3.22-2.81,5.12-4.46,1.13.74,2.32,1.45,3.43,2.28.77.57,1.42,1.31,2.5,2.34-1.66,1.49-3.16,2.84-4.82,4.33-2.09-1.5-3.97-2.86-6.23-4.49Zm-3.15-13.97c1.63-4.12,3.04-3.88,6.26-2.9,1.43.44,2.82,1.04,4.89,1.81-1.41,1.66-2.28,2.69-3.31,3.9-2.7-.97-5.27-1.89-7.84-2.81Zm11.86,5.19c1.08-1.43,2.03-2.7,3.18-4.23,2.26,1.59,4.27,3.01,6.53,4.61-1.26,1.56-2.28,2.81-3.52,4.33-2.14-1.63-3.99-3.03-6.19-4.71Zm5.65,13.22c3.41,2.97,4.99,6.71,6.29,10.55.68,2.01-.12,2.84-3.92,5.04-2-3.79-4.01-7.59-6.33-12,1.23-1.11,2.55-2.3,3.97-3.58Zm4.61-5c.78-1.08,1.65-2.27,2.65-3.66,4.2,2.46,5.48,6.61,7.8,10.55-1.18,1.51-2.19,2.8-3.46,4.43-2.41-3.91-4.59-7.44-7-11.33Zm12.68,12.25c1.03,3.42.99,6.36-2.62,8.21-2.34-3.56-1.98-4.73,2.62-8.21Zm.88,12.82c1.36,3.31.84,4.17-4.62,7.6-.59-4.16,2.04-5.8,4.62-7.6Zm-6.7-34.18c.76-1.03,1.69-2.29,2.95-4,2.65,3.33,4.97,6.25,7.35,9.25-.74,1.45-1.36,2.67-2.09,4.12-2.74-3.12-5.27-6.02-8.21-9.37Zm-7.04-21.14c3.48.8,6.48,2.55,9.32,4.57,1.52,1.08,1.44,1.21.1,3.63-2.89-1.73-5.75-3.49-8.68-5.16-1.23-.71-1.47-1.55-.74-3.04Zm-.96,8.14c3.27,1,5.15,3.44,7.62,5.64-1.17,1.41-2.13,2.57-3.16,3.81-2.3-1.65-4.36-3.12-6.68-4.77.74-1.57,1.45-3.05,2.22-4.68Zm-47.32,8.19c7.85-13.17,24.9-20.88,40.05-18.48q3.05.48,4.07,3.52c-2.09.3-4.15.6-6.2.9-.06.35-.12.71-.18,1.06,1.91,1,3.82,2,6.04,3.16-.82,1.46-1.56,2.76-2.31,4.09-4.26-1.18-8.23-2.28-11.33-3.13-2.66.18-4.53.27-6.4.43-2.66.23-5.34.4-7.96.87-.72.13-1.27,1.25-1.89,1.91.7.6,1.33,1.58,2.11,1.72,1.9.33,3.87.27,6.2.39-1.58,2.54-3.66,3.22-6.13,3.41-4.61.35-8.83,1.91-12.5,4.73-1.5,1.15-3.24,2.32-3.12,5.07,1.07-.3,1.93-.6,2.81-.77.76-.14,1.73-.44,2.3-.12,3.63,2,7.08,1.09,9.9-1.19,4.56-3.69,8.83-2.33,13.76-.16-2.68,2.96-4.92,5.39-9.31,4.32-3.72-.9-7.59-.63-11.29.61-7.49,2.52-11.43,8.99-10.31,16.81.14.99.1,2.01.12,3.01-5.33-10.97-4.6-21.78,1.57-32.14Zm1.39,37.43c-1.1-1.61-1.93-3.41-2.88-5.12,0-.01,0-.02-.02-.03.38-1.27.87-2.51,1.06-3.81,1.39-9.48,8.5-14.62,18.45-12.92-1.22,2.08-3.12,3.18-5.06,3.28-4.76.25-7.69,3.02-10.63,6.98,1.99,4.47,4.11,9.22,6.2,13.92-3.26.92-5.25.42-7.12-2.3Zm8.84,8.21q4.15-2.25,9.2,1.86c-3.76,2.71-3.72,1.5-9.2-1.86Zm9.63-4.86c1.19.47,2.36,1.22,3.59,1.35,1.44.16,3.22.23,4.34-.47,1.56-.98,1.44-2.86.73-4.58-.55-1.32-1.8-2.84.95-3.83,2.05,2.16,3.3,4.51,3.22,7.3-.03.96-.67,2.56-1.34,2.73-4.13,1.09-8.14.79-11.49-2.5Zm7.77,10.24c3.01-1.12,6.03-2.23,9.04-3.35-2.48,2.5-5.79,2.86-9.04,3.35Zm8.76-9.47c-1.2-3.67-2.4-7.35-3.8-11.64.94-.83,2.25-2.01,4.05-3.61,1.25,2.54,2.63,4.79,3.5,7.23,1.8,5.02,1.28,5.89-3.75,8.03Zm4.84,13.09c-.16-.28-.32-.55-.47-.83,2.07-1.16,4.15-2.31,6.22-3.47-.38,4.01-3.56,3.25-5.75,4.29Zm5.13-11.09c-.51-3.88,2.83-4.37,4.77-6.99,1.06,4.9-2.53,5.1-4.77,6.99Zm7.37,22.84c3.4-1.02,6.87-1.35,9.51-4.27-3.73-1.91-7.2.53-11.26.16,3.13-1.6,5.79-2.96,9.01-4.61-2.96-1.65-5.4-.12-8.8-.54,1.9-.96,3-1.54,4.13-2.09,8.51-4.13,15.23-10.17,19.67-18.58.98-1.86,1.64-3.89,2.42-5.86.62-1.55,1.2-3.1,2.06-5.34,2.87,4.07,5.43,7.57,7.8,11.19.46.7.44,1.98.17,2.84-1.13,3.63-2.17,7.32-3.75,10.76-4.19,9.12-12.23,13.29-21.34,15.88-3.05.87-6.16,1.81-9.61.46Zm65.18,46.65c-4.99,1.73-10.05,1.81-14.66-1.19-2.82-1.83-5.46-3.97-8.05-6.12-4.35-3.6-8.6-7.32-12.88-11-1.7-1.46-3.37-2.95-5.2-4.55,1.66-.87,3-1.58,4.7-2.47-2.66-1.98-4.81.18-7.35.13-.92-.84-2.02-1.85-3.62-3.31,4.24-1.22,8.29-1.53,11.66-5.15-1.63.11-2.66.02-3.61.28-2.45.66-4.88,1.4-7.28,2.22-2.31.79-4.12.53-5.27-2.4,5-.94,9.6-2.74,13.78-5.59-6.1-.47-11.85,2.52-18,1.5,5.92-1.36,11.46-3.39,16.09-7.57-4.94,1.19-9.89,2.38-14.83,3.57-.13-.36-.26-.72-.4-1.07,5.72-2.2,11.68-4.06,16.13-8.42,4.32-4.23,8.28-8.82,10.88-14.74.68.6,1.17.87,1.44,1.28,7.62,11.54,15.39,22.98,22.74,34.68,3.51,5.59,6.43,11.58,9.23,17.57,2.26,4.82-.41,10.58-5.5,12.35Z" stroke-width="0"/></svg>